<svg width="29" height="25" viewBox="0 0 29 25" fill="none" xmlns="http://www.w3.org/2000/svg">
<path fill-rule="evenodd" clip-rule="evenodd" d="M1.21256 17.8918C2.84521 9.57797 3.66153 5.42104 6.73304 2.94327C6.89179 2.81521 7.05424 2.69128 7.2202 2.57163C10.4312 0.256644 14.9102 0.373929 23.8681 0.608501C25.9375 0.662689 26.9721 0.689784 27.5515 1.31284C27.5808 1.34442 27.6091 1.37691 27.6362 1.41026C28.1705 2.06815 27.9963 3.03124 27.648 4.95743L27.4141 6.2505C25.8235 15.0464 25.0281 19.4443 21.7313 21.9962C18.4344 24.5482 13.7076 24.4244 4.25403 24.1768L0.000195115 24.0655L1.21256 17.8918ZM22.4751 4.99869C22.5706 5.00976 22.6366 5.0649 22.6224 5.12186L21.1853 10.8991L21.1871 10.8993L19.8051 16.4551C19.5217 17.5942 17.7427 18.3381 15.8314 18.1167C15.7359 18.1056 15.6699 18.0505 15.684 17.9935L16.5315 14.5868L16.5294 14.5878L18.5014 6.6603C18.7848 5.52123 20.5638 4.7773 22.4751 4.99869ZM12.9438 5.72368C13.0394 5.73474 13.1053 5.78989 13.0912 5.84684L11.2218 13.362L10.2718 17.1801C9.9885 18.3191 8.20944 19.0631 6.29821 18.8417C6.20264 18.8306 6.13666 18.7755 6.15083 18.7185L8.02024 11.2034L8.97016 7.38528C9.25351 6.24621 11.0326 5.50228 12.9438 5.72368ZM12.8399 11.0438L13.0144 10.3107C13.2816 9.18879 14.885 8.47095 16.5958 8.70734C16.6814 8.71916 16.7399 8.77422 16.7265 8.83031L16.2131 10.9864L16.0387 11.7195C15.7715 12.8414 14.1681 13.5593 12.4572 13.3229C12.3717 13.3111 12.3132 13.256 12.3265 13.1999L12.8399 11.0438Z" fill="#1C2430"/>
</svg>
