<svg width="129" height="28" viewBox="0 0 129 28" fill="none" xmlns="http://www.w3.org/2000/svg">
<path d="M46.5547 14.1719H40.7109V12.1953H46.5547V14.1719ZM41.4375 19H38.9766V7.625H41.4375V19ZM48.3125 19H45.8594V7.625H48.3125V19ZM52.3044 19H49.6872L53.9137 7.625H55.57L55.3356 9.78125L52.3044 19ZM54.7809 9.78125L54.5231 7.625H56.1872L60.4372 19H57.82L54.7809 9.78125ZM57.7419 16.7344H51.7106V14.75H57.7419V16.7344ZM71.0931 19H68.64L64.2259 11.6797V19H61.7728V7.625H64.2259L68.6478 14.9531V7.625H71.0931V19ZM82.6237 19H80.1706V7.625H82.6237V19ZM86.0769 9.60938H76.7644V7.625H86.0769V9.60938ZM91.975 7.625C92.8552 7.625 93.6104 7.75781 94.2406 8.02344C94.876 8.28385 95.363 8.66927 95.7016 9.17969C96.0401 9.6849 96.2094 10.3125 96.2094 11.0625C96.2094 11.6875 96.1052 12.2188 95.8969 12.6562C95.6937 13.0938 95.4073 13.4557 95.0375 13.7422C94.6677 14.0286 94.2328 14.2604 93.7328 14.4375L92.9516 14.8828H89.3031L89.2875 12.8984H91.9672C92.363 12.8984 92.6937 12.8333 92.9594 12.7031C93.225 12.5677 93.4229 12.3776 93.5531 12.1328C93.6833 11.888 93.7484 11.599 93.7484 11.2656C93.7484 10.7552 93.6026 10.3516 93.3109 10.0547C93.0245 9.75781 92.5792 9.60938 91.975 9.60938H90.1469V19H87.6937V7.625H91.975ZM91.4281 13.9453L94.0219 13.9297L96.6234 18.8828V19H93.9906L91.4281 13.9453ZM99.9981 19H97.3809L101.607 7.625H103.264L103.029 9.78125L99.9981 19ZM102.475 9.78125L102.217 7.625H103.881L108.131 19H105.514L102.475 9.78125ZM105.436 16.7344H99.4044V14.75H105.436V16.7344ZM118.787 19H116.334L111.92 11.6797V19H109.467V7.625H111.92L116.342 14.9531V7.625H118.787V19Z" fill="#1C2430"/>
<path fill-rule="evenodd" clip-rule="evenodd" d="M1.26932 19.823C2.97857 11.0872 3.8332 6.71929 6.92903 4.13034C7.08904 3.99654 7.25271 3.8671 7.41985 3.74218C10.6538 1.32524 15.1343 1.47387 24.0952 1.77114C26.1653 1.83981 27.2004 1.87414 27.7744 2.53278C27.8035 2.56617 27.8314 2.6005 27.8582 2.63573C28.3869 3.33075 28.2038 4.34282 27.8378 6.36693L27.592 7.72575C25.9204 16.9688 25.0846 21.5904 21.7626 24.2561C18.4406 26.9217 13.7122 26.7649 4.25537 26.4512L8.12969e-05 26.31L1.26932 19.823ZM22.6615 6.38116C22.757 6.39334 22.8225 6.45172 22.8078 6.51154L21.3173 12.5803L21.319 12.5806L19.8857 18.4167C19.5918 19.6132 17.8049 20.3857 15.8946 20.142C15.7991 20.1299 15.7336 20.0715 15.7483 20.0117L16.6272 16.4331L16.6251 16.434L18.6704 8.10653C18.9643 6.90998 20.7511 6.13751 22.6615 6.38116ZM13.1181 7.08998C13.2136 7.10216 13.2791 7.16054 13.2644 7.22037L11.3256 15.1147L10.3403 19.1255C10.0465 20.322 8.2596 21.0945 6.34928 20.8508C6.25376 20.8386 6.18824 20.7803 6.20293 20.7204L8.14181 12.8261L9.12703 8.81535C9.42091 7.6188 11.2078 6.84633 13.1181 7.08998ZM12.9657 12.6854L13.147 11.9153C13.4245 10.7367 15.0354 9.99068 16.7451 10.249C16.8306 10.2619 16.8886 10.3201 16.8748 10.3791L16.3414 12.6441L16.1602 13.4143C15.8827 14.5928 14.2718 15.3389 12.5621 15.0806C12.4766 15.0677 12.4186 15.0094 12.4324 14.9505L12.9657 12.6854Z" fill="#1C2430"/>
</svg>
