<svg width="17" height="17" viewBox="0 0 17 17" fill="none" xmlns="http://www.w3.org/2000/svg">
<path d="M8.50009 0.339996C3.99339 0.339996 0.340088 3.9933 0.340088 8.5C0.340088 13.0067 3.99339 16.66 8.50009 16.66C13.0068 16.66 16.6601 13.0067 16.6601 8.5C16.6601 3.9933 13.0068 0.339996 8.50009 0.339996ZM6.50259 11.8821H4.85019V6.56455H6.50259V11.8821ZM5.66619 5.91175C5.14429 5.91175 4.80684 5.542 4.80684 5.0847C4.80684 4.61805 5.15449 4.25935 5.68744 4.25935C6.22039 4.25935 6.54679 4.61805 6.55699 5.0847C6.55699 5.542 6.22039 5.91175 5.66619 5.91175ZM12.5376 11.8821H10.8852V8.9352C10.8852 8.24925 10.6455 7.78344 10.0479 7.78344C9.59149 7.78344 9.32034 8.0988 9.20049 8.40225C9.15629 8.5102 9.14524 8.6632 9.14524 8.81535V11.8813H7.49199V8.2603C7.49199 7.59645 7.47074 7.0414 7.44864 6.5637H8.88429L8.95994 7.30235H8.99309C9.21069 6.95555 9.74364 6.44385 10.6353 6.44385C11.7224 6.44385 12.5376 7.1723 12.5376 8.73799V11.8821V11.8821Z" fill="#B7B7B7"/>
</svg>
