<svg width="205" height="58" viewBox="0 0 205 58" fill="none" xmlns="http://www.w3.org/2000/svg">
<path d="M87.118 37H84.877V28.738H74.347V37H72.106V18.991H74.347V26.74H84.877V18.991H87.118V37ZM106.745 37H104.18L102.587 33.004H93.6227L92.0297 37H89.4647L96.7007 18.991H99.4817L106.745 37ZM101.912 31.006L98.1047 21.313L94.2707 31.006H101.912ZM124.003 37H121.843L111.34 22.636V37H109.099V18.991H111.394L121.762 33.058V18.991H124.003V37ZM141.872 37H139.631V20.989H133.934V18.991H147.596V20.989H141.872V37ZM163.643 37H160.997L156.407 29.845H152.816V37H150.575V18.991H157.811C159.485 18.991 160.844 19.486 161.888 20.476C162.932 21.466 163.454 22.78 163.454 24.418C163.454 25.966 163.004 27.199 162.104 28.117C161.204 29.035 160.097 29.548 158.783 29.656L163.643 37ZM157.541 27.874C158.603 27.874 159.467 27.55 160.133 26.902C160.799 26.254 161.132 25.426 161.132 24.418C161.132 23.41 160.799 22.591 160.133 21.961C159.467 21.313 158.603 20.989 157.541 20.989H152.816V27.874H157.541ZM182.419 37H179.854L178.261 33.004H169.297L167.704 37H165.139L172.375 18.991H175.156L182.419 37ZM177.586 31.006L173.779 21.313L169.945 31.006H177.586ZM199.677 37H197.517L187.014 22.636V37H184.773V18.991H187.068L197.436 33.058V18.991H199.677V37Z" fill="#1F1F1F"/>
<path d="M5 7.82353C5 6.26414 6.26414 5 7.82353 5H29.5C42.4787 5 53 15.5213 53 28.5V28.5C53 41.4787 42.4787 52 29.5 52H7.82353C6.26414 52 5 50.7359 5 49.1765V7.82353Z" fill="#1F1F1F"/>
<path d="M36.312 38H31.736V29.04H21.656V38H17.112V16.656H21.656V25.04H31.736V16.656H36.312V38Z" fill="white"/>
</svg>
