<svg xmlns="http://www.w3.org/2000/svg" xmlns:xlink="http://www.w3.org/1999/xlink" xmlns:lucid="lucid" width="2030" height="824"><g transform="translate(-609 -2657)" lucid:page-tab-id="0_0"><path d="M600 2660h2040v820H600z" stroke="#000" stroke-opacity="0" fill="#ebebeb"/><path d="M1400.3 2800h333.33v41H1400.3z" fill="#fff"/><path d="M1400.3 2840h333.33v41H1400.3z" fill="#f4f4f4"/><path d="M1400.3 2880h333.33v41H1400.3z" fill="#fff"/><path d="M1400.3 2920h333.33v40H1400.3z" fill="#f4f4f4"/><path d="M1400.3 2760h333.33v40H1400.3z" fill="#f4f9ff"/><path d="M1400.3 2766c0-3.3 2.68-6 6-6h321.33c3.3 0 6 2.7 6 6v188c0 3.3-2.7 6-6 6H1406.3c-3.32 0-6-2.7-6-6zM1400.3 2800h333.33" stroke="#5e5e5e" fill="none"/><use xlink:href="#a" transform="matrix(1,0,0,1,1410.2939552743608,2760) translate(116.33111111111114 27.60222222222222)"/><use xlink:href="#b" transform="matrix(1,0,0,1,1405.2939552743608,2802.5) translate(16 25.10222222222222)"/><use xlink:href="#c" transform="matrix(1,0,0,1,1405.2939552743608,2802.5) translate(146.9244444444444 25.10222222222222)"/><use xlink:href="#d" transform="matrix(1,0,0,1,1405.2939552743608,2842.5) translate(16 25.10222222222222)"/><use xlink:href="#e" transform="matrix(1,0,0,1,1405.2939552743608,2842.5) translate(150.39555555555546 25.10222222222222)"/><use xlink:href="#f" transform="matrix(1,0,0,1,1405.2939552743608,2882.5) translate(16 25.10222222222222)"/><use xlink:href="#g" transform="matrix(1,0,0,1,1405.2939552743608,2882.5) translate(150.63999999999996 25.10222222222222)"/><use xlink:href="#h" transform="matrix(1,0,0,1,1405.2939552743608,2922.5) translate(16 25.10222222222222)"/><use xlink:href="#i" transform="matrix(1,0,0,1,1405.2939552743608,2922.5) translate(148.46444444444433 25.10222222222222)"/><use xlink:href="#j" transform="matrix(1,0,0,1,1405.2939552743608,2922.5) translate(191.63333333333318 25.10222222222222)"/><use xlink:href="#k" transform="matrix(1,0,0,1,1405.2939552743608,2922.5) translate(228.29999999999984 25.10222222222222)"/><use xlink:href="#l" transform="matrix(1,0,0,1,1405.2939552743608,2922.5) translate(269.68444444444424 25.10222222222222)"/><path d="M1594.94 3046.96c0 15.45-12.53 27.98-27.98 27.98-15.45 0-27.98-12.53-27.98-27.98 0-15.45 12.53-27.98 27.98-27.98 15.45 0 27.98 12.53 27.98 27.98z" stroke="#5e5e5e" fill="#f4f9ff"/><use xlink:href="#m" transform="matrix(1,0,0,1,1538.9805609374155,3018.9788510469284) translate(20.338333333333335 33.53333333333333)"/><path d="M1566.96 3017.98V2961" stroke="#5e5e5e" fill="none"/><path d="M1567.46 3018.52l-.5-.04-.5.03v-.54h1zM1567.46 2961h-1v-.5h1z" fill="#5e5e5e"/><path d="M1574.26 2970.32h129.42v48.66h-129.42z" fill="#fff" fill-opacity="0"/><use xlink:href="#n" transform="matrix(1,0,0,1,1579.2604869394204,2975.3168841476113) translate(8 22.48888888888888)"/><use xlink:href="#o" transform="matrix(1,0,0,1,1579.2604869394204,2975.3168841476113) translate(90.01111111111106 22.48888888888888)"/><path d="M820 3127.4c0-3.3 2.7-6 6-6h158.32c3.3 0 6 2.7 6 6v36.67c0 3.32-2.7 6-6 6H826c-3.3 0-6-2.68-6-6z" stroke="#5e5e5e" fill="#f4f9ff"/><use xlink:href="#p" transform="matrix(1,0,0,1,820,3121.4122913699916) translate(49.39833333333333 29.54333333333333)"/><path d="M1537.98 3046.96H911.16c-3.32 0-6 2.7-6 6v67.45" stroke="#5e5e5e" fill="none"/><path d="M1538.48 3046.95l.03.5h-.53v-1h.55zM905.66 3120.9h-1v-.5h1z" fill="#5e5e5e"/><path d="M1060 3161.4h354.02v41H1060z" fill="#fff"/><path d="M1060 3201.4h354.02v40H1060z" fill="#e5e5e5" fill-opacity=".4"/><path d="M1060 3121.4h354.02v40H1060z" fill="#f4f9ff"/><path d="M1060 3127.4c0-3.3 2.7-6 6-6h342.02c3.3 0 6 2.7 6 6v108c0 3.33-2.7 6-6 6H1066c-3.3 0-6-2.67-6-6zM1060 3161.4h354.02" stroke="#5e5e5e" fill="none"/><use xlink:href="#q" transform="matrix(1,0,0,1,1070,3121.4122913699916) translate(147.63333333333335 27.60222222222222)"/><use xlink:href="#r" transform="matrix(1,0,0,1,1065,3163.9122913699916) translate(16 25.10222222222222)"/><use xlink:href="#s" transform="matrix(1,0,0,1,1065,3163.9122913699916) translate(100.99333333333328 25.10222222222222)"/><use xlink:href="#t" transform="matrix(1,0,0,1,1065,3163.9122913699916) translate(201.23999999999987 25.10222222222222)"/><use xlink:href="#u" transform="matrix(1,0,0,1,1065,3203.9122913699916) translate(16 25.10222222222222)"/><use xlink:href="#v" transform="matrix(1,0,0,1,1065,3203.9122913699916) translate(197.64666666666662 25.10222222222222)"/><use xlink:href="#w" transform="matrix(1,0,0,1,1065,3203.9122913699916) translate(251.83999999999992 25.10222222222222)"/><use xlink:href="#x" transform="matrix(1,0,0,1,1065,3203.9122913699916) translate(291.7088888888888 25.10222222222222)"/><path d="M1537.98 3046.96H1243c-3.3 0-6 2.7-6 6v67.45" stroke="#5e5e5e" fill="none"/><path d="M1538.48 3046.95l.03.5h-.53v-1h.55zM1237.5 3120.9h-1v-.5h1z" fill="#5e5e5e"/><path d="M1483.7 3161.4h425.98v41H1483.7z" fill="#fff"/><path d="M1483.7 3201.4h425.98v77H1483.7z" fill="#f4f4f4"/><path d="M1483.7 3277.4h425.98v40H1483.7z" fill="#fff"/><path d="M1483.7 3121.4h425.98v40H1483.7z" fill="#f4f9ff"/><path d="M1483.7 3127.4c0-3.3 2.7-6 6-6h413.98c3.32 0 6 2.7 6 6v184c0 3.33-2.68 6-6 6H1489.7c-3.3 0-6-2.67-6-6zM1483.7 3161.4h425.98" stroke="#5e5e5e" fill="none"/><use xlink:href="#y" transform="matrix(1,0,0,1,1493.701980215237,3121.4122913699916) translate(165.35000000000002 27.60222222222222)"/><use xlink:href="#z" transform="matrix(1,0,0,1,1488.701980215237,3163.9122913699916) translate(16 25.10222222222222)"/><use xlink:href="#A" transform="matrix(1,0,0,1,1488.701980215237,3163.9122913699916) translate(100.99333333333328 25.10222222222222)"/><use xlink:href="#B" transform="matrix(1,0,0,1,1488.701980215237,3163.9122913699916) translate(220.35555555555538 25.10222222222222)"/><use xlink:href="#C" transform="matrix(1,0,0,1,1488.701980215237,3203.9122913699916) translate(8 25.238222222222227)"/><use xlink:href="#D" transform="matrix(1,0,0,1,1488.701980215237,3203.9122913699916) translate(46.47555555555554 25.238222222222227)"/><use xlink:href="#E" transform="matrix(1,0,0,1,1488.701980215237,3203.9122913699916) translate(217.831111111111 25.238222222222227)"/><use xlink:href="#F" transform="matrix(1,0,0,1,1488.701980215237,3203.9122913699916) translate(243.10666666666654 25.238222222222227)"/><use xlink:href="#G" transform="matrix(1,0,0,1,1488.701980215237,3203.9122913699916) translate(302.48222222222205 25.238222222222227)"/><use xlink:href="#H" transform="matrix(1,0,0,1,1488.701980215237,3203.9122913699916) translate(347.60666666666646 25.238222222222227)"/><use xlink:href="#I" transform="matrix(1,0,0,1,1488.701980215237,3203.9122913699916) translate(8 60.96622222222221)"/><use xlink:href="#J" transform="matrix(1,0,0,1,1488.701980215237,3203.9122913699916) translate(216.11999999999995 60.96622222222221)"/><use xlink:href="#K" transform="matrix(1,0,0,1,1488.701980215237,3203.9122913699916) translate(263.19999999999993 60.96622222222221)"/><use xlink:href="#L" transform="matrix(1,0,0,1,1488.701980215237,3203.9122913699916) translate(304.511111111111 60.96622222222221)"/><use xlink:href="#M" transform="matrix(1,0,0,1,1488.701980215237,3203.9122913699916) translate(351.37111111111096 60.96622222222221)"/><use xlink:href="#N" transform="matrix(1,0,0,1,1488.701980215237,3279.9122913699916) translate(16 25.10222222222222)"/><use xlink:href="#v" transform="matrix(1,0,0,1,1488.701980215237,3279.9122913699916) translate(216.56666666666663 25.10222222222222)"/><use xlink:href="#w" transform="matrix(1,0,0,1,1488.701980215237,3279.9122913699916) translate(270.75999999999993 25.10222222222222)"/><use xlink:href="#x" transform="matrix(1,0,0,1,1488.701980215237,3279.9122913699916) translate(310.6288888888888 25.10222222222222)"/><path d="M1595.94 3046.96h94.75c3.3 0 6 2.7 6 6v67.45" stroke="#5e5e5e" fill="none"/><path d="M1595.96 3047.46h-.56l.04-.5-.03-.5h.56zM1697.2 3120.9h-1v-.5h1z" fill="#5e5e5e"/><path d="M1979.37 3161.4h419.24v41h-419.23z" fill="#fff"/><path d="M1979.37 3201.4h419.24v77h-419.23z" fill="#f4f4f4"/><path d="M1979.37 3277.4h419.24v40h-419.23z" fill="#fff"/><path d="M1979.37 3121.4h419.24v40h-419.23z" fill="#f4f9ff"/><path d="M1979.37 3127.4c0-3.3 2.68-6 6-6h407.24c3.33 0 6 2.7 6 6v184c0 3.33-2.67 6-6 6h-407.23c-3.32 0-6-2.67-6-6zM1979.37 3161.4h419.24" stroke="#5e5e5e" fill="none"/><g><use xlink:href="#O" transform="matrix(1,0,0,1,1989.3662317047776,3121.4122913699916) translate(162.8755555555556 27.60222222222222)"/></g><g><use xlink:href="#z" transform="matrix(1,0,0,1,1984.3662317047776,3163.9122913699916) translate(16 25.10222222222222)"/><use xlink:href="#P" transform="matrix(1,0,0,1,1984.3662317047776,3163.9122913699916) translate(100.99333333333328 25.10222222222222)"/><use xlink:href="#B" transform="matrix(1,0,0,1,1984.3662317047776,3163.9122913699916) translate(236.5133333333332 25.10222222222222)"/></g><g><use xlink:href="#Q" transform="matrix(1,0,0,1,1984.3662317047776,3203.9122913699916) translate(16 25.238222222222227)"/><use xlink:href="#R" transform="matrix(1,0,0,1,1984.3662317047776,3203.9122913699916) translate(54.47555555555554 25.238222222222227)"/><use xlink:href="#S" transform="matrix(1,0,0,1,1984.3662317047776,3203.9122913699916) translate(238.44444444444434 25.238222222222227)"/><use xlink:href="#T" transform="matrix(1,0,0,1,1984.3662317047776,3203.9122913699916) translate(355.5822222222221 25.238222222222227)"/><use xlink:href="#U" transform="matrix(1,0,0,1,1984.3662317047776,3203.9122913699916) translate(16 60.96622222222221)"/><use xlink:href="#V" transform="matrix(1,0,0,1,1984.3662317047776,3203.9122913699916) translate(236.7333333333333 60.96622222222221)"/><use xlink:href="#W" transform="matrix(1,0,0,1,1984.3662317047776,3203.9122913699916) translate(276.60222222222217 60.96622222222221)"/><use xlink:href="#X" transform="matrix(1,0,0,1,1984.3662317047776,3203.9122913699916) translate(331.33333333333326 60.96622222222221)"/></g><g><use xlink:href="#Y" transform="matrix(1,0,0,1,1984.3662317047776,3279.9122913699916) translate(16 25.10222222222222)"/><use xlink:href="#v" transform="matrix(1,0,0,1,1984.3662317047776,3279.9122913699916) translate(235.48666666666665 25.10222222222222)"/><use xlink:href="#w" transform="matrix(1,0,0,1,1984.3662317047776,3279.9122913699916) translate(289.67999999999995 25.10222222222222)"/><use xlink:href="#x" transform="matrix(1,0,0,1,1984.3662317047776,3279.9122913699916) translate(329.5488888888888 25.10222222222222)"/></g><path d="M1595.94 3046.96H2183c3.3 0 6 2.7 6 6v67.45" stroke="#5e5e5e" fill="none"/><path d="M1595.96 3047.46h-.56l.04-.5-.03-.5h.56zM2189.5 3120.9h-1v-.5h1z" fill="#5e5e5e"/><path d="M905.6 3074.94h55.96v41.36H905.6z" fill="#fff" fill-opacity="0"/><g><use xlink:href="#Z" transform="matrix(1,0,0,1,910.6,3079.9401129811436) translate(8 22.48888888888888)"/></g><path d="M1236.8 3074.94h55.96v41.36h-55.96z" fill="#fff" fill-opacity="0"/><g><use xlink:href="#aa" transform="matrix(1,0,0,1,1241.8,3079.9401129811436) translate(8 22.48888888888888)"/></g><path d="M1697.55 3074.94h55.96v41.36h-55.95z" fill="#fff" fill-opacity="0"/><g><use xlink:href="#ab" transform="matrix(1,0,0,1,1702.550642418139,3079.9401129811436) translate(8 22.48888888888888)"/></g><path d="M2188.8 3074.94h55.96v41.36h-55.96z" fill="#fff" fill-opacity="0"/><g><use xlink:href="#ac" transform="matrix(1,0,0,1,2193.8,3079.9401129811436) translate(8 22.48888888888888)"/></g><defs><path fill="#333" d="M602-452c1 124-93 215-224 215H208V0H66v-667h312c132-4 224 89 224 215zm-145 0c1-55-43-91-98-90H208v180h151c55 1 99-35 98-90" id="ad"/><path fill="#333" d="M58-419c115-117 422-113 422 107V0H353v-50c-35 41-86 62-153 62-87 0-168-65-168-160 0-99 77-155 168-156 69 0 120 20 153 59v-65c0-53-49-82-106-81-53 0-100 19-141 57zm102 274c0 90 159 88 193 29v-60c-35-60-193-61-193 31" id="ae"/><path fill="#333" d="M46 189L65 75c38 17 93 6 107-27l18-41L-6-483h136l126 336 126-336h137L292 79c-30 96-126 131-246 110" id="af"/><path fill="#333" d="M648-495c92 0 143 51 142 146V0H662v-305c0-51-24-77-72-77-44-1-81 30-100 56V0H362v-305c0-51-24-77-72-77-43 0-82 30-100 57V0H63v-483h127v63c23-34 97-78 158-75 70 0 115 29 134 88 27-44 95-89 166-88" id="ag"/><path fill="#333" d="M304-89c47 0 106-22 129-48l56 82c-49 45-115 67-199 67C143 15 32-94 32-242c0-140 109-253 250-253 155 0 254 125 242 294H165c8 64 64 114 139 112zm97-198c-5-58-49-107-119-107-69 0-112 50-119 107h238" id="ah"/><path fill="#333" d="M359-495c101-1 157 56 157 154V0H389v-292c0-60-30-90-89-90-46 0-83 19-110 57V0H63v-483h127v63c42-50 98-75 169-75" id="ai"/><path fill="#333" d="M216-154c-7 50 58 68 88 39l27 96c-23 21-59 31-106 31-88 1-137-46-137-132v-252H8v-111h80v-132h128v132h98v111h-98v218" id="aj"/><g id="a"><use transform="matrix(0.024444444444444432,0,0,0.024444444444444432,0,0)" xlink:href="#ad"/><use transform="matrix(0.024444444444444432,0,0,0.024444444444444432,14.764444444444436,0)" xlink:href="#ae"/><use transform="matrix(0.024444444444444432,0,0,0.024444444444444432,28.037777777777762,0)" xlink:href="#af"/><use transform="matrix(0.024444444444444432,0,0,0.024444444444444432,40.577777777777754,0)" xlink:href="#ag"/><use transform="matrix(0.024444444444444432,0,0,0.024444444444444432,61.404444444444415,0)" xlink:href="#ah"/><use transform="matrix(0.024444444444444432,0,0,0.024444444444444432,74.92222222222217,0)" xlink:href="#ai"/><use transform="matrix(0.024444444444444432,0,0,0.024444444444444432,89.0755555555555,0)" xlink:href="#aj"/></g><path fill="#333" d="M555-466c0 110-75 186-173 194L562 0h-98L294-265H161V0H78v-667h268c121-2 209 81 209 201zm-86 0c1-74-57-127-133-127H161v255h175c76 2 134-54 133-128" id="ak"/><path fill="#333" d="M126-217c5 92 75 170 174 167 60 0 110-20 149-61l36 49c-49 49-113 74-192 74C150 15 47-97 47-242c0-135 104-253 238-253 149 0 240 122 232 278H126zm317-55c-2-85-64-161-159-161-93 0-154 78-158 161h317" id="al"/><path fill="#333" d="M125-242c-2 104 65 189 167 187 51 0 92-21 123-63l50 46c-43 56-102 84-177 84C147 16 47-101 47-242s100-257 241-253c75 0 134 28 177 84l-50 46c-31-42-72-63-123-63-102-2-169 82-167 186" id="am"/><path fill="#333" d="M163-602c1 27-24 51-51 50-26 1-51-23-50-50-1-27 24-52 50-51 27-1 52 24 51 51zM150 0H75v-483h75V0" id="an"/><path fill="#333" d="M528-242c0 143-80 254-215 254-68 0-122-28-163-85v257H75v-667h75v72c32-45 90-84 163-84 135 0 215 110 215 253zM150-133c22 40 84 78 144 78 98 1 157-86 155-187 2-102-57-187-155-186-60-1-121 39-144 77v218" id="ao"/><path fill="#333" d="M150-413c33-39 102-83 172-82 103 0 154 52 154 156V0h-75v-316c1-78-35-111-108-112-60 0-118 38-143 75V0H75v-483h75v70" id="ap"/><path fill="#333" d="M165-117c-10 62 68 80 100 42l22 56c-22 21-52 31-90 31-71 0-107-41-107-113v-316H10v-66h80v-132h75v132h98v66h-98v300" id="aq"/><g id="b"><use transform="matrix(0.024444444444444432,0,0,0.024444444444444432,0,0)" xlink:href="#ak"/><use transform="matrix(0.024444444444444432,0,0,0.024444444444444432,14.128888888888882,0)" xlink:href="#al"/><use transform="matrix(0.024444444444444432,0,0,0.024444444444444432,27.891111111111098,0)" xlink:href="#am"/><use transform="matrix(0.024444444444444432,0,0,0.024444444444444432,39.991111111111096,0)" xlink:href="#an"/><use transform="matrix(0.024444444444444432,0,0,0.024444444444444432,45.491111111111096,0)" xlink:href="#ao"/><use transform="matrix(0.024444444444444432,0,0,0.024444444444444432,59.473333333333315,0)" xlink:href="#an"/><use transform="matrix(0.024444444444444432,0,0,0.024444444444444432,64.97333333333331,0)" xlink:href="#al"/><use transform="matrix(0.024444444444444432,0,0,0.024444444444444432,78.73555555555554,0)" xlink:href="#ap"/><use transform="matrix(0.024444444444444432,0,0,0.024444444444444432,92.20444444444442,0)" xlink:href="#aq"/></g><path fill="#333" d="M286 0h-82L3-483h81L245-87l160-396h82" id="ar"/><path fill="#333" d="M265-495c108 0 187 52 187 163V0h-75v-55C287 61 48 21 48-148c0-171 243-206 329-93v-87c1-66-54-103-122-102-57 0-106 22-148 67l-35-52c51-53 116-80 193-80zM125-147c-6 127 202 134 252 45v-91c-29-40-73-60-133-60-65-2-120 42-119 106" id="as"/><path fill="#333" d="M311-416c-66-17-137 35-161 74V0H75v-483h75v78c45-59 98-88 161-88v77" id="at"/><path fill="#333" d="M150-413c33-39 102-83 173-82 103 0 154 51 154 154V0h-75v-318c1-78-35-109-109-110-59 0-117 39-143 75V0H75v-667h75v254" id="au"/><path fill="#333" d="M126-243c1 178 40 279 104 407l-45 35C-3-47-3-438 185-685l45 34c-64 131-102 228-104 408" id="av"/><path fill="#333" d="M261 0h-83v-557L71-444l-50-51 167-172h73V0" id="aw"/><path fill="#333" d="M538-208C538-75 434 14 301 12 198 12 120-24 66-95l51-55c46 59 107 88 184 88 85 3 155-61 154-143 2-87-66-146-153-144-60 0-111 21-154 63l-61-21v-360h408v74H170v232c40-40 92-60 156-60 118-1 212 89 212 213" id="ax"/><path fill="#333" d="M561-333c0 186-70 345-255 345C120 12 51-147 51-333s70-344 255-344 255 158 255 344zM306-603c-172 0-190 234-155 400 18 69 70 145 155 141 130-6 170-130 170-271 0-140-39-270-170-270" id="ay"/><path fill="#333" d="M122-243c-1-180-41-278-105-408l45-34c189 245 189 640 0 884l-45-35C81 35 121-65 122-243" id="az"/><g id="c"><use transform="matrix(0.024444444444444432,0,0,0.024444444444444432,0,0)" xlink:href="#ar"/><use transform="matrix(0.024444444444444432,0,0,0.024444444444444432,11.97777777777777,0)" xlink:href="#as"/><use transform="matrix(0.024444444444444432,0,0,0.024444444444444432,24.859999999999985,0)" xlink:href="#at"/><use transform="matrix(0.024444444444444432,0,0,0.024444444444444432,32.92666666666665,0)" xlink:href="#am"/><use transform="matrix(0.024444444444444432,0,0,0.024444444444444432,45.02666666666664,0)" xlink:href="#au"/><use transform="matrix(0.024444444444444432,0,0,0.024444444444444432,58.51999999999997,0)" xlink:href="#as"/><use transform="matrix(0.024444444444444432,0,0,0.024444444444444432,71.40222222222218,0)" xlink:href="#at"/><use transform="matrix(0.024444444444444432,0,0,0.024444444444444432,79.46888888888884,0)" xlink:href="#av"/><use transform="matrix(0.024444444444444432,0,0,0.024444444444444432,85.53111111111106,0)" xlink:href="#aw"/><use transform="matrix(0.024444444444444432,0,0,0.024444444444444432,93.81777777777772,0)" xlink:href="#ax"/><use transform="matrix(0.024444444444444432,0,0,0.024444444444444432,108.23999999999994,0)" xlink:href="#ay"/><use transform="matrix(0.024444444444444432,0,0,0.024444444444444432,123.19999999999993,0)" xlink:href="#az"/></g><path fill="#333" d="M649 0h-95l-59-148H163L104 0H9l268-667h103zM470-222L329-581 187-222h283" id="aA"/><path fill="#333" d="M436-405c26-44 93-91 162-90 90 0 135 49 135 146V0h-75v-328c0-67-30-100-89-100-53 0-106 40-128 74V0h-75v-328c0-67-30-100-89-100-53 1-104 40-127 75V0H75v-483h75v70c22-35 95-85 156-82 70-1 115 37 130 90" id="aB"/><path fill="#333" d="M525-242c0 140-97 254-239 254S47-102 47-242s97-253 239-253 239 113 239 253zm-400 0c-2 99 62 187 161 187s162-88 160-187c1-99-61-186-160-186s-163 88-161 186" id="aC"/><path fill="#333" d="M258-55c60 0 118-36 143-73v-355h75V0h-75v-68c-36 41-99 80-172 80C126 12 75-39 75-142v-341h75v318c0 78 34 109 108 110" id="aD"/><g id="d"><use transform="matrix(0.024444444444444432,0,0,0.024444444444444432,0,0)" xlink:href="#aA"/><use transform="matrix(0.024444444444444432,0,0,0.024444444444444432,16.084444444444436,0)" xlink:href="#aB"/><use transform="matrix(0.024444444444444432,0,0,0.024444444444444432,35.83555555555554,0)" xlink:href="#aC"/><use transform="matrix(0.024444444444444432,0,0,0.024444444444444432,49.81777777777775,0)" xlink:href="#aD"/><use transform="matrix(0.024444444444444432,0,0,0.024444444444444432,63.28666666666663,0)" xlink:href="#ap"/><use transform="matrix(0.024444444444444432,0,0,0.024444444444444432,76.75555555555552,0)" xlink:href="#aq"/></g><path fill="#333" d="M247-615c-67-1-81 59-76 132h98v66h-98V0H96v-417H16v-66h80c-10-115 37-194 140-194 41 0 75 12 102 37l-31 49c-18-16-38-24-60-24" id="aE"/><path fill="#333" d="M150 0H75v-667h75V0" id="aF"/><g id="e"><use transform="matrix(0.024444444444444432,0,0,0.024444444444444432,0,0)" xlink:href="#aE"/><use transform="matrix(0.024444444444444432,0,0,0.024444444444444432,6.917777777777774,0)" xlink:href="#aF"/><use transform="matrix(0.024444444444444432,0,0,0.024444444444444432,12.417777777777772,0)" xlink:href="#aC"/><use transform="matrix(0.024444444444444432,0,0,0.024444444444444432,26.399999999999988,0)" xlink:href="#as"/><use transform="matrix(0.024444444444444432,0,0,0.024444444444444432,39.2822222222222,0)" xlink:href="#aq"/><use transform="matrix(0.024444444444444432,0,0,0.024444444444444432,46.46888888888886,0)" xlink:href="#av"/><use transform="matrix(0.024444444444444432,0,0,0.024444444444444432,52.53111111111109,0)" xlink:href="#aw"/><use transform="matrix(0.024444444444444432,0,0,0.024444444444444432,60.81777777777775,0)" xlink:href="#ay"/><use transform="matrix(0.024444444444444432,0,0,0.024444444444444432,75.77777777777773,0)" xlink:href="#az"/></g><path fill="#333" d="M648-333C648-140 502 0 306 0H78v-667h228c196-6 342 143 342 334zm-86 0c1-149-101-264-256-260H161v519h145c152 4 258-112 256-259" id="aG"/><path fill="#333" d="M418-134c-2 95-84 149-190 146-82 0-147-25-195-76l39-54c30 36 95 70 159 69 63 1 114-27 114-83 0-81-123-76-193-100-53-18-107-54-106-124 2-87 83-142 180-139 73 0 132 23 179 70l-35 52c-34-41-82-61-144-61-79 0-151 82-76 122 95 51 267 31 268 178" id="aH"/><g id="f"><use transform="matrix(0.024444444444444432,0,0,0.024444444444444432,0,0)" xlink:href="#aG"/><use transform="matrix(0.024444444444444432,0,0,0.024444444444444432,17.111111111111104,0)" xlink:href="#al"/><use transform="matrix(0.024444444444444432,0,0,0.024444444444444432,30.873333333333324,0)" xlink:href="#aH"/><use transform="matrix(0.024444444444444432,0,0,0.024444444444444432,42.23999999999998,0)" xlink:href="#am"/><use transform="matrix(0.024444444444444432,0,0,0.024444444444444432,54.339999999999975,0)" xlink:href="#at"/><use transform="matrix(0.024444444444444432,0,0,0.024444444444444432,62.40666666666664,0)" xlink:href="#an"/><use transform="matrix(0.024444444444444432,0,0,0.024444444444444432,67.90666666666664,0)" xlink:href="#ao"/><use transform="matrix(0.024444444444444432,0,0,0.024444444444444432,81.88888888888886,0)" xlink:href="#aq"/><use transform="matrix(0.024444444444444432,0,0,0.024444444444444432,89.07555555555552,0)" xlink:href="#an"/><use transform="matrix(0.024444444444444432,0,0,0.024444444444444432,94.57555555555552,0)" xlink:href="#aC"/><use transform="matrix(0.024444444444444432,0,0,0.024444444444444432,108.55777777777774,0)" xlink:href="#ap"/></g><path fill="#333" d="M285-677c118-1 229 73 224 196 0 62-27 123-80 185S294-160 185-74h327V0H54v-66c122-98 176-138 272-234 55-60 91-95 98-181 3-78-64-122-139-122-77 0-137 28-181 84l-51-53c45-61 130-105 232-105" id="aI"/><g id="g"><use transform="matrix(0.024444444444444432,0,0,0.024444444444444432,0,0)" xlink:href="#ar"/><use transform="matrix(0.024444444444444432,0,0,0.024444444444444432,11.97777777777777,0)" xlink:href="#as"/><use transform="matrix(0.024444444444444432,0,0,0.024444444444444432,24.859999999999985,0)" xlink:href="#at"/><use transform="matrix(0.024444444444444432,0,0,0.024444444444444432,32.92666666666665,0)" xlink:href="#am"/><use transform="matrix(0.024444444444444432,0,0,0.024444444444444432,45.02666666666664,0)" xlink:href="#au"/><use transform="matrix(0.024444444444444432,0,0,0.024444444444444432,58.51999999999997,0)" xlink:href="#as"/><use transform="matrix(0.024444444444444432,0,0,0.024444444444444432,71.40222222222218,0)" xlink:href="#at"/><use transform="matrix(0.024444444444444432,0,0,0.024444444444444432,79.46888888888884,0)" xlink:href="#av"/><use transform="matrix(0.024444444444444432,0,0,0.024444444444444432,85.53111111111106,0)" xlink:href="#aI"/><use transform="matrix(0.024444444444444432,0,0,0.024444444444444432,99.90444444444438,0)" xlink:href="#aI"/><use transform="matrix(0.024444444444444432,0,0,0.024444444444444432,114.2777777777777,0)" xlink:href="#ax"/><use transform="matrix(0.024444444444444432,0,0,0.024444444444444432,128.6999999999999,0)" xlink:href="#az"/></g><g id="h"><use transform="matrix(0.024444444444444432,0,0,0.024444444444444432,0,0)" xlink:href="#ak"/><use transform="matrix(0.024444444444444432,0,0,0.024444444444444432,14.128888888888882,0)" xlink:href="#al"/><use transform="matrix(0.024444444444444432,0,0,0.024444444444444432,27.891111111111098,0)" xlink:href="#ao"/><use transform="matrix(0.024444444444444432,0,0,0.024444444444444432,41.87333333333331,0)" xlink:href="#al"/><use transform="matrix(0.024444444444444432,0,0,0.024444444444444432,55.63555555555553,0)" xlink:href="#as"/><use transform="matrix(0.024444444444444432,0,0,0.024444444444444432,68.51777777777774,0)" xlink:href="#aq"/></g><path fill="#333" d="M54-631c-4-58 99-61 91 0l-27 219H81C63-549 54-622 54-631" id="aJ"/><path fill="#333" d="M630 0h-80L161-532V0H78v-667h85l384 521v-521h83V0" id="aK"/><path fill="#333" d="M113-100c74 2 76 106 40 160-15 27-35 50-59 67L57 96c28-17 60-56 65-93-34 10-63-16-62-49-1-28 25-55 53-54" id="aL"/><g id="i"><use transform="matrix(0.024444444444444432,0,0,0.024444444444444432,0,0)" xlink:href="#av"/><use transform="matrix(0.024444444444444432,0,0,0.024444444444444432,6.0622222222222195,0)" xlink:href="#aJ"/><use transform="matrix(0.024444444444444432,0,0,0.024444444444444432,10.926666666666662,0)" xlink:href="#aK"/><use transform="matrix(0.024444444444444432,0,0,0.024444444444444432,28.23333333333332,0)" xlink:href="#aJ"/><use transform="matrix(0.024444444444444432,0,0,0.024444444444444432,31.239999999999984,0)" xlink:href="#aL"/></g><g id="j"><use transform="matrix(0.024444444444444432,0,0,0.024444444444444432,0,0)" xlink:href="#aJ"/><use transform="matrix(0.024444444444444432,0,0,0.024444444444444432,4.864444444444442,0)" xlink:href="#aG"/><use transform="matrix(0.024444444444444432,0,0,0.024444444444444432,21.7311111111111,0)" xlink:href="#aJ"/><use transform="matrix(0.024444444444444432,0,0,0.024444444444444432,24.737777777777765,0)" xlink:href="#aL"/></g><path fill="#333" d="M678 0h-90L441-538 294 0h-90L14-667h92l148 556 153-556h69l153 556 147-556h92" id="aM"/><g id="k"><use transform="matrix(0.024444444444444432,0,0,0.024444444444444432,0,0)" xlink:href="#aJ"/><use transform="matrix(0.024444444444444432,0,0,0.024444444444444432,4.864444444444442,0)" xlink:href="#aM"/><use transform="matrix(0.024444444444444432,0,0,0.024444444444444432,26.448888888888874,0)" xlink:href="#aJ"/><use transform="matrix(0.024444444444444432,0,0,0.024444444444444432,29.45555555555554,0)" xlink:href="#aL"/></g><path fill="#333" d="M731 0h-83v-549L421 0h-34L161-549V0H78v-667h119l207 502 208-502h119V0" id="aN"/><g id="l"><use transform="matrix(0.024444444444444432,0,0,0.024444444444444432,0,0)" xlink:href="#aJ"/><use transform="matrix(0.024444444444444432,0,0,0.024444444444444432,4.864444444444442,0)" xlink:href="#aN"/><use transform="matrix(0.024444444444444432,0,0,0.024444444444444432,24.639999999999986,0)" xlink:href="#aJ"/><use transform="matrix(0.024444444444444432,0,0,0.024444444444444432,29.50444444444443,0)" xlink:href="#az"/></g><path fill="#333" d="M47-241c0-142 81-255 215-254 67 0 121 28 163 85v-257h75V0h-75v-72c-41 56-96 84-163 84C127 12 47-98 47-241zm78 0c-2 102 57 187 155 186 61 1 121-37 145-76v-219c-24-39-84-78-145-78-98-1-157 86-155 187" id="aO"/><use transform="matrix(0.02666666666666666,0,0,0.02666666666666666,0,0)" xlink:href="#aO" id="m"/><g id="n"><use transform="matrix(0.024444444444444432,0,0,0.024444444444444432,0,0)" xlink:href="#ak"/><use transform="matrix(0.024444444444444432,0,0,0.024444444444444432,14.128888888888882,0)" xlink:href="#al"/><use transform="matrix(0.024444444444444432,0,0,0.024444444444444432,27.891111111111098,0)" xlink:href="#ao"/><use transform="matrix(0.024444444444444432,0,0,0.024444444444444432,41.87333333333331,0)" xlink:href="#al"/><use transform="matrix(0.024444444444444432,0,0,0.024444444444444432,55.63555555555553,0)" xlink:href="#as"/><use transform="matrix(0.024444444444444432,0,0,0.024444444444444432,68.51777777777774,0)" xlink:href="#aq"/></g><path fill="#333" d="M470-404H29v-53h441v53zm0 193H29v-52h441v52" id="aP"/><use transform="matrix(0.024444444444444432,0,0,0.024444444444444432,0,0)" xlink:href="#aP" id="o"/><path fill="#333" d="M663 0H526L208-435V0H66v-667h146l309 419v-419h142V0" id="aQ"/><path fill="#333" d="M325 0H188L-6-483h136l126 336 126-336h137" id="aR"/><path fill="#333" d="M344-371c-59-14-131 17-154 52V0H63v-483h127v66c30-39 89-77 154-78v124" id="aS"/><g id="p"><use transform="matrix(0.02666666666666666,0,0,0.02666666666666666,0,0)" xlink:href="#aQ"/><use transform="matrix(0.02666666666666666,0,0,0.02666666666666666,19.439999999999998,0)" xlink:href="#ah"/><use transform="matrix(0.02666666666666666,0,0,0.02666666666666666,34.18666666666666,0)" xlink:href="#aR"/><use transform="matrix(0.02666666666666666,0,0,0.02666666666666666,47.86666666666666,0)" xlink:href="#ah"/><use transform="matrix(0.02666666666666666,0,0,0.02666666666666666,62.61333333333332,0)" xlink:href="#aS"/></g><path fill="#333" d="M683-333C683-133 532 0 329 0H66v-667h263c202-4 354 134 354 334zm-145 0c1-123-81-212-209-209H208v417h121c123 4 210-90 209-208" id="aT"/><path fill="#333" d="M202-611c1 40-35 78-76 76-40 1-77-36-76-76-1-40 36-76 76-75 41-1 77 35 76 75zM190 0H63v-483h127V0" id="aU"/><path fill="#333" d="M190 0H63v-667h127V0" id="aV"/><g id="q"><use transform="matrix(0.024444444444444432,0,0,0.024444444444444432,0,0)" xlink:href="#aT"/><use transform="matrix(0.024444444444444432,0,0,0.024444444444444432,17.5511111111111,0)" xlink:href="#ae"/><use transform="matrix(0.024444444444444432,0,0,0.024444444444444432,30.824444444444428,0)" xlink:href="#aU"/><use transform="matrix(0.024444444444444432,0,0,0.024444444444444432,37.00888888888887,0)" xlink:href="#aV"/><use transform="matrix(0.024444444444444432,0,0,0.024444444444444432,43.193333333333314,0)" xlink:href="#af"/></g><path fill="#333" d="M161 0H78v-667h83V0" id="aW"/><g id="r"><use transform="matrix(0.024444444444444432,0,0,0.024444444444444432,0,0)" xlink:href="#aW"/><use transform="matrix(0.024444444444444432,0,0,0.024444444444444432,5.842222222222219,0)" xlink:href="#ap"/><use transform="matrix(0.024444444444444432,0,0,0.024444444444444432,19.311111111111103,0)" xlink:href="#aq"/><use transform="matrix(0.024444444444444432,0,0,0.024444444444444432,26.497777777777763,0)" xlink:href="#al"/><use transform="matrix(0.024444444444444432,0,0,0.024444444444444432,40.259999999999984,0)" xlink:href="#at"/><use transform="matrix(0.024444444444444432,0,0,0.024444444444444432,48.32666666666665,0)" xlink:href="#ar"/><use transform="matrix(0.024444444444444432,0,0,0.024444444444444432,60.304444444444414,0)" xlink:href="#as"/><use transform="matrix(0.024444444444444432,0,0,0.024444444444444432,73.18666666666662,0)" xlink:href="#aF"/></g><path fill="#333" d="M48 189l12-68c51 19 95-1 113-43l32-73L3-483h81L245-87l160-396h82L245 98c-32 80-103 113-197 91" id="aX"/><g id="s"><use transform="matrix(0.024444444444444432,0,0,0.024444444444444432,0,0)" xlink:href="#av"/><use transform="matrix(0.024444444444444432,0,0,0.024444444444444432,6.0622222222222195,0)" xlink:href="#aO"/><use transform="matrix(0.024444444444444432,0,0,0.024444444444444432,20.117777777777768,0)" xlink:href="#as"/><use transform="matrix(0.024444444444444432,0,0,0.024444444444444432,32.999999999999986,0)" xlink:href="#aX"/><use transform="matrix(0.024444444444444432,0,0,0.024444444444444432,44.97777777777776,0)" xlink:href="#aH"/><use transform="matrix(0.024444444444444432,0,0,0.024444444444444432,56.34444444444441,0)" xlink:href="#az"/></g><path fill="#333" d="M499-14c12 184-173 240-339 194-30-10-59-29-86-56l38-56c37 44 89 66 157 66 91-1 158-49 155-145v-69C393-35 334 6 262 6 128 6 47-102 47-244s81-251 215-251c66 0 120 28 162 85v-73h75v469zM125-244c-2 101 57 185 155 184 60 1 122-40 144-79v-211c-23-40-83-79-144-78-99-1-157 82-155 184" id="aY"/><g id="t"><use transform="matrix(0.024444444444444432,0,0,0.024444444444444432,0,0)" xlink:href="#an"/><use transform="matrix(0.024444444444444432,0,0,0.024444444444444432,5.499999999999997,0)" xlink:href="#ap"/><use transform="matrix(0.024444444444444432,0,0,0.024444444444444432,18.96888888888888,0)" xlink:href="#aq"/><use transform="matrix(0.024444444444444432,0,0,0.024444444444444432,26.15555555555554,0)" xlink:href="#al"/><use transform="matrix(0.024444444444444432,0,0,0.024444444444444432,39.91777777777776,0)" xlink:href="#aY"/><use transform="matrix(0.024444444444444432,0,0,0.024444444444444432,53.94888888888886,0)" xlink:href="#al"/><use transform="matrix(0.024444444444444432,0,0,0.024444444444444432,67.71111111111108,0)" xlink:href="#at"/><use transform="matrix(0.024444444444444432,0,0,0.024444444444444432,75.77777777777774,0)" xlink:href="#av"/><use transform="matrix(0.024444444444444432,0,0,0.024444444444444432,81.83999999999996,0)" xlink:href="#aI"/><use transform="matrix(0.024444444444444432,0,0,0.024444444444444432,96.21333333333328,0)" xlink:href="#az"/></g><path fill="#333" d="M515 0H78v-667h437v74H161v215h347v74H161v230h354V0" id="aZ"/><g id="u"><use transform="matrix(0.024444444444444432,0,0,0.024444444444444432,0,0)" xlink:href="#aZ"/><use transform="matrix(0.024444444444444432,0,0,0.024444444444444432,13.908888888888882,0)" xlink:href="#ap"/><use transform="matrix(0.024444444444444432,0,0,0.024444444444444432,27.377777777777762,0)" xlink:href="#aO"/><use transform="matrix(0.024444444444444432,0,0,0.024444444444444432,41.433333333333316,0)" xlink:href="#an"/><use transform="matrix(0.024444444444444432,0,0,0.024444444444444432,46.933333333333316,0)" xlink:href="#ap"/><use transform="matrix(0.024444444444444432,0,0,0.024444444444444432,60.4022222222222,0)" xlink:href="#aY"/></g><g id="v"><use transform="matrix(0.024444444444444432,0,0,0.024444444444444432,0,0)" xlink:href="#aO"/><use transform="matrix(0.024444444444444432,0,0,0.024444444444444432,14.055555555555548,0)" xlink:href="#as"/><use transform="matrix(0.024444444444444432,0,0,0.024444444444444432,26.937777777777764,0)" xlink:href="#aq"/><use transform="matrix(0.024444444444444432,0,0,0.024444444444444432,34.12444444444443,0)" xlink:href="#al"/></g><path fill="#333" d="M713-333c0 192-139 345-331 345C189 12 51-140 51-333s138-345 331-345c192 0 331 153 331 345zm-576 0c0 150 96 271 245 271 148 0 245-121 245-271 0-151-97-271-245-271-149 0-245 120-245 271" id="ba"/><g id="w"><use transform="matrix(0.024444444444444432,0,0,0.024444444444444432,0,0)" xlink:href="#ba"/><use transform="matrix(0.024444444444444432,0,0,0.024444444444444432,18.69999999999999,0)" xlink:href="#ak"/></g><g id="x"><use transform="matrix(0.024444444444444432,0,0,0.024444444444444432,0,0)" xlink:href="#ap"/><use transform="matrix(0.024444444444444432,0,0,0.024444444444444432,13.468888888888882,0)" xlink:href="#aD"/><use transform="matrix(0.024444444444444432,0,0,0.024444444444444432,26.937777777777764,0)" xlink:href="#aF"/><use transform="matrix(0.024444444444444432,0,0,0.024444444444444432,32.43777777777776,0)" xlink:href="#aF"/></g><path fill="#333" d="M727 0H576L459-458 343 0H192L1-667h159l117 482 127-482h111l126 482 116-482h160" id="bb"/><path fill="#333" d="M535 0H376L248-186l-58 62V0H63v-667h127v399l183-215h156L338-264" id="bc"/><g id="y"><use transform="matrix(0.024444444444444432,0,0,0.024444444444444432,0,0)" xlink:href="#bb"/><use transform="matrix(0.024444444444444432,0,0,0.024444444444444432,21.46222222222221,0)" xlink:href="#ah"/><use transform="matrix(0.024444444444444432,0,0,0.024444444444444432,34.97999999999998,0)" xlink:href="#ah"/><use transform="matrix(0.024444444444444432,0,0,0.024444444444444432,48.497777777777756,0)" xlink:href="#bc"/><use transform="matrix(0.024444444444444432,0,0,0.024444444444444432,61.575555555555525,0)" xlink:href="#aV"/><use transform="matrix(0.024444444444444432,0,0,0.024444444444444432,67.75999999999996,0)" xlink:href="#af"/></g><g id="z"><use transform="matrix(0.024444444444444432,0,0,0.024444444444444432,0,0)" xlink:href="#aW"/><use transform="matrix(0.024444444444444432,0,0,0.024444444444444432,5.842222222222219,0)" xlink:href="#ap"/><use transform="matrix(0.024444444444444432,0,0,0.024444444444444432,19.311111111111103,0)" xlink:href="#aq"/><use transform="matrix(0.024444444444444432,0,0,0.024444444444444432,26.497777777777763,0)" xlink:href="#al"/><use transform="matrix(0.024444444444444432,0,0,0.024444444444444432,40.259999999999984,0)" xlink:href="#at"/><use transform="matrix(0.024444444444444432,0,0,0.024444444444444432,48.32666666666665,0)" xlink:href="#ar"/><use transform="matrix(0.024444444444444432,0,0,0.024444444444444432,60.304444444444414,0)" xlink:href="#as"/><use transform="matrix(0.024444444444444432,0,0,0.024444444444444432,73.18666666666662,0)" xlink:href="#aF"/></g><path fill="#333" d="M568 0h-75L367-388 241 0h-75L12-483h78L208-98l127-385h64L526-98l118-385h78" id="bd"/><path fill="#333" d="M500 0h-96L230-217l-80 79V0H75v-667h75v441l254-257h95L285-264" id="be"/><g id="A"><use transform="matrix(0.024444444444444432,0,0,0.024444444444444432,0,0)" xlink:href="#av"/><use transform="matrix(0.024444444444444432,0,0,0.024444444444444432,6.0622222222222195,0)" xlink:href="#bd"/><use transform="matrix(0.024444444444444432,0,0,0.024444444444444432,24.00444444444443,0)" xlink:href="#al"/><use transform="matrix(0.024444444444444432,0,0,0.024444444444444432,37.766666666666644,0)" xlink:href="#al"/><use transform="matrix(0.024444444444444432,0,0,0.024444444444444432,51.528888888888865,0)" xlink:href="#be"/><use transform="matrix(0.024444444444444432,0,0,0.024444444444444432,64.09333333333329,0)" xlink:href="#aH"/><use transform="matrix(0.024444444444444432,0,0,0.024444444444444432,75.45999999999995,0)" xlink:href="#az"/></g><g id="B"><use transform="matrix(0.024444444444444432,0,0,0.024444444444444432,0,0)" xlink:href="#an"/><use transform="matrix(0.024444444444444432,0,0,0.024444444444444432,5.499999999999997,0)" xlink:href="#ap"/><use transform="matrix(0.024444444444444432,0,0,0.024444444444444432,18.96888888888888,0)" xlink:href="#aq"/><use transform="matrix(0.024444444444444432,0,0,0.024444444444444432,26.15555555555554,0)" xlink:href="#al"/><use transform="matrix(0.024444444444444432,0,0,0.024444444444444432,39.91777777777776,0)" xlink:href="#aY"/><use transform="matrix(0.024444444444444432,0,0,0.024444444444444432,53.94888888888886,0)" xlink:href="#al"/><use transform="matrix(0.024444444444444432,0,0,0.024444444444444432,67.71111111111108,0)" xlink:href="#at"/><use transform="matrix(0.024444444444444432,0,0,0.024444444444444432,75.77777777777774,0)" xlink:href="#av"/><use transform="matrix(0.024444444444444432,0,0,0.024444444444444432,81.83999999999996,0)" xlink:href="#aI"/><use transform="matrix(0.024444444444444432,0,0,0.024444444444444432,96.21333333333328,0)" xlink:href="#az"/></g><g id="C"><use transform="matrix(0.024444444444444432,0,0,0.024444444444444432,0,0)" xlink:href="#ba"/><use transform="matrix(0.024444444444444432,0,0,0.024444444444444432,18.69999999999999,0)" xlink:href="#ap"/></g><g id="D"><use transform="matrix(0.024444444444444432,0,0,0.024444444444444432,0,0)" xlink:href="#aO"/><use transform="matrix(0.024444444444444432,0,0,0.024444444444444432,14.055555555555548,0)" xlink:href="#as"/><use transform="matrix(0.024444444444444432,0,0,0.024444444444444432,26.937777777777764,0)" xlink:href="#aX"/></g><g id="E"><use transform="matrix(0.024444444444444432,0,0,0.024444444444444432,0,0)" xlink:href="#an"/><use transform="matrix(0.024444444444444432,0,0,0.024444444444444432,5.499999999999997,0)" xlink:href="#ap"/></g><g id="F"><use transform="matrix(0.024444444444444432,0,0,0.024444444444444432,0,0)" xlink:href="#av"/><use transform="matrix(0.024444444444444432,0,0,0.024444444444444432,6.0622222222222195,0)" xlink:href="#aJ"/><use transform="matrix(0.024444444444444432,0,0,0.024444444444444432,10.926666666666662,0)" xlink:href="#aN"/><use transform="matrix(0.024444444444444432,0,0,0.024444444444444432,30.702222222222208,0)" xlink:href="#aC"/><use transform="matrix(0.024444444444444432,0,0,0.024444444444444432,44.43999999999998,0)" xlink:href="#aJ"/><use transform="matrix(0.024444444444444432,0,0,0.024444444444444432,47.44666666666665,0)" xlink:href="#aL"/></g><path fill="#333" d="M326 0h-83v-593H32v-74h506v74H326V0" id="bf"/><g id="G"><use transform="matrix(0.024444444444444432,0,0,0.024444444444444432,0,0)" xlink:href="#aJ"/><use transform="matrix(0.024444444444444432,0,0,0.024444444444444432,4.864444444444442,0)" xlink:href="#bf"/><use transform="matrix(0.024444444444444432,0,0,0.024444444444444432,16.71999999999999,0)" xlink:href="#aD"/><use transform="matrix(0.024444444444444432,0,0,0.024444444444444432,30.188888888888872,0)" xlink:href="#aJ"/><use transform="matrix(0.024444444444444432,0,0,0.024444444444444432,33.19555555555554,0)" xlink:href="#aL"/></g><g id="H"><use transform="matrix(0.024444444444444432,0,0,0.024444444444444432,0,0)" xlink:href="#aJ"/><use transform="matrix(0.024444444444444432,0,0,0.024444444444444432,4.864444444444442,0)" xlink:href="#aM"/><use transform="matrix(0.024444444444444432,0,0,0.024444444444444432,25.4711111111111,0)" xlink:href="#al"/><use transform="matrix(0.024444444444444432,0,0,0.024444444444444432,39.159999999999975,0)" xlink:href="#aJ"/><use transform="matrix(0.024444444444444432,0,0,0.024444444444444432,42.16666666666664,0)" xlink:href="#aL"/></g><g id="J"><use transform="matrix(0.024444444444444432,0,0,0.024444444444444432,0,0)" xlink:href="#aJ"/><use transform="matrix(0.024444444444444432,0,0,0.024444444444444432,4.864444444444442,0)" xlink:href="#bf"/><use transform="matrix(0.024444444444444432,0,0,0.024444444444444432,18.797777777777767,0)" xlink:href="#au"/><use transform="matrix(0.024444444444444432,0,0,0.024444444444444432,32.144444444444424,0)" xlink:href="#aJ"/><use transform="matrix(0.024444444444444432,0,0,0.024444444444444432,35.15111111111109,0)" xlink:href="#aL"/></g><path fill="#333" d="M161 0H78v-667h437v74H161v215h347v74H161V0" id="bg"/><g id="K"><use transform="matrix(0.024444444444444432,0,0,0.024444444444444432,0,0)" xlink:href="#aJ"/><use transform="matrix(0.024444444444444432,0,0,0.024444444444444432,4.864444444444442,0)" xlink:href="#bg"/><use transform="matrix(0.024444444444444432,0,0,0.024444444444444432,18.30888888888888,0)" xlink:href="#at"/><use transform="matrix(0.024444444444444432,0,0,0.024444444444444432,26.375555555555543,0)" xlink:href="#aJ"/><use transform="matrix(0.024444444444444432,0,0,0.024444444444444432,29.382222222222207,0)" xlink:href="#aL"/></g><path fill="#333" d="M540-184C540-58 440 17 294 12 186 12 101-23 38-94l49-63c57 63 127 95 210 95 92 3 157-40 157-115 0-115-148-111-240-145-80-29-153-66-155-170-1-114 109-188 229-185 99 0 178 31 237 93l-50 61c-49-53-113-80-193-80-98 0-190 103-108 164 118 87 366 52 366 255" id="bh"/><g id="L"><use transform="matrix(0.024444444444444432,0,0,0.024444444444444432,0,0)" xlink:href="#aJ"/><use transform="matrix(0.024444444444444432,0,0,0.024444444444444432,4.864444444444442,0)" xlink:href="#bh"/><use transform="matrix(0.024444444444444432,0,0,0.024444444444444432,19.18888888888888,0)" xlink:href="#as"/><use transform="matrix(0.024444444444444432,0,0,0.024444444444444432,31.92444444444443,0)" xlink:href="#aJ"/><use transform="matrix(0.024444444444444432,0,0,0.024444444444444432,34.93111111111109,0)" xlink:href="#aL"/></g><g id="M"><use transform="matrix(0.024444444444444432,0,0,0.024444444444444432,0,0)" xlink:href="#aJ"/><use transform="matrix(0.024444444444444432,0,0,0.024444444444444432,4.864444444444442,0)" xlink:href="#bh"/><use transform="matrix(0.024444444444444432,0,0,0.024444444444444432,19.18888888888888,0)" xlink:href="#aD"/><use transform="matrix(0.024444444444444432,0,0,0.024444444444444432,32.65777777777776,0)" xlink:href="#aJ"/><use transform="matrix(0.024444444444444432,0,0,0.024444444444444432,37.522222222222204,0)" xlink:href="#az"/></g><g id="N"><use transform="matrix(0.024444444444444432,0,0,0.024444444444444432,0,0)" xlink:href="#aZ"/><use transform="matrix(0.024444444444444432,0,0,0.024444444444444432,13.908888888888882,0)" xlink:href="#ap"/><use transform="matrix(0.024444444444444432,0,0,0.024444444444444432,27.377777777777762,0)" xlink:href="#aO"/><use transform="matrix(0.024444444444444432,0,0,0.024444444444444432,41.433333333333316,0)" xlink:href="#an"/><use transform="matrix(0.024444444444444432,0,0,0.024444444444444432,46.933333333333316,0)" xlink:href="#ap"/><use transform="matrix(0.024444444444444432,0,0,0.024444444444444432,60.4022222222222,0)" xlink:href="#aY"/></g><path fill="#333" d="M789 0H646v-467L458 0h-62L208-467V0H66v-667h199l162 403 162-403h200V0" id="bi"/><path fill="#333" d="M543-242C545-99 435 12 287 12S30-99 32-242c-2-143 107-253 255-253s258 110 256 253zm-379 0c-1 76 47 143 123 141 76 2 125-65 124-141 1-75-48-140-124-140s-124 65-123 140" id="bj"/><path fill="#333" d="M360-495c101-1 157 54 157 152V0H390v-294c0-63-30-87-90-88-45 0-81 19-110 57V0H63v-667h127v247c33-39 97-76 170-75" id="bk"/><g id="O"><use transform="matrix(0.024444444444444432,0,0,0.024444444444444432,0,0)" xlink:href="#bi"/><use transform="matrix(0.024444444444444432,0,0,0.024444444444444432,20.899999999999988,0)" xlink:href="#bj"/><use transform="matrix(0.024444444444444432,0,0,0.024444444444444432,34.93111111111109,0)" xlink:href="#ai"/><use transform="matrix(0.024444444444444432,0,0,0.024444444444444432,49.084444444444415,0)" xlink:href="#aj"/><use transform="matrix(0.024444444444444432,0,0,0.024444444444444432,57.346666666666636,0)" xlink:href="#bk"/><use transform="matrix(0.024444444444444432,0,0,0.024444444444444432,71.52444444444441,0)" xlink:href="#aV"/><use transform="matrix(0.024444444444444432,0,0,0.024444444444444432,77.70888888888885,0)" xlink:href="#af"/></g><g id="P"><use transform="matrix(0.024444444444444432,0,0,0.024444444444444432,0,0)" xlink:href="#av"/><use transform="matrix(0.024444444444444432,0,0,0.024444444444444432,6.0622222222222195,0)" xlink:href="#aB"/><use transform="matrix(0.024444444444444432,0,0,0.024444444444444432,25.81333333333332,0)" xlink:href="#aC"/><use transform="matrix(0.024444444444444432,0,0,0.024444444444444432,39.79555555555554,0)" xlink:href="#ap"/><use transform="matrix(0.024444444444444432,0,0,0.024444444444444432,53.264444444444415,0)" xlink:href="#aq"/><use transform="matrix(0.024444444444444432,0,0,0.024444444444444432,60.45111111111108,0)" xlink:href="#au"/><use transform="matrix(0.024444444444444432,0,0,0.024444444444444432,73.94444444444441,0)" xlink:href="#aH"/><use transform="matrix(0.024444444444444432,0,0,0.024444444444444432,85.31111111111107,0)" xlink:href="#az"/></g><g id="Q"><use transform="matrix(0.024444444444444432,0,0,0.024444444444444432,0,0)" xlink:href="#ba"/><use transform="matrix(0.024444444444444432,0,0,0.024444444444444432,18.69999999999999,0)" xlink:href="#ap"/></g><g id="R"><use transform="matrix(0.024444444444444432,0,0,0.024444444444444432,0,0)" xlink:href="#aO"/><use transform="matrix(0.024444444444444432,0,0,0.024444444444444432,14.055555555555548,0)" xlink:href="#as"/><use transform="matrix(0.024444444444444432,0,0,0.024444444444444432,26.937777777777764,0)" xlink:href="#aX"/></g><path fill="#333" d="M170-435c1 30-25 56-55 55-30 1-56-25-55-55-1-30 25-56 55-55 30-1 56 25 55 55zm0 390c1 30-25 56-55 55-30 1-56-25-55-55-1-30 25-56 55-55 30-1 56 25 55 55" id="bl"/><g id="S"><use transform="matrix(0.024444444444444432,0,0,0.024444444444444432,0,0)" xlink:href="#am"/><use transform="matrix(0.024444444444444432,0,0,0.024444444444444432,12.099999999999994,0)" xlink:href="#aC"/><use transform="matrix(0.024444444444444432,0,0,0.024444444444444432,26.08222222222221,0)" xlink:href="#ap"/><use transform="matrix(0.024444444444444432,0,0,0.024444444444444432,39.55111111111109,0)" xlink:href="#aH"/><use transform="matrix(0.024444444444444432,0,0,0.024444444444444432,50.91777777777775,0)" xlink:href="#aq"/><use transform="matrix(0.024444444444444432,0,0,0.024444444444444432,58.10444444444441,0)" xlink:href="#at"/><use transform="matrix(0.024444444444444432,0,0,0.024444444444444432,66.17111111111107,0)" xlink:href="#as"/><use transform="matrix(0.024444444444444432,0,0,0.024444444444444432,79.05333333333328,0)" xlink:href="#an"/><use transform="matrix(0.024444444444444432,0,0,0.024444444444444432,84.55333333333328,0)" xlink:href="#ap"/><use transform="matrix(0.024444444444444432,0,0,0.024444444444444432,98.02222222222217,0)" xlink:href="#aq"/><use transform="matrix(0.024444444444444432,0,0,0.024444444444444432,105.20888888888884,0)" xlink:href="#bl"/></g><path fill="#333" d="M270-209H30v-66h240v66" id="bm"/><path fill="#333" d="M502-180C498-59 397 12 266 12 160 12 72-36 29-98l49-52c36 49 104 88 186 88 89 1 155-42 156-125 5-111-123-125-235-117v-76c102 9 224-7 224-109 0-74-71-115-149-114-67 0-126 27-176 81l-46-52c57-69 133-103 228-103 121-2 226 62 226 178 0 88-73 142-144 155 75 7 157 73 154 164" id="bn"/><g id="T"><use transform="matrix(0.024444444444444432,0,0,0.024444444444444432,0,0)" xlink:href="#aw"/><use transform="matrix(0.024444444444444432,0,0,0.024444444444444432,8.286666666666662,0)" xlink:href="#bm"/><use transform="matrix(0.024444444444444432,0,0,0.024444444444444432,15.619999999999989,0)" xlink:href="#bn"/><use transform="matrix(0.024444444444444432,0,0,0.024444444444444432,29.23555555555554,0)" xlink:href="#aw"/></g><g id="V"><use transform="matrix(0.024444444444444432,0,0,0.024444444444444432,0,0)" xlink:href="#ba"/><use transform="matrix(0.024444444444444432,0,0,0.024444444444444432,18.69999999999999,0)" xlink:href="#ak"/></g><path fill="#333" d="M471 0H78v-667h83v593h310V0" id="bo"/><g id="W"><use transform="matrix(0.024444444444444432,0,0,0.024444444444444432,0,0)" xlink:href="#aJ"/><use transform="matrix(0.024444444444444432,0,0,0.024444444444444432,4.864444444444442,0)" xlink:href="#bo"/><use transform="matrix(0.024444444444444432,0,0,0.024444444444444432,16.98888888888888,0)" xlink:href="#as"/><use transform="matrix(0.024444444444444432,0,0,0.024444444444444432,29.871111111111095,0)" xlink:href="#aH"/><use transform="matrix(0.024444444444444432,0,0,0.024444444444444432,41.23777777777776,0)" xlink:href="#aq"/></g><g id="X"><use transform="matrix(0.024444444444444432,0,0,0.024444444444444432,0,0)" xlink:href="#aO"/><use transform="matrix(0.024444444444444432,0,0,0.024444444444444432,14.055555555555548,0)" xlink:href="#as"/><use transform="matrix(0.024444444444444432,0,0,0.024444444444444432,26.937777777777764,0)" xlink:href="#aX"/><use transform="matrix(0.024444444444444432,0,0,0.024444444444444432,38.915555555555535,0)" xlink:href="#aJ"/></g><g id="Y"><use transform="matrix(0.024444444444444432,0,0,0.024444444444444432,0,0)" xlink:href="#aZ"/><use transform="matrix(0.024444444444444432,0,0,0.024444444444444432,13.908888888888882,0)" xlink:href="#ap"/><use transform="matrix(0.024444444444444432,0,0,0.024444444444444432,27.377777777777762,0)" xlink:href="#aO"/><use transform="matrix(0.024444444444444432,0,0,0.024444444444444432,41.433333333333316,0)" xlink:href="#an"/><use transform="matrix(0.024444444444444432,0,0,0.024444444444444432,46.933333333333316,0)" xlink:href="#ap"/><use transform="matrix(0.024444444444444432,0,0,0.024444444444444432,60.4022222222222,0)" xlink:href="#aY"/></g><g id="Z"><use transform="matrix(0.024444444444444432,0,0,0.024444444444444432,0,0)" xlink:href="#aJ"/><use transform="matrix(0.024444444444444432,0,0,0.024444444444444432,4.864444444444442,0)" xlink:href="#aK"/><use transform="matrix(0.024444444444444432,0,0,0.024444444444444432,22.1711111111111,0)" xlink:href="#aJ"/></g><g id="aa"><use transform="matrix(0.024444444444444432,0,0,0.024444444444444432,0,0)" xlink:href="#aJ"/><use transform="matrix(0.024444444444444432,0,0,0.024444444444444432,4.864444444444442,0)" xlink:href="#aG"/><use transform="matrix(0.024444444444444432,0,0,0.024444444444444432,21.7311111111111,0)" xlink:href="#aJ"/></g><g id="ab"><use transform="matrix(0.024444444444444432,0,0,0.024444444444444432,0,0)" xlink:href="#aJ"/><use transform="matrix(0.024444444444444432,0,0,0.024444444444444432,4.864444444444442,0)" xlink:href="#aM"/><use transform="matrix(0.024444444444444432,0,0,0.024444444444444432,26.448888888888874,0)" xlink:href="#aJ"/></g><g id="ac"><use transform="matrix(0.024444444444444432,0,0,0.024444444444444432,0,0)" xlink:href="#aJ"/><use transform="matrix(0.024444444444444432,0,0,0.024444444444444432,4.864444444444442,0)" xlink:href="#aN"/><use transform="matrix(0.024444444444444432,0,0,0.024444444444444432,24.639999999999986,0)" xlink:href="#aJ"/></g></defs></g></svg>