<svg xmlns="http://www.w3.org/2000/svg" xmlns:xlink="http://www.w3.org/1999/xlink" xmlns:lucid="lucid" width="2290" height="781"><g transform="translate(-635 -251)" lucid:page-tab-id="0_0"><path d="M767.58 579.82c17.62 0 31.9 20.4 31.9 45.57 0 25.15-14.28 45.56-31.9 45.56H671.9c-17.62 0-31.9-20.4-31.9-45.57 0-25.18 14.28-45.58 31.9-45.58z" stroke="#5e5e5e" fill="#f4f9ff"/><use xlink:href="#a" transform="matrix(1,0,0,1,645,584.8246376811593) translate(50.38444444444445 48.42638888888889)"/><path d="M1100 449.13c0-3.3 2.7-6 6-6h156c3.3 0 6 2.7 6 6v79.13c0 3.3-2.7 6-6 6h-156c-3.3 0-6-2.7-6-6z" stroke="#5e5e5e" fill="#f4f9ff"/><use xlink:href="#b" transform="matrix(1,0,0,1,1103,446.1289855072464) translate(48.550000000000004 35.86388888888889)"/><use xlink:href="#c" transform="matrix(1,0,0,1,1103,446.1289855072464) translate(44.73666666666667 65.63722222222222)"/><path d="M1597.38 286c0-3.3 2.7-6 6-6h156c3.3 0 6 2.7 6 6v80.87c0 3.3-2.7 6-6 6h-156c-3.3 0-6-2.7-6-6z" stroke="#5e5e5e" fill="#f4f9ff"/><use xlink:href="#d" transform="matrix(1,0,0,1,1600.3804347826087,283) translate(27.515555555555558 35.92638888888889)"/><use xlink:href="#e" transform="matrix(1,0,0,1,1600.3804347826087,283) translate(108.45111111111112 35.92638888888889)"/><use xlink:href="#f" transform="matrix(1,0,0,1,1600.3804347826087,283) translate(27.735555555555564 65.69972222222222)"/><path d="M1597.38 449.13c0-3.3 2.7-6 6-6h156c3.3 0 6 2.7 6 6v79.13c0 3.3-2.7 6-6 6h-156c-3.3 0-6-2.7-6-6z" stroke="#5e5e5e" fill="#f4f9ff"/><use xlink:href="#g" transform="matrix(1,0,0,1,1600.3804347826087,446.1289855072464) translate(34.67777777777778 35.86388888888889)"/><use xlink:href="#h" transform="matrix(1,0,0,1,1600.3804347826087,446.1289855072464) translate(93.75999999999999 35.86388888888889)"/><use xlink:href="#i" transform="matrix(1,0,0,1,1600.3804347826087,446.1289855072464) translate(54.050000000000004 65.63722222222222)"/><path d="M1597.38 590.78c0-3.3 2.7-6 6-6h156c3.3 0 6 2.7 6 6v111.3c0 3.32-2.7 6-6 6h-156c-3.3 0-6-2.68-6-6z" stroke="#5e5e5e" fill="#f4f9ff"/><use xlink:href="#j" transform="matrix(1,0,0,1,1600.3804347826087,587.7833333333334) translate(47.68222222222222 37.86388888888889)"/><use xlink:href="#k" transform="matrix(1,0,0,1,1600.3804347826087,587.7833333333334) translate(19.314444444444447 67.63722222222222)"/><use xlink:href="#l" transform="matrix(1,0,0,1,1600.3804347826087,587.7833333333334) translate(74.33888888888887 67.63722222222222)"/><use xlink:href="#m" transform="matrix(1,0,0,1,1600.3804347826087,587.7833333333334) translate(28.652222222222235 97.41055555555553)"/><path d="M931.37 560.64c2.65-2 6.95-2 9.6 0l81.53 61.15c2.66 1.98 2.66 5.2 0 7.2l-81.53 61.14c-2.65 2-6.95 2-9.6 0L849.84 629c-2.65-2-2.65-5.22 0-7.2z" stroke="#5e5e5e" fill="#f4f9ff"/><use xlink:href="#n" transform="matrix(1,0,0,1,850.0434782608695,562.0420289855072) translate(27.252777777777776 70.23888888888888)"/><use xlink:href="#o" transform="matrix(1,0,0,1,850.0434782608695,562.0420289855072) translate(115.375 70.23888888888888)"/><path d="M800.48 625.4h30.58" stroke="#5e5e5e" fill="none"/><path d="M800.5 625.9h-.55l.03-.5v-.5h.5z" fill="#5e5e5e"/><path d="M845.83 625.4l-14.27 4.63v-9.28z" stroke="#5e5e5e" fill="#5e5e5e"/><path d="M936.67 759.5l.77 2.83 1.96 1.97 2.84.77h20.88v1h-21l-3.23-.88-2.35-2.35-.88-3.22v-23h1zm0-55.22h-1v-11.7h1z" fill="#5e5e5e"/><path d="M936.67 692.08v.5h-1v-.53zM977.88 765.57l-14.26 4.63v-9.27z" fill="#5e5e5e"/><path d="M979.5 765.57l-16.38 5.32v-10.66zm-15.38 3.94l12.14-3.93-12.14-3.95z" fill="#5e5e5e"/><use xlink:href="#p" transform="matrix(1,0,0,1,923.1439130434783,704.2757409832029) translate(0 26.400000000000002)"/><path d="M980 726c0-3.3 2.7-6 6-6h156c3.3 0 6 2.7 6 6v79.13c0 3.3-2.7 6-6 6H986c-3.3 0-6-2.7-6-6z" stroke="#5e5e5e" fill="#f4f9ff"/><path d="M996.8 720v91.13M1131.2 720v91.13" stroke="#5e5e5e" fill="none"/><use xlink:href="#q" transform="matrix(1,0,0,1,1004,723) translate(19.458888888888893 54.60222222222222)"/><use xlink:href="#r" transform="matrix(1,0,0,1,1004,723) translate(73.09 54.60222222222222)"/><path d="M936.67 558.2h-1v-11.75h1zm146.45-69H942.24l-2.84.76-1.96 1.97-.77 2.83v19.33h-1v-19.47l.88-3.22 2.34-2.33 3.2-.88h141.02zM936.67 558.72l-1-.02v-.5h1zM1097.88 488.7l-14.26 4.63v-9.27z" fill="#5e5e5e"/><path d="M1099.5 488.7l-16.38 5.32v-10.65zm-15.38 3.94l12.14-3.95-12.14-3.95z" fill="#5e5e5e"/><use xlink:href="#s" transform="matrix(1,0,0,1,920.6639130434783,514.0859832405122) translate(0 26.400000000000002)"/><path d="M1323 433.04c0-3.3 2.7-6 6-6h156c3.3 0 6 2.7 6 6v111.3c0 3.32-2.7 6-6 6h-156c-3.3 0-6-2.68-6-6z" stroke="#5e5e5e" fill="#f4f9ff"/><use xlink:href="#t" transform="matrix(1,0,0,1,1326,430.0442028985508) translate(41.64444444444445 37.86388888888889)"/><use xlink:href="#u" transform="matrix(1,0,0,1,1326,430.0442028985508) translate(30.71777777777779 67.63722222222222)"/><use xlink:href="#v" transform="matrix(1,0,0,1,1326,430.0442028985508) translate(47.81666666666667 97.41055555555553)"/><path d="M1269 488.7h37.12" stroke="#5e5e5e" fill="none"/><path d="M1269 489.2h-.5v-1h.5z" fill="#5e5e5e"/><path d="M1320.88 488.7l-14.26 4.63v-9.27z" stroke="#5e5e5e" fill="#5e5e5e"/><path d="M980 846c0-3.3 2.7-6 6-6h156c3.3 0 6 2.7 6 6v79.13c0 3.3-2.7 6-6 6H986c-3.3 0-6-2.7-6-6z" stroke="#5e5e5e" fill="#f4f9ff"/><path d="M996.8 840v91.13M1131.2 840v91.13" stroke="#5e5e5e" fill="none"/><use xlink:href="#w" transform="matrix(1,0,0,1,1004,843) translate(27.378888888888895 54.60222222222222)"/><use xlink:href="#x" transform="matrix(1,0,0,1,1004,843) translate(73.65222222222222 54.60222222222222)"/><path d="M936.67 879.5l.77 2.83 1.96 1.97 2.84.77h20.88v1h-21l-3.23-.88-2.35-2.35-.88-3.22v-143h1zm0-175.22h-1v-11.7h1z" fill="#5e5e5e"/><path d="M936.67 692.08v.5h-1v-.53zM977.88 885.57l-14.26 4.63v-9.27z" fill="#5e5e5e"/><path d="M979.5 885.57l-16.38 5.32v-10.66zm-15.38 3.94l12.14-3.93-12.14-3.95z" fill="#5e5e5e"/><path d="M1149 765.57h29c3.3 0 6-2.7 6-6V551.14" stroke="#5e5e5e" fill="none"/><path d="M1149 766.07h-.5v-1h.5z" fill="#5e5e5e"/><path d="M1184 536.38l4.64 14.26h-9.28z" stroke="#5e5e5e" fill="#5e5e5e"/><path d="M1149 885.57h29c3.3 0 6-2.7 6-6V551.14" stroke="#5e5e5e" fill="none"/><path d="M1149 886.07h-.5v-1h.5z" fill="#5e5e5e"/><path d="M1184 536.38l4.64 14.26h-9.28z" stroke="#5e5e5e" fill="#5e5e5e"/><path d="M1492 488.7h88.5" stroke="#5e5e5e" fill="none"/><path d="M1492 489.2h-.5v-1h.5z" fill="#5e5e5e"/><path d="M1595.26 488.7l-14.26 4.63v-9.27z" stroke="#5e5e5e" fill="#5e5e5e"/><path d="M1865.88 449.13c0-3.3 2.7-6 6-6h156c3.3 0 6 2.7 6 6v79.13c0 3.3-2.7 6-6 6h-156c-3.3 0-6-2.7-6-6z" stroke="#5e5e5e" fill="#f4f9ff"/><use xlink:href="#y" transform="matrix(1,0,0,1,1868.8804347826087,446.1289855072464) translate(9.280000000000015 49.30138888888889)"/><use xlink:href="#z" transform="matrix(1,0,0,1,1868.8804347826087,446.1289855072464) translate(71.98000000000002 49.30138888888889)"/><path d="M2080 448.26c0-3.3 2.7-6 6-6h156c3.3 0 6 2.7 6 6v80.87c0 3.3-2.7 6-6 6h-156c-3.3 0-6-2.7-6-6z" stroke="#5e5e5e" fill="#f4f9ff"/><use xlink:href="#A" transform="matrix(1,0,0,1,2083,445.26086956521743) translate(52.803333333333335 35.92638888888889)"/><use xlink:href="#B" transform="matrix(1,0,0,1,2083,445.26086956521743) translate(21.51444444444445 65.69972222222222)"/><path d="M2301.5 449.13c0-3.3 2.7-6 6-6h156c3.3 0 6 2.7 6 6v79.13c0 3.3-2.7 6-6 6h-156c-3.3 0-6-2.7-6-6z" stroke="#5e5e5e" fill="#f4f9ff"/><use xlink:href="#C" transform="matrix(1,0,0,1,2304.5,446.1289855072464) translate(17.22444444444445 49.30138888888889)"/><path d="M1492 488.7h43.5c3.3 0 6-2.7 6-6V332.42c0-3.3 2.7-6 6-6h33" stroke="#5e5e5e" fill="none"/><path d="M1492 489.2h-.5v-1h.5z" fill="#5e5e5e"/><path d="M1595.26 326.43l-14.26 4.64v-9.27z" stroke="#5e5e5e" fill="#5e5e5e"/><path d="M1492 488.7h43.5c3.3 0 6 2.68 6 6v145.73c0 3.32 2.7 6 6 6h33" stroke="#5e5e5e" fill="none"/><path d="M1492 489.2h-.5v-1h.5z" fill="#5e5e5e"/><path d="M1595.26 646.43l-14.26 4.64v-9.27z" stroke="#5e5e5e" fill="#5e5e5e"/><path d="M1766.38 326.43h43.5c3.3 0 6 2.7 6 6V482.7c0 3.3 2.7 6 6 6H1849" stroke="#5e5e5e" fill="none"/><path d="M1766.4 326.93h-.52v-1h.5z" fill="#5e5e5e"/><path d="M1863.76 488.7l-14.26 4.63v-9.27z" stroke="#5e5e5e" fill="#5e5e5e"/><path d="M1766.38 488.7H1849" stroke="#5e5e5e" fill="none"/><path d="M1766.4 489.2h-.52v-1h.5z" fill="#5e5e5e"/><path d="M1863.76 488.7l-14.26 4.63v-9.27z" stroke="#5e5e5e" fill="#5e5e5e"/><path d="M1766.38 646.43h43.5c3.3 0 6-2.68 6-6V494.7c0-3.32 2.7-6 6-6H1849" stroke="#5e5e5e" fill="none"/><path d="M1766.4 646.93h-.52v-1h.5z" fill="#5e5e5e"/><path d="M1863.76 488.7l-14.26 4.63v-9.27z" stroke="#5e5e5e" fill="#5e5e5e"/><path d="M2034.88 488.7h28.24" stroke="#5e5e5e" fill="none"/><path d="M2034.9 489.2h-.52v-1h.5z" fill="#5e5e5e"/><path d="M2077.88 488.7l-14.26 4.63v-9.27z" stroke="#5e5e5e" fill="#5e5e5e"/><path d="M2249 488.7h35.62" stroke="#5e5e5e" fill="none"/><path d="M2249 489.2h-.5v-1h.5z" fill="#5e5e5e"/><path d="M2299.38 488.7l-14.26 4.63v-9.27z" stroke="#5e5e5e" fill="#5e5e5e"/><path d="M2892 442.26c15.46 0 28 20.4 28 45.57 0 25.16-12.54 45.56-28 45.56h-84c-15.46 0-28-20.4-28-45.57s12.54-45.57 28-45.57z" stroke="#5e5e5e" fill="#f4f9ff"/><use xlink:href="#D" transform="matrix(1,0,0,1,2785,447.2608695652174) translate(44.28333333333334 48.42638888888889)"/><path d="M2609.33 423.95c2.65-2 6.95-2 9.6 0l81.53 61.14c2.65 1.98 2.65 5.2 0 7.2l-81.53 61.14c-2.65 2-6.95 2-9.6 0l-81.53-61.15c-2.65-2-2.65-5.22 0-7.2z" stroke="#5e5e5e" fill="#f4f9ff"/><g><use xlink:href="#E" transform="matrix(1,0,0,1,2523,420.34637681159427) translate(39.708333333333336 60.498888888888885)"/><use xlink:href="#F" transform="matrix(1,0,0,1,2523,420.34637681159427) translate(38.85277777777778 90.27222222222221)"/></g><path d="M2470.5 488.7h38.52" stroke="#5e5e5e" fill="none"/><path d="M2470.5 489.2h-.5v-1h.5z" fill="#5e5e5e"/><path d="M2523.8 488.7l-14.28 4.63v-9.27z" stroke="#5e5e5e" fill="#5e5e5e"/><path d="M2614.63 994.07l-.87 3.22-2.34 2.33-3.22.87H725.67l-3.22-.87-2.34-2.34-.86-3.23V687.84h1v306.1l.77 2.83 1.97 1.96 2.84.77h1882.26l2.84-.77 1.96-1.96.77-2.84V607.25h1zm0-411.18h-1v-27.03h1z" fill="#5e5e5e"/><path d="M2614.63 555.38v.5h-1v-.52zM724.37 687.34h-9.27l4.64-14.27z" fill="#5e5e5e"/><path d="M725.06 687.84h-10.64l5.32-16.38zm-9.27-1h7.9l-3.96-12.15z" fill="#5e5e5e"/><g><use xlink:href="#G" transform="matrix(1,0,0,1,2598.6204349010327,582.8880865549027) translate(0 18.400000000000002)"/></g><path d="M2719.77 489.2h-16.4v-1h16.4zm43.36 0h-17.3v-1h17.3zM2703.37 489.2h-.43l-.17-1h.6zM2777.9 488.7l-14.27 4.63v-9.27z" fill="#5e5e5e"/><path d="M2779.5 488.7l-16.37 5.32v-10.65zm-15.37 3.94l12.15-3.95-12.15-3.95z" fill="#5e5e5e"/><g><use xlink:href="#H" transform="matrix(1,0,0,1,2719.7655916731187,476.5142030977219) translate(0 18.400000000000002)"/></g><defs><path fill="#028cff" d="M540-184C540-58 440 17 294 12 186 12 101-23 38-94l49-63c57 63 127 95 210 95 92 3 157-40 157-115 0-115-148-111-240-145-80-29-153-66-155-170-1-114 109-188 229-185 99 0 178 31 237 93l-50 61c-49-53-113-80-193-80-98 0-190 103-108 164 118 87 366 52 366 255" id="I"/><path fill="#028cff" d="M165-117c-10 62 68 80 100 42l22 56c-22 21-52 31-90 31-71 0-107-41-107-113v-316H10v-66h80v-132h75v132h98v66h-98v300" id="J"/><path fill="#028cff" d="M265-495c108 0 187 52 187 163V0h-75v-55C287 61 48 21 48-148c0-171 243-206 329-93v-87c1-66-54-103-122-102-57 0-106 22-148 67l-35-52c51-53 116-80 193-80zM125-147c-6 127 202 134 252 45v-91c-29-40-73-60-133-60-65-2-120 42-119 106" id="K"/><path fill="#028cff" d="M311-416c-66-17-137 35-161 74V0H75v-483h75v78c45-59 98-88 161-88v77" id="L"/><g id="a"><use transform="matrix(0.024444444444444442,0,0,0.024444444444444442,0,0)" xlink:href="#I"/><use transform="matrix(0.024444444444444442,0,0,0.024444444444444442,13.908888888888887,0)" xlink:href="#J"/><use transform="matrix(0.024444444444444442,0,0,0.024444444444444442,21.095555555555556,0)" xlink:href="#K"/><use transform="matrix(0.024444444444444442,0,0,0.024444444444444442,33.977777777777774,0)" xlink:href="#L"/><use transform="matrix(0.024444444444444442,0,0,0.024444444444444442,42.04444444444444,0)" xlink:href="#J"/></g><path fill="#028cff" d="M634 0h-83v-306H161V0H78v-667h83v287h390v-287h83V0" id="M"/><path fill="#028cff" d="M525-242c0 140-97 254-239 254S47-102 47-242s97-253 239-253 239 113 239 253zm-400 0c-2 99 62 187 161 187s162-88 160-187c1-99-61-186-160-186s-163 88-161 186" id="N"/><path fill="#028cff" d="M436-405c26-44 93-91 162-90 90 0 135 49 135 146V0h-75v-328c0-67-30-100-89-100-53 0-106 40-128 74V0h-75v-328c0-67-30-100-89-100-53 1-104 40-127 75V0H75v-483h75v70c22-35 95-85 156-82 70-1 115 37 130 90" id="O"/><path fill="#028cff" d="M126-217c5 92 75 170 174 167 60 0 110-20 149-61l36 49c-49 49-113 74-192 74C150 15 47-97 47-242c0-135 104-253 238-253 149 0 240 122 232 278H126zm317-55c-2-85-64-161-159-161-93 0-154 78-158 161h317" id="P"/><g id="b"><use transform="matrix(0.024444444444444442,0,0,0.024444444444444442,0,0)" xlink:href="#M"/><use transform="matrix(0.024444444444444442,0,0,0.024444444444444442,17.404444444444444,0)" xlink:href="#N"/><use transform="matrix(0.024444444444444442,0,0,0.024444444444444442,31.386666666666663,0)" xlink:href="#O"/><use transform="matrix(0.024444444444444442,0,0,0.024444444444444442,51.13777777777777,0)" xlink:href="#P"/></g><path fill="#028cff" d="M418-134c-2 95-84 149-190 146-82 0-147-25-195-76l39-54c30 36 95 70 159 69 63 1 114-27 114-83 0-81-123-76-193-100-53-18-107-54-106-124 2-87 83-142 180-139 73 0 132 23 179 70l-35 52c-34-41-82-61-144-61-79 0-151 82-76 122 95 51 267 31 268 178" id="Q"/><path fill="#028cff" d="M125-242c-2 104 65 189 167 187 51 0 92-21 123-63l50 46c-43 56-102 84-177 84C147 16 47-101 47-242s100-257 241-253c75 0 134 28 177 84l-50 46c-31-42-72-63-123-63-102-2-169 82-167 186" id="R"/><path fill="#028cff" d="M150-413c33-39 102-83 172-82 103 0 154 52 154 156V0h-75v-316c1-78-35-111-108-112-60 0-118 38-143 75V0H75v-483h75v70" id="S"/><g id="c"><use transform="matrix(0.024444444444444442,0,0,0.024444444444444442,0,0)" xlink:href="#Q"/><use transform="matrix(0.024444444444444442,0,0,0.024444444444444442,11.366666666666665,0)" xlink:href="#R"/><use transform="matrix(0.024444444444444442,0,0,0.024444444444444442,23.466666666666665,0)" xlink:href="#L"/><use transform="matrix(0.024444444444444442,0,0,0.024444444444444442,31.53333333333333,0)" xlink:href="#P"/><use transform="matrix(0.024444444444444442,0,0,0.024444444444444442,45.29555555555555,0)" xlink:href="#P"/><use transform="matrix(0.024444444444444442,0,0,0.024444444444444442,59.05777777777777,0)" xlink:href="#S"/></g><path fill="#028cff" d="M150-413c33-39 102-83 173-82 103 0 154 51 154 154V0h-75v-318c1-78-35-109-109-110-59 0-117 39-143 75V0H75v-667h75v254" id="T"/><g id="d"><use transform="matrix(0.024444444444444442,0,0,0.024444444444444442,0,0)" xlink:href="#I"/><use transform="matrix(0.024444444444444442,0,0,0.024444444444444442,14.324444444444444,0)" xlink:href="#P"/><use transform="matrix(0.024444444444444442,0,0,0.024444444444444442,28.086666666666662,0)" xlink:href="#K"/><use transform="matrix(0.024444444444444442,0,0,0.024444444444444442,40.968888888888884,0)" xlink:href="#L"/><use transform="matrix(0.024444444444444442,0,0,0.024444444444444442,49.03555555555555,0)" xlink:href="#R"/><use transform="matrix(0.024444444444444442,0,0,0.024444444444444442,61.13555555555555,0)" xlink:href="#T"/></g><path fill="#028cff" d="M294-428c-60 0-122 38-144 78v219c23 39 84 77 144 76 99 1 158-84 156-186 2-102-57-188-156-187zm234 187c0 143-80 253-215 253-67 0-122-28-163-84V0H75v-667h75v257c42-57 96-85 163-85 133-1 215 113 215 254" id="U"/><path fill="#028cff" d="M48 189l12-68c51 19 95-1 113-43l32-73L3-483h81L245-87l160-396h82L245 98c-32 80-103 113-197 91" id="V"/><g id="e"><use transform="matrix(0.024444444444444442,0,0,0.024444444444444442,0,0)" xlink:href="#U"/><use transform="matrix(0.024444444444444442,0,0,0.024444444444444442,14.055555555555554,0)" xlink:href="#V"/></g><path fill="#028cff" d="M258-55c60 0 118-36 143-73v-355h75V0h-75v-68c-36 41-99 80-172 80C126 12 75-39 75-142v-341h75v318c0 78 34 109 108 110" id="W"/><g id="f"><use transform="matrix(0.024444444444444442,0,0,0.024444444444444442,0,0)" xlink:href="#W"/><use transform="matrix(0.024444444444444442,0,0,0.024444444444444442,13.468888888888888,0)" xlink:href="#Q"/><use transform="matrix(0.024444444444444442,0,0,0.024444444444444442,24.83555555555555,0)" xlink:href="#P"/><use transform="matrix(0.024444444444444442,0,0,0.024444444444444442,38.59777777777777,0)" xlink:href="#L"/><use transform="matrix(0.024444444444444442,0,0,0.024444444444444442,46.66444444444444,0)" xlink:href="#S"/><use transform="matrix(0.024444444444444442,0,0,0.024444444444444442,60.133333333333326,0)" xlink:href="#K"/><use transform="matrix(0.024444444444444442,0,0,0.024444444444444442,73.01555555555555,0)" xlink:href="#O"/><use transform="matrix(0.024444444444444442,0,0,0.024444444444444442,92.76666666666665,0)" xlink:href="#P"/></g><g id="g"><use transform="matrix(0.024444444444444442,0,0,0.024444444444444442,0,0)" xlink:href="#I"/><use transform="matrix(0.024444444444444442,0,0,0.024444444444444442,14.324444444444444,0)" xlink:href="#R"/><use transform="matrix(0.024444444444444442,0,0,0.024444444444444442,26.424444444444443,0)" xlink:href="#K"/><use transform="matrix(0.024444444444444442,0,0,0.024444444444444442,39.306666666666665,0)" xlink:href="#S"/></g><path fill="#028cff" d="M382-678c192 0 335 153 331 345 0 99-31 181-92 246l64 68-58 50-65-69C510-5 450 12 382 12 189 17 51-140 51-333s138-345 331-345zM137-333c0 150 96 274 245 271 47 0 90-11 127-34l-95-103 58-49 94 102c41-50 61-112 61-187 3-151-97-271-245-271-149 0-245 120-245 271" id="X"/><path fill="#028cff" d="M555-466c0 110-75 186-173 194L562 0h-98L294-265H161V0H78v-667h268c121-2 209 81 209 201zm-86 0c1-74-57-127-133-127H161v255h175c76 2 134-54 133-128" id="Y"/><g id="h"><use transform="matrix(0.024444444444444442,0,0,0.024444444444444442,0,0)" xlink:href="#X"/><use transform="matrix(0.024444444444444442,0,0,0.024444444444444442,18.7,0)" xlink:href="#Y"/></g><path fill="#028cff" d="M47-241c0-142 81-255 215-254 67 0 121 28 163 85v-257h75V0h-75v-72c-41 56-96 84-163 84C127 12 47-98 47-241zm78 0c-2 102 57 187 155 186 61 1 121-37 145-76v-219c-24-39-84-78-145-78-98-1-157 86-155 187" id="Z"/><g id="i"><use transform="matrix(0.024444444444444442,0,0,0.024444444444444442,0,0)" xlink:href="#R"/><use transform="matrix(0.024444444444444442,0,0,0.024444444444444442,12.1,0)" xlink:href="#N"/><use transform="matrix(0.024444444444444442,0,0,0.024444444444444442,26.08222222222222,0)" xlink:href="#Z"/><use transform="matrix(0.024444444444444442,0,0,0.024444444444444442,40.13777777777777,0)" xlink:href="#P"/></g><path fill="#028cff" d="M150 0H75v-667h75V0" id="aa"/><g id="j"><use transform="matrix(0.024444444444444442,0,0,0.024444444444444442,0,0)" xlink:href="#I"/><use transform="matrix(0.024444444444444442,0,0,0.024444444444444442,14.324444444444444,0)" xlink:href="#P"/><use transform="matrix(0.024444444444444442,0,0,0.024444444444444442,28.086666666666662,0)" xlink:href="#aa"/><use transform="matrix(0.024444444444444442,0,0,0.024444444444444442,33.586666666666666,0)" xlink:href="#P"/><use transform="matrix(0.024444444444444442,0,0,0.024444444444444442,47.34888888888889,0)" xlink:href="#R"/><use transform="matrix(0.024444444444444442,0,0,0.024444444444444442,59.44888888888888,0)" xlink:href="#J"/></g><path fill="#028cff" d="M247-615c-67-1-81 59-76 132h98v66h-98V0H96v-417H16v-66h80c-10-115 37-194 140-194 41 0 75 12 102 37l-31 49c-18-16-38-24-60-24" id="ab"/><g id="k"><use transform="matrix(0.024444444444444442,0,0,0.024444444444444442,0,0)" xlink:href="#ab"/><use transform="matrix(0.024444444444444442,0,0,0.024444444444444442,6.917777777777777,0)" xlink:href="#L"/><use transform="matrix(0.024444444444444442,0,0,0.024444444444444442,14.984444444444444,0)" xlink:href="#N"/><use transform="matrix(0.024444444444444442,0,0,0.024444444444444442,28.966666666666665,0)" xlink:href="#O"/></g><g id="l"><use transform="matrix(0.024444444444444442,0,0,0.024444444444444442,0,0)" xlink:href="#L"/><use transform="matrix(0.024444444444444442,0,0,0.024444444444444442,8.066666666666666,0)" xlink:href="#P"/><use transform="matrix(0.024444444444444442,0,0,0.024444444444444442,21.828888888888887,0)" xlink:href="#R"/><use transform="matrix(0.024444444444444442,0,0,0.024444444444444442,33.928888888888885,0)" xlink:href="#P"/><use transform="matrix(0.024444444444444442,0,0,0.024444444444444442,47.691111111111105,0)" xlink:href="#S"/><use transform="matrix(0.024444444444444442,0,0,0.024444444444444442,61.16,0)" xlink:href="#J"/></g><path fill="#028cff" d="M163-602c1 27-24 51-51 50-26 1-51-23-50-50-1-27 24-52 50-51 27-1 52 24 51 51zM150 0H75v-483h75V0" id="ac"/><path fill="#028cff" d="M528-242c0 143-80 254-215 254-68 0-122-28-163-85v257H75v-667h75v72c32-45 90-84 163-84 135 0 215 110 215 253zM150-133c22 40 84 78 144 78 98 1 157-86 155-187 2-102-57-187-155-186-60-1-121 39-144 77v218" id="ad"/><g id="m"><use transform="matrix(0.024444444444444442,0,0,0.024444444444444442,0,0)" xlink:href="#L"/><use transform="matrix(0.024444444444444442,0,0,0.024444444444444442,8.066666666666666,0)" xlink:href="#P"/><use transform="matrix(0.024444444444444442,0,0,0.024444444444444442,21.828888888888887,0)" xlink:href="#R"/><use transform="matrix(0.024444444444444442,0,0,0.024444444444444442,33.928888888888885,0)" xlink:href="#ac"/><use transform="matrix(0.024444444444444442,0,0,0.024444444444444442,39.428888888888885,0)" xlink:href="#ad"/><use transform="matrix(0.024444444444444442,0,0,0.024444444444444442,53.411111111111104,0)" xlink:href="#ac"/><use transform="matrix(0.024444444444444442,0,0,0.024444444444444442,58.911111111111104,0)" xlink:href="#P"/><use transform="matrix(0.024444444444444442,0,0,0.024444444444444442,72.67333333333332,0)" xlink:href="#S"/><use transform="matrix(0.024444444444444442,0,0,0.024444444444444442,86.1422222222222,0)" xlink:href="#J"/><use transform="matrix(0.024444444444444442,0,0,0.024444444444444442,93.32888888888887,0)" xlink:href="#Q"/></g><path fill="#028cff" d="M471 0H78v-667h83v593h310V0" id="ae"/><path fill="#028cff" d="M499-14c12 184-173 240-339 194-30-10-59-29-86-56l38-56c37 44 89 66 157 66 91-1 158-49 155-145v-69C393-35 334 6 262 6 128 6 47-102 47-244s81-251 215-251c66 0 120 28 162 85v-73h75v469zM125-244c-2 101 57 185 155 184 60 1 122-40 144-79v-211c-23-40-83-79-144-78-99-1-157 82-155 184" id="af"/><g id="n"><use transform="matrix(0.024444444444444442,0,0,0.024444444444444442,0,0)" xlink:href="#ae"/><use transform="matrix(0.024444444444444442,0,0,0.024444444444444442,11.953333333333331,0)" xlink:href="#N"/><use transform="matrix(0.024444444444444442,0,0,0.024444444444444442,25.935555555555553,0)" xlink:href="#af"/><use transform="matrix(0.024444444444444442,0,0,0.024444444444444442,39.96666666666666,0)" xlink:href="#af"/><use transform="matrix(0.024444444444444442,0,0,0.024444444444444442,53.99777777777777,0)" xlink:href="#P"/><use transform="matrix(0.024444444444444442,0,0,0.024444444444444442,67.75999999999999,0)" xlink:href="#Z"/></g><path fill="#028cff" d="M235-677c144 0 251 128 165 245-37 53-89 68-132 111-36 34-44 79-4 110l-61 26c-61-42-42-144 8-177 46-46 134-65 134-148 0-60-51-95-118-93-65 0-118 27-159 82l-50-54c53-68 125-102 217-102zm44 632c1 29-26 56-55 55-29 1-56-26-55-55-1-29 26-56 55-55 29-1 56 26 55 55" id="ag"/><g id="o"><use transform="matrix(0.024444444444444442,0,0,0.024444444444444442,0,0)" xlink:href="#ac"/><use transform="matrix(0.024444444444444442,0,0,0.024444444444444442,5.499999999999999,0)" xlink:href="#S"/><use transform="matrix(0.024444444444444442,0,0,0.024444444444444442,18.08888888888889,0)" xlink:href="#ag"/></g><path d="M663 0H526L208-435V0H66v-667h146l309 419v-419h142V0" id="ah"/><path d="M543-242C545-99 435 12 287 12S30-99 32-242c-2-143 107-253 255-253s258 110 256 253zm-379 0c-1 76 47 143 123 141 76 2 125-65 124-141 1-75-48-140-124-140s-124 65-123 140" id="ai"/><g id="p"><use transform="matrix(0.02,0,0,0.02,0,0)" xlink:href="#ah"/><use transform="matrix(0.02,0,0,0.02,14.58,0)" xlink:href="#ai"/></g><g id="q"><use transform="matrix(0.024444444444444442,0,0,0.024444444444444442,0,0)" xlink:href="#I"/><use transform="matrix(0.024444444444444442,0,0,0.024444444444444442,14.324444444444444,0)" xlink:href="#ac"/><use transform="matrix(0.024444444444444442,0,0,0.024444444444444442,19.824444444444442,0)" xlink:href="#af"/><use transform="matrix(0.024444444444444442,0,0,0.024444444444444442,33.855555555555554,0)" xlink:href="#S"/></g><g id="r"><use transform="matrix(0.024444444444444442,0,0,0.024444444444444442,0,0)" xlink:href="#W"/><use transform="matrix(0.024444444444444442,0,0,0.024444444444444442,13.468888888888888,0)" xlink:href="#ad"/></g><path d="M394 0H252v-273L-5-667h162l166 268 164-268h162L394-273V0" id="aj"/><path d="M304-89c47 0 106-22 129-48l56 82c-49 45-115 67-199 67C143 15 32-94 32-242c0-140 109-253 250-253 155 0 254 125 242 294H165c8 64 64 114 139 112zm97-198c-5-58-49-107-119-107-69 0-112 50-119 107h238" id="ak"/><path d="M425-221C493-93 382 12 237 12 150 12 67-19 21-63l55-89c31 31 107 66 167 66s110-50 59-82C198-207 37-196 37-343c2-95 90-156 198-152 75 0 140 22 195 66l-51 87c-28-30-85-56-143-56-51 0-109 50-55 74 80 35 201 30 244 103" id="al"/><g id="s"><use transform="matrix(0.02,0,0,0.02,0,0)" xlink:href="#aj"/><use transform="matrix(0.02,0,0,0.02,10.42,0)" xlink:href="#ak"/><use transform="matrix(0.02,0,0,0.02,21.48,0)" xlink:href="#al"/></g><path fill="#028cff" d="M161 0H78v-667h83V0" id="am"/><g id="t"><use transform="matrix(0.024444444444444442,0,0,0.024444444444444442,0,0)" xlink:href="#am"/><use transform="matrix(0.024444444444444442,0,0,0.024444444444444442,5.8422222222222215,0)" xlink:href="#Z"/><use transform="matrix(0.024444444444444442,0,0,0.024444444444444442,19.897777777777776,0)" xlink:href="#P"/><use transform="matrix(0.024444444444444442,0,0,0.024444444444444442,33.66,0)" xlink:href="#S"/><use transform="matrix(0.024444444444444442,0,0,0.024444444444444442,47.12888888888888,0)" xlink:href="#J"/><use transform="matrix(0.024444444444444442,0,0,0.024444444444444442,54.31555555555555,0)" xlink:href="#ac"/><use transform="matrix(0.024444444444444442,0,0,0.024444444444444442,59.81555555555555,0)" xlink:href="#ab"/><use transform="matrix(0.024444444444444442,0,0,0.024444444444444442,66.73333333333332,0)" xlink:href="#V"/></g><path fill="#028cff" d="M59 20H0l237-707h59" id="an"/><g id="u"><use transform="matrix(0.024444444444444442,0,0,0.024444444444444442,0,0)" xlink:href="#L"/><use transform="matrix(0.024444444444444442,0,0,0.024444444444444442,8.066666666666666,0)" xlink:href="#P"/><use transform="matrix(0.024444444444444442,0,0,0.024444444444444442,21.828888888888887,0)" xlink:href="#R"/><use transform="matrix(0.024444444444444442,0,0,0.024444444444444442,33.928888888888885,0)" xlink:href="#ac"/><use transform="matrix(0.024444444444444442,0,0,0.024444444444444442,39.428888888888885,0)" xlink:href="#ad"/><use transform="matrix(0.024444444444444442,0,0,0.024444444444444442,53.411111111111104,0)" xlink:href="#ac"/><use transform="matrix(0.024444444444444442,0,0,0.024444444444444442,58.911111111111104,0)" xlink:href="#P"/><use transform="matrix(0.024444444444444442,0,0,0.024444444444444442,72.67333333333332,0)" xlink:href="#S"/><use transform="matrix(0.024444444444444442,0,0,0.024444444444444442,86.1422222222222,0)" xlink:href="#J"/><use transform="matrix(0.024444444444444442,0,0,0.024444444444444442,93.32888888888887,0)" xlink:href="#an"/></g><g id="v"><use transform="matrix(0.024444444444444442,0,0,0.024444444444444442,0,0)" xlink:href="#ad"/><use transform="matrix(0.024444444444444442,0,0,0.024444444444444442,13.982222222222221,0)" xlink:href="#K"/><use transform="matrix(0.024444444444444442,0,0,0.024444444444444442,26.86444444444444,0)" xlink:href="#V"/><use transform="matrix(0.024444444444444442,0,0,0.024444444444444442,38.84222222222222,0)" xlink:href="#P"/><use transform="matrix(0.024444444444444442,0,0,0.024444444444444442,52.60444444444444,0)" xlink:href="#P"/></g><g id="w"><use transform="matrix(0.024444444444444442,0,0,0.024444444444444442,0,0)" xlink:href="#ae"/><use transform="matrix(0.024444444444444442,0,0,0.024444444444444442,11.953333333333331,0)" xlink:href="#N"/><use transform="matrix(0.024444444444444442,0,0,0.024444444444444442,25.935555555555553,0)" xlink:href="#af"/></g><g id="x"><use transform="matrix(0.024444444444444442,0,0,0.024444444444444442,0,0)" xlink:href="#ac"/><use transform="matrix(0.024444444444444442,0,0,0.024444444444444442,5.499999999999999,0)" xlink:href="#S"/></g><path fill="#028cff" d="M515 0H78v-667h437v74H161v215h347v74H161v230h354V0" id="ao"/><g id="y"><use transform="matrix(0.024444444444444442,0,0,0.024444444444444442,0,0)" xlink:href="#ao"/><use transform="matrix(0.024444444444444442,0,0,0.024444444444444442,13.908888888888887,0)" xlink:href="#S"/><use transform="matrix(0.024444444444444442,0,0,0.024444444444444442,27.377777777777776,0)" xlink:href="#J"/><use transform="matrix(0.024444444444444442,0,0,0.024444444444444442,34.56444444444444,0)" xlink:href="#P"/><use transform="matrix(0.024444444444444442,0,0,0.024444444444444442,48.32666666666666,0)" xlink:href="#L"/></g><g id="z"><use transform="matrix(0.024444444444444442,0,0,0.024444444444444442,0,0)" xlink:href="#K"/><use transform="matrix(0.024444444444444442,0,0,0.024444444444444442,12.882222222222222,0)" xlink:href="#O"/><use transform="matrix(0.024444444444444442,0,0,0.024444444444444442,32.633333333333326,0)" xlink:href="#N"/><use transform="matrix(0.024444444444444442,0,0,0.024444444444444442,46.615555555555545,0)" xlink:href="#W"/><use transform="matrix(0.024444444444444442,0,0,0.024444444444444442,60.08444444444443,0)" xlink:href="#S"/><use transform="matrix(0.024444444444444442,0,0,0.024444444444444442,73.55333333333331,0)" xlink:href="#J"/></g><g id="A"><use transform="matrix(0.024444444444444442,0,0,0.024444444444444442,0,0)" xlink:href="#ao"/><use transform="matrix(0.024444444444444442,0,0,0.024444444444444442,13.908888888888887,0)" xlink:href="#S"/><use transform="matrix(0.024444444444444442,0,0,0.024444444444444442,27.377777777777776,0)" xlink:href="#J"/><use transform="matrix(0.024444444444444442,0,0,0.024444444444444442,34.56444444444444,0)" xlink:href="#P"/><use transform="matrix(0.024444444444444442,0,0,0.024444444444444442,48.32666666666666,0)" xlink:href="#L"/></g><g id="B"><use transform="matrix(0.024444444444444442,0,0,0.024444444444444442,0,0)" xlink:href="#Z"/><use transform="matrix(0.024444444444444442,0,0,0.024444444444444442,14.055555555555554,0)" xlink:href="#P"/><use transform="matrix(0.024444444444444442,0,0,0.024444444444444442,27.817777777777774,0)" xlink:href="#Q"/><use transform="matrix(0.024444444444444442,0,0,0.024444444444444442,39.18444444444444,0)" xlink:href="#R"/><use transform="matrix(0.024444444444444442,0,0,0.024444444444444442,51.28444444444444,0)" xlink:href="#L"/><use transform="matrix(0.024444444444444442,0,0,0.024444444444444442,59.35111111111111,0)" xlink:href="#ac"/><use transform="matrix(0.024444444444444442,0,0,0.024444444444444442,64.85111111111111,0)" xlink:href="#ad"/><use transform="matrix(0.024444444444444442,0,0,0.024444444444444442,78.83333333333333,0)" xlink:href="#J"/><use transform="matrix(0.024444444444444442,0,0,0.024444444444444442,86.02,0)" xlink:href="#ac"/><use transform="matrix(0.024444444444444442,0,0,0.024444444444444442,91.52,0)" xlink:href="#N"/><use transform="matrix(0.024444444444444442,0,0,0.024444444444444442,105.50222222222222,0)" xlink:href="#S"/></g><path fill="#028cff" d="M555-466c1 115-88 201-209 201H161V0H78v-667h268c122-4 210 85 209 201zm-86 0c1-74-57-127-133-127H161v254h175c76 2 134-53 133-127" id="ap"/><path fill="#028cff" d="M123-242c-2 101 56 188 154 187 61 1 122-38 144-78v-218c-22-39-84-78-144-77-98-1-156 84-154 186zm136-253c72 0 132 38 162 84v-72h75v667h-75V-73c-41 57-95 85-162 85C125 12 44-99 44-242s80-253 215-253" id="aq"/><g id="C"><use transform="matrix(0.024444444444444442,0,0,0.024444444444444442,0,0)" xlink:href="#ap"/><use transform="matrix(0.024444444444444442,0,0,0.024444444444444442,13.86,0)" xlink:href="#K"/><use transform="matrix(0.024444444444444442,0,0,0.024444444444444442,26.74222222222222,0)" xlink:href="#V"/><use transform="matrix(0.024444444444444442,0,0,0.024444444444444442,38.72,0)" xlink:href="#an"/><use transform="matrix(0.024444444444444442,0,0,0.024444444444444442,45.955555555555556,0)" xlink:href="#L"/><use transform="matrix(0.024444444444444442,0,0,0.024444444444444442,54.022222222222226,0)" xlink:href="#P"/><use transform="matrix(0.024444444444444442,0,0,0.024444444444444442,67.78444444444445,0)" xlink:href="#aq"/><use transform="matrix(0.024444444444444442,0,0,0.024444444444444442,81.76666666666667,0)" xlink:href="#W"/><use transform="matrix(0.024444444444444442,0,0,0.024444444444444442,95.23555555555555,0)" xlink:href="#P"/><use transform="matrix(0.024444444444444442,0,0,0.024444444444444442,108.99777777777777,0)" xlink:href="#Q"/><use transform="matrix(0.024444444444444442,0,0,0.024444444444444442,120.36444444444443,0)" xlink:href="#J"/></g><g id="D"><use transform="matrix(0.024444444444444442,0,0,0.024444444444444442,0,0)" xlink:href="#ao"/><use transform="matrix(0.024444444444444442,0,0,0.024444444444444442,13.908888888888887,0)" xlink:href="#S"/><use transform="matrix(0.024444444444444442,0,0,0.024444444444444442,27.377777777777776,0)" xlink:href="#Z"/></g><g id="E"><use transform="matrix(0.024444444444444442,0,0,0.024444444444444442,0,0)" xlink:href="#Y"/><use transform="matrix(0.024444444444444442,0,0,0.024444444444444442,14.128888888888888,0)" xlink:href="#P"/><use transform="matrix(0.024444444444444442,0,0,0.024444444444444442,27.89111111111111,0)" xlink:href="#R"/><use transform="matrix(0.024444444444444442,0,0,0.024444444444444442,39.99111111111111,0)" xlink:href="#W"/><use transform="matrix(0.024444444444444442,0,0,0.024444444444444442,53.459999999999994,0)" xlink:href="#L"/><use transform="matrix(0.024444444444444442,0,0,0.024444444444444442,61.526666666666664,0)" xlink:href="#L"/><use transform="matrix(0.024444444444444442,0,0,0.024444444444444442,69.59333333333332,0)" xlink:href="#ac"/><use transform="matrix(0.024444444444444442,0,0,0.024444444444444442,75.09333333333332,0)" xlink:href="#S"/><use transform="matrix(0.024444444444444442,0,0,0.024444444444444442,88.5622222222222,0)" xlink:href="#af"/></g><g id="F"><use transform="matrix(0.024444444444444442,0,0,0.024444444444444442,0,0)" xlink:href="#ad"/><use transform="matrix(0.024444444444444442,0,0,0.024444444444444442,13.982222222222221,0)" xlink:href="#K"/><use transform="matrix(0.024444444444444442,0,0,0.024444444444444442,26.86444444444444,0)" xlink:href="#V"/><use transform="matrix(0.024444444444444442,0,0,0.024444444444444442,38.84222222222222,0)" xlink:href="#O"/><use transform="matrix(0.024444444444444442,0,0,0.024444444444444442,58.59333333333333,0)" xlink:href="#P"/><use transform="matrix(0.024444444444444442,0,0,0.024444444444444442,72.35555555555555,0)" xlink:href="#S"/><use transform="matrix(0.024444444444444442,0,0,0.024444444444444442,85.82444444444444,0)" xlink:href="#J"/><use transform="matrix(0.024444444444444442,0,0,0.024444444444444442,93.0111111111111,0)" xlink:href="#ag"/></g><path fill="#333" d="M394 0H252v-273L-5-667h162l166 268 164-268h162L394-273V0" id="ar"/><path fill="#333" d="M304-89c47 0 106-22 129-48l56 82c-49 45-115 67-199 67C143 15 32-94 32-242c0-140 109-253 250-253 155 0 254 125 242 294H165c8 64 64 114 139 112zm97-198c-5-58-49-107-119-107-69 0-112 50-119 107h238" id="as"/><path fill="#333" d="M425-221C493-93 382 12 237 12 150 12 67-19 21-63l55-89c31 31 107 66 167 66s110-50 59-82C198-207 37-196 37-343c2-95 90-156 198-152 75 0 140 22 195 66l-51 87c-28-30-85-56-143-56-51 0-109 50-55 74 80 35 201 30 244 103" id="at"/><g id="G"><use transform="matrix(0.02,0,0,0.02,0,0)" xlink:href="#ar"/><use transform="matrix(0.02,0,0,0.02,10.42,0)" xlink:href="#as"/><use transform="matrix(0.02,0,0,0.02,21.48,0)" xlink:href="#at"/></g><path fill="#333" d="M663 0H526L208-435V0H66v-667h146l309 419v-419h142V0" id="au"/><path fill="#333" d="M543-242C545-99 435 12 287 12S30-99 32-242c-2-143 107-253 255-253s258 110 256 253zm-379 0c-1 76 47 143 123 141 76 2 125-65 124-141 1-75-48-140-124-140s-124 65-123 140" id="av"/><g id="H"><use transform="matrix(0.02,0,0,0.02,0,0)" xlink:href="#au"/><use transform="matrix(0.02,0,0,0.02,14.58,0)" xlink:href="#av"/></g></defs></g></svg>