<svg width="39" height="39" viewBox="0 0 39 39" fill="none" xmlns="http://www.w3.org/2000/svg">
<circle cx="19.2" cy="19.2" r="19.2" fill="#1C2430"/>
<path d="M26.2082 11.3333H12.7915C11.8964 11.3333 11.038 11.6889 10.405 12.3219C9.77208 12.9548 9.4165 13.8132 9.4165 14.7083V24.2917C9.4165 25.1868 9.77208 26.0452 10.405 26.6782C11.038 27.3111 11.8964 27.6667 12.7915 27.6667H26.2082C27.1033 27.6667 27.9617 27.3111 28.5947 26.6782C29.2276 26.0452 29.5832 25.1868 29.5832 24.2917V14.7083C29.5832 13.8132 29.2276 12.9548 28.5947 12.3219C27.9617 11.6889 27.1033 11.3333 26.2082 11.3333ZM19.2848 17.6086L14.401 14.25H24.5987L19.7149 17.6086C19.6488 17.6437 19.5749 17.6622 19.4998 17.6622C19.4248 17.6622 19.3509 17.6437 19.2848 17.6086Z" fill="white" stroke="#1C2430"/>
</svg>
