<svg width="254" height="69" viewBox="0 0 254 69" fill="none" xmlns="http://www.w3.org/2000/svg">
<line x1="12.3613" y1="52" x2="12.3613" y2="61" stroke="#1F1F1F" stroke-width="0.5"/>
<path d="M232.808 57.1768C232.906 57.0791 232.906 56.9209 232.808 56.8232L231.217 55.2322C231.12 55.1346 230.961 55.1346 230.864 55.2322C230.766 55.3299 230.766 55.4882 230.864 55.5858L232.278 57L230.864 58.4142C230.766 58.5118 230.766 58.6701 230.864 58.7678C230.961 58.8654 231.12 58.8654 231.217 58.7678L232.808 57.1768ZM12.1113 57.25H232.632V56.75H12.1113V57.25Z" fill="#1F1F1F"/>
<path d="M5.69857 60.715C5.20857 61.025 4.64357 61.18 4.00357 61.18C3.36357 61.18 2.79357 61.025 2.29357 60.715C1.79357 60.405 1.40357 59.995 1.12357 59.485C0.853566 58.965 0.648566 58.415 0.508566 57.835C0.368566 57.245 0.298566 56.635 0.298566 56.005C0.298566 55.375 0.368566 54.77 0.508566 54.19C0.648566 53.6 0.853566 53.05 1.12357 52.54C1.40357 52.03 1.78857 51.62 2.27857 51.31C2.77857 51 3.35357 50.845 4.00357 50.845C4.64357 50.845 5.20857 51 5.69857 51.31C6.18857 51.62 6.57357 52.03 6.85357 52.54C7.13357 53.05 7.34357 53.6 7.48357 54.19C7.62357 54.77 7.69357 55.375 7.69357 56.005C7.69357 56.625 7.62357 57.23 7.48357 57.82C7.34357 58.41 7.13357 58.965 6.85357 59.485C6.57357 59.995 6.18857 60.405 5.69857 60.715ZM4.00357 60.4C4.50357 60.4 4.93857 60.27 5.30857 60.01C5.68857 59.75 5.97857 59.405 6.17857 58.975C6.38857 58.535 6.53857 58.07 6.62857 57.58C6.72857 57.08 6.77857 56.555 6.77857 56.005C6.77857 55.455 6.72857 54.935 6.62857 54.445C6.53857 53.945 6.38857 53.48 6.17857 53.05C5.97857 52.61 5.68857 52.265 5.30857 52.015C4.93857 51.755 4.50357 51.625 4.00357 51.625C3.49357 51.625 3.04857 51.755 2.66857 52.015C2.29857 52.265 2.00857 52.61 1.79857 53.05C1.59857 53.48 1.44857 53.945 1.34857 54.445C1.24857 54.935 1.19857 55.455 1.19857 56.005C1.19857 56.555 1.24857 57.08 1.34857 57.58C1.44857 58.07 1.59857 58.535 1.79857 58.975C2.00857 59.405 2.29857 59.75 2.66857 60.01C3.04857 60.27 3.49357 60.4 4.00357 60.4Z" fill="black"/>
<path d="M244.545 56.2L237.975 59.575V58.84L243.765 55.915L237.975 52.975V52.225L244.545 55.63V56.2ZM244.53 61H237.96V60.385H244.53V61ZM247.756 61H246.811L251.011 51.775H245.476V50.995H252.031V51.595L247.756 61Z" fill="black"/>
<rect x="121.517" y="47" width="84.6182" height="19" fill="#BA8913"/>
<path d="M140.405 14.99H135.005L126.185 28.58V31.22H135.965V35H140.405V31.22H142.805V27.56H140.405V14.99ZM131.045 27.56L135.965 19.79V27.56H131.045ZM159.395 25.1V21.62H156.725V17.3H152.405V21.62H150.905V25.1H152.405V35H156.725V25.1H159.395ZM176.31 28.31C176.31 26.6 175.65 24.68 174.3 23.33C173.1 22.13 171.06 21.17 168.45 21.17C165.84 21.17 163.8 22.13 162.6 23.33C161.25 24.68 160.59 26.6 160.59 28.31C160.59 30.02 161.25 31.94 162.6 33.29C163.8 34.49 165.84 35.45 168.45 35.45C171.06 35.45 173.1 34.49 174.3 33.29C175.65 31.94 176.31 30.02 176.31 28.31ZM168.45 24.83C169.44 24.83 170.25 25.16 170.88 25.79C171.51 26.42 171.87 27.23 171.87 28.31C171.87 29.39 171.51 30.2 170.88 30.83C170.25 31.46 169.44 31.79 168.48 31.79C167.34 31.79 166.56 31.37 166.02 30.83C165.51 30.32 165.03 29.54 165.03 28.31C165.03 27.23 165.39 26.42 166.02 25.79C166.65 25.16 167.46 24.83 168.45 24.83ZM192.966 14.54L188.376 20.57C186.666 22.82 185.166 25.07 185.166 28.25C185.166 30.02 185.586 31.7 186.906 33.11C188.886 35.27 191.556 35.45 193.386 35.45C195.156 35.45 197.706 35.18 199.536 33.2C200.826 31.79 201.426 29.75 201.426 27.83C201.426 25.4 200.406 23.96 199.686 23.21C198.816 22.31 197.256 21.29 194.736 21.29C193.866 21.29 193.236 21.41 192.636 21.62L197.916 15.05L192.966 14.54ZM193.236 31.67C192.216 31.67 191.376 31.28 190.806 30.74C190.056 30.05 189.786 29.18 189.786 28.25C189.786 26.87 190.416 26.06 190.806 25.7C191.496 25.04 192.336 24.83 193.236 24.83C194.016 24.83 194.886 25.01 195.636 25.67C196.206 26.18 196.686 26.96 196.686 28.13C196.686 29.42 196.176 30.26 195.636 30.77C195.216 31.16 194.436 31.67 193.236 31.67Z" fill="#BA8913"/>
</svg>
