<svg width="568" height="130" viewBox="0 0 568 130" fill="none" xmlns="http://www.w3.org/2000/svg">
<rect width="568" height="130" rx="5" fill="#F7F7F7"/>
<path d="M59 71C59 69.3431 60.3431 68 62 68H139C140.657 68 142 69.3431 142 71V81C142 82.6569 140.657 84 139 84H62C60.3431 84 59 82.6569 59 81V71Z" fill="#DFDFDF"/>
<path d="M121.5 71C121.5 69.3431 122.843 68 124.5 68H201.5C203.157 68 204.5 69.3431 204.5 71V81C204.5 82.6569 203.157 84 201.5 84H124.5C122.843 84 121.5 82.6569 121.5 81V71Z" fill="#DFDFDF"/>
<rect x="126.948" y="68" width="61.5267" height="16" fill="#1F1F1F"/>
<path d="M142.294 39.66H138.694L132.814 48.72V50.48H139.334V53H142.294V50.48H143.894V48.04H142.294V39.66ZM136.054 48.04L139.334 42.86V48.04H136.054ZM154.954 46.4V44.08H153.174V41.2H150.294V44.08H149.294V46.4H150.294V53H153.174V46.4H154.954ZM166.23 48.54C166.23 47.4 165.79 46.12 164.89 45.22C164.09 44.42 162.73 43.78 160.99 43.78C159.25 43.78 157.89 44.42 157.09 45.22C156.19 46.12 155.75 47.4 155.75 48.54C155.75 49.68 156.19 50.96 157.09 51.86C157.89 52.66 159.25 53.3 160.99 53.3C162.73 53.3 164.09 52.66 164.89 51.86C165.79 50.96 166.23 49.68 166.23 48.54ZM160.99 46.22C161.65 46.22 162.19 46.44 162.61 46.86C163.03 47.28 163.27 47.82 163.27 48.54C163.27 49.26 163.03 49.8 162.61 50.22C162.19 50.64 161.65 50.86 161.01 50.86C160.25 50.86 159.73 50.58 159.37 50.22C159.03 49.88 158.71 49.36 158.71 48.54C158.71 47.82 158.95 47.28 159.37 46.86C159.79 46.44 160.33 46.22 160.99 46.22ZM177.334 39.36L174.274 43.38C173.134 44.88 172.134 46.38 172.134 48.5C172.134 49.68 172.414 50.8 173.294 51.74C174.614 53.18 176.394 53.3 177.614 53.3C178.794 53.3 180.494 53.12 181.714 51.8C182.574 50.86 182.974 49.5 182.974 48.22C182.974 46.6 182.294 45.64 181.814 45.14C181.234 44.54 180.194 43.86 178.514 43.86C177.934 43.86 177.514 43.94 177.114 44.08L180.634 39.7L177.334 39.36ZM177.514 50.78C176.834 50.78 176.274 50.52 175.894 50.16C175.394 49.7 175.214 49.12 175.214 48.5C175.214 47.58 175.634 47.04 175.894 46.8C176.354 46.36 176.914 46.22 177.514 46.22C178.034 46.22 178.614 46.34 179.114 46.78C179.494 47.12 179.814 47.64 179.814 48.42C179.814 49.28 179.474 49.84 179.114 50.18C178.834 50.44 178.314 50.78 177.514 50.78Z" fill="#1F1F1F"/>
<path d="M256.51 54H255.669V45.0825H252.508V44.3285H259.671V45.0825H256.51V54ZM266.84 54H266.086V49.2295C266.086 48.5915 265.941 48.1468 265.651 47.8955C265.361 47.6345 264.941 47.504 264.39 47.504C263.955 47.504 263.524 47.62 263.099 47.852C262.674 48.084 262.345 48.3692 262.113 48.7075V54H261.359V44.3285H262.113V48.055C262.393 47.7263 262.766 47.4412 263.23 47.1995C263.694 46.9482 264.162 46.8225 264.636 46.8225C266.105 46.8225 266.84 47.5717 266.84 49.07V54ZM272.293 54.174C271.268 54.174 270.427 53.8308 269.77 53.1445C269.112 52.4582 268.784 51.5737 268.784 50.491C268.784 49.4663 269.103 48.6012 269.741 47.8955C270.388 47.1802 271.195 46.8225 272.162 46.8225C273.187 46.8225 273.994 47.1802 274.584 47.8955C275.173 48.6012 275.468 49.4808 275.468 50.5345V50.7375H269.61C269.649 51.5302 269.915 52.1923 270.408 52.724C270.901 53.2557 271.548 53.5215 272.351 53.5215C273.279 53.5215 274.042 53.1977 274.642 52.55L275.033 53.043C274.308 53.797 273.395 54.174 272.293 54.174ZM274.7 50.143C274.69 49.4663 274.463 48.8525 274.018 48.3015C273.583 47.7505 272.96 47.475 272.148 47.475C271.384 47.475 270.775 47.7505 270.321 48.3015C269.876 48.8428 269.639 49.4567 269.61 50.143H274.7ZM286.375 54H285.621V53.1735C285.012 53.8405 284.219 54.174 283.243 54.174C282.595 54.174 282.025 53.9662 281.532 53.5505C281.039 53.1252 280.792 52.5548 280.792 51.8395C280.792 51.1145 281.034 50.549 281.517 50.143C282.01 49.7273 282.585 49.5195 283.243 49.5195C284.229 49.5195 285.021 49.853 285.621 50.52V49.099C285.621 48.5963 285.442 48.2048 285.084 47.9245C284.726 47.6345 284.277 47.4895 283.736 47.4895C282.875 47.4895 282.145 47.8327 281.546 48.519L281.126 47.997C281.851 47.214 282.75 46.8225 283.823 46.8225C284.577 46.8225 285.19 47.011 285.664 47.388C286.138 47.765 286.375 48.3257 286.375 49.07V54ZM283.504 53.5795C284.422 53.5795 285.128 53.2605 285.621 52.6225V51.0855C285.118 50.4378 284.412 50.114 283.504 50.114C282.933 50.114 282.469 50.2783 282.112 50.607C281.764 50.9357 281.59 51.3513 281.59 51.854C281.59 52.3567 281.764 52.7723 282.112 53.101C282.469 53.42 282.933 53.5795 283.504 53.5795ZM297.822 54H297.068V49.099C297.068 48.0357 296.599 47.504 295.662 47.504C295.294 47.504 294.917 47.62 294.531 47.852C294.154 48.084 293.864 48.3643 293.661 48.693V54H292.892V49.099C292.892 48.0357 292.423 47.504 291.486 47.504C291.128 47.504 290.761 47.6248 290.384 47.8665C290.007 48.0985 289.707 48.3788 289.485 48.7075V54H288.731V46.9965H289.485V48.055C289.659 47.7747 289.963 47.4992 290.398 47.2285C290.843 46.9578 291.292 46.8225 291.747 46.8225C292.259 46.8225 292.67 46.9482 292.979 47.1995C293.288 47.4508 293.491 47.765 293.588 48.142C293.801 47.794 294.125 47.4895 294.56 47.2285C294.995 46.9578 295.444 46.8225 295.908 46.8225C297.184 46.8225 297.822 47.533 297.822 48.954V54ZM303.13 54.174C302.125 54.174 301.313 53.8212 300.694 53.1155C300.075 52.4098 299.766 51.535 299.766 50.491C299.766 49.447 300.075 48.577 300.694 47.881C301.313 47.1753 302.125 46.8225 303.13 46.8225C304.145 46.8225 304.962 47.1753 305.581 47.881C306.199 48.577 306.509 49.447 306.509 50.491C306.509 51.535 306.199 52.4098 305.581 53.1155C304.962 53.8212 304.145 54.174 303.13 54.174ZM303.13 53.4925C303.923 53.4925 304.546 53.2025 305.001 52.6225C305.465 52.0328 305.697 51.3223 305.697 50.491C305.697 49.6693 305.465 48.9685 305.001 48.3885C304.546 47.7988 303.923 47.504 303.13 47.504C302.347 47.504 301.724 47.7988 301.26 48.3885C300.805 48.9685 300.578 49.6693 300.578 50.491C300.578 51.3127 300.805 52.0183 301.26 52.608C301.724 53.1977 302.347 53.4925 303.13 53.4925ZM313.937 54H313.183V52.9705C312.864 53.3185 312.482 53.6085 312.037 53.8405C311.593 54.0628 311.133 54.174 310.66 54.174C309.925 54.174 309.374 53.9952 309.007 53.6375C308.639 53.2702 308.456 52.6998 308.456 51.9265V46.9965H309.21V51.7525C309.21 52.4002 309.355 52.8545 309.645 53.1155C309.935 53.3668 310.355 53.4925 310.906 53.4925C311.341 53.4925 311.767 53.3813 312.182 53.159C312.608 52.9367 312.941 52.6612 313.183 52.3325V46.9965H313.937V54ZM321.767 54H321.013V49.2585C321.013 48.6205 320.868 48.171 320.578 47.91C320.288 47.6393 319.868 47.504 319.317 47.504C318.882 47.504 318.452 47.62 318.026 47.852C317.601 48.084 317.272 48.3692 317.04 48.7075V54H316.286V46.9965H317.04V48.055C317.321 47.7263 317.693 47.4412 318.157 47.1995C318.621 46.9482 319.09 46.8225 319.563 46.8225C321.033 46.8225 321.767 47.5813 321.767 49.099V54ZM325.639 54.174C324.721 54.174 324.262 53.6665 324.262 52.6515V47.6635H323.102V46.9965H324.262V45.0825H325.03V46.9965H326.451V47.6635H325.03V52.5355C325.03 53.1735 325.272 53.4925 325.755 53.4925C326.074 53.4925 326.335 53.3813 326.538 53.159L326.828 53.739C326.519 54.029 326.123 54.174 325.639 54.174ZM334.82 54.174C333.815 54.174 333.003 53.8212 332.384 53.1155C331.766 52.4098 331.456 51.535 331.456 50.491C331.456 49.447 331.766 48.577 332.384 47.881C333.003 47.1753 333.815 46.8225 334.82 46.8225C335.835 46.8225 336.652 47.1753 337.271 47.881C337.89 48.577 338.199 49.447 338.199 50.491C338.199 51.535 337.89 52.4098 337.271 53.1155C336.652 53.8212 335.835 54.174 334.82 54.174ZM334.82 53.4925C335.613 53.4925 336.237 53.2025 336.691 52.6225C337.155 52.0328 337.387 51.3223 337.387 50.491C337.387 49.6693 337.155 48.9685 336.691 48.3885C336.237 47.7988 335.613 47.504 334.82 47.504C334.037 47.504 333.414 47.7988 332.95 48.3885C332.496 48.9685 332.268 49.6693 332.268 50.491C332.268 51.3127 332.496 52.0183 332.95 52.608C333.414 53.1977 334.037 53.4925 334.82 53.4925ZM341.147 54H340.393V47.6635H339.233V46.9965H340.393V46.3585C340.393 45.6818 340.562 45.1502 340.9 44.7635C341.239 44.3768 341.703 44.1835 342.292 44.1835C342.805 44.1835 343.249 44.3478 343.626 44.6765L343.264 45.1985C343.003 44.9568 342.703 44.836 342.365 44.836C341.553 44.836 341.147 45.3435 341.147 46.3585V46.9965H342.568V47.6635H341.147V54ZM350.926 54.174C349.921 54.174 349.109 53.739 348.49 52.869V56.668H347.736V46.9965H348.49V48.0985C348.751 47.7215 349.094 47.417 349.52 47.185C349.955 46.9433 350.423 46.8225 350.926 46.8225C351.864 46.8225 352.618 47.156 353.188 47.823C353.768 48.4803 354.058 49.3697 354.058 50.491C354.058 51.6027 353.768 52.4968 353.188 53.1735C352.618 53.8405 351.864 54.174 350.926 54.174ZM350.796 53.4925C351.559 53.4925 352.159 53.2122 352.594 52.6515C353.029 52.0908 353.246 51.3707 353.246 50.491C353.246 49.621 353.029 48.9057 352.594 48.345C352.159 47.7843 351.559 47.504 350.796 47.504C350.322 47.504 349.872 47.6248 349.447 47.8665C349.022 48.1082 348.703 48.403 348.49 48.751V52.2165C348.703 52.5645 349.022 52.8642 349.447 53.1155C349.882 53.3668 350.332 53.4925 350.796 53.4925ZM359.066 54.174C358.041 54.174 357.2 53.8308 356.543 53.1445C355.886 52.4582 355.557 51.5737 355.557 50.491C355.557 49.4663 355.876 48.6012 356.514 47.8955C357.162 47.1802 357.969 46.8225 358.936 46.8225C359.96 46.8225 360.767 47.1802 361.357 47.8955C361.947 48.6012 362.242 49.4808 362.242 50.5345V50.7375H356.384C356.422 51.5302 356.688 52.1923 357.181 52.724C357.674 53.2557 358.322 53.5215 359.124 53.5215C360.052 53.5215 360.816 53.1977 361.415 52.55L361.807 53.043C361.082 53.797 360.168 54.174 359.066 54.174ZM361.473 50.143C361.463 49.4663 361.236 48.8525 360.792 48.3015C360.357 47.7505 359.733 47.475 358.921 47.475C358.157 47.475 357.548 47.7505 357.094 48.3015C356.649 48.8428 356.413 49.4567 356.384 50.143H361.473ZM367.148 54.174C366.143 54.174 365.331 53.8212 364.712 53.1155C364.093 52.4098 363.784 51.535 363.784 50.491C363.784 49.447 364.093 48.577 364.712 47.881C365.331 47.1753 366.143 46.8225 367.148 46.8225C368.163 46.8225 368.98 47.1753 369.599 47.881C370.217 48.577 370.527 49.447 370.527 50.491C370.527 51.535 370.217 52.4098 369.599 53.1155C368.98 53.8212 368.163 54.174 367.148 54.174ZM367.148 53.4925C367.941 53.4925 368.564 53.2025 369.019 52.6225C369.483 52.0328 369.715 51.3223 369.715 50.491C369.715 49.6693 369.483 48.9685 369.019 48.3885C368.564 47.7988 367.941 47.504 367.148 47.504C366.365 47.504 365.742 47.7988 365.278 48.3885C364.823 48.9685 364.596 49.6693 364.596 50.491C364.596 51.3127 364.823 52.0183 365.278 52.608C365.742 53.1977 366.365 53.4925 367.148 53.4925ZM375.664 54.174C374.658 54.174 373.846 53.739 373.228 52.869V56.668H372.474V46.9965H373.228V48.0985C373.489 47.7215 373.832 47.417 374.257 47.185C374.692 46.9433 375.161 46.8225 375.664 46.8225C376.601 46.8225 377.355 47.156 377.926 47.823C378.506 48.4803 378.796 49.3697 378.796 50.491C378.796 51.6027 378.506 52.4968 377.926 53.1735C377.355 53.8405 376.601 54.174 375.664 54.174ZM375.533 53.4925C376.297 53.4925 376.896 53.2122 377.331 52.6515C377.766 52.0908 377.984 51.3707 377.984 50.491C377.984 49.621 377.766 48.9057 377.331 48.345C376.896 47.7843 376.297 47.504 375.533 47.504C375.06 47.504 374.61 47.6248 374.185 47.8665C373.759 48.1082 373.44 48.403 373.228 48.751V52.2165C373.44 52.5645 373.759 52.8642 374.185 53.1155C374.62 53.3668 375.069 53.4925 375.533 53.4925ZM381.455 54H380.701V44.3285H381.455V54ZM386.905 54.174C385.88 54.174 385.039 53.8308 384.382 53.1445C383.725 52.4582 383.396 51.5737 383.396 50.491C383.396 49.4663 383.715 48.6012 384.353 47.8955C385.001 47.1802 385.808 46.8225 386.774 46.8225C387.799 46.8225 388.606 47.1802 389.196 47.8955C389.786 48.6012 390.08 49.4808 390.08 50.5345V50.7375H384.222C384.261 51.5302 384.527 52.1923 385.02 52.724C385.513 53.2557 386.161 53.5215 386.963 53.5215C387.891 53.5215 388.655 53.1977 389.254 52.55L389.645 53.043C388.92 53.797 388.007 54.174 386.905 54.174ZM389.312 50.143C389.302 49.4663 389.075 48.8525 388.63 48.3015C388.195 47.7505 387.572 47.475 386.76 47.475C385.996 47.475 385.387 47.7505 384.933 48.3015C384.488 48.8428 384.251 49.4567 384.222 50.143H389.312ZM398.739 54.174C397.734 54.174 396.922 53.8212 396.303 53.1155C395.685 52.4098 395.375 51.535 395.375 50.491C395.375 49.447 395.685 48.577 396.303 47.881C396.922 47.1753 397.734 46.8225 398.739 46.8225C399.754 46.8225 400.571 47.1753 401.19 47.881C401.809 48.577 402.118 49.447 402.118 50.491C402.118 51.535 401.809 52.4098 401.19 53.1155C400.571 53.8212 399.754 54.174 398.739 54.174ZM398.739 53.4925C399.532 53.4925 400.156 53.2025 400.61 52.6225C401.074 52.0328 401.306 51.3223 401.306 50.491C401.306 49.6693 401.074 48.9685 400.61 48.3885C400.156 47.7988 399.532 47.504 398.739 47.504C397.956 47.504 397.333 47.7988 396.869 48.3885C396.415 48.9685 396.187 49.6693 396.187 50.491C396.187 51.3127 396.415 52.0183 396.869 52.608C397.333 53.1977 397.956 53.4925 398.739 53.4925ZM409.546 54H408.792V49.2585C408.792 48.6205 408.647 48.171 408.357 47.91C408.067 47.6393 407.647 47.504 407.096 47.504C406.661 47.504 406.23 47.62 405.805 47.852C405.38 48.084 405.051 48.3692 404.819 48.7075V54H404.065V46.9965H404.819V48.055C405.099 47.7263 405.472 47.4412 405.936 47.1995C406.4 46.9482 406.868 46.8225 407.342 46.8225C408.811 46.8225 409.546 47.5813 409.546 49.099V54ZM414.999 54.174C413.974 54.174 413.133 53.8308 412.476 53.1445C411.818 52.4582 411.49 51.5737 411.49 50.491C411.49 49.4663 411.809 48.6012 412.447 47.8955C413.094 47.1802 413.902 46.8225 414.868 46.8225C415.893 46.8225 416.7 47.1802 417.29 47.8955C417.879 48.6012 418.174 49.4808 418.174 50.5345V50.7375H412.316C412.355 51.5302 412.621 52.1923 413.114 52.724C413.607 53.2557 414.254 53.5215 415.057 53.5215C415.985 53.5215 416.748 53.1977 417.348 52.55L417.739 53.043C417.014 53.797 416.101 54.174 414.999 54.174ZM417.406 50.143C417.396 49.4663 417.169 48.8525 416.724 48.3015C416.289 47.7505 415.666 47.475 414.854 47.475C414.09 47.475 413.481 47.7505 413.027 48.3015C412.582 48.8428 412.345 49.4567 412.316 50.143H417.406ZM429.356 54H428.602V49.2585C428.602 48.6205 428.457 48.171 428.167 47.91C427.877 47.6393 427.457 47.504 426.906 47.504C426.471 47.504 426.041 47.62 425.615 47.852C425.19 48.084 424.861 48.3692 424.629 48.7075V54H423.875V46.9965H424.629V48.055C424.91 47.7263 425.282 47.4412 425.746 47.1995C426.21 46.9482 426.679 46.8225 427.152 46.8225C428.622 46.8225 429.356 47.5813 429.356 49.099V54ZM434.809 54.174C433.784 54.174 432.943 53.8308 432.286 53.1445C431.628 52.4582 431.3 51.5737 431.3 50.491C431.3 49.4663 431.619 48.6012 432.257 47.8955C432.904 47.1802 433.712 46.8225 434.678 46.8225C435.703 46.8225 436.51 47.1802 437.1 47.8955C437.689 48.6012 437.984 49.4808 437.984 50.5345V50.7375H432.126C432.165 51.5302 432.431 52.1923 432.924 52.724C433.417 53.2557 434.064 53.5215 434.867 53.5215C435.795 53.5215 436.558 53.1977 437.158 52.55L437.549 53.043C436.824 53.797 435.911 54.174 434.809 54.174ZM437.216 50.143C437.206 49.4663 436.979 48.8525 436.534 48.3015C436.099 47.7505 435.476 47.475 434.664 47.475C433.9 47.475 433.291 47.7505 432.837 48.3015C432.392 48.8428 432.155 49.4567 432.126 50.143H437.216ZM443.036 54.174C442.011 54.174 441.17 53.8308 440.513 53.1445C439.855 52.4582 439.527 51.5737 439.527 50.491C439.527 49.4663 439.846 48.6012 440.484 47.8955C441.131 47.1802 441.939 46.8225 442.905 46.8225C443.93 46.8225 444.737 47.1802 445.327 47.8955C445.916 48.6012 446.211 49.4808 446.211 50.5345V50.7375H440.353C440.392 51.5302 440.658 52.1923 441.151 52.724C441.644 53.2557 442.291 53.5215 443.094 53.5215C444.022 53.5215 444.785 53.1977 445.385 52.55L445.776 53.043C445.051 53.797 444.138 54.174 443.036 54.174ZM445.443 50.143C445.433 49.4663 445.206 48.8525 444.761 48.3015C444.326 47.7505 443.703 47.475 442.891 47.475C442.127 47.475 441.518 47.7505 441.064 48.3015C440.619 48.8428 440.382 49.4567 440.353 50.143H445.443ZM454.09 54H453.322V52.8835C453.061 53.2605 452.713 53.5698 452.278 53.8115C451.853 54.0532 451.389 54.174 450.886 54.174C449.948 54.174 449.189 53.8405 448.609 53.1735C448.039 52.5065 447.754 51.6172 447.754 50.5055C447.754 49.4035 448.044 48.5142 448.624 47.8375C449.204 47.1608 449.958 46.8225 450.886 46.8225C451.891 46.8225 452.703 47.2575 453.322 48.1275V44.3285H454.09V54ZM451.016 53.4925C451.49 53.4925 451.94 53.3717 452.365 53.13C452.79 52.8883 453.109 52.5935 453.322 52.2455V48.78C453.109 48.4223 452.79 48.1227 452.365 47.881C451.94 47.6297 451.49 47.504 451.016 47.504C450.262 47.504 449.663 47.7892 449.218 48.3595C448.783 48.9202 448.566 49.6355 448.566 50.5055C448.566 51.3755 448.783 52.0908 449.218 52.6515C449.663 53.2122 450.262 53.4925 451.016 53.4925ZM459.547 54.174C458.522 54.174 457.681 53.8308 457.024 53.1445C456.366 52.4582 456.038 51.5737 456.038 50.491C456.038 49.4663 456.357 48.6012 456.995 47.8955C457.642 47.1802 458.449 46.8225 459.416 46.8225C460.441 46.8225 461.248 47.1802 461.838 47.8955C462.427 48.6012 462.722 49.4808 462.722 50.5345V50.7375H456.864C456.903 51.5302 457.169 52.1923 457.662 52.724C458.155 53.2557 458.802 53.5215 459.605 53.5215C460.533 53.5215 461.296 53.1977 461.896 52.55L462.287 53.043C461.562 53.797 460.649 54.174 459.547 54.174ZM461.954 50.143C461.944 49.4663 461.717 48.8525 461.272 48.3015C460.837 47.7505 460.214 47.475 459.402 47.475C458.638 47.475 458.029 47.7505 457.575 48.3015C457.13 48.8428 456.893 49.4567 456.864 50.143H461.954ZM470.601 54H469.833V52.8835C469.572 53.2605 469.224 53.5698 468.789 53.8115C468.363 54.0532 467.899 54.174 467.397 54.174C466.459 54.174 465.7 53.8405 465.12 53.1735C464.55 52.5065 464.265 51.6172 464.265 50.5055C464.265 49.4035 464.555 48.5142 465.135 47.8375C465.715 47.1608 466.469 46.8225 467.397 46.8225C468.402 46.8225 469.214 47.2575 469.833 48.1275V44.3285H470.601V54ZM467.527 53.4925C468.001 53.4925 468.45 53.3717 468.876 53.13C469.301 52.8883 469.62 52.5935 469.833 52.2455V48.78C469.62 48.4223 469.301 48.1227 468.876 47.881C468.45 47.6297 468.001 47.504 467.527 47.504C466.773 47.504 466.174 47.7892 465.729 48.3595C465.294 48.9202 465.077 49.6355 465.077 50.5055C465.077 51.3755 465.294 52.0908 465.729 52.6515C466.174 53.2122 466.773 53.4925 467.527 53.4925ZM478.229 54.174C477.311 54.174 476.852 53.6665 476.852 52.6515V47.6635H475.692V46.9965H476.852V45.0825H477.62V46.9965H479.041V47.6635H477.62V52.5355C477.62 53.1735 477.862 53.4925 478.345 53.4925C478.664 53.4925 478.925 53.3813 479.128 53.159L479.418 53.739C479.109 54.029 478.713 54.174 478.229 54.174ZM483.658 54.174C482.653 54.174 481.841 53.8212 481.222 53.1155C480.603 52.4098 480.294 51.535 480.294 50.491C480.294 49.447 480.603 48.577 481.222 47.881C481.841 47.1753 482.653 46.8225 483.658 46.8225C484.673 46.8225 485.49 47.1753 486.108 47.881C486.727 48.577 487.036 49.447 487.036 50.491C487.036 51.535 486.727 52.4098 486.108 53.1155C485.49 53.8212 484.673 54.174 483.658 54.174ZM483.658 53.4925C484.451 53.4925 485.074 53.2025 485.528 52.6225C485.992 52.0328 486.224 51.3223 486.224 50.491C486.224 49.6693 485.992 48.9685 485.528 48.3885C485.074 47.7988 484.451 47.504 483.658 47.504C482.875 47.504 482.251 47.7988 481.787 48.3885C481.333 48.9685 481.106 49.6693 481.106 50.491C481.106 51.3127 481.333 52.0183 481.787 52.608C482.251 53.1977 482.875 53.4925 483.658 53.4925ZM262.266 79H261.512V74.099C261.512 73.0357 261.043 72.504 260.106 72.504C259.738 72.504 259.361 72.62 258.975 72.852C258.598 73.084 258.308 73.3643 258.105 73.693V79H257.336V74.099C257.336 73.0357 256.867 72.504 255.93 72.504C255.572 72.504 255.205 72.6248 254.828 72.8665C254.451 73.0985 254.151 73.3788 253.929 73.7075V79H253.175V71.9965H253.929V73.055C254.103 72.7747 254.407 72.4992 254.842 72.2285C255.287 71.9578 255.736 71.8225 256.191 71.8225C256.703 71.8225 257.114 71.9482 257.423 72.1995C257.732 72.4508 257.935 72.765 258.032 73.142C258.245 72.794 258.569 72.4895 259.004 72.2285C259.439 71.9578 259.888 71.8225 260.352 71.8225C261.628 71.8225 262.266 72.533 262.266 73.954V79ZM267.719 79.174C266.694 79.174 265.853 78.8308 265.196 78.1445C264.539 77.4582 264.21 76.5737 264.21 75.491C264.21 74.4663 264.529 73.6012 265.167 72.8955C265.815 72.1802 266.622 71.8225 267.588 71.8225C268.613 71.8225 269.42 72.1802 270.01 72.8955C270.6 73.6012 270.894 74.4808 270.894 75.5345V75.7375H265.036C265.075 76.5302 265.341 77.1923 265.834 77.724C266.327 78.2557 266.975 78.5215 267.777 78.5215C268.705 78.5215 269.469 78.1977 270.068 77.55L270.459 78.043C269.734 78.797 268.821 79.174 267.719 79.174ZM270.126 75.143C270.116 74.4663 269.889 73.8525 269.444 73.3015C269.009 72.7505 268.386 72.475 267.574 72.475C266.81 72.475 266.201 72.7505 265.747 73.3015C265.302 73.8428 265.065 74.4567 265.036 75.143H270.126ZM274.931 79.174C273.8 79.174 272.901 78.8067 272.234 78.072L272.683 77.5065C272.925 77.8062 273.244 78.0527 273.64 78.246C274.037 78.4393 274.472 78.536 274.945 78.536C275.516 78.536 275.97 78.4055 276.308 78.1445C276.647 77.8738 276.816 77.5307 276.816 77.115C276.816 76.767 276.661 76.4915 276.352 76.2885C276.052 76.0758 275.685 75.9212 275.25 75.8245C274.825 75.7182 274.394 75.607 273.959 75.491C273.524 75.3653 273.152 75.1623 272.843 74.882C272.543 74.6017 272.393 74.2295 272.393 73.7655C272.393 73.2145 272.616 72.7553 273.06 72.388C273.515 72.011 274.124 71.8225 274.887 71.8225C275.941 71.8225 276.777 72.1657 277.396 72.852L276.975 73.3885C276.521 72.7698 275.825 72.4605 274.887 72.4605C274.356 72.4605 273.93 72.5813 273.611 72.823C273.292 73.0647 273.133 73.3692 273.133 73.7365C273.133 74.0555 273.283 74.3068 273.582 74.4905C273.892 74.6742 274.259 74.8192 274.684 74.9255C275.119 75.0222 275.554 75.1333 275.989 75.259C276.424 75.3847 276.792 75.6022 277.091 75.9115C277.401 76.2208 277.555 76.622 277.555 77.115C277.555 77.7143 277.328 78.2073 276.874 78.594C276.42 78.9807 275.772 79.174 274.931 79.174ZM281.586 79.174C280.455 79.174 279.556 78.8067 278.889 78.072L279.339 77.5065C279.58 77.8062 279.899 78.0527 280.296 78.246C280.692 78.4393 281.127 78.536 281.601 78.536C282.171 78.536 282.625 78.4055 282.964 78.1445C283.302 77.8738 283.471 77.5307 283.471 77.115C283.471 76.767 283.317 76.4915 283.007 76.2885C282.708 76.0758 282.34 75.9212 281.905 75.8245C281.48 75.7182 281.05 75.607 280.615 75.491C280.18 75.3653 279.808 75.1623 279.498 74.882C279.199 74.6017 279.049 74.2295 279.049 73.7655C279.049 73.2145 279.271 72.7553 279.716 72.388C280.17 72.011 280.779 71.8225 281.543 71.8225C282.596 71.8225 283.433 72.1657 284.051 72.852L283.631 73.3885C283.176 72.7698 282.48 72.4605 281.543 72.4605C281.011 72.4605 280.586 72.5813 280.267 72.823C279.948 73.0647 279.788 73.3692 279.788 73.7365C279.788 74.0555 279.938 74.3068 280.238 74.4905C280.547 74.6742 280.914 74.8192 281.34 74.9255C281.775 75.0222 282.21 75.1333 282.645 75.259C283.08 75.3847 283.447 75.6022 283.747 75.9115C284.056 76.2208 284.211 76.622 284.211 77.115C284.211 77.7143 283.984 78.2073 283.529 78.594C283.075 78.9807 282.427 79.174 281.586 79.174ZM291.359 79H290.605V78.1735C289.996 78.8405 289.203 79.174 288.227 79.174C287.579 79.174 287.009 78.9662 286.516 78.5505C286.023 78.1252 285.777 77.5548 285.777 76.8395C285.777 76.1145 286.018 75.549 286.502 75.143C286.995 74.7273 287.57 74.5195 288.227 74.5195C289.213 74.5195 290.006 74.853 290.605 75.52V74.099C290.605 73.5963 290.426 73.2048 290.069 72.9245C289.711 72.6345 289.261 72.4895 288.72 72.4895C287.86 72.4895 287.13 72.8327 286.531 73.519L286.11 72.997C286.835 72.214 287.734 71.8225 288.807 71.8225C289.561 71.8225 290.175 72.011 290.649 72.388C291.122 72.765 291.359 73.3257 291.359 74.07V79ZM288.488 78.5795C289.406 78.5795 290.112 78.2605 290.605 77.6225V76.0855C290.102 75.4378 289.397 75.114 288.488 75.114C287.918 75.114 287.454 75.2783 287.096 75.607C286.748 75.9357 286.574 76.3513 286.574 76.854C286.574 77.3567 286.748 77.7723 287.096 78.101C287.454 78.42 287.918 78.5795 288.488 78.5795ZM296.485 81.842C295.876 81.842 295.363 81.7647 294.948 81.61C294.532 81.465 294.126 81.1895 293.73 80.7835L294.165 80.2035C294.464 80.5612 294.793 80.8125 295.151 80.9575C295.508 81.1122 295.953 81.1895 296.485 81.1895C297.181 81.1895 297.751 81.001 298.196 80.624C298.65 80.2567 298.877 79.696 298.877 78.942V77.84C298.616 78.217 298.268 78.5312 297.833 78.7825C297.408 79.0242 296.944 79.145 296.441 79.145C295.503 79.145 294.745 78.8163 294.165 78.159C293.594 77.492 293.309 76.6027 293.309 75.491C293.309 74.389 293.599 73.5045 294.179 72.8375C294.759 72.1608 295.513 71.8225 296.441 71.8225C297.446 71.8225 298.258 72.2575 298.877 73.1275V71.9965H299.646V78.9275C299.646 79.9328 299.351 80.6675 298.761 81.1315C298.181 81.6052 297.422 81.842 296.485 81.842ZM296.572 78.4635C297.045 78.4635 297.495 78.3427 297.92 78.101C298.345 77.8497 298.664 77.5452 298.877 77.1875V73.78C298.664 73.4223 298.345 73.1227 297.92 72.881C297.495 72.6297 297.045 72.504 296.572 72.504C295.818 72.504 295.218 72.7843 294.774 73.345C294.339 73.9057 294.121 74.621 294.121 75.491C294.121 76.361 294.339 77.0763 294.774 77.637C295.218 78.188 295.818 78.4635 296.572 78.4635ZM305.088 79.174C304.063 79.174 303.222 78.8308 302.565 78.1445C301.907 77.4582 301.579 76.5737 301.579 75.491C301.579 74.4663 301.898 73.6012 302.536 72.8955C303.183 72.1802 303.99 71.8225 304.957 71.8225C305.982 71.8225 306.789 72.1802 307.379 72.8955C307.968 73.6012 308.263 74.4808 308.263 75.5345V75.7375H302.405C302.444 76.5302 302.71 77.1923 303.203 77.724C303.696 78.2557 304.343 78.5215 305.146 78.5215C306.074 78.5215 306.837 78.1977 307.437 77.55L307.828 78.043C307.103 78.797 306.19 79.174 305.088 79.174ZM307.495 75.143C307.485 74.4663 307.258 73.8525 306.813 73.3015C306.378 72.7505 305.755 72.475 304.943 72.475C304.179 72.475 303.57 72.7505 303.116 73.3015C302.671 73.8428 302.434 74.4567 302.405 75.143H307.495ZM314.718 77.2455C314.931 77.5935 315.25 77.8883 315.675 78.13C316.1 78.3717 316.55 78.4925 317.024 78.4925C317.787 78.4925 318.387 78.2122 318.822 77.6515C319.257 77.0908 319.474 76.3755 319.474 75.5055C319.474 74.6258 319.257 73.9057 318.822 73.345C318.387 72.7843 317.787 72.504 317.024 72.504C316.56 72.504 316.11 72.6297 315.675 72.881C315.25 73.1323 314.931 73.432 314.718 73.78V77.2455ZM314.718 79H313.964V69.3285H314.718V73.1275C315.337 72.2575 316.149 71.8225 317.154 71.8225C318.092 71.8225 318.846 72.1608 319.416 72.8375C319.996 73.5045 320.286 74.3938 320.286 75.5055C320.286 76.6172 319.996 77.5065 319.416 78.1735C318.846 78.8405 318.092 79.174 317.154 79.174C316.651 79.174 316.183 79.0532 315.748 78.8115C315.322 78.5698 314.979 78.2605 314.718 77.8835V79ZM325.351 79.174C324.326 79.174 323.485 78.8308 322.828 78.1445C322.17 77.4582 321.842 76.5737 321.842 75.491C321.842 74.4663 322.161 73.6012 322.799 72.8955C323.446 72.1802 324.254 71.8225 325.22 71.8225C326.245 71.8225 327.052 72.1802 327.642 72.8955C328.231 73.6012 328.526 74.4808 328.526 75.5345V75.7375H322.668C322.707 76.5302 322.973 77.1923 323.466 77.724C323.959 78.2557 324.606 78.5215 325.409 78.5215C326.337 78.5215 327.1 78.1977 327.7 77.55L328.091 78.043C327.366 78.797 326.453 79.174 325.351 79.174ZM327.758 75.143C327.748 74.4663 327.521 73.8525 327.076 73.3015C326.641 72.7505 326.018 72.475 325.206 72.475C324.442 72.475 323.833 72.7505 323.379 73.3015C322.934 73.8428 322.697 74.4567 322.668 75.143H327.758ZM331.475 79H330.721V72.6635H329.561V71.9965H330.721V71.3585C330.721 70.6818 330.89 70.1502 331.229 69.7635C331.567 69.3768 332.031 69.1835 332.621 69.1835C333.133 69.1835 333.578 69.3478 333.955 69.6765L333.592 70.1985C333.331 69.9568 333.032 69.836 332.693 69.836C331.881 69.836 331.475 70.3435 331.475 71.3585V71.9965H332.896V72.6635H331.475V79ZM337.27 79.174C336.265 79.174 335.453 78.8212 334.834 78.1155C334.216 77.4098 333.906 76.535 333.906 75.491C333.906 74.447 334.216 73.577 334.834 72.881C335.453 72.1753 336.265 71.8225 337.27 71.8225C338.285 71.8225 339.102 72.1753 339.721 72.881C340.339 73.577 340.649 74.447 340.649 75.491C340.649 76.535 340.339 77.4098 339.721 78.1155C339.102 78.8212 338.285 79.174 337.27 79.174ZM337.27 78.4925C338.063 78.4925 338.686 78.2025 339.141 77.6225C339.605 77.0328 339.837 76.3223 339.837 75.491C339.837 74.6693 339.605 73.9685 339.141 73.3885C338.686 72.7988 338.063 72.504 337.27 72.504C336.487 72.504 335.864 72.7988 335.4 73.3885C334.945 73.9685 334.718 74.6693 334.718 75.491C334.718 76.3127 334.945 77.0183 335.4 77.608C335.864 78.1977 336.487 78.4925 337.27 78.4925ZM343.35 79H342.596V71.9965H343.35V73.2C344.036 72.301 344.824 71.8515 345.713 71.8515V72.678C345.626 72.6587 345.501 72.649 345.336 72.649C344.988 72.649 344.611 72.7795 344.205 73.0405C343.799 73.3015 343.514 73.5867 343.35 73.896V79ZM350.301 79.174C349.276 79.174 348.435 78.8308 347.778 78.1445C347.121 77.4582 346.792 76.5737 346.792 75.491C346.792 74.4663 347.111 73.6012 347.749 72.8955C348.397 72.1802 349.204 71.8225 350.17 71.8225C351.195 71.8225 352.002 72.1802 352.592 72.8955C353.182 73.6012 353.476 74.4808 353.476 75.5345V75.7375H347.618C347.657 76.5302 347.923 77.1923 348.416 77.724C348.909 78.2557 349.557 78.5215 350.359 78.5215C351.287 78.5215 352.051 78.1977 352.65 77.55L353.041 78.043C352.316 78.797 351.403 79.174 350.301 79.174ZM352.708 75.143C352.698 74.4663 352.471 73.8525 352.026 73.3015C351.591 72.7505 350.968 72.475 350.156 72.475C349.392 72.475 348.783 72.7505 348.329 73.3015C347.884 73.8428 347.647 74.4567 347.618 75.143H352.708ZM361.947 81.842C361.338 81.842 360.826 81.7647 360.41 81.61C359.994 81.465 359.588 81.1895 359.192 80.7835L359.627 80.2035C359.927 80.5612 360.255 80.8125 360.613 80.9575C360.971 81.1122 361.415 81.1895 361.947 81.1895C362.643 81.1895 363.213 81.001 363.658 80.624C364.112 80.2567 364.339 79.696 364.339 78.942V77.84C364.078 78.217 363.73 78.5312 363.295 78.7825C362.87 79.0242 362.406 79.145 361.903 79.145C360.966 79.145 360.207 78.8163 359.627 78.159C359.057 77.492 358.771 76.6027 358.771 75.491C358.771 74.389 359.061 73.5045 359.641 72.8375C360.221 72.1608 360.975 71.8225 361.903 71.8225C362.909 71.8225 363.721 72.2575 364.339 73.1275V71.9965H365.108V78.9275C365.108 79.9328 364.813 80.6675 364.223 81.1315C363.643 81.6052 362.885 81.842 361.947 81.842ZM362.034 78.4635C362.508 78.4635 362.957 78.3427 363.382 78.101C363.808 77.8497 364.127 77.5452 364.339 77.1875V73.78C364.127 73.4223 363.808 73.1227 363.382 72.881C362.957 72.6297 362.508 72.504 362.034 72.504C361.28 72.504 360.681 72.7843 360.236 73.345C359.801 73.9057 359.583 74.621 359.583 75.491C359.583 76.361 359.801 77.0763 360.236 77.637C360.681 78.188 361.28 78.4635 362.034 78.4635ZM370.55 79.174C369.525 79.174 368.684 78.8308 368.027 78.1445C367.37 77.4582 367.041 76.5737 367.041 75.491C367.041 74.4663 367.36 73.6012 367.998 72.8955C368.646 72.1802 369.453 71.8225 370.419 71.8225C371.444 71.8225 372.251 72.1802 372.841 72.8955C373.431 73.6012 373.725 74.4808 373.725 75.5345V75.7375H367.867C367.906 76.5302 368.172 77.1923 368.665 77.724C369.158 78.2557 369.806 78.5215 370.608 78.5215C371.536 78.5215 372.3 78.1977 372.899 77.55L373.29 78.043C372.565 78.797 371.652 79.174 370.55 79.174ZM372.957 75.143C372.947 74.4663 372.72 73.8525 372.275 73.3015C371.84 72.7505 371.217 72.475 370.405 72.475C369.641 72.475 369.032 72.7505 368.578 73.3015C368.133 73.8428 367.896 74.4567 367.867 75.143H372.957ZM377.197 79.174C376.278 79.174 375.819 78.6665 375.819 77.6515V72.6635H374.659V71.9965H375.819V70.0825H376.588V71.9965H378.009V72.6635H376.588V77.5355C376.588 78.1735 376.829 78.4925 377.313 78.4925C377.632 78.4925 377.893 78.3813 378.096 78.159L378.386 78.739C378.076 79.029 377.68 79.174 377.197 79.174ZM381.19 79.174C380.271 79.174 379.812 78.6665 379.812 77.6515V72.6635H378.652V71.9965H379.812V70.0825H380.581V71.9965H382.002V72.6635H380.581V77.5355C380.581 78.1735 380.822 78.4925 381.306 78.4925C381.625 78.4925 381.886 78.3813 382.089 78.159L382.379 78.739C382.069 79.029 381.673 79.174 381.19 79.174ZM384.037 70.8945C383.883 70.8945 383.747 70.8365 383.631 70.7205C383.515 70.6045 383.457 70.4692 383.457 70.3145C383.457 70.1598 383.515 70.0293 383.631 69.923C383.747 69.807 383.883 69.749 384.037 69.749C384.202 69.749 384.337 69.807 384.443 69.923C384.559 70.0293 384.617 70.1598 384.617 70.3145C384.617 70.4788 384.559 70.619 384.443 70.735C384.337 70.8413 384.202 70.8945 384.037 70.8945ZM384.414 79H383.66V71.9965H384.414V79ZM392.242 79H391.488V74.2585C391.488 73.6205 391.343 73.171 391.053 72.91C390.763 72.6393 390.343 72.504 389.792 72.504C389.357 72.504 388.927 72.62 388.501 72.852C388.076 73.084 387.747 73.3692 387.515 73.7075V79H386.761V71.9965H387.515V73.055C387.796 72.7263 388.168 72.4412 388.632 72.1995C389.096 71.9482 389.565 71.8225 390.038 71.8225C391.508 71.8225 392.242 72.5813 392.242 74.099V79ZM397.361 81.842C396.752 81.842 396.24 81.7647 395.824 81.61C395.409 81.465 395.003 81.1895 394.606 80.7835L395.041 80.2035C395.341 80.5612 395.67 80.8125 396.027 80.9575C396.385 81.1122 396.83 81.1895 397.361 81.1895C398.057 81.1895 398.628 81.001 399.072 80.624C399.527 80.2567 399.754 79.696 399.754 78.942V77.84C399.493 78.217 399.145 78.5312 398.71 78.7825C398.285 79.0242 397.821 79.145 397.318 79.145C396.38 79.145 395.621 78.8163 395.041 78.159C394.471 77.492 394.186 76.6027 394.186 75.491C394.186 74.389 394.476 73.5045 395.056 72.8375C395.636 72.1608 396.39 71.8225 397.318 71.8225C398.323 71.8225 399.135 72.2575 399.754 73.1275V71.9965H400.522V78.9275C400.522 79.9328 400.228 80.6675 399.638 81.1315C399.058 81.6052 398.299 81.842 397.361 81.842ZM397.448 78.4635C397.922 78.4635 398.372 78.3427 398.797 78.101C399.222 77.8497 399.541 77.5452 399.754 77.1875V73.78C399.541 73.4223 399.222 73.1227 398.797 72.881C398.372 72.6297 397.922 72.504 397.448 72.504C396.694 72.504 396.095 72.7843 395.65 73.345C395.215 73.9057 394.998 74.621 394.998 75.491C394.998 76.361 395.215 77.0763 395.65 77.637C396.095 78.188 396.694 78.4635 397.448 78.4635ZM411.819 79H411.065V78.1735C410.456 78.8405 409.664 79.174 408.687 79.174C408.04 79.174 407.469 78.9662 406.976 78.5505C406.483 78.1252 406.237 77.5548 406.237 76.8395C406.237 76.1145 406.479 75.549 406.962 75.143C407.455 74.7273 408.03 74.5195 408.687 74.5195C409.673 74.5195 410.466 74.853 411.065 75.52V74.099C411.065 73.5963 410.887 73.2048 410.529 72.9245C410.171 72.6345 409.722 72.4895 409.18 72.4895C408.32 72.4895 407.59 72.8327 406.991 73.519L406.57 72.997C407.295 72.214 408.194 71.8225 409.267 71.8225C410.021 71.8225 410.635 72.011 411.109 72.388C411.583 72.765 411.819 73.3257 411.819 74.07V79ZM408.948 78.5795C409.867 78.5795 410.572 78.2605 411.065 77.6225V76.0855C410.563 75.4378 409.857 75.114 408.948 75.114C408.378 75.114 407.914 75.2783 407.556 75.607C407.208 75.9357 407.034 76.3513 407.034 76.854C407.034 77.3567 407.208 77.7723 407.556 78.101C407.914 78.42 408.378 78.5795 408.948 78.5795ZM418.682 79H417.928V71.9965H418.682V73.2C419.368 72.301 420.156 71.8515 421.045 71.8515V72.678C420.958 72.6587 420.833 72.649 420.668 72.649C420.32 72.649 419.943 72.7795 419.537 73.0405C419.131 73.3015 418.846 73.5867 418.682 73.896V79ZM422.907 70.8945C422.752 70.8945 422.617 70.8365 422.501 70.7205C422.385 70.6045 422.327 70.4692 422.327 70.3145C422.327 70.1598 422.385 70.0293 422.501 69.923C422.617 69.807 422.752 69.749 422.907 69.749C423.071 69.749 423.207 69.807 423.313 69.923C423.429 70.0293 423.487 70.1598 423.487 70.3145C423.487 70.4788 423.429 70.619 423.313 70.735C423.207 70.8413 423.071 70.8945 422.907 70.8945ZM423.284 79H422.53V71.9965H423.284V79ZM431.562 79H430.793V77.8835C430.532 78.2605 430.184 78.5698 429.749 78.8115C429.324 79.0532 428.86 79.174 428.357 79.174C427.419 79.174 426.661 78.8405 426.081 78.1735C425.51 77.5065 425.225 76.6172 425.225 75.5055C425.225 74.4035 425.515 73.5142 426.095 72.8375C426.675 72.1608 427.429 71.8225 428.357 71.8225C429.362 71.8225 430.174 72.2575 430.793 73.1275V69.3285H431.562V79ZM428.488 78.4925C428.961 78.4925 429.411 78.3717 429.836 78.13C430.261 77.8883 430.58 77.5935 430.793 77.2455V73.78C430.58 73.4223 430.261 73.1227 429.836 72.881C429.411 72.6297 428.961 72.504 428.488 72.504C427.734 72.504 427.134 72.7892 426.69 73.3595C426.255 73.9202 426.037 74.6355 426.037 75.5055C426.037 76.3755 426.255 77.0908 426.69 77.6515C427.134 78.2122 427.734 78.4925 428.488 78.4925ZM437.018 79.174C435.993 79.174 435.152 78.8308 434.495 78.1445C433.837 77.4582 433.509 76.5737 433.509 75.491C433.509 74.4663 433.828 73.6012 434.466 72.8955C435.113 72.1802 435.921 71.8225 436.887 71.8225C437.912 71.8225 438.719 72.1802 439.309 72.8955C439.898 73.6012 440.193 74.4808 440.193 75.5345V75.7375H434.335C434.374 76.5302 434.64 77.1923 435.133 77.724C435.626 78.2557 436.273 78.5215 437.076 78.5215C438.004 78.5215 438.767 78.1977 439.367 77.55L439.758 78.043C439.033 78.797 438.12 79.174 437.018 79.174ZM439.425 75.143C439.415 74.4663 439.188 73.8525 438.743 73.3015C438.308 72.7505 437.685 72.475 436.873 72.475C436.109 72.475 435.5 72.7505 435.046 73.3015C434.601 73.8428 434.364 74.4567 434.335 75.143H439.425ZM442.87 78.9565C442.744 79.0822 442.594 79.145 442.42 79.145C442.246 79.145 442.097 79.0822 441.971 78.9565C441.845 78.8212 441.782 78.6665 441.782 78.4925C441.782 78.3282 441.845 78.1832 441.971 78.0575C442.097 77.9318 442.246 77.869 442.42 77.869C442.594 77.869 442.744 77.9318 442.87 78.0575C443.005 78.1832 443.073 78.3282 443.073 78.4925C443.073 78.6665 443.005 78.8212 442.87 78.9565Z" fill="#1F1F1F"/>
</svg>
