<svg width="568" height="130" viewBox="0 0 568 130" fill="none" xmlns="http://www.w3.org/2000/svg">
<rect width="568" height="130" rx="5" fill="#F7F7F7"/>
<path d="M260.51 59H259.669V50.0825H256.508V49.3285H263.671V50.0825H260.51V59ZM270.84 59H270.086V54.2295C270.086 53.5915 269.941 53.1468 269.651 52.8955C269.361 52.6345 268.941 52.504 268.39 52.504C267.955 52.504 267.524 52.62 267.099 52.852C266.674 53.084 266.345 53.3692 266.113 53.7075V59H265.359V49.3285H266.113V53.055C266.393 52.7263 266.766 52.4412 267.23 52.1995C267.694 51.9482 268.162 51.8225 268.636 51.8225C270.105 51.8225 270.84 52.5717 270.84 54.07V59ZM276.293 59.174C275.268 59.174 274.427 58.8308 273.77 58.1445C273.112 57.4582 272.784 56.5737 272.784 55.491C272.784 54.4663 273.103 53.6012 273.741 52.8955C274.388 52.1802 275.195 51.8225 276.162 51.8225C277.187 51.8225 277.994 52.1802 278.584 52.8955C279.173 53.6012 279.468 54.4808 279.468 55.5345V55.7375H273.61C273.649 56.5302 273.915 57.1923 274.408 57.724C274.901 58.2557 275.548 58.5215 276.351 58.5215C277.279 58.5215 278.042 58.1977 278.642 57.55L279.033 58.043C278.308 58.797 277.395 59.174 276.293 59.174ZM278.7 55.143C278.69 54.4663 278.463 53.8525 278.018 53.3015C277.583 52.7505 276.96 52.475 276.148 52.475C275.384 52.475 274.775 52.7505 274.321 53.3015C273.876 53.8428 273.639 54.4567 273.61 55.143H278.7ZM285.923 59H285.169V51.9965H285.923V53.2C286.609 52.301 287.397 51.8515 288.287 51.8515V52.678C288.2 52.6587 288.074 52.649 287.91 52.649C287.562 52.649 287.185 52.7795 286.779 53.0405C286.373 53.3015 286.087 53.5867 285.923 53.896V59ZM294.977 59H294.223V58.1735C293.614 58.8405 292.821 59.174 291.845 59.174C291.197 59.174 290.627 58.9662 290.134 58.5505C289.641 58.1252 289.394 57.5548 289.394 56.8395C289.394 56.1145 289.636 55.549 290.119 55.143C290.612 54.7273 291.187 54.5195 291.845 54.5195C292.831 54.5195 293.623 54.853 294.223 55.52V54.099C294.223 53.5963 294.044 53.2048 293.686 52.9245C293.329 52.6345 292.879 52.4895 292.338 52.4895C291.477 52.4895 290.748 52.8327 290.148 53.519L289.728 52.997C290.453 52.214 291.352 51.8225 292.425 51.8225C293.179 51.8225 293.793 52.011 294.266 52.388C294.74 52.765 294.977 53.3257 294.977 54.07V59ZM292.106 58.5795C293.024 58.5795 293.73 58.2605 294.223 57.6225V56.0855C293.72 55.4378 293.014 55.114 292.106 55.114C291.535 55.114 291.071 55.2783 290.714 55.607C290.366 55.9357 290.192 56.3513 290.192 56.854C290.192 57.3567 290.366 57.7723 290.714 58.101C291.071 58.42 291.535 58.5795 292.106 58.5795ZM298.855 59.174C297.937 59.174 297.478 58.6665 297.478 57.6515V52.6635H296.318V51.9965H297.478V50.0825H298.246V51.9965H299.667V52.6635H298.246V57.5355C298.246 58.1735 298.488 58.4925 298.971 58.4925C299.29 58.4925 299.551 58.3813 299.754 58.159L300.044 58.739C299.735 59.029 299.339 59.174 298.855 59.174ZM301.703 50.8945C301.548 50.8945 301.413 50.8365 301.297 50.7205C301.181 50.6045 301.123 50.4692 301.123 50.3145C301.123 50.1598 301.181 50.0293 301.297 49.923C301.413 49.807 301.548 49.749 301.703 49.749C301.867 49.749 302.003 49.807 302.109 49.923C302.225 50.0293 302.283 50.1598 302.283 50.3145C302.283 50.4788 302.225 50.619 302.109 50.735C302.003 50.8413 301.867 50.8945 301.703 50.8945ZM302.08 59H301.326V51.9965H302.08V59ZM307.385 59.174C306.38 59.174 305.568 58.8212 304.949 58.1155C304.33 57.4098 304.021 56.535 304.021 55.491C304.021 54.447 304.33 53.577 304.949 52.881C305.568 52.1753 306.38 51.8225 307.385 51.8225C308.4 51.8225 309.217 52.1753 309.835 52.881C310.454 53.577 310.763 54.447 310.763 55.491C310.763 56.535 310.454 57.4098 309.835 58.1155C309.217 58.8212 308.4 59.174 307.385 59.174ZM307.385 58.4925C308.178 58.4925 308.801 58.2025 309.255 57.6225C309.719 57.0328 309.951 56.3223 309.951 55.491C309.951 54.6693 309.719 53.9685 309.255 53.3885C308.801 52.7988 308.178 52.504 307.385 52.504C306.602 52.504 305.978 52.7988 305.514 53.3885C305.06 53.9685 304.833 54.6693 304.833 55.491C304.833 56.3127 305.06 57.0183 305.514 57.608C305.978 58.1977 306.602 58.4925 307.385 58.4925ZM319.421 59.174C318.416 59.174 317.604 58.8212 316.985 58.1155C316.366 57.4098 316.057 56.535 316.057 55.491C316.057 54.447 316.366 53.577 316.985 52.881C317.604 52.1753 318.416 51.8225 319.421 51.8225C320.436 51.8225 321.253 52.1753 321.872 52.881C322.49 53.577 322.8 54.447 322.8 55.491C322.8 56.535 322.49 57.4098 321.872 58.1155C321.253 58.8212 320.436 59.174 319.421 59.174ZM319.421 58.4925C320.214 58.4925 320.837 58.2025 321.292 57.6225C321.756 57.0328 321.988 56.3223 321.988 55.491C321.988 54.6693 321.756 53.9685 321.292 53.3885C320.837 52.7988 320.214 52.504 319.421 52.504C318.638 52.504 318.015 52.7988 317.551 53.3885C317.096 53.9685 316.869 54.6693 316.869 55.491C316.869 56.3127 317.096 57.0183 317.551 57.608C318.015 58.1977 318.638 58.4925 319.421 58.4925ZM325.747 59H324.993V52.6635H323.833V51.9965H324.993V51.3585C324.993 50.6818 325.162 50.1502 325.501 49.7635C325.839 49.3768 326.303 49.1835 326.893 49.1835C327.405 49.1835 327.85 49.3478 328.227 49.6765L327.864 50.1985C327.603 49.9568 327.304 49.836 326.965 49.836C326.153 49.836 325.747 50.3435 325.747 51.3585V51.9965H327.168V52.6635H325.747V59ZM337.818 59H337.064V54.2585C337.064 53.6205 336.919 53.171 336.629 52.91C336.339 52.6393 335.918 52.504 335.367 52.504C334.932 52.504 334.502 52.62 334.077 52.852C333.651 53.084 333.323 53.3692 333.091 53.7075V59H332.337V51.9965H333.091V53.055C333.371 52.7263 333.743 52.4412 334.207 52.1995C334.671 51.9482 335.14 51.8225 335.614 51.8225C337.083 51.8225 337.818 52.5813 337.818 54.099V59ZM343.125 59.174C342.12 59.174 341.308 58.8212 340.689 58.1155C340.071 57.4098 339.761 56.535 339.761 55.491C339.761 54.447 340.071 53.577 340.689 52.881C341.308 52.1753 342.12 51.8225 343.125 51.8225C344.14 51.8225 344.957 52.1753 345.576 52.881C346.194 53.577 346.504 54.447 346.504 55.491C346.504 56.535 346.194 57.4098 345.576 58.1155C344.957 58.8212 344.14 59.174 343.125 59.174ZM343.125 58.4925C343.918 58.4925 344.541 58.2025 344.996 57.6225C345.46 57.0328 345.692 56.3223 345.692 55.491C345.692 54.6693 345.46 53.9685 344.996 53.3885C344.541 52.7988 343.918 52.504 343.125 52.504C342.342 52.504 341.719 52.7988 341.255 53.3885C340.8 53.9685 340.573 54.6693 340.573 55.491C340.573 56.3127 340.8 57.0183 341.255 57.608C341.719 58.1977 342.342 58.4925 343.125 58.4925ZM353.932 59H353.178V54.2585C353.178 53.6205 353.033 53.171 352.743 52.91C352.453 52.6393 352.032 52.504 351.481 52.504C351.046 52.504 350.616 52.62 350.191 52.852C349.766 53.084 349.437 53.3692 349.205 53.7075V59H348.451V51.9965H349.205V53.055C349.485 52.7263 349.857 52.4412 350.321 52.1995C350.785 51.9482 351.254 51.8225 351.728 51.8225C353.197 51.8225 353.932 52.5813 353.932 54.099V59ZM359.022 55.839H355.542V55.143H359.022V55.839ZM366.11 59H365.356V57.9705C365.037 58.3185 364.655 58.6085 364.21 58.8405C363.765 59.0628 363.306 59.174 362.833 59.174C362.098 59.174 361.547 58.9952 361.18 58.6375C360.812 58.2702 360.629 57.6998 360.629 56.9265V51.9965H361.383V56.7525C361.383 57.4002 361.528 57.8545 361.818 58.1155C362.108 58.3668 362.528 58.4925 363.079 58.4925C363.514 58.4925 363.939 58.3813 364.355 58.159C364.78 57.9367 365.114 57.6612 365.356 57.3325V51.9965H366.11V59ZM370.547 59.174C369.416 59.174 368.517 58.8067 367.85 58.072L368.3 57.5065C368.541 57.8062 368.86 58.0527 369.257 58.246C369.653 58.4393 370.088 58.536 370.562 58.536C371.132 58.536 371.586 58.4055 371.925 58.1445C372.263 57.8738 372.432 57.5307 372.432 57.115C372.432 56.767 372.278 56.4915 371.968 56.2885C371.669 56.0758 371.301 55.9212 370.866 55.8245C370.441 55.7182 370.011 55.607 369.576 55.491C369.141 55.3653 368.769 55.1623 368.459 54.882C368.16 54.6017 368.01 54.2295 368.01 53.7655C368.01 53.2145 368.232 52.7553 368.677 52.388C369.131 52.011 369.74 51.8225 370.504 51.8225C371.557 51.8225 372.394 52.1657 373.012 52.852L372.592 53.3885C372.137 52.7698 371.441 52.4605 370.504 52.4605C369.972 52.4605 369.547 52.5813 369.228 52.823C368.909 53.0647 368.749 53.3692 368.749 53.7365C368.749 54.0555 368.899 54.3068 369.199 54.4905C369.508 54.6742 369.875 54.8192 370.301 54.9255C370.736 55.0222 371.171 55.1333 371.606 55.259C372.041 55.3847 372.408 55.6022 372.708 55.9115C373.017 56.2208 373.172 56.622 373.172 57.115C373.172 57.7143 372.945 58.2073 372.49 58.594C372.036 58.9807 371.388 59.174 370.547 59.174ZM378.217 59.174C377.193 59.174 376.352 58.8308 375.694 58.1445C375.037 57.4582 374.708 56.5737 374.708 55.491C374.708 54.4663 375.027 53.6012 375.665 52.8955C376.313 52.1802 377.12 51.8225 378.087 51.8225C379.112 51.8225 379.919 52.1802 380.508 52.8955C381.098 53.6012 381.393 54.4808 381.393 55.5345V55.7375H375.535C375.574 56.5302 375.839 57.1923 376.332 57.724C376.825 58.2557 377.473 58.5215 378.275 58.5215C379.203 58.5215 379.967 58.1977 380.566 57.55L380.958 58.043C380.233 58.797 379.319 59.174 378.217 59.174ZM380.624 55.143C380.615 54.4663 380.388 53.8525 379.943 53.3015C379.508 52.7505 378.884 52.475 378.072 52.475C377.309 52.475 376.7 52.7505 376.245 53.3015C375.801 53.8428 375.564 54.4567 375.535 55.143H380.624ZM384.095 59H383.341V51.9965H384.095V53.2C384.782 52.301 385.57 51.8515 386.459 51.8515V52.678C386.372 52.6587 386.246 52.649 386.082 52.649C385.734 52.649 385.357 52.7795 384.951 53.0405C384.545 53.3015 384.26 53.5867 384.095 53.896V59ZM390.032 59.174C388.901 59.174 388.002 58.8067 387.335 58.072L387.784 57.5065C388.026 57.8062 388.345 58.0527 388.741 58.246C389.137 58.4393 389.572 58.536 390.046 58.536C390.616 58.536 391.071 58.4055 391.409 58.1445C391.747 57.8738 391.917 57.5307 391.917 57.115C391.917 56.767 391.762 56.4915 391.453 56.2885C391.153 56.0758 390.786 55.9212 390.351 55.8245C389.925 55.7182 389.495 55.607 389.06 55.491C388.625 55.3653 388.253 55.1623 387.944 54.882C387.644 54.6017 387.494 54.2295 387.494 53.7655C387.494 53.2145 387.716 52.7553 388.161 52.388C388.615 52.011 389.224 51.8225 389.988 51.8225C391.042 51.8225 391.878 52.1657 392.497 52.852L392.076 53.3885C391.622 52.7698 390.926 52.4605 389.988 52.4605C389.456 52.4605 389.031 52.5813 388.712 52.823C388.393 53.0647 388.234 53.3692 388.234 53.7365C388.234 54.0555 388.383 54.3068 388.683 54.4905C388.992 54.6742 389.36 54.8192 389.785 54.9255C390.22 55.0222 390.655 55.1333 391.09 55.259C391.525 55.3847 391.892 55.6022 392.192 55.9115C392.501 56.2208 392.656 56.622 392.656 57.115C392.656 57.7143 392.429 58.2073 391.975 58.594C391.52 58.9807 390.873 59.174 390.032 59.174ZM405.079 59H404.354L402.397 53.0115L400.425 59H399.7L397.423 51.9965H398.235L400.091 57.9415L402.063 51.9965H402.716L404.688 57.9415L406.544 51.9965H407.356L405.079 59ZM414.254 59H413.5V54.2295C413.5 53.5915 413.355 53.1468 413.065 52.8955C412.775 52.6345 412.355 52.504 411.804 52.504C411.369 52.504 410.938 52.62 410.513 52.852C410.088 53.084 409.759 53.3692 409.527 53.7075V59H408.773V49.3285H409.527V53.055C409.807 52.7263 410.18 52.4412 410.644 52.1995C411.108 51.9482 411.576 51.8225 412.05 51.8225C413.519 51.8225 414.254 52.5717 414.254 54.07V59ZM419.562 59.174C418.556 59.174 417.744 58.8212 417.126 58.1155C416.507 57.4098 416.198 56.535 416.198 55.491C416.198 54.447 416.507 53.577 417.126 52.881C417.744 52.1753 418.556 51.8225 419.562 51.8225C420.577 51.8225 421.394 52.1753 422.012 52.881C422.631 53.577 422.94 54.447 422.94 55.491C422.94 56.535 422.631 57.4098 422.012 58.1155C421.394 58.8212 420.577 59.174 419.562 59.174ZM419.562 58.4925C420.354 58.4925 420.978 58.2025 421.432 57.6225C421.896 57.0328 422.128 56.3223 422.128 55.491C422.128 54.6693 421.896 53.9685 421.432 53.3885C420.978 52.7988 420.354 52.504 419.562 52.504C418.779 52.504 418.155 52.7988 417.691 53.3885C417.237 53.9685 417.01 54.6693 417.01 55.491C417.01 56.3127 417.237 57.0183 417.691 57.608C418.155 58.1977 418.779 58.4925 419.562 58.4925ZM430.162 59.174C429.244 59.174 428.785 58.6665 428.785 57.6515V52.6635H427.625V51.9965H428.785V50.0825H429.553V51.9965H430.974V52.6635H429.553V57.5355C429.553 58.1735 429.795 58.4925 430.278 58.4925C430.597 58.4925 430.858 58.3813 431.061 58.159L431.351 58.739C431.042 59.029 430.646 59.174 430.162 59.174ZM438.114 59H437.36V54.2295C437.36 53.5915 437.215 53.1468 436.925 52.8955C436.635 52.6345 436.214 52.504 435.663 52.504C435.228 52.504 434.798 52.62 434.373 52.852C433.948 53.084 433.619 53.3692 433.387 53.7075V59H432.633V49.3285H433.387V53.055C433.667 52.7263 434.039 52.4412 434.503 52.1995C434.967 51.9482 435.436 51.8225 435.91 51.8225C437.379 51.8225 438.114 52.5717 438.114 54.07V59ZM440.841 50.8945C440.686 50.8945 440.551 50.8365 440.435 50.7205C440.319 50.6045 440.261 50.4692 440.261 50.3145C440.261 50.1598 440.319 50.0293 440.435 49.923C440.551 49.807 440.686 49.749 440.841 49.749C441.005 49.749 441.14 49.807 441.247 49.923C441.363 50.0293 441.421 50.1598 441.421 50.3145C441.421 50.4788 441.363 50.619 441.247 50.735C441.14 50.8413 441.005 50.8945 440.841 50.8945ZM441.218 59H440.464V51.9965H441.218V59ZM449.046 59H448.292V54.2585C448.292 53.6205 448.147 53.171 447.857 52.91C447.567 52.6393 447.146 52.504 446.595 52.504C446.16 52.504 445.73 52.62 445.305 52.852C444.879 53.084 444.551 53.3692 444.319 53.7075V59H443.565V51.9965H444.319V53.055C444.599 52.7263 444.971 52.4412 445.435 52.1995C445.899 51.9482 446.368 51.8225 446.842 51.8225C448.311 51.8225 449.046 52.5813 449.046 54.099V59ZM457.268 59H456.253L453.454 55.665L452.149 56.8975V59H451.395V49.3285H452.149V55.9985L456.282 51.9965H457.282L454.02 55.1575L457.268 59ZM463.469 59H462.715V52.6635H461.555V51.9965H462.715V51.3585C462.715 50.6722 462.884 50.1405 463.222 49.7635C463.561 49.3768 464.025 49.1835 464.614 49.1835C464.991 49.1835 465.306 49.256 465.557 49.401L465.325 49.9955C465.141 49.8892 464.929 49.836 464.687 49.836C463.875 49.836 463.469 50.3435 463.469 51.3585V51.9965H464.89V52.6635H463.469V59ZM467.094 50.735C466.978 50.8413 466.843 50.8945 466.688 50.8945C466.533 50.8945 466.398 50.8365 466.282 50.7205C466.166 50.6045 466.108 50.4692 466.108 50.3145C466.108 50.1598 466.166 50.0293 466.282 49.923C466.398 49.807 466.533 49.749 466.688 49.749C466.852 49.749 466.988 49.807 467.094 49.923C467.21 50.0293 467.268 50.1598 467.268 50.3145C467.268 50.4788 467.21 50.619 467.094 50.735ZM467.065 59H466.311V51.9965H467.065V59ZM474.874 59H474.12V54.2585C474.12 53.6205 473.975 53.171 473.685 52.91C473.395 52.6393 472.974 52.504 472.423 52.504C471.988 52.504 471.558 52.62 471.133 52.852C470.707 53.084 470.379 53.3692 470.147 53.7075V59H469.393V51.9965H470.147V53.055C470.427 52.7263 470.799 52.4412 471.263 52.1995C471.727 51.9482 472.196 51.8225 472.67 51.8225C474.139 51.8225 474.874 52.5813 474.874 54.099V59ZM483.154 59H482.385V57.8835C482.124 58.2605 481.776 58.5698 481.341 58.8115C480.916 59.0532 480.452 59.174 479.949 59.174C479.012 59.174 478.253 58.8405 477.673 58.1735C477.102 57.5065 476.817 56.6172 476.817 55.5055C476.817 54.4035 477.107 53.5142 477.687 52.8375C478.267 52.1608 479.021 51.8225 479.949 51.8225C480.955 51.8225 481.767 52.2575 482.385 53.1275V49.3285H483.154V59ZM480.08 58.4925C480.553 58.4925 481.003 58.3717 481.428 58.13C481.854 57.8883 482.173 57.5935 482.385 57.2455V53.78C482.173 53.4223 481.854 53.1227 481.428 52.881C481.003 52.6297 480.553 52.504 480.08 52.504C479.326 52.504 478.726 52.7892 478.282 53.3595C477.847 53.9202 477.629 54.6355 477.629 55.5055C477.629 56.3755 477.847 57.0908 478.282 57.6515C478.726 58.2122 479.326 58.4925 480.08 58.4925ZM485.884 50.8945C485.729 50.8945 485.594 50.8365 485.478 50.7205C485.362 50.6045 485.304 50.4692 485.304 50.3145C485.304 50.1598 485.362 50.0293 485.478 49.923C485.594 49.807 485.729 49.749 485.884 49.749C486.048 49.749 486.184 49.807 486.29 49.923C486.406 50.0293 486.464 50.1598 486.464 50.3145C486.464 50.4788 486.406 50.619 486.29 50.735C486.184 50.8413 486.048 50.8945 485.884 50.8945ZM486.261 59H485.507V51.9965H486.261V59ZM494.089 59H493.335V54.2585C493.335 53.6205 493.19 53.171 492.9 52.91C492.61 52.6393 492.19 52.504 491.639 52.504C491.204 52.504 490.773 52.62 490.348 52.852C489.923 53.084 489.594 53.3692 489.362 53.7075V59H488.608V51.9965H489.362V53.055C489.642 52.7263 490.015 52.4412 490.479 52.1995C490.943 51.9482 491.411 51.8225 491.885 51.8225C493.354 51.8225 494.089 52.5813 494.089 54.099V59ZM499.208 61.842C498.599 61.842 498.087 61.7647 497.671 61.61C497.255 61.465 496.849 61.1895 496.453 60.7835L496.888 60.2035C497.188 60.5612 497.516 60.8125 497.874 60.9575C498.232 61.1122 498.676 61.1895 499.208 61.1895C499.904 61.1895 500.474 61.001 500.919 60.624C501.373 60.2567 501.601 59.696 501.601 58.942V57.84C501.34 58.217 500.992 58.5312 500.557 58.7825C500.131 59.0242 499.667 59.145 499.165 59.145C498.227 59.145 497.468 58.8163 496.888 58.159C496.318 57.492 496.033 56.6027 496.033 55.491C496.033 54.389 496.323 53.5045 496.903 52.8375C497.483 52.1608 498.237 51.8225 499.165 51.8225C500.17 51.8225 500.982 52.2575 501.601 53.1275V51.9965H502.369V58.9275C502.369 59.9328 502.074 60.6675 501.485 61.1315C500.905 61.6052 500.146 61.842 499.208 61.842ZM499.295 58.4635C499.769 58.4635 500.218 58.3427 500.644 58.101C501.069 57.8497 501.388 57.5452 501.601 57.1875V53.78C501.388 53.4223 501.069 53.1227 500.644 52.881C500.218 52.6297 499.769 52.504 499.295 52.504C498.541 52.504 497.942 52.7843 497.497 53.345C497.062 53.9057 496.845 54.621 496.845 55.491C496.845 56.361 497.062 57.0763 497.497 57.637C497.942 58.188 498.541 58.4635 499.295 58.4635ZM262.38 84H261.626V83.1735C261.017 83.8405 260.224 84.174 259.248 84.174C258.6 84.174 258.03 83.9662 257.537 83.5505C257.044 83.1252 256.798 82.5548 256.798 81.8395C256.798 81.1145 257.039 80.549 257.523 80.143C258.016 79.7273 258.591 79.5195 259.248 79.5195C260.234 79.5195 261.027 79.853 261.626 80.52V79.099C261.626 78.5963 261.447 78.2048 261.09 77.9245C260.732 77.6345 260.282 77.4895 259.741 77.4895C258.881 77.4895 258.151 77.8327 257.552 78.519L257.131 77.997C257.856 77.214 258.755 76.8225 259.828 76.8225C260.582 76.8225 261.196 77.011 261.67 77.388C262.143 77.765 262.38 78.3257 262.38 79.07V84ZM259.509 83.5795C260.427 83.5795 261.133 83.2605 261.626 82.6225V81.0855C261.123 80.4378 260.418 80.114 259.509 80.114C258.939 80.114 258.475 80.2783 258.117 80.607C257.769 80.9357 257.595 81.3513 257.595 81.854C257.595 82.3567 257.769 82.7723 258.117 83.101C258.475 83.42 258.939 83.5795 259.509 83.5795ZM269.242 84H268.488V76.9965H269.242V78.2C269.929 77.301 270.717 76.8515 271.606 76.8515V77.678C271.519 77.6587 271.393 77.649 271.229 77.649C270.881 77.649 270.504 77.7795 270.098 78.0405C269.692 78.3015 269.407 78.5867 269.242 78.896V84ZM273.468 75.8945C273.313 75.8945 273.178 75.8365 273.062 75.7205C272.946 75.6045 272.888 75.4692 272.888 75.3145C272.888 75.1598 272.946 75.0293 273.062 74.923C273.178 74.807 273.313 74.749 273.468 74.749C273.632 74.749 273.767 74.807 273.874 74.923C273.99 75.0293 274.048 75.1598 274.048 75.3145C274.048 75.4788 273.99 75.619 273.874 75.735C273.767 75.8413 273.632 75.8945 273.468 75.8945ZM273.845 84H273.091V76.9965H273.845V84ZM282.122 84H281.354V82.8835C281.093 83.2605 280.745 83.5698 280.31 83.8115C279.884 84.0532 279.42 84.174 278.918 84.174C277.98 84.174 277.221 83.8405 276.641 83.1735C276.071 82.5065 275.786 81.6172 275.786 80.5055C275.786 79.4035 276.076 78.5142 276.656 77.8375C277.236 77.1608 277.99 76.8225 278.918 76.8225C279.923 76.8225 280.735 77.2575 281.354 78.1275V74.3285H282.122V84ZM279.048 83.4925C279.522 83.4925 279.971 83.3717 280.397 83.13C280.822 82.8883 281.141 82.5935 281.354 82.2455V78.78C281.141 78.4223 280.822 78.1227 280.397 77.881C279.971 77.6297 279.522 77.504 279.048 77.504C278.294 77.504 277.695 77.7892 277.25 78.3595C276.815 78.9202 276.598 79.6355 276.598 80.5055C276.598 81.3755 276.815 82.0908 277.25 82.6515C277.695 83.2122 278.294 83.4925 279.048 83.4925ZM287.578 84.174C286.554 84.174 285.713 83.8308 285.055 83.1445C284.398 82.4582 284.069 81.5737 284.069 80.491C284.069 79.4663 284.388 78.6012 285.026 77.8955C285.674 77.1802 286.481 76.8225 287.448 76.8225C288.472 76.8225 289.28 77.1802 289.869 77.8955C290.459 78.6012 290.754 79.4808 290.754 80.5345V80.7375H284.896C284.934 81.5302 285.2 82.1923 285.693 82.724C286.186 83.2557 286.834 83.5215 287.636 83.5215C288.564 83.5215 289.328 83.1977 289.927 82.55L290.319 83.043C289.594 83.797 288.68 84.174 287.578 84.174ZM289.985 80.143C289.976 79.4663 289.748 78.8525 289.304 78.3015C288.869 77.7505 288.245 77.475 287.433 77.475C286.67 77.475 286.061 77.7505 285.606 78.3015C285.162 78.8428 284.925 79.4567 284.896 80.143H289.985ZM297.977 84.174C297.059 84.174 296.6 83.6665 296.6 82.6515V77.6635H295.44V76.9965H296.6V75.0825H297.368V76.9965H298.789V77.6635H297.368V82.5355C297.368 83.1735 297.61 83.4925 298.093 83.4925C298.412 83.4925 298.673 83.3813 298.876 83.159L299.166 83.739C298.857 84.029 298.461 84.174 297.977 84.174ZM305.653 84H304.899V83.1735C304.29 83.8405 303.498 84.174 302.521 84.174C301.874 84.174 301.303 83.9662 300.81 83.5505C300.317 83.1252 300.071 82.5548 300.071 81.8395C300.071 81.1145 300.313 80.549 300.796 80.143C301.289 79.7273 301.864 79.5195 302.521 79.5195C303.507 79.5195 304.3 79.853 304.899 80.52V79.099C304.899 78.5963 304.721 78.2048 304.363 77.9245C304.005 77.6345 303.556 77.4895 303.014 77.4895C302.154 77.4895 301.424 77.8327 300.825 78.519L300.404 77.997C301.129 77.214 302.028 76.8225 303.101 76.8225C303.855 76.8225 304.469 77.011 304.943 77.388C305.417 77.765 305.653 78.3257 305.653 79.07V84ZM302.782 83.5795C303.701 83.5795 304.406 83.2605 304.899 82.6225V81.0855C304.397 80.4378 303.691 80.114 302.782 80.114C302.212 80.114 301.748 80.2783 301.39 80.607C301.042 80.9357 300.868 81.3513 300.868 81.854C300.868 82.3567 301.042 82.7723 301.39 83.101C301.748 83.42 302.212 83.5795 302.782 83.5795ZM313.882 84H312.867L310.068 80.665L308.763 81.8975V84H308.009V74.3285H308.763V80.9985L312.896 76.9965H313.896L310.634 80.1575L313.882 84ZM318.419 84.174C317.394 84.174 316.553 83.8308 315.896 83.1445C315.239 82.4582 314.91 81.5737 314.91 80.491C314.91 79.4663 315.229 78.6012 315.867 77.8955C316.515 77.1802 317.322 76.8225 318.289 76.8225C319.313 76.8225 320.12 77.1802 320.71 77.8955C321.3 78.6012 321.595 79.4808 321.595 80.5345V80.7375H315.737C315.775 81.5302 316.041 82.1923 316.534 82.724C317.027 83.2557 317.675 83.5215 318.477 83.5215C319.405 83.5215 320.169 83.1977 320.768 82.55L321.16 83.043C320.435 83.797 319.521 84.174 318.419 84.174ZM320.826 80.143C320.816 79.4663 320.589 78.8525 320.145 78.3015C319.71 77.7505 319.086 77.475 318.274 77.475C317.51 77.475 316.901 77.7505 316.447 78.3015C316.002 78.8428 315.766 79.4567 315.737 80.143H320.826ZM325.631 84.174C324.5 84.174 323.601 83.8067 322.934 83.072L323.384 82.5065C323.625 82.8062 323.944 83.0527 324.341 83.246C324.737 83.4393 325.172 83.536 325.646 83.536C326.216 83.536 326.67 83.4055 327.009 83.1445C327.347 82.8738 327.516 82.5307 327.516 82.115C327.516 81.767 327.361 81.4915 327.052 81.2885C326.752 81.0758 326.385 80.9212 325.95 80.8245C325.525 80.7182 325.095 80.607 324.66 80.491C324.225 80.3653 323.852 80.1623 323.543 79.882C323.243 79.6017 323.094 79.2295 323.094 78.7655C323.094 78.2145 323.316 77.7553 323.761 77.388C324.215 77.011 324.824 76.8225 325.588 76.8225C326.641 76.8225 327.477 77.1657 328.096 77.852L327.676 78.3885C327.221 77.7698 326.525 77.4605 325.588 77.4605C325.056 77.4605 324.631 77.5813 324.312 77.823C323.993 78.0647 323.833 78.3692 323.833 78.7365C323.833 79.0555 323.983 79.3068 324.283 79.4905C324.592 79.6742 324.959 79.8192 325.385 79.9255C325.82 80.0222 326.255 80.1333 326.69 80.259C327.125 80.3847 327.492 80.6022 327.792 80.9115C328.101 81.2208 328.256 81.622 328.256 82.115C328.256 82.7143 328.028 83.2073 327.574 83.594C327.12 83.9807 326.472 84.174 325.631 84.174ZM335.473 84.174C334.555 84.174 334.096 83.6665 334.096 82.6515V77.6635H332.936V76.9965H334.096V75.0825H334.864V76.9965H336.285V77.6635H334.864V82.5355C334.864 83.1735 335.106 83.4925 335.589 83.4925C335.908 83.4925 336.169 83.3813 336.372 83.159L336.662 83.739C336.353 84.029 335.957 84.174 335.473 84.174ZM340.902 84.174C339.897 84.174 339.085 83.8212 338.466 83.1155C337.847 82.4098 337.538 81.535 337.538 80.491C337.538 79.447 337.847 78.577 338.466 77.881C339.085 77.1753 339.897 76.8225 340.902 76.8225C341.917 76.8225 342.734 77.1753 343.353 77.881C343.971 78.577 344.281 79.447 344.281 80.491C344.281 81.535 343.971 82.4098 343.353 83.1155C342.734 83.8212 341.917 84.174 340.902 84.174ZM340.902 83.4925C341.695 83.4925 342.318 83.2025 342.773 82.6225C343.237 82.0328 343.469 81.3223 343.469 80.491C343.469 79.6693 343.237 78.9685 342.773 78.3885C342.318 77.7988 341.695 77.504 340.902 77.504C340.119 77.504 339.496 77.7988 339.032 78.3885C338.577 78.9685 338.35 79.6693 338.35 80.491C338.35 81.3127 338.577 82.0183 339.032 82.608C339.496 83.1977 340.119 83.4925 340.902 83.4925ZM349.186 84.174C348.18 84.174 347.368 83.8212 346.75 83.1155C346.131 82.4098 345.822 81.535 345.822 80.491C345.822 79.447 346.131 78.577 346.75 77.881C347.368 77.1753 348.18 76.8225 349.186 76.8225C350.201 76.8225 351.018 77.1753 351.636 77.881C352.255 78.577 352.564 79.447 352.564 80.491C352.564 81.535 352.255 82.4098 351.636 83.1155C351.018 83.8212 350.201 84.174 349.186 84.174ZM349.186 83.4925C349.978 83.4925 350.602 83.2025 351.056 82.6225C351.52 82.0328 351.752 81.3223 351.752 80.491C351.752 79.6693 351.52 78.9685 351.056 78.3885C350.602 77.7988 349.978 77.504 349.186 77.504C348.403 77.504 347.779 77.7988 347.315 78.3885C346.861 78.9685 346.634 79.6693 346.634 80.491C346.634 81.3127 346.861 82.0183 347.315 82.608C347.779 83.1977 348.403 83.4925 349.186 83.4925ZM367.355 84H366.601V79.099C366.601 78.0357 366.133 77.504 365.195 77.504C364.828 77.504 364.451 77.62 364.064 77.852C363.687 78.084 363.397 78.3643 363.194 78.693V84H362.425V79.099C362.425 78.0357 361.957 77.504 361.019 77.504C360.661 77.504 360.294 77.6248 359.917 77.8665C359.54 78.0985 359.24 78.3788 359.018 78.7075V84H358.264V76.9965H359.018V78.055C359.192 77.7747 359.496 77.4992 359.931 77.2285C360.376 76.9578 360.826 76.8225 361.28 76.8225C361.792 76.8225 362.203 76.9482 362.512 77.1995C362.822 77.4508 363.025 77.765 363.121 78.142C363.334 77.794 363.658 77.4895 364.093 77.2285C364.528 76.9578 364.977 76.8225 365.441 76.8225C366.717 76.8225 367.355 77.533 367.355 78.954V84ZM375.186 84H374.432V82.9705C374.113 83.3185 373.731 83.6085 373.287 83.8405C372.842 84.0628 372.383 84.174 371.909 84.174C371.175 84.174 370.624 83.9952 370.256 83.6375C369.889 83.2702 369.705 82.6998 369.705 81.9265V76.9965H370.459V81.7525C370.459 82.4002 370.604 82.8545 370.894 83.1155C371.184 83.3668 371.605 83.4925 372.156 83.4925C372.591 83.4925 373.016 83.3813 373.432 83.159C373.857 82.9367 374.191 82.6612 374.432 82.3325V76.9965H375.186V84ZM380.537 84.174C379.522 84.174 378.701 83.8212 378.072 83.1155C377.444 82.4098 377.13 81.535 377.13 80.491C377.13 79.447 377.444 78.577 378.072 77.881C378.701 77.1753 379.522 76.8225 380.537 76.8225C381.562 76.8225 382.388 77.2188 383.017 78.0115L382.495 78.4755C382.021 77.8278 381.383 77.504 380.581 77.504C379.778 77.504 379.136 77.7892 378.652 78.3595C378.179 78.9202 377.942 79.6307 377.942 80.491C377.942 81.3513 378.179 82.0667 378.652 82.637C379.136 83.2073 379.778 83.4925 380.581 83.4925C381.373 83.4925 382.011 83.1638 382.495 82.5065L383.017 82.9705C382.388 83.7728 381.562 84.174 380.537 84.174ZM390.182 84H389.428V79.2295C389.428 78.5915 389.283 78.1468 388.993 77.8955C388.703 77.6345 388.282 77.504 387.731 77.504C387.296 77.504 386.866 77.62 386.441 77.852C386.016 78.084 385.687 78.3692 385.455 78.7075V84H384.701V74.3285H385.455V78.055C385.735 77.7263 386.107 77.4412 386.571 77.1995C387.035 76.9482 387.504 76.8225 387.978 76.8225C389.447 76.8225 390.182 77.5717 390.182 79.07V84ZM397.806 84.174C396.888 84.174 396.429 83.6665 396.429 82.6515V77.6635H395.269V76.9965H396.429V75.0825H397.197V76.9965H398.618V77.6635H397.197V82.5355C397.197 83.1735 397.439 83.4925 397.922 83.4925C398.241 83.4925 398.502 83.3813 398.705 83.159L398.995 83.739C398.686 84.029 398.29 84.174 397.806 84.174ZM400.654 75.8945C400.499 75.8945 400.364 75.8365 400.248 75.7205C400.132 75.6045 400.074 75.4692 400.074 75.3145C400.074 75.1598 400.132 75.0293 400.248 74.923C400.364 74.807 400.499 74.749 400.654 74.749C400.818 74.749 400.954 74.807 401.06 74.923C401.176 75.0293 401.234 75.1598 401.234 75.3145C401.234 75.4788 401.176 75.619 401.06 75.735C400.954 75.8413 400.818 75.8945 400.654 75.8945ZM401.031 84H400.277V76.9965H401.031V84ZM412.47 84H411.716V79.099C411.716 78.0357 411.247 77.504 410.309 77.504C409.942 77.504 409.565 77.62 409.178 77.852C408.801 78.084 408.511 78.3643 408.308 78.693V84H407.54V79.099C407.54 78.0357 407.071 77.504 406.133 77.504C405.775 77.504 405.408 77.6248 405.031 77.8665C404.654 78.0985 404.354 78.3788 404.132 78.7075V84H403.378V76.9965H404.132V78.055C404.306 77.7747 404.611 77.4992 405.046 77.2285C405.49 76.9578 405.94 76.8225 406.394 76.8225C406.906 76.8225 407.317 76.9482 407.627 77.1995C407.936 77.4508 408.139 77.765 408.236 78.142C408.448 77.794 408.772 77.4895 409.207 77.2285C409.642 76.9578 410.092 76.8225 410.556 76.8225C411.832 76.8225 412.47 77.533 412.47 78.954V84ZM417.923 84.174C416.898 84.174 416.057 83.8308 415.4 83.1445C414.742 82.4582 414.414 81.5737 414.414 80.491C414.414 79.4663 414.733 78.6012 415.371 77.8955C416.018 77.1802 416.825 76.8225 417.792 76.8225C418.817 76.8225 419.624 77.1802 420.214 77.8955C420.803 78.6012 421.098 79.4808 421.098 80.5345V80.7375H415.24C415.279 81.5302 415.545 82.1923 416.038 82.724C416.531 83.2557 417.178 83.5215 417.981 83.5215C418.909 83.5215 419.672 83.1977 420.272 82.55L420.663 83.043C419.938 83.797 419.025 84.174 417.923 84.174ZM420.33 80.143C420.32 79.4663 420.093 78.8525 419.648 78.3015C419.213 77.7505 418.59 77.475 417.778 77.475C417.014 77.475 416.405 77.7505 415.951 78.3015C415.506 78.8428 415.269 79.4567 415.24 80.143H420.33Z" fill="#1F1F1F"/>
<path d="M68.2522 42.36L65.1922 46.38C64.0522 47.88 63.0522 49.38 63.0522 51.5C63.0522 52.68 63.3322 53.8 64.2122 54.74C65.5322 56.18 67.3122 56.3 68.5322 56.3C69.7122 56.3 71.4122 56.12 72.6322 54.8C73.4922 53.86 73.8922 52.5 73.8922 51.22C73.8922 49.6 73.2122 48.64 72.7322 48.14C72.1522 47.54 71.1122 46.86 69.4322 46.86C68.8522 46.86 68.4322 46.94 68.0322 47.08L71.5522 42.7L68.2522 42.36ZM68.4322 53.78C67.7522 53.78 67.1922 53.52 66.8122 53.16C66.3122 52.7 66.1322 52.12 66.1322 51.5C66.1322 50.58 66.5522 50.04 66.8122 49.8C67.2722 49.36 67.8322 49.22 68.4322 49.22C68.9522 49.22 69.5322 49.34 70.0322 49.78C70.4122 50.12 70.7322 50.64 70.7322 51.42C70.7322 52.28 70.3922 52.84 70.0322 53.18C69.7522 53.44 69.2322 53.78 68.4322 53.78ZM84.7741 42.66H81.1741L75.2941 51.72V53.48H81.8141V56H84.7741V53.48H86.3741V51.04H84.7741V42.66ZM78.5341 51.04L81.8141 45.86V51.04H78.5341ZM90.6063 55.96L91.9863 56.28L99.8263 42.74L98.4263 42.44L90.6063 55.96ZM91.0063 44.1C91.5463 44.1 91.9263 44.32 92.1463 44.56C92.4063 44.82 92.5863 45.24 92.5863 45.72C92.5863 46.2 92.4063 46.62 92.1463 46.88C91.9263 47.12 91.5463 47.34 91.0063 47.34C90.4663 47.34 90.0863 47.12 89.8663 46.88C89.6063 46.62 89.4263 46.2 89.4263 45.72C89.4263 45.24 89.6063 44.82 89.8663 44.56C90.0863 44.32 90.4663 44.1 91.0063 44.1ZM94.5063 45.72C94.5063 44.54 93.9863 43.82 93.6463 43.48C93.0263 42.84 92.0663 42.48 91.0063 42.48C89.9463 42.48 88.9863 42.84 88.3663 43.48C88.0263 43.82 87.5063 44.54 87.5063 45.72C87.5063 46.9 88.0263 47.62 88.3663 47.96C88.9863 48.6 89.9463 48.96 91.0063 48.96C92.0663 48.96 93.0263 48.6 93.6463 47.96C93.9863 47.62 94.5063 46.9 94.5063 45.72ZM99.4062 51.32C99.9463 51.32 100.326 51.54 100.546 51.78C100.806 52.04 100.986 52.46 100.986 52.94C100.986 53.42 100.806 53.84 100.546 54.1C100.326 54.34 99.9463 54.56 99.4062 54.56C98.8663 54.56 98.4863 54.34 98.2663 54.1C98.0063 53.84 97.8263 53.42 97.8263 52.94C97.8263 52.46 98.0063 52.04 98.2663 51.78C98.4863 51.54 98.8663 51.32 99.4062 51.32ZM102.906 52.94C102.906 51.76 102.386 51.04 102.046 50.7C101.426 50.06 100.466 49.7 99.4062 49.7C98.3463 49.7 97.3863 50.06 96.7663 50.7C96.4263 51.04 95.9063 51.76 95.9063 52.94C95.9063 54.12 96.4263 54.84 96.7663 55.18C97.3863 55.82 98.3463 56.18 99.4062 56.18C100.466 56.18 101.426 55.82 102.046 55.18C102.386 54.84 102.906 54.12 102.906 52.94Z" fill="#BA8913"/>
<path d="M126 71H206C207.657 71 209 72.3431 209 74V84C209 85.6569 207.657 87 206 87H126V71Z" fill="#EDD7A2"/>
<path d="M61 74C61 72.3431 62.3431 71 64 71H158V87H64C62.3431 87 61 85.6569 61 84V74Z" fill="#BA8913"/>
</svg>
