<svg width="580" height="105" viewBox="0 0 580 105" fill="none" xmlns="http://www.w3.org/2000/svg">
<rect width="580" height="105" rx="5" fill="#F7F7F7"/>
<path d="M260.51 46H259.669V37.0825H256.508V36.3285H263.671V37.0825H260.51V46ZM270.84 46H270.086V41.2295C270.086 40.5915 269.941 40.1468 269.651 39.8955C269.361 39.6345 268.941 39.504 268.39 39.504C267.955 39.504 267.524 39.62 267.099 39.852C266.674 40.084 266.345 40.3692 266.113 40.7075V46H265.359V36.3285H266.113V40.055C266.393 39.7263 266.766 39.4412 267.23 39.1995C267.694 38.9482 268.162 38.8225 268.636 38.8225C270.105 38.8225 270.84 39.5717 270.84 41.07V46ZM276.293 46.174C275.268 46.174 274.427 45.8308 273.77 45.1445C273.112 44.4582 272.784 43.5737 272.784 42.491C272.784 41.4663 273.103 40.6012 273.741 39.8955C274.388 39.1802 275.195 38.8225 276.162 38.8225C277.187 38.8225 277.994 39.1802 278.584 39.8955C279.173 40.6012 279.468 41.4808 279.468 42.5345V42.7375H273.61C273.649 43.5302 273.915 44.1923 274.408 44.724C274.901 45.2557 275.548 45.5215 276.351 45.5215C277.279 45.5215 278.042 45.1977 278.642 44.55L279.033 45.043C278.308 45.797 277.395 46.174 276.293 46.174ZM278.7 42.143C278.69 41.4663 278.463 40.8525 278.018 40.3015C277.583 39.7505 276.96 39.475 276.148 39.475C275.384 39.475 274.775 39.7505 274.321 40.3015C273.876 40.8428 273.639 41.4567 273.61 42.143H278.7ZM285.923 46H285.169V38.9965H285.923V40.2C286.609 39.301 287.397 38.8515 288.287 38.8515V39.678C288.2 39.6587 288.074 39.649 287.91 39.649C287.562 39.649 287.185 39.7795 286.779 40.0405C286.373 40.3015 286.087 40.5867 285.923 40.896V46ZM294.977 46H294.223V45.1735C293.614 45.8405 292.821 46.174 291.845 46.174C291.197 46.174 290.627 45.9662 290.134 45.5505C289.641 45.1252 289.394 44.5548 289.394 43.8395C289.394 43.1145 289.636 42.549 290.119 42.143C290.612 41.7273 291.187 41.5195 291.845 41.5195C292.831 41.5195 293.623 41.853 294.223 42.52V41.099C294.223 40.5963 294.044 40.2048 293.686 39.9245C293.329 39.6345 292.879 39.4895 292.338 39.4895C291.477 39.4895 290.748 39.8327 290.148 40.519L289.728 39.997C290.453 39.214 291.352 38.8225 292.425 38.8225C293.179 38.8225 293.793 39.011 294.266 39.388C294.74 39.765 294.977 40.3257 294.977 41.07V46ZM292.106 45.5795C293.024 45.5795 293.73 45.2605 294.223 44.6225V43.0855C293.72 42.4378 293.014 42.114 292.106 42.114C291.535 42.114 291.071 42.2783 290.714 42.607C290.366 42.9357 290.192 43.3513 290.192 43.854C290.192 44.3567 290.366 44.7723 290.714 45.101C291.071 45.42 291.535 45.5795 292.106 45.5795ZM298.855 46.174C297.937 46.174 297.478 45.6665 297.478 44.6515V39.6635H296.318V38.9965H297.478V37.0825H298.246V38.9965H299.667V39.6635H298.246V44.5355C298.246 45.1735 298.488 45.4925 298.971 45.4925C299.29 45.4925 299.551 45.3813 299.754 45.159L300.044 45.739C299.735 46.029 299.339 46.174 298.855 46.174ZM301.703 37.8945C301.548 37.8945 301.413 37.8365 301.297 37.7205C301.181 37.6045 301.123 37.4692 301.123 37.3145C301.123 37.1598 301.181 37.0293 301.297 36.923C301.413 36.807 301.548 36.749 301.703 36.749C301.867 36.749 302.003 36.807 302.109 36.923C302.225 37.0293 302.283 37.1598 302.283 37.3145C302.283 37.4788 302.225 37.619 302.109 37.735C302.003 37.8413 301.867 37.8945 301.703 37.8945ZM302.08 46H301.326V38.9965H302.08V46ZM307.385 46.174C306.38 46.174 305.568 45.8212 304.949 45.1155C304.33 44.4098 304.021 43.535 304.021 42.491C304.021 41.447 304.33 40.577 304.949 39.881C305.568 39.1753 306.38 38.8225 307.385 38.8225C308.4 38.8225 309.217 39.1753 309.835 39.881C310.454 40.577 310.763 41.447 310.763 42.491C310.763 43.535 310.454 44.4098 309.835 45.1155C309.217 45.8212 308.4 46.174 307.385 46.174ZM307.385 45.4925C308.178 45.4925 308.801 45.2025 309.255 44.6225C309.719 44.0328 309.951 43.3223 309.951 42.491C309.951 41.6693 309.719 40.9685 309.255 40.3885C308.801 39.7988 308.178 39.504 307.385 39.504C306.602 39.504 305.978 39.7988 305.514 40.3885C305.06 40.9685 304.833 41.6693 304.833 42.491C304.833 43.3127 305.06 44.0183 305.514 44.608C305.978 45.1977 306.602 45.4925 307.385 45.4925ZM319.421 46.174C318.416 46.174 317.604 45.8212 316.985 45.1155C316.366 44.4098 316.057 43.535 316.057 42.491C316.057 41.447 316.366 40.577 316.985 39.881C317.604 39.1753 318.416 38.8225 319.421 38.8225C320.436 38.8225 321.253 39.1753 321.872 39.881C322.49 40.577 322.8 41.447 322.8 42.491C322.8 43.535 322.49 44.4098 321.872 45.1155C321.253 45.8212 320.436 46.174 319.421 46.174ZM319.421 45.4925C320.214 45.4925 320.837 45.2025 321.292 44.6225C321.756 44.0328 321.988 43.3223 321.988 42.491C321.988 41.6693 321.756 40.9685 321.292 40.3885C320.837 39.7988 320.214 39.504 319.421 39.504C318.638 39.504 318.015 39.7988 317.551 40.3885C317.096 40.9685 316.869 41.6693 316.869 42.491C316.869 43.3127 317.096 44.0183 317.551 44.608C318.015 45.1977 318.638 45.4925 319.421 45.4925ZM325.747 46H324.993V39.6635H323.833V38.9965H324.993V38.3585C324.993 37.6818 325.162 37.1502 325.501 36.7635C325.839 36.3768 326.303 36.1835 326.893 36.1835C327.405 36.1835 327.85 36.3478 328.227 36.6765L327.864 37.1985C327.603 36.9568 327.304 36.836 326.965 36.836C326.153 36.836 325.747 37.3435 325.747 38.3585V38.9965H327.168V39.6635H325.747V46ZM337.818 46H337.064V41.2585C337.064 40.6205 336.919 40.171 336.629 39.91C336.339 39.6393 335.918 39.504 335.367 39.504C334.932 39.504 334.502 39.62 334.077 39.852C333.651 40.084 333.323 40.3692 333.091 40.7075V46H332.337V38.9965H333.091V40.055C333.371 39.7263 333.743 39.4412 334.207 39.1995C334.671 38.9482 335.14 38.8225 335.614 38.8225C337.083 38.8225 337.818 39.5813 337.818 41.099V46ZM343.125 46.174C342.12 46.174 341.308 45.8212 340.689 45.1155C340.071 44.4098 339.761 43.535 339.761 42.491C339.761 41.447 340.071 40.577 340.689 39.881C341.308 39.1753 342.12 38.8225 343.125 38.8225C344.14 38.8225 344.957 39.1753 345.576 39.881C346.194 40.577 346.504 41.447 346.504 42.491C346.504 43.535 346.194 44.4098 345.576 45.1155C344.957 45.8212 344.14 46.174 343.125 46.174ZM343.125 45.4925C343.918 45.4925 344.541 45.2025 344.996 44.6225C345.46 44.0328 345.692 43.3223 345.692 42.491C345.692 41.6693 345.46 40.9685 344.996 40.3885C344.541 39.7988 343.918 39.504 343.125 39.504C342.342 39.504 341.719 39.7988 341.255 40.3885C340.8 40.9685 340.573 41.6693 340.573 42.491C340.573 43.3127 340.8 44.0183 341.255 44.608C341.719 45.1977 342.342 45.4925 343.125 45.4925ZM353.932 46H353.178V41.2585C353.178 40.6205 353.033 40.171 352.743 39.91C352.453 39.6393 352.032 39.504 351.481 39.504C351.046 39.504 350.616 39.62 350.191 39.852C349.766 40.084 349.437 40.3692 349.205 40.7075V46H348.451V38.9965H349.205V40.055C349.485 39.7263 349.857 39.4412 350.321 39.1995C350.785 38.9482 351.254 38.8225 351.728 38.8225C353.197 38.8225 353.932 39.5813 353.932 41.099V46ZM359.022 42.839H355.542V42.143H359.022V42.839ZM366.11 46H365.356V44.9705C365.037 45.3185 364.655 45.6085 364.21 45.8405C363.765 46.0628 363.306 46.174 362.833 46.174C362.098 46.174 361.547 45.9952 361.18 45.6375C360.812 45.2702 360.629 44.6998 360.629 43.9265V38.9965H361.383V43.7525C361.383 44.4002 361.528 44.8545 361.818 45.1155C362.108 45.3668 362.528 45.4925 363.079 45.4925C363.514 45.4925 363.939 45.3813 364.355 45.159C364.78 44.9367 365.114 44.6612 365.356 44.3325V38.9965H366.11V46ZM370.547 46.174C369.416 46.174 368.517 45.8067 367.85 45.072L368.3 44.5065C368.541 44.8062 368.86 45.0527 369.257 45.246C369.653 45.4393 370.088 45.536 370.562 45.536C371.132 45.536 371.586 45.4055 371.925 45.1445C372.263 44.8738 372.432 44.5307 372.432 44.115C372.432 43.767 372.278 43.4915 371.968 43.2885C371.669 43.0758 371.301 42.9212 370.866 42.8245C370.441 42.7182 370.011 42.607 369.576 42.491C369.141 42.3653 368.769 42.1623 368.459 41.882C368.16 41.6017 368.01 41.2295 368.01 40.7655C368.01 40.2145 368.232 39.7553 368.677 39.388C369.131 39.011 369.74 38.8225 370.504 38.8225C371.557 38.8225 372.394 39.1657 373.012 39.852L372.592 40.3885C372.137 39.7698 371.441 39.4605 370.504 39.4605C369.972 39.4605 369.547 39.5813 369.228 39.823C368.909 40.0647 368.749 40.3692 368.749 40.7365C368.749 41.0555 368.899 41.3068 369.199 41.4905C369.508 41.6742 369.875 41.8192 370.301 41.9255C370.736 42.0222 371.171 42.1333 371.606 42.259C372.041 42.3847 372.408 42.6022 372.708 42.9115C373.017 43.2208 373.172 43.622 373.172 44.115C373.172 44.7143 372.945 45.2073 372.49 45.594C372.036 45.9807 371.388 46.174 370.547 46.174ZM378.217 46.174C377.193 46.174 376.352 45.8308 375.694 45.1445C375.037 44.4582 374.708 43.5737 374.708 42.491C374.708 41.4663 375.027 40.6012 375.665 39.8955C376.313 39.1802 377.12 38.8225 378.087 38.8225C379.112 38.8225 379.919 39.1802 380.508 39.8955C381.098 40.6012 381.393 41.4808 381.393 42.5345V42.7375H375.535C375.574 43.5302 375.839 44.1923 376.332 44.724C376.825 45.2557 377.473 45.5215 378.275 45.5215C379.203 45.5215 379.967 45.1977 380.566 44.55L380.958 45.043C380.233 45.797 379.319 46.174 378.217 46.174ZM380.624 42.143C380.615 41.4663 380.388 40.8525 379.943 40.3015C379.508 39.7505 378.884 39.475 378.072 39.475C377.309 39.475 376.7 39.7505 376.245 40.3015C375.801 40.8428 375.564 41.4567 375.535 42.143H380.624ZM384.095 46H383.341V38.9965H384.095V40.2C384.782 39.301 385.57 38.8515 386.459 38.8515V39.678C386.372 39.6587 386.246 39.649 386.082 39.649C385.734 39.649 385.357 39.7795 384.951 40.0405C384.545 40.3015 384.26 40.5867 384.095 40.896V46ZM390.032 46.174C388.901 46.174 388.002 45.8067 387.335 45.072L387.784 44.5065C388.026 44.8062 388.345 45.0527 388.741 45.246C389.137 45.4393 389.572 45.536 390.046 45.536C390.616 45.536 391.071 45.4055 391.409 45.1445C391.747 44.8738 391.917 44.5307 391.917 44.115C391.917 43.767 391.762 43.4915 391.453 43.2885C391.153 43.0758 390.786 42.9212 390.351 42.8245C389.925 42.7182 389.495 42.607 389.06 42.491C388.625 42.3653 388.253 42.1623 387.944 41.882C387.644 41.6017 387.494 41.2295 387.494 40.7655C387.494 40.2145 387.716 39.7553 388.161 39.388C388.615 39.011 389.224 38.8225 389.988 38.8225C391.042 38.8225 391.878 39.1657 392.497 39.852L392.076 40.3885C391.622 39.7698 390.926 39.4605 389.988 39.4605C389.456 39.4605 389.031 39.5813 388.712 39.823C388.393 40.0647 388.234 40.3692 388.234 40.7365C388.234 41.0555 388.383 41.3068 388.683 41.4905C388.992 41.6742 389.36 41.8192 389.785 41.9255C390.22 42.0222 390.655 42.1333 391.09 42.259C391.525 42.3847 391.892 42.6022 392.192 42.9115C392.501 43.2208 392.656 43.622 392.656 44.115C392.656 44.7143 392.429 45.2073 391.975 45.594C391.52 45.9807 390.873 46.174 390.032 46.174ZM405.079 46H404.354L402.397 40.0115L400.425 46H399.7L397.423 38.9965H398.235L400.091 44.9415L402.063 38.9965H402.716L404.688 44.9415L406.544 38.9965H407.356L405.079 46ZM414.254 46H413.5V41.2295C413.5 40.5915 413.355 40.1468 413.065 39.8955C412.775 39.6345 412.355 39.504 411.804 39.504C411.369 39.504 410.938 39.62 410.513 39.852C410.088 40.084 409.759 40.3692 409.527 40.7075V46H408.773V36.3285H409.527V40.055C409.807 39.7263 410.18 39.4412 410.644 39.1995C411.108 38.9482 411.576 38.8225 412.05 38.8225C413.519 38.8225 414.254 39.5717 414.254 41.07V46ZM419.562 46.174C418.556 46.174 417.744 45.8212 417.126 45.1155C416.507 44.4098 416.198 43.535 416.198 42.491C416.198 41.447 416.507 40.577 417.126 39.881C417.744 39.1753 418.556 38.8225 419.562 38.8225C420.577 38.8225 421.394 39.1753 422.012 39.881C422.631 40.577 422.94 41.447 422.94 42.491C422.94 43.535 422.631 44.4098 422.012 45.1155C421.394 45.8212 420.577 46.174 419.562 46.174ZM419.562 45.4925C420.354 45.4925 420.978 45.2025 421.432 44.6225C421.896 44.0328 422.128 43.3223 422.128 42.491C422.128 41.6693 421.896 40.9685 421.432 40.3885C420.978 39.7988 420.354 39.504 419.562 39.504C418.779 39.504 418.155 39.7988 417.691 40.3885C417.237 40.9685 417.01 41.6693 417.01 42.491C417.01 43.3127 417.237 44.0183 417.691 44.608C418.155 45.1977 418.779 45.4925 419.562 45.4925ZM430.162 46.174C429.244 46.174 428.785 45.6665 428.785 44.6515V39.6635H427.625V38.9965H428.785V37.0825H429.553V38.9965H430.974V39.6635H429.553V44.5355C429.553 45.1735 429.795 45.4925 430.278 45.4925C430.597 45.4925 430.858 45.3813 431.061 45.159L431.351 45.739C431.042 46.029 430.646 46.174 430.162 46.174ZM438.114 46H437.36V41.2295C437.36 40.5915 437.215 40.1468 436.925 39.8955C436.635 39.6345 436.214 39.504 435.663 39.504C435.228 39.504 434.798 39.62 434.373 39.852C433.948 40.084 433.619 40.3692 433.387 40.7075V46H432.633V36.3285H433.387V40.055C433.667 39.7263 434.039 39.4412 434.503 39.1995C434.967 38.9482 435.436 38.8225 435.91 38.8225C437.379 38.8225 438.114 39.5717 438.114 41.07V46ZM440.841 37.8945C440.686 37.8945 440.551 37.8365 440.435 37.7205C440.319 37.6045 440.261 37.4692 440.261 37.3145C440.261 37.1598 440.319 37.0293 440.435 36.923C440.551 36.807 440.686 36.749 440.841 36.749C441.005 36.749 441.14 36.807 441.247 36.923C441.363 37.0293 441.421 37.1598 441.421 37.3145C441.421 37.4788 441.363 37.619 441.247 37.735C441.14 37.8413 441.005 37.8945 440.841 37.8945ZM441.218 46H440.464V38.9965H441.218V46ZM449.046 46H448.292V41.2585C448.292 40.6205 448.147 40.171 447.857 39.91C447.567 39.6393 447.146 39.504 446.595 39.504C446.16 39.504 445.73 39.62 445.305 39.852C444.879 40.084 444.551 40.3692 444.319 40.7075V46H443.565V38.9965H444.319V40.055C444.599 39.7263 444.971 39.4412 445.435 39.1995C445.899 38.9482 446.368 38.8225 446.842 38.8225C448.311 38.8225 449.046 39.5813 449.046 41.099V46ZM457.268 46H456.253L453.454 42.665L452.149 43.8975V46H451.395V36.3285H452.149V42.9985L456.282 38.9965H457.282L454.02 42.1575L457.268 46ZM463.469 46H462.715V39.6635H461.555V38.9965H462.715V38.3585C462.715 37.6722 462.884 37.1405 463.222 36.7635C463.561 36.3768 464.025 36.1835 464.614 36.1835C464.991 36.1835 465.306 36.256 465.557 36.401L465.325 36.9955C465.141 36.8892 464.929 36.836 464.687 36.836C463.875 36.836 463.469 37.3435 463.469 38.3585V38.9965H464.89V39.6635H463.469V46ZM467.094 37.735C466.978 37.8413 466.843 37.8945 466.688 37.8945C466.533 37.8945 466.398 37.8365 466.282 37.7205C466.166 37.6045 466.108 37.4692 466.108 37.3145C466.108 37.1598 466.166 37.0293 466.282 36.923C466.398 36.807 466.533 36.749 466.688 36.749C466.852 36.749 466.988 36.807 467.094 36.923C467.21 37.0293 467.268 37.1598 467.268 37.3145C467.268 37.4788 467.21 37.619 467.094 37.735ZM467.065 46H466.311V38.9965H467.065V46ZM474.874 46H474.12V41.2585C474.12 40.6205 473.975 40.171 473.685 39.91C473.395 39.6393 472.974 39.504 472.423 39.504C471.988 39.504 471.558 39.62 471.133 39.852C470.707 40.084 470.379 40.3692 470.147 40.7075V46H469.393V38.9965H470.147V40.055C470.427 39.7263 470.799 39.4412 471.263 39.1995C471.727 38.9482 472.196 38.8225 472.67 38.8225C474.139 38.8225 474.874 39.5813 474.874 41.099V46ZM483.154 46H482.385V44.8835C482.124 45.2605 481.776 45.5698 481.341 45.8115C480.916 46.0532 480.452 46.174 479.949 46.174C479.012 46.174 478.253 45.8405 477.673 45.1735C477.102 44.5065 476.817 43.6172 476.817 42.5055C476.817 41.4035 477.107 40.5142 477.687 39.8375C478.267 39.1608 479.021 38.8225 479.949 38.8225C480.955 38.8225 481.767 39.2575 482.385 40.1275V36.3285H483.154V46ZM480.08 45.4925C480.553 45.4925 481.003 45.3717 481.428 45.13C481.854 44.8883 482.173 44.5935 482.385 44.2455V40.78C482.173 40.4223 481.854 40.1227 481.428 39.881C481.003 39.6297 480.553 39.504 480.08 39.504C479.326 39.504 478.726 39.7892 478.282 40.3595C477.847 40.9202 477.629 41.6355 477.629 42.5055C477.629 43.3755 477.847 44.0908 478.282 44.6515C478.726 45.2122 479.326 45.4925 480.08 45.4925ZM485.884 37.8945C485.729 37.8945 485.594 37.8365 485.478 37.7205C485.362 37.6045 485.304 37.4692 485.304 37.3145C485.304 37.1598 485.362 37.0293 485.478 36.923C485.594 36.807 485.729 36.749 485.884 36.749C486.048 36.749 486.184 36.807 486.29 36.923C486.406 37.0293 486.464 37.1598 486.464 37.3145C486.464 37.4788 486.406 37.619 486.29 37.735C486.184 37.8413 486.048 37.8945 485.884 37.8945ZM486.261 46H485.507V38.9965H486.261V46ZM494.089 46H493.335V41.2585C493.335 40.6205 493.19 40.171 492.9 39.91C492.61 39.6393 492.19 39.504 491.639 39.504C491.204 39.504 490.773 39.62 490.348 39.852C489.923 40.084 489.594 40.3692 489.362 40.7075V46H488.608V38.9965H489.362V40.055C489.642 39.7263 490.015 39.4412 490.479 39.1995C490.943 38.9482 491.411 38.8225 491.885 38.8225C493.354 38.8225 494.089 39.5813 494.089 41.099V46ZM499.208 48.842C498.599 48.842 498.087 48.7647 497.671 48.61C497.255 48.465 496.849 48.1895 496.453 47.7835L496.888 47.2035C497.188 47.5612 497.516 47.8125 497.874 47.9575C498.232 48.1122 498.676 48.1895 499.208 48.1895C499.904 48.1895 500.474 48.001 500.919 47.624C501.373 47.2567 501.601 46.696 501.601 45.942V44.84C501.34 45.217 500.992 45.5312 500.557 45.7825C500.131 46.0242 499.667 46.145 499.165 46.145C498.227 46.145 497.468 45.8163 496.888 45.159C496.318 44.492 496.033 43.6027 496.033 42.491C496.033 41.389 496.323 40.5045 496.903 39.8375C497.483 39.1608 498.237 38.8225 499.165 38.8225C500.17 38.8225 500.982 39.2575 501.601 40.1275V38.9965H502.369V45.9275C502.369 46.9328 502.074 47.6675 501.485 48.1315C500.905 48.6052 500.146 48.842 499.208 48.842ZM499.295 45.4635C499.769 45.4635 500.218 45.3427 500.644 45.101C501.069 44.8497 501.388 44.5452 501.601 44.1875V40.78C501.388 40.4223 501.069 40.1227 500.644 39.881C500.218 39.6297 499.769 39.504 499.295 39.504C498.541 39.504 497.942 39.7843 497.497 40.345C497.062 40.9057 496.845 41.621 496.845 42.491C496.845 43.361 497.062 44.0763 497.497 44.637C497.942 45.188 498.541 45.4635 499.295 45.4635ZM262.38 71H261.626V70.1735C261.017 70.8405 260.224 71.174 259.248 71.174C258.6 71.174 258.03 70.9662 257.537 70.5505C257.044 70.1252 256.798 69.5548 256.798 68.8395C256.798 68.1145 257.039 67.549 257.523 67.143C258.016 66.7273 258.591 66.5195 259.248 66.5195C260.234 66.5195 261.027 66.853 261.626 67.52V66.099C261.626 65.5963 261.447 65.2048 261.09 64.9245C260.732 64.6345 260.282 64.4895 259.741 64.4895C258.881 64.4895 258.151 64.8327 257.552 65.519L257.131 64.997C257.856 64.214 258.755 63.8225 259.828 63.8225C260.582 63.8225 261.196 64.011 261.67 64.388C262.143 64.765 262.38 65.3257 262.38 66.07V71ZM259.509 70.5795C260.427 70.5795 261.133 70.2605 261.626 69.6225V68.0855C261.123 67.4378 260.418 67.114 259.509 67.114C258.939 67.114 258.475 67.2783 258.117 67.607C257.769 67.9357 257.595 68.3513 257.595 68.854C257.595 69.3567 257.769 69.7723 258.117 70.101C258.475 70.42 258.939 70.5795 259.509 70.5795ZM269.242 71H268.488V63.9965H269.242V65.2C269.929 64.301 270.717 63.8515 271.606 63.8515V64.678C271.519 64.6587 271.393 64.649 271.229 64.649C270.881 64.649 270.504 64.7795 270.098 65.0405C269.692 65.3015 269.407 65.5867 269.242 65.896V71ZM273.468 62.8945C273.313 62.8945 273.178 62.8365 273.062 62.7205C272.946 62.6045 272.888 62.4692 272.888 62.3145C272.888 62.1598 272.946 62.0293 273.062 61.923C273.178 61.807 273.313 61.749 273.468 61.749C273.632 61.749 273.767 61.807 273.874 61.923C273.99 62.0293 274.048 62.1598 274.048 62.3145C274.048 62.4788 273.99 62.619 273.874 62.735C273.767 62.8413 273.632 62.8945 273.468 62.8945ZM273.845 71H273.091V63.9965H273.845V71ZM282.122 71H281.354V69.8835C281.093 70.2605 280.745 70.5698 280.31 70.8115C279.884 71.0532 279.42 71.174 278.918 71.174C277.98 71.174 277.221 70.8405 276.641 70.1735C276.071 69.5065 275.786 68.6172 275.786 67.5055C275.786 66.4035 276.076 65.5142 276.656 64.8375C277.236 64.1608 277.99 63.8225 278.918 63.8225C279.923 63.8225 280.735 64.2575 281.354 65.1275V61.3285H282.122V71ZM279.048 70.4925C279.522 70.4925 279.971 70.3717 280.397 70.13C280.822 69.8883 281.141 69.5935 281.354 69.2455V65.78C281.141 65.4223 280.822 65.1227 280.397 64.881C279.971 64.6297 279.522 64.504 279.048 64.504C278.294 64.504 277.695 64.7892 277.25 65.3595C276.815 65.9202 276.598 66.6355 276.598 67.5055C276.598 68.3755 276.815 69.0908 277.25 69.6515C277.695 70.2122 278.294 70.4925 279.048 70.4925ZM287.578 71.174C286.554 71.174 285.713 70.8308 285.055 70.1445C284.398 69.4582 284.069 68.5737 284.069 67.491C284.069 66.4663 284.388 65.6012 285.026 64.8955C285.674 64.1802 286.481 63.8225 287.448 63.8225C288.472 63.8225 289.28 64.1802 289.869 64.8955C290.459 65.6012 290.754 66.4808 290.754 67.5345V67.7375H284.896C284.934 68.5302 285.2 69.1923 285.693 69.724C286.186 70.2557 286.834 70.5215 287.636 70.5215C288.564 70.5215 289.328 70.1977 289.927 69.55L290.319 70.043C289.594 70.797 288.68 71.174 287.578 71.174ZM289.985 67.143C289.976 66.4663 289.748 65.8525 289.304 65.3015C288.869 64.7505 288.245 64.475 287.433 64.475C286.67 64.475 286.061 64.7505 285.606 65.3015C285.162 65.8428 284.925 66.4567 284.896 67.143H289.985ZM297.977 71.174C297.059 71.174 296.6 70.6665 296.6 69.6515V64.6635H295.44V63.9965H296.6V62.0825H297.368V63.9965H298.789V64.6635H297.368V69.5355C297.368 70.1735 297.61 70.4925 298.093 70.4925C298.412 70.4925 298.673 70.3813 298.876 70.159L299.166 70.739C298.857 71.029 298.461 71.174 297.977 71.174ZM305.653 71H304.899V70.1735C304.29 70.8405 303.498 71.174 302.521 71.174C301.874 71.174 301.303 70.9662 300.81 70.5505C300.317 70.1252 300.071 69.5548 300.071 68.8395C300.071 68.1145 300.313 67.549 300.796 67.143C301.289 66.7273 301.864 66.5195 302.521 66.5195C303.507 66.5195 304.3 66.853 304.899 67.52V66.099C304.899 65.5963 304.721 65.2048 304.363 64.9245C304.005 64.6345 303.556 64.4895 303.014 64.4895C302.154 64.4895 301.424 64.8327 300.825 65.519L300.404 64.997C301.129 64.214 302.028 63.8225 303.101 63.8225C303.855 63.8225 304.469 64.011 304.943 64.388C305.417 64.765 305.653 65.3257 305.653 66.07V71ZM302.782 70.5795C303.701 70.5795 304.406 70.2605 304.899 69.6225V68.0855C304.397 67.4378 303.691 67.114 302.782 67.114C302.212 67.114 301.748 67.2783 301.39 67.607C301.042 67.9357 300.868 68.3513 300.868 68.854C300.868 69.3567 301.042 69.7723 301.39 70.101C301.748 70.42 302.212 70.5795 302.782 70.5795ZM313.882 71H312.867L310.068 67.665L308.763 68.8975V71H308.009V61.3285H308.763V67.9985L312.896 63.9965H313.896L310.634 67.1575L313.882 71ZM318.419 71.174C317.394 71.174 316.553 70.8308 315.896 70.1445C315.239 69.4582 314.91 68.5737 314.91 67.491C314.91 66.4663 315.229 65.6012 315.867 64.8955C316.515 64.1802 317.322 63.8225 318.289 63.8225C319.313 63.8225 320.12 64.1802 320.71 64.8955C321.3 65.6012 321.595 66.4808 321.595 67.5345V67.7375H315.737C315.775 68.5302 316.041 69.1923 316.534 69.724C317.027 70.2557 317.675 70.5215 318.477 70.5215C319.405 70.5215 320.169 70.1977 320.768 69.55L321.16 70.043C320.435 70.797 319.521 71.174 318.419 71.174ZM320.826 67.143C320.816 66.4663 320.589 65.8525 320.145 65.3015C319.71 64.7505 319.086 64.475 318.274 64.475C317.51 64.475 316.901 64.7505 316.447 65.3015C316.002 65.8428 315.766 66.4567 315.737 67.143H320.826ZM325.631 71.174C324.5 71.174 323.601 70.8067 322.934 70.072L323.384 69.5065C323.625 69.8062 323.944 70.0527 324.341 70.246C324.737 70.4393 325.172 70.536 325.646 70.536C326.216 70.536 326.67 70.4055 327.009 70.1445C327.347 69.8738 327.516 69.5307 327.516 69.115C327.516 68.767 327.361 68.4915 327.052 68.2885C326.752 68.0758 326.385 67.9212 325.95 67.8245C325.525 67.7182 325.095 67.607 324.66 67.491C324.225 67.3653 323.852 67.1623 323.543 66.882C323.243 66.6017 323.094 66.2295 323.094 65.7655C323.094 65.2145 323.316 64.7553 323.761 64.388C324.215 64.011 324.824 63.8225 325.588 63.8225C326.641 63.8225 327.477 64.1657 328.096 64.852L327.676 65.3885C327.221 64.7698 326.525 64.4605 325.588 64.4605C325.056 64.4605 324.631 64.5813 324.312 64.823C323.993 65.0647 323.833 65.3692 323.833 65.7365C323.833 66.0555 323.983 66.3068 324.283 66.4905C324.592 66.6742 324.959 66.8192 325.385 66.9255C325.82 67.0222 326.255 67.1333 326.69 67.259C327.125 67.3847 327.492 67.6022 327.792 67.9115C328.101 68.2208 328.256 68.622 328.256 69.115C328.256 69.7143 328.028 70.2073 327.574 70.594C327.12 70.9807 326.472 71.174 325.631 71.174ZM335.473 71.174C334.555 71.174 334.096 70.6665 334.096 69.6515V64.6635H332.936V63.9965H334.096V62.0825H334.864V63.9965H336.285V64.6635H334.864V69.5355C334.864 70.1735 335.106 70.4925 335.589 70.4925C335.908 70.4925 336.169 70.3813 336.372 70.159L336.662 70.739C336.353 71.029 335.957 71.174 335.473 71.174ZM340.902 71.174C339.897 71.174 339.085 70.8212 338.466 70.1155C337.847 69.4098 337.538 68.535 337.538 67.491C337.538 66.447 337.847 65.577 338.466 64.881C339.085 64.1753 339.897 63.8225 340.902 63.8225C341.917 63.8225 342.734 64.1753 343.353 64.881C343.971 65.577 344.281 66.447 344.281 67.491C344.281 68.535 343.971 69.4098 343.353 70.1155C342.734 70.8212 341.917 71.174 340.902 71.174ZM340.902 70.4925C341.695 70.4925 342.318 70.2025 342.773 69.6225C343.237 69.0328 343.469 68.3223 343.469 67.491C343.469 66.6693 343.237 65.9685 342.773 65.3885C342.318 64.7988 341.695 64.504 340.902 64.504C340.119 64.504 339.496 64.7988 339.032 65.3885C338.577 65.9685 338.35 66.6693 338.35 67.491C338.35 68.3127 338.577 69.0183 339.032 69.608C339.496 70.1977 340.119 70.4925 340.902 70.4925ZM349.186 71.174C348.18 71.174 347.368 70.8212 346.75 70.1155C346.131 69.4098 345.822 68.535 345.822 67.491C345.822 66.447 346.131 65.577 346.75 64.881C347.368 64.1753 348.18 63.8225 349.186 63.8225C350.201 63.8225 351.018 64.1753 351.636 64.881C352.255 65.577 352.564 66.447 352.564 67.491C352.564 68.535 352.255 69.4098 351.636 70.1155C351.018 70.8212 350.201 71.174 349.186 71.174ZM349.186 70.4925C349.978 70.4925 350.602 70.2025 351.056 69.6225C351.52 69.0328 351.752 68.3223 351.752 67.491C351.752 66.6693 351.52 65.9685 351.056 65.3885C350.602 64.7988 349.978 64.504 349.186 64.504C348.403 64.504 347.779 64.7988 347.315 65.3885C346.861 65.9685 346.634 66.6693 346.634 67.491C346.634 68.3127 346.861 69.0183 347.315 69.608C347.779 70.1977 348.403 70.4925 349.186 70.4925ZM367.355 71H366.601V66.099C366.601 65.0357 366.133 64.504 365.195 64.504C364.828 64.504 364.451 64.62 364.064 64.852C363.687 65.084 363.397 65.3643 363.194 65.693V71H362.425V66.099C362.425 65.0357 361.957 64.504 361.019 64.504C360.661 64.504 360.294 64.6248 359.917 64.8665C359.54 65.0985 359.24 65.3788 359.018 65.7075V71H358.264V63.9965H359.018V65.055C359.192 64.7747 359.496 64.4992 359.931 64.2285C360.376 63.9578 360.826 63.8225 361.28 63.8225C361.792 63.8225 362.203 63.9482 362.512 64.1995C362.822 64.4508 363.025 64.765 363.121 65.142C363.334 64.794 363.658 64.4895 364.093 64.2285C364.528 63.9578 364.977 63.8225 365.441 63.8225C366.717 63.8225 367.355 64.533 367.355 65.954V71ZM375.186 71H374.432V69.9705C374.113 70.3185 373.731 70.6085 373.287 70.8405C372.842 71.0628 372.383 71.174 371.909 71.174C371.175 71.174 370.624 70.9952 370.256 70.6375C369.889 70.2702 369.705 69.6998 369.705 68.9265V63.9965H370.459V68.7525C370.459 69.4002 370.604 69.8545 370.894 70.1155C371.184 70.3668 371.605 70.4925 372.156 70.4925C372.591 70.4925 373.016 70.3813 373.432 70.159C373.857 69.9367 374.191 69.6612 374.432 69.3325V63.9965H375.186V71ZM380.537 71.174C379.522 71.174 378.701 70.8212 378.072 70.1155C377.444 69.4098 377.13 68.535 377.13 67.491C377.13 66.447 377.444 65.577 378.072 64.881C378.701 64.1753 379.522 63.8225 380.537 63.8225C381.562 63.8225 382.388 64.2188 383.017 65.0115L382.495 65.4755C382.021 64.8278 381.383 64.504 380.581 64.504C379.778 64.504 379.136 64.7892 378.652 65.3595C378.179 65.9202 377.942 66.6307 377.942 67.491C377.942 68.3513 378.179 69.0667 378.652 69.637C379.136 70.2073 379.778 70.4925 380.581 70.4925C381.373 70.4925 382.011 70.1638 382.495 69.5065L383.017 69.9705C382.388 70.7728 381.562 71.174 380.537 71.174ZM390.182 71H389.428V66.2295C389.428 65.5915 389.283 65.1468 388.993 64.8955C388.703 64.6345 388.282 64.504 387.731 64.504C387.296 64.504 386.866 64.62 386.441 64.852C386.016 65.084 385.687 65.3692 385.455 65.7075V71H384.701V61.3285H385.455V65.055C385.735 64.7263 386.107 64.4412 386.571 64.1995C387.035 63.9482 387.504 63.8225 387.978 63.8225C389.447 63.8225 390.182 64.5717 390.182 66.07V71ZM397.806 71.174C396.888 71.174 396.429 70.6665 396.429 69.6515V64.6635H395.269V63.9965H396.429V62.0825H397.197V63.9965H398.618V64.6635H397.197V69.5355C397.197 70.1735 397.439 70.4925 397.922 70.4925C398.241 70.4925 398.502 70.3813 398.705 70.159L398.995 70.739C398.686 71.029 398.29 71.174 397.806 71.174ZM400.654 62.8945C400.499 62.8945 400.364 62.8365 400.248 62.7205C400.132 62.6045 400.074 62.4692 400.074 62.3145C400.074 62.1598 400.132 62.0293 400.248 61.923C400.364 61.807 400.499 61.749 400.654 61.749C400.818 61.749 400.954 61.807 401.06 61.923C401.176 62.0293 401.234 62.1598 401.234 62.3145C401.234 62.4788 401.176 62.619 401.06 62.735C400.954 62.8413 400.818 62.8945 400.654 62.8945ZM401.031 71H400.277V63.9965H401.031V71ZM412.47 71H411.716V66.099C411.716 65.0357 411.247 64.504 410.309 64.504C409.942 64.504 409.565 64.62 409.178 64.852C408.801 65.084 408.511 65.3643 408.308 65.693V71H407.54V66.099C407.54 65.0357 407.071 64.504 406.133 64.504C405.775 64.504 405.408 64.6248 405.031 64.8665C404.654 65.0985 404.354 65.3788 404.132 65.7075V71H403.378V63.9965H404.132V65.055C404.306 64.7747 404.611 64.4992 405.046 64.2285C405.49 63.9578 405.94 63.8225 406.394 63.8225C406.906 63.8225 407.317 63.9482 407.627 64.1995C407.936 64.4508 408.139 64.765 408.236 65.142C408.448 64.794 408.772 64.4895 409.207 64.2285C409.642 63.9578 410.092 63.8225 410.556 63.8225C411.832 63.8225 412.47 64.533 412.47 65.954V71ZM417.923 71.174C416.898 71.174 416.057 70.8308 415.4 70.1445C414.742 69.4582 414.414 68.5737 414.414 67.491C414.414 66.4663 414.733 65.6012 415.371 64.8955C416.018 64.1802 416.825 63.8225 417.792 63.8225C418.817 63.8225 419.624 64.1802 420.214 64.8955C420.803 65.6012 421.098 66.4808 421.098 67.5345V67.7375H415.24C415.279 68.5302 415.545 69.1923 416.038 69.724C416.531 70.2557 417.178 70.5215 417.981 70.5215C418.909 70.5215 419.672 70.1977 420.272 69.55L420.663 70.043C419.938 70.797 419.025 71.174 417.923 71.174ZM420.33 67.143C420.32 66.4663 420.093 65.8525 419.648 65.3015C419.213 64.7505 418.59 64.475 417.778 64.475C417.014 64.475 416.405 64.7505 415.951 65.3015C415.506 65.8428 415.269 66.4567 415.24 67.143H420.33Z" fill="#1F1F1F"/>
<path d="M68.2522 29.36L65.1922 33.38C64.0522 34.88 63.0522 36.38 63.0522 38.5C63.0522 39.68 63.3322 40.8 64.2122 41.74C65.5322 43.18 67.3122 43.3 68.5322 43.3C69.7122 43.3 71.4122 43.12 72.6322 41.8C73.4922 40.86 73.8922 39.5 73.8922 38.22C73.8922 36.6 73.2122 35.64 72.7322 35.14C72.1522 34.54 71.1122 33.86 69.4322 33.86C68.8522 33.86 68.4322 33.94 68.0322 34.08L71.5522 29.7L68.2522 29.36ZM68.4322 40.78C67.7522 40.78 67.1922 40.52 66.8122 40.16C66.3122 39.7 66.1322 39.12 66.1322 38.5C66.1322 37.58 66.5522 37.04 66.8122 36.8C67.2722 36.36 67.8322 36.22 68.4322 36.22C68.9522 36.22 69.5322 36.34 70.0322 36.78C70.4122 37.12 70.7322 37.64 70.7322 38.42C70.7322 39.28 70.3922 39.84 70.0322 40.18C69.7522 40.44 69.2322 40.78 68.4322 40.78ZM84.7741 29.66H81.1741L75.2941 38.72V40.48H81.8141V43H84.7741V40.48H86.3741V38.04H84.7741V29.66ZM78.5341 38.04L81.8141 32.86V38.04H78.5341ZM90.6063 42.96L91.9863 43.28L99.8263 29.74L98.4263 29.44L90.6063 42.96ZM91.0063 31.1C91.5463 31.1 91.9263 31.32 92.1463 31.56C92.4063 31.82 92.5863 32.24 92.5863 32.72C92.5863 33.2 92.4063 33.62 92.1463 33.88C91.9263 34.12 91.5463 34.34 91.0063 34.34C90.4663 34.34 90.0863 34.12 89.8663 33.88C89.6063 33.62 89.4263 33.2 89.4263 32.72C89.4263 32.24 89.6063 31.82 89.8663 31.56C90.0863 31.32 90.4663 31.1 91.0063 31.1ZM94.5063 32.72C94.5063 31.54 93.9863 30.82 93.6463 30.48C93.0263 29.84 92.0663 29.48 91.0063 29.48C89.9463 29.48 88.9863 29.84 88.3663 30.48C88.0263 30.82 87.5063 31.54 87.5063 32.72C87.5063 33.9 88.0263 34.62 88.3663 34.96C88.9863 35.6 89.9463 35.96 91.0063 35.96C92.0663 35.96 93.0263 35.6 93.6463 34.96C93.9863 34.62 94.5063 33.9 94.5063 32.72ZM99.4062 38.32C99.9463 38.32 100.326 38.54 100.546 38.78C100.806 39.04 100.986 39.46 100.986 39.94C100.986 40.42 100.806 40.84 100.546 41.1C100.326 41.34 99.9463 41.56 99.4062 41.56C98.8663 41.56 98.4863 41.34 98.2663 41.1C98.0063 40.84 97.8263 40.42 97.8263 39.94C97.8263 39.46 98.0063 39.04 98.2663 38.78C98.4863 38.54 98.8663 38.32 99.4062 38.32ZM102.906 39.94C102.906 38.76 102.386 38.04 102.046 37.7C101.426 37.06 100.466 36.7 99.4062 36.7C98.3463 36.7 97.3863 37.06 96.7663 37.7C96.4263 38.04 95.9063 38.76 95.9063 39.94C95.9063 41.12 96.4263 41.84 96.7663 42.18C97.3863 42.82 98.3463 43.18 99.4062 43.18C100.466 43.18 101.426 42.82 102.046 42.18C102.386 41.84 102.906 41.12 102.906 39.94Z" fill="#BA8913"/>
<path d="M126 58H206C207.657 58 209 59.3431 209 61V71C209 72.6569 207.657 74 206 74H126V58Z" fill="#EDD7A2"/>
<path d="M61 61C61 59.3431 62.3431 58 64 58H158V74H64C62.3431 74 61 72.6569 61 71V61Z" fill="#BA8913"/>
</svg>
