<svg width="568" height="130" viewBox="0 0 568 130" fill="none" xmlns="http://www.w3.org/2000/svg">
<rect width="568" height="130" rx="5" fill="#F7F7F7"/>
<path d="M193.183 86.0809C193.183 62.5 166.279 34 133.091 34C99.9038 34 73 64 73 86.0809" stroke="#113B2B" stroke-width="20"/>
<path d="M136 86.5684L204.966 85.4883C204.966 85.4883 205.555 76.9727 201.802 67.7459C198.049 58.5191 193.903 53.2007 193.903 53.2007L136 86.5684Z" fill="#EEEEEE" stroke="#F7F7F7" stroke-width="6" stroke-linecap="round" stroke-linejoin="round"/>
<path d="M183.5 86C184.125 96.3816 157.614 89.4685 130 89.4685C102.386 89.4685 83 96.8354 83 86.4351C83 62.2626 105.386 42.667 133 42.667C160.614 42.667 182 61.0649 183.5 86Z" fill="#F7F7F7"/>
<path d="M121.294 76.3C122.554 76.3 123.794 76.24 124.974 75.18C125.994 74.26 126.254 73.16 126.254 72.28C126.254 71.14 125.754 70.42 125.354 70C124.914 69.54 124.274 69.18 123.694 69C124.034 68.86 124.494 68.62 124.914 68.18C125.514 67.56 125.734 66.88 125.734 66.06C125.734 64.94 125.314 64.14 124.754 63.58C123.774 62.58 122.494 62.36 121.334 62.36C120.134 62.36 118.854 62.58 117.874 63.58C117.314 64.14 116.894 64.94 116.894 66.06C116.894 66.88 117.114 67.56 117.714 68.18C118.134 68.62 118.594 68.86 118.934 69C118.354 69.18 117.714 69.54 117.274 70C116.874 70.42 116.374 71.14 116.374 72.28C116.374 73.16 116.634 74.26 117.654 75.18C118.834 76.24 120.094 76.3 121.294 76.3ZM121.314 64.64C121.794 64.64 122.194 64.82 122.474 65.06C122.614 65.2 122.974 65.56 122.974 66.22C122.974 66.68 122.814 67.04 122.474 67.36C122.134 67.68 121.734 67.8 121.314 67.8C120.834 67.8 120.434 67.62 120.134 67.36C119.894 67.14 119.634 66.78 119.634 66.22C119.634 65.78 119.794 65.4 120.134 65.08C120.494 64.76 120.894 64.64 121.314 64.64ZM121.274 70.24C121.794 70.24 122.294 70.4 122.614 70.72C122.914 71 123.134 71.46 123.134 72.02C123.134 72.6 122.914 73.1 122.614 73.38C122.274 73.7 121.774 73.86 121.314 73.86C120.854 73.86 120.354 73.7 120.014 73.38C119.654 73.04 119.494 72.52 119.494 72.04C119.494 71.58 119.694 71.04 120.014 70.72C120.294 70.44 120.754 70.24 121.274 70.24ZM133.292 76.3L136.332 72.28C136.952 71.46 137.552 70.54 137.892 69.8C138.292 68.9 138.492 67.92 138.492 67.08C138.492 65.42 137.792 64.32 137.132 63.7C136.432 63.06 135.232 62.36 133.132 62.36C132.072 62.36 130.252 62.5 128.952 63.86C128.552 64.28 127.652 65.36 127.652 67.34C127.652 68.78 128.092 69.84 128.812 70.56C129.552 71.3 130.732 71.8 132.172 71.8C132.612 71.8 133.052 71.74 133.512 71.6L129.992 75.96L133.292 76.3ZM133.112 64.88C133.892 64.88 134.412 65.18 134.732 65.48C135.212 65.94 135.412 66.46 135.412 67.1C135.412 68.02 135.052 68.56 134.732 68.86C134.352 69.2 133.792 69.44 133.112 69.44C132.512 69.44 131.912 69.26 131.492 68.88C131.112 68.54 130.812 68 130.812 67.16C130.812 66.24 131.252 65.72 131.512 65.48C131.912 65.1 132.492 64.88 133.112 64.88ZM142.784 75.96L144.164 76.28L152.004 62.74L150.604 62.44L142.784 75.96ZM143.184 64.1C143.724 64.1 144.104 64.32 144.324 64.56C144.584 64.82 144.764 65.24 144.764 65.72C144.764 66.2 144.584 66.62 144.324 66.88C144.104 67.12 143.724 67.34 143.184 67.34C142.644 67.34 142.264 67.12 142.044 66.88C141.784 66.62 141.604 66.2 141.604 65.72C141.604 65.24 141.784 64.82 142.044 64.56C142.264 64.32 142.644 64.1 143.184 64.1ZM146.684 65.72C146.684 64.54 146.164 63.82 145.824 63.48C145.204 62.84 144.244 62.48 143.184 62.48C142.124 62.48 141.164 62.84 140.544 63.48C140.204 63.82 139.684 64.54 139.684 65.72C139.684 66.9 140.204 67.62 140.544 67.96C141.164 68.6 142.124 68.96 143.184 68.96C144.244 68.96 145.204 68.6 145.824 67.96C146.164 67.62 146.684 66.9 146.684 65.72ZM151.584 71.32C152.124 71.32 152.504 71.54 152.724 71.78C152.984 72.04 153.164 72.46 153.164 72.94C153.164 73.42 152.984 73.84 152.724 74.1C152.504 74.34 152.124 74.56 151.584 74.56C151.044 74.56 150.664 74.34 150.444 74.1C150.184 73.84 150.004 73.42 150.004 72.94C150.004 72.46 150.184 72.04 150.444 71.78C150.664 71.54 151.044 71.32 151.584 71.32ZM155.084 72.94C155.084 71.76 154.564 71.04 154.224 70.7C153.604 70.06 152.644 69.7 151.584 69.7C150.524 69.7 149.564 70.06 148.944 70.7C148.604 71.04 148.084 71.76 148.084 72.94C148.084 74.12 148.604 74.84 148.944 75.18C149.564 75.82 150.524 76.18 151.584 76.18C152.644 76.18 153.604 75.82 154.224 75.18C154.564 74.84 155.084 74.12 155.084 72.94Z" fill="#113B2B"/>
<path d="M260.665 49H259.795V39.775H256.525V38.995H263.935V39.775H260.665V49ZM271.352 49H270.572V44.065C270.572 43.405 270.422 42.945 270.122 42.685C269.822 42.415 269.387 42.28 268.817 42.28C268.367 42.28 267.922 42.4 267.482 42.64C267.042 42.88 266.702 43.175 266.462 43.525V49H265.682V38.995H266.462V42.85C266.752 42.51 267.137 42.215 267.617 41.965C268.097 41.705 268.582 41.575 269.072 41.575C270.592 41.575 271.352 42.35 271.352 43.9V49ZM276.992 49.18C275.932 49.18 275.062 48.825 274.382 48.115C273.702 47.405 273.362 46.49 273.362 45.37C273.362 44.31 273.692 43.415 274.352 42.685C275.022 41.945 275.857 41.575 276.857 41.575C277.917 41.575 278.752 41.945 279.362 42.685C279.972 43.415 280.277 44.325 280.277 45.415V45.625H274.217C274.257 46.445 274.532 47.13 275.042 47.68C275.552 48.23 276.222 48.505 277.052 48.505C278.012 48.505 278.802 48.17 279.422 47.5L279.827 48.01C279.077 48.79 278.132 49.18 276.992 49.18ZM279.482 45.01C279.472 44.31 279.237 43.675 278.777 43.105C278.327 42.535 277.682 42.25 276.842 42.25C276.052 42.25 275.422 42.535 274.952 43.105C274.492 43.665 274.247 44.3 274.217 45.01H279.482ZM286.955 49H286.175V41.755H286.955V43C287.665 42.07 288.48 41.605 289.4 41.605V42.46C289.31 42.44 289.18 42.43 289.01 42.43C288.65 42.43 288.26 42.565 287.84 42.835C287.42 43.105 287.125 43.4 286.955 43.72V49ZM296.321 49H295.541V48.145C294.911 48.835 294.091 49.18 293.081 49.18C292.411 49.18 291.821 48.965 291.311 48.535C290.801 48.095 290.546 47.505 290.546 46.765C290.546 46.015 290.796 45.43 291.296 45.01C291.806 44.58 292.401 44.365 293.081 44.365C294.101 44.365 294.921 44.71 295.541 45.4V43.93C295.541 43.41 295.356 43.005 294.986 42.715C294.616 42.415 294.151 42.265 293.591 42.265C292.701 42.265 291.946 42.62 291.326 43.33L290.891 42.79C291.641 41.98 292.571 41.575 293.681 41.575C294.461 41.575 295.096 41.77 295.586 42.16C296.076 42.55 296.321 43.13 296.321 43.9V49ZM293.351 48.565C294.301 48.565 295.031 48.235 295.541 47.575V45.985C295.021 45.315 294.291 44.98 293.351 44.98C292.761 44.98 292.281 45.15 291.911 45.49C291.551 45.83 291.371 46.26 291.371 46.78C291.371 47.3 291.551 47.73 291.911 48.07C292.281 48.4 292.761 48.565 293.351 48.565ZM300.333 49.18C299.383 49.18 298.908 48.655 298.908 47.605V42.445H297.708V41.755H298.908V39.775H299.703V41.755H301.173V42.445H299.703V47.485C299.703 48.145 299.953 48.475 300.453 48.475C300.783 48.475 301.053 48.36 301.263 48.13L301.563 48.73C301.243 49.03 300.833 49.18 300.333 49.18ZM303.279 40.615C303.119 40.615 302.979 40.555 302.859 40.435C302.739 40.315 302.679 40.175 302.679 40.015C302.679 39.855 302.739 39.72 302.859 39.61C302.979 39.49 303.119 39.43 303.279 39.43C303.449 39.43 303.589 39.49 303.699 39.61C303.819 39.72 303.879 39.855 303.879 40.015C303.879 40.185 303.819 40.33 303.699 40.45C303.589 40.56 303.449 40.615 303.279 40.615ZM303.669 49H302.889V41.755H303.669V49ZM309.157 49.18C308.117 49.18 307.277 48.815 306.637 48.085C305.997 47.355 305.677 46.45 305.677 45.37C305.677 44.29 305.997 43.39 306.637 42.67C307.277 41.94 308.117 41.575 309.157 41.575C310.207 41.575 311.052 41.94 311.692 42.67C312.332 43.39 312.652 44.29 312.652 45.37C312.652 46.45 312.332 47.355 311.692 48.085C311.052 48.815 310.207 49.18 309.157 49.18ZM309.157 48.475C309.977 48.475 310.622 48.175 311.092 47.575C311.572 46.965 311.812 46.23 311.812 45.37C311.812 44.52 311.572 43.795 311.092 43.195C310.622 42.585 309.977 42.28 309.157 42.28C308.347 42.28 307.702 42.585 307.222 43.195C306.752 43.795 306.517 44.52 306.517 45.37C306.517 46.22 306.752 46.95 307.222 47.56C307.702 48.17 308.347 48.475 309.157 48.475ZM321.608 49.18C320.568 49.18 319.728 48.815 319.088 48.085C318.448 47.355 318.128 46.45 318.128 45.37C318.128 44.29 318.448 43.39 319.088 42.67C319.728 41.94 320.568 41.575 321.608 41.575C322.658 41.575 323.503 41.94 324.143 42.67C324.783 43.39 325.103 44.29 325.103 45.37C325.103 46.45 324.783 47.355 324.143 48.085C323.503 48.815 322.658 49.18 321.608 49.18ZM321.608 48.475C322.428 48.475 323.073 48.175 323.543 47.575C324.023 46.965 324.263 46.23 324.263 45.37C324.263 44.52 324.023 43.795 323.543 43.195C323.073 42.585 322.428 42.28 321.608 42.28C320.798 42.28 320.153 42.585 319.673 43.195C319.203 43.795 318.968 44.52 318.968 45.37C318.968 46.22 319.203 46.95 319.673 47.56C320.153 48.17 320.798 48.475 321.608 48.475ZM328.152 49H327.372V42.445H326.172V41.755H327.372V41.095C327.372 40.395 327.547 39.845 327.897 39.445C328.247 39.045 328.727 38.845 329.337 38.845C329.867 38.845 330.327 39.015 330.717 39.355L330.342 39.895C330.072 39.645 329.762 39.52 329.412 39.52C328.572 39.52 328.152 40.045 328.152 41.095V41.755H329.622V42.445H328.152V49ZM338.029 49.18C336.989 49.18 336.149 48.815 335.509 48.085C334.869 47.355 334.549 46.45 334.549 45.37C334.549 44.29 334.869 43.39 335.509 42.67C336.149 41.94 336.989 41.575 338.029 41.575C339.079 41.575 339.924 41.94 340.564 42.67C341.204 43.39 341.524 44.29 341.524 45.37C341.524 46.45 341.204 47.355 340.564 48.085C339.924 48.815 339.079 49.18 338.029 49.18ZM338.029 48.475C338.849 48.475 339.494 48.175 339.964 47.575C340.444 46.965 340.684 46.23 340.684 45.37C340.684 44.52 340.444 43.795 339.964 43.195C339.494 42.585 338.849 42.28 338.029 42.28C337.219 42.28 336.574 42.585 336.094 43.195C335.624 43.795 335.389 44.52 335.389 45.37C335.389 46.22 335.624 46.95 336.094 47.56C336.574 48.17 337.219 48.475 338.029 48.475ZM344.573 49H343.793V42.445H342.593V41.755H343.793V41.095C343.793 40.395 343.968 39.845 344.318 39.445C344.668 39.045 345.148 38.845 345.758 38.845C346.288 38.845 346.748 39.015 347.138 39.355L346.763 39.895C346.493 39.645 346.183 39.52 345.833 39.52C344.993 39.52 344.573 40.045 344.573 41.095V41.755H346.043V42.445H344.573V49ZM348.548 49H347.768V42.445H346.568V41.755H347.768V41.095C347.768 40.395 347.943 39.845 348.293 39.445C348.643 39.045 349.123 38.845 349.733 38.845C350.263 38.845 350.723 39.015 351.113 39.355L350.738 39.895C350.468 39.645 350.158 39.52 349.808 39.52C348.968 39.52 348.548 40.045 348.548 41.095V41.755H350.018V42.445H348.548V49ZM354.702 49.18C353.642 49.18 352.772 48.825 352.092 48.115C351.412 47.405 351.072 46.49 351.072 45.37C351.072 44.31 351.402 43.415 352.062 42.685C352.732 41.945 353.567 41.575 354.567 41.575C355.627 41.575 356.462 41.945 357.072 42.685C357.682 43.415 357.987 44.325 357.987 45.415V45.625H351.927C351.967 46.445 352.242 47.13 352.752 47.68C353.262 48.23 353.932 48.505 354.762 48.505C355.722 48.505 356.512 48.17 357.132 47.5L357.537 48.01C356.787 48.79 355.842 49.18 354.702 49.18ZM357.192 45.01C357.182 44.31 356.947 43.675 356.487 43.105C356.037 42.535 355.392 42.25 354.552 42.25C353.762 42.25 353.132 42.535 352.662 43.105C352.202 43.665 351.957 44.3 351.927 45.01H357.192ZM360.783 49H360.003V41.755H360.783V43C361.493 42.07 362.308 41.605 363.228 41.605V42.46C363.138 42.44 363.008 42.43 362.838 42.43C362.478 42.43 362.088 42.565 361.668 42.835C361.248 43.105 360.953 43.4 360.783 43.72V49ZM367.974 49.18C366.914 49.18 366.044 48.825 365.364 48.115C364.684 47.405 364.344 46.49 364.344 45.37C364.344 44.31 364.674 43.415 365.334 42.685C366.004 41.945 366.839 41.575 367.839 41.575C368.899 41.575 369.734 41.945 370.344 42.685C370.954 43.415 371.259 44.325 371.259 45.415V45.625H365.199C365.239 46.445 365.514 47.13 366.024 47.68C366.534 48.23 367.204 48.505 368.034 48.505C368.994 48.505 369.784 48.17 370.404 47.5L370.809 48.01C370.059 48.79 369.114 49.18 367.974 49.18ZM370.464 45.01C370.454 44.31 370.219 43.675 369.759 43.105C369.309 42.535 368.664 42.25 367.824 42.25C367.034 42.25 366.404 42.535 365.934 43.105C365.474 43.665 365.229 44.3 365.199 45.01H370.464ZM374.055 49H373.275V41.755H374.055V43C374.765 42.07 375.58 41.605 376.5 41.605V42.46C376.41 42.44 376.28 42.43 376.11 42.43C375.75 42.43 375.36 42.565 374.94 42.835C374.52 43.105 374.225 43.4 374.055 43.72V49ZM380.195 49.18C379.025 49.18 378.095 48.8 377.405 48.04L377.87 47.455C378.12 47.765 378.45 48.02 378.86 48.22C379.27 48.42 379.72 48.52 380.21 48.52C380.8 48.52 381.27 48.385 381.62 48.115C381.97 47.835 382.145 47.48 382.145 47.05C382.145 46.69 381.985 46.405 381.665 46.195C381.355 45.975 380.975 45.815 380.525 45.715C380.085 45.605 379.64 45.49 379.19 45.37C378.74 45.24 378.355 45.03 378.035 44.74C377.725 44.45 377.57 44.065 377.57 43.585C377.57 43.015 377.8 42.54 378.26 42.16C378.73 41.77 379.36 41.575 380.15 41.575C381.24 41.575 382.105 41.93 382.745 42.64L382.31 43.195C381.84 42.555 381.12 42.235 380.15 42.235C379.6 42.235 379.16 42.36 378.83 42.61C378.5 42.86 378.335 43.175 378.335 43.555C378.335 43.885 378.49 44.145 378.8 44.335C379.12 44.525 379.5 44.675 379.94 44.785C380.39 44.885 380.84 45 381.29 45.13C381.74 45.26 382.12 45.485 382.43 45.805C382.75 46.125 382.91 46.54 382.91 47.05C382.91 47.67 382.675 48.18 382.205 48.58C381.735 48.98 381.065 49.18 380.195 49.18ZM395.762 49H395.012L392.987 42.805L390.947 49H390.197L387.842 41.755H388.682L390.602 47.905L392.642 41.755H393.317L395.357 47.905L397.277 41.755H398.117L395.762 49ZM405.253 49H404.473V44.065C404.473 43.405 404.323 42.945 404.023 42.685C403.723 42.415 403.288 42.28 402.718 42.28C402.268 42.28 401.823 42.4 401.383 42.64C400.943 42.88 400.603 43.175 400.363 43.525V49H399.583V38.995H400.363V42.85C400.653 42.51 401.038 42.215 401.518 41.965C401.998 41.705 402.483 41.575 402.973 41.575C404.493 41.575 405.253 42.35 405.253 43.9V49ZM410.744 49.18C409.704 49.18 408.864 48.815 408.224 48.085C407.584 47.355 407.264 46.45 407.264 45.37C407.264 44.29 407.584 43.39 408.224 42.67C408.864 41.94 409.704 41.575 410.744 41.575C411.794 41.575 412.639 41.94 413.279 42.67C413.919 43.39 414.239 44.29 414.239 45.37C414.239 46.45 413.919 47.355 413.279 48.085C412.639 48.815 411.794 49.18 410.744 49.18ZM410.744 48.475C411.564 48.475 412.209 48.175 412.679 47.575C413.159 46.965 413.399 46.23 413.399 45.37C413.399 44.52 413.159 43.795 412.679 43.195C412.209 42.585 411.564 42.28 410.744 42.28C409.934 42.28 409.289 42.585 408.809 43.195C408.339 43.795 408.104 44.52 408.104 45.37C408.104 46.22 408.339 46.95 408.809 47.56C409.289 48.17 409.934 48.475 410.744 48.475ZM422.295 49.18C421.125 49.18 420.195 48.8 419.505 48.04L419.97 47.455C420.22 47.765 420.55 48.02 420.96 48.22C421.37 48.42 421.82 48.52 422.31 48.52C422.9 48.52 423.37 48.385 423.72 48.115C424.07 47.835 424.245 47.48 424.245 47.05C424.245 46.69 424.085 46.405 423.765 46.195C423.455 45.975 423.075 45.815 422.625 45.715C422.185 45.605 421.74 45.49 421.29 45.37C420.84 45.24 420.455 45.03 420.135 44.74C419.825 44.45 419.67 44.065 419.67 43.585C419.67 43.015 419.9 42.54 420.36 42.16C420.83 41.77 421.46 41.575 422.25 41.575C423.34 41.575 424.205 41.93 424.845 42.64L424.41 43.195C423.94 42.555 423.22 42.235 422.25 42.235C421.7 42.235 421.26 42.36 420.93 42.61C420.6 42.86 420.435 43.175 420.435 43.555C420.435 43.885 420.59 44.145 420.9 44.335C421.22 44.525 421.6 44.675 422.04 44.785C422.49 44.885 422.94 45 423.39 45.13C423.84 45.26 424.22 45.485 424.53 45.805C424.85 46.125 425.01 46.54 425.01 47.05C425.01 47.67 424.775 48.18 424.305 48.58C423.835 48.98 423.165 49.18 422.295 49.18ZM432.405 49H431.625V48.145C430.995 48.835 430.175 49.18 429.165 49.18C428.495 49.18 427.905 48.965 427.395 48.535C426.885 48.095 426.63 47.505 426.63 46.765C426.63 46.015 426.88 45.43 427.38 45.01C427.89 44.58 428.485 44.365 429.165 44.365C430.185 44.365 431.005 44.71 431.625 45.4V43.93C431.625 43.41 431.44 43.005 431.07 42.715C430.7 42.415 430.235 42.265 429.675 42.265C428.785 42.265 428.03 42.62 427.41 43.33L426.975 42.79C427.725 41.98 428.655 41.575 429.765 41.575C430.545 41.575 431.18 41.77 431.67 42.16C432.16 42.55 432.405 43.13 432.405 43.9V49ZM429.435 48.565C430.385 48.565 431.115 48.235 431.625 47.575V45.985C431.105 45.315 430.375 44.98 429.435 44.98C428.845 44.98 428.365 45.15 427.995 45.49C427.635 45.83 427.455 46.26 427.455 46.78C427.455 47.3 427.635 47.73 427.995 48.07C428.365 48.4 428.845 48.565 429.435 48.565ZM435.232 40.615C435.072 40.615 434.932 40.555 434.812 40.435C434.692 40.315 434.632 40.175 434.632 40.015C434.632 39.855 434.692 39.72 434.812 39.61C434.932 39.49 435.072 39.43 435.232 39.43C435.402 39.43 435.542 39.49 435.652 39.61C435.772 39.72 435.832 39.855 435.832 40.015C435.832 40.185 435.772 40.33 435.652 40.45C435.542 40.56 435.402 40.615 435.232 40.615ZM435.622 49H434.842V41.755H435.622V49ZM444.185 49H443.39V47.845C443.12 48.235 442.76 48.555 442.31 48.805C441.87 49.055 441.39 49.18 440.87 49.18C439.9 49.18 439.115 48.835 438.515 48.145C437.925 47.455 437.63 46.535 437.63 45.385C437.63 44.245 437.93 43.325 438.53 42.625C439.13 41.925 439.91 41.575 440.87 41.575C441.91 41.575 442.75 42.025 443.39 42.925V38.995H444.185V49ZM441.005 48.475C441.495 48.475 441.96 48.35 442.4 48.1C442.84 47.85 443.17 47.545 443.39 47.185V43.6C443.17 43.23 442.84 42.92 442.4 42.67C441.96 42.41 441.495 42.28 441.005 42.28C440.225 42.28 439.605 42.575 439.145 43.165C438.695 43.745 438.47 44.485 438.47 45.385C438.47 46.285 438.695 47.025 439.145 47.605C439.605 48.185 440.225 48.475 441.005 48.475ZM452.076 49.18C451.126 49.18 450.651 48.655 450.651 47.605V42.445H449.451V41.755H450.651V39.775H451.446V41.755H452.916V42.445H451.446V47.485C451.446 48.145 451.696 48.475 452.196 48.475C452.526 48.475 452.796 48.36 453.006 48.13L453.306 48.73C452.986 49.03 452.576 49.18 452.076 49.18ZM460.302 49H459.522V44.065C459.522 43.405 459.372 42.945 459.072 42.685C458.772 42.415 458.337 42.28 457.767 42.28C457.317 42.28 456.872 42.4 456.432 42.64C455.992 42.88 455.652 43.175 455.412 43.525V49H454.632V38.995H455.412V42.85C455.702 42.51 456.087 42.215 456.567 41.965C457.047 41.705 457.532 41.575 458.022 41.575C459.542 41.575 460.302 42.35 460.302 43.9V49ZM465.943 49.18C464.883 49.18 464.013 48.825 463.333 48.115C462.653 47.405 462.313 46.49 462.313 45.37C462.313 44.31 462.643 43.415 463.303 42.685C463.973 41.945 464.808 41.575 465.808 41.575C466.868 41.575 467.703 41.945 468.313 42.685C468.923 43.415 469.228 44.325 469.228 45.415V45.625H463.168C463.208 46.445 463.483 47.13 463.993 47.68C464.503 48.23 465.173 48.505 466.003 48.505C466.963 48.505 467.753 48.17 468.373 47.5L468.778 48.01C468.028 48.79 467.083 49.18 465.943 49.18ZM468.433 45.01C468.423 44.31 468.188 43.675 467.728 43.105C467.278 42.535 466.633 42.25 465.793 42.25C465.003 42.25 464.373 42.535 463.903 43.105C463.443 43.665 463.198 44.3 463.168 45.01H468.433ZM470.763 51.835L470.898 51.115C471.078 51.195 471.288 51.235 471.528 51.235C472.018 51.235 472.383 50.94 472.623 50.35L473.193 49.06L470.133 41.755H471.003L473.643 48.085L476.253 41.755H477.138L473.388 50.59C473.008 51.49 472.388 51.94 471.528 51.94C471.248 51.94 470.993 51.905 470.763 51.835ZM479.635 39.805C479.635 40.205 479.53 40.595 479.32 40.975C479.12 41.345 478.865 41.635 478.555 41.845L478.12 41.485C478.36 41.325 478.56 41.115 478.72 40.855C478.88 40.585 478.97 40.33 478.99 40.09C478.99 40.11 478.94 40.12 478.84 40.12C478.66 40.12 478.51 40.06 478.39 39.94C478.28 39.82 478.225 39.67 478.225 39.49C478.225 39.32 478.285 39.17 478.405 39.04C478.535 38.91 478.69 38.845 478.87 38.845C479.08 38.845 479.26 38.93 479.41 39.1C479.56 39.27 479.635 39.505 479.635 39.805ZM487.881 49H487.086V47.845C486.816 48.235 486.456 48.555 486.006 48.805C485.566 49.055 485.086 49.18 484.566 49.18C483.596 49.18 482.811 48.835 482.211 48.145C481.621 47.455 481.326 46.535 481.326 45.385C481.326 44.245 481.626 43.325 482.226 42.625C482.826 41.925 483.606 41.575 484.566 41.575C485.606 41.575 486.446 42.025 487.086 42.925V38.995H487.881V49ZM484.701 48.475C485.191 48.475 485.656 48.35 486.096 48.1C486.536 47.85 486.866 47.545 487.086 47.185V43.6C486.866 43.23 486.536 42.92 486.096 42.67C485.656 42.41 485.191 42.28 484.701 42.28C483.921 42.28 483.301 42.575 482.841 43.165C482.391 43.745 482.166 44.485 482.166 45.385C482.166 46.285 482.391 47.025 482.841 47.605C483.301 48.185 483.921 48.475 484.701 48.475ZM260.515 75.18C259.475 75.18 258.635 74.73 257.995 73.83V77.76H257.215V67.755H257.995V68.895C258.265 68.505 258.62 68.19 259.06 67.95C259.51 67.7 259.995 67.575 260.515 67.575C261.485 67.575 262.265 67.92 262.855 68.61C263.455 69.29 263.755 70.21 263.755 71.37C263.755 72.52 263.455 73.445 262.855 74.145C262.265 74.835 261.485 75.18 260.515 75.18ZM260.38 74.475C261.17 74.475 261.79 74.185 262.24 73.605C262.69 73.025 262.915 72.28 262.915 71.37C262.915 70.47 262.69 69.73 262.24 69.15C261.79 68.57 261.17 68.28 260.38 68.28C259.89 68.28 259.425 68.405 258.985 68.655C258.545 68.905 258.215 69.21 257.995 69.57V73.155C258.215 73.515 258.545 73.825 258.985 74.085C259.435 74.345 259.9 74.475 260.38 74.475ZM266.506 75H265.726V67.755H266.506V69C267.216 68.07 268.031 67.605 268.951 67.605V68.46C268.861 68.44 268.731 68.43 268.561 68.43C268.201 68.43 267.811 68.565 267.391 68.835C266.971 69.105 266.676 69.4 266.506 69.72V75ZM273.696 75.18C272.636 75.18 271.766 74.825 271.086 74.115C270.406 73.405 270.066 72.49 270.066 71.37C270.066 70.31 270.396 69.415 271.056 68.685C271.726 67.945 272.561 67.575 273.561 67.575C274.621 67.575 275.456 67.945 276.066 68.685C276.676 69.415 276.981 70.325 276.981 71.415V71.625H270.921C270.961 72.445 271.236 73.13 271.746 73.68C272.256 74.23 272.926 74.505 273.756 74.505C274.716 74.505 275.506 74.17 276.126 73.5L276.531 74.01C275.781 74.79 274.836 75.18 273.696 75.18ZM276.186 71.01C276.176 70.31 275.941 69.675 275.481 69.105C275.031 68.535 274.386 68.25 273.546 68.25C272.756 68.25 272.126 68.535 271.656 69.105C271.196 69.665 270.951 70.3 270.921 71.01H276.186ZM280.032 75H279.252V68.445H278.052V67.755H279.252V67.095C279.252 66.395 279.427 65.845 279.777 65.445C280.127 65.045 280.607 64.845 281.217 64.845C281.747 64.845 282.207 65.015 282.597 65.355L282.222 65.895C281.952 65.645 281.642 65.52 281.292 65.52C280.452 65.52 280.032 66.045 280.032 67.095V67.755H281.502V68.445H280.032V75ZM286.177 75.18C285.117 75.18 284.247 74.825 283.567 74.115C282.887 73.405 282.547 72.49 282.547 71.37C282.547 70.31 282.877 69.415 283.537 68.685C284.207 67.945 285.042 67.575 286.042 67.575C287.102 67.575 287.937 67.945 288.547 68.685C289.157 69.415 289.462 70.325 289.462 71.415V71.625H283.402C283.442 72.445 283.717 73.13 284.227 73.68C284.737 74.23 285.407 74.505 286.237 74.505C287.197 74.505 287.987 74.17 288.607 73.5L289.012 74.01C288.262 74.79 287.317 75.18 286.177 75.18ZM288.667 71.01C288.657 70.31 288.422 69.675 287.962 69.105C287.512 68.535 286.867 68.25 286.027 68.25C285.237 68.25 284.607 68.535 284.137 69.105C283.677 69.665 283.432 70.3 283.402 71.01H288.667ZM292.258 75H291.478V67.755H292.258V69C292.968 68.07 293.783 67.605 294.703 67.605V68.46C294.613 68.44 294.483 68.43 294.313 68.43C293.953 68.43 293.563 68.565 293.143 68.835C292.723 69.105 292.428 69.4 292.258 69.72V75ZM306.255 75H305.46V73.845C305.19 74.235 304.83 74.555 304.38 74.805C303.94 75.055 303.46 75.18 302.94 75.18C301.97 75.18 301.185 74.835 300.585 74.145C299.995 73.455 299.7 72.535 299.7 71.385C299.7 70.245 300 69.325 300.6 68.625C301.2 67.925 301.98 67.575 302.94 67.575C303.98 67.575 304.82 68.025 305.46 68.925V64.995H306.255V75ZM303.075 74.475C303.565 74.475 304.03 74.35 304.47 74.1C304.91 73.85 305.24 73.545 305.46 73.185V69.6C305.24 69.23 304.91 68.92 304.47 68.67C304.03 68.41 303.565 68.28 303.075 68.28C302.295 68.28 301.675 68.575 301.215 69.165C300.765 69.745 300.54 70.485 300.54 71.385C300.54 72.285 300.765 73.025 301.215 73.605C301.675 74.185 302.295 74.475 303.075 74.475ZM309.47 75H308.69V67.755H309.47V69C310.18 68.07 310.995 67.605 311.915 67.605V68.46C311.825 68.44 311.695 68.43 311.525 68.43C311.165 68.43 310.775 68.565 310.355 68.835C309.935 69.105 309.64 69.4 309.47 69.72V75ZM313.84 66.615C313.68 66.615 313.54 66.555 313.42 66.435C313.3 66.315 313.24 66.175 313.24 66.015C313.24 65.855 313.3 65.72 313.42 65.61C313.54 65.49 313.68 65.43 313.84 65.43C314.01 65.43 314.15 65.49 314.26 65.61C314.38 65.72 314.44 65.855 314.44 66.015C314.44 66.185 314.38 66.33 314.26 66.45C314.15 66.56 314.01 66.615 313.84 66.615ZM314.23 75H313.45V67.755H314.23V75ZM319.493 75H318.608L315.548 67.755H316.418L319.058 74.085L321.668 67.755H322.553L319.493 75ZM324.27 66.615C324.11 66.615 323.97 66.555 323.85 66.435C323.73 66.315 323.67 66.175 323.67 66.015C323.67 65.855 323.73 65.72 323.85 65.61C323.97 65.49 324.11 65.43 324.27 65.43C324.44 65.43 324.58 65.49 324.69 65.61C324.81 65.72 324.87 65.855 324.87 66.015C324.87 66.185 324.81 66.33 324.69 66.45C324.58 66.56 324.44 66.615 324.27 66.615ZM324.66 75H323.88V67.755H324.66V75ZM332.758 75H331.978V70.095C331.978 69.435 331.828 68.97 331.528 68.7C331.228 68.42 330.793 68.28 330.223 68.28C329.773 68.28 329.328 68.4 328.888 68.64C328.448 68.88 328.108 69.175 327.868 69.525V75H327.088V67.755H327.868V68.85C328.158 68.51 328.543 68.215 329.023 67.965C329.503 67.705 329.988 67.575 330.478 67.575C331.998 67.575 332.758 68.36 332.758 69.93V75ZM338.054 77.94C337.424 77.94 336.894 77.86 336.464 77.7C336.034 77.55 335.614 77.265 335.204 76.845L335.654 76.245C335.964 76.615 336.304 76.875 336.674 77.025C337.044 77.185 337.504 77.265 338.054 77.265C338.774 77.265 339.364 77.07 339.824 76.68C340.294 76.3 340.529 75.72 340.529 74.94V73.8C340.259 74.19 339.899 74.515 339.449 74.775C339.009 75.025 338.529 75.15 338.009 75.15C337.039 75.15 336.254 74.81 335.654 74.13C335.064 73.44 334.769 72.52 334.769 71.37C334.769 70.23 335.069 69.315 335.669 68.625C336.269 67.925 337.049 67.575 338.009 67.575C339.049 67.575 339.889 68.025 340.529 68.925V67.755H341.324V74.925C341.324 75.965 341.019 76.725 340.409 77.205C339.809 77.695 339.024 77.94 338.054 77.94ZM338.144 74.445C338.634 74.445 339.099 74.32 339.539 74.07C339.979 73.81 340.309 73.495 340.529 73.125V69.6C340.309 69.23 339.979 68.92 339.539 68.67C339.099 68.41 338.634 68.28 338.144 68.28C337.364 68.28 336.744 68.57 336.284 69.15C335.834 69.73 335.609 70.47 335.609 71.37C335.609 72.27 335.834 73.01 336.284 73.59C336.744 74.16 337.364 74.445 338.144 74.445ZM350.685 75.18C349.645 75.18 348.805 74.815 348.165 74.085C347.525 73.355 347.205 72.45 347.205 71.37C347.205 70.29 347.525 69.39 348.165 68.67C348.805 67.94 349.645 67.575 350.685 67.575C351.735 67.575 352.58 67.94 353.22 68.67C353.86 69.39 354.18 70.29 354.18 71.37C354.18 72.45 353.86 73.355 353.22 74.085C352.58 74.815 351.735 75.18 350.685 75.18ZM350.685 74.475C351.505 74.475 352.15 74.175 352.62 73.575C353.1 72.965 353.34 72.23 353.34 71.37C353.34 70.52 353.1 69.795 352.62 69.195C352.15 68.585 351.505 68.28 350.685 68.28C349.875 68.28 349.23 68.585 348.75 69.195C348.28 69.795 348.045 70.52 348.045 71.37C348.045 72.22 348.28 72.95 348.75 73.56C349.23 74.17 349.875 74.475 350.685 74.475ZM361.864 75H361.084V70.095C361.084 69.435 360.934 68.97 360.634 68.7C360.334 68.42 359.899 68.28 359.329 68.28C358.879 68.28 358.434 68.4 357.994 68.64C357.554 68.88 357.214 69.175 356.974 69.525V75H356.194V67.755H356.974V68.85C357.264 68.51 357.649 68.215 358.129 67.965C358.609 67.705 359.094 67.575 359.584 67.575C361.104 67.575 361.864 68.36 361.864 69.93V75ZM365.075 75H364.295V64.995H365.075V75ZM367.023 77.835L367.158 77.115C367.338 77.195 367.548 77.235 367.788 77.235C368.278 77.235 368.643 76.94 368.883 76.35L369.453 75.06L366.393 67.755H367.263L369.903 74.085L372.513 67.755H373.398L369.648 76.59C369.268 77.49 368.648 77.94 367.788 77.94C367.508 77.94 367.253 77.905 367.023 77.835ZM383.332 75.18C381.892 75.18 380.687 74.7 379.717 73.74C378.747 72.77 378.262 71.525 378.262 70.005C378.262 68.485 378.747 67.245 379.717 66.285C380.687 65.315 381.892 64.83 383.332 64.83C384.812 64.83 386.027 65.42 386.977 66.6L386.257 67.065C385.937 66.625 385.517 66.275 384.997 66.015C384.477 65.745 383.922 65.61 383.332 65.61C382.142 65.61 381.147 66.02 380.347 66.84C379.557 67.66 379.162 68.715 379.162 70.005C379.162 71.285 379.557 72.34 380.347 73.17C381.147 73.99 382.142 74.4 383.332 74.4C383.922 74.4 384.477 74.27 384.997 74.01C385.517 73.74 385.937 73.385 386.257 72.945L386.977 73.395C386.017 74.585 384.802 75.18 383.332 75.18ZM389.57 75H388.715V64.995H392.465C393.395 64.995 394.13 65.28 394.67 65.85C395.21 66.41 395.48 67.1 395.48 67.92C395.48 68.74 395.205 69.435 394.655 70.005C394.115 70.565 393.385 70.845 392.465 70.845H389.57V75ZM392.375 70.065C393.035 70.065 393.565 69.865 393.965 69.465C394.375 69.065 394.58 68.55 394.58 67.92C394.58 67.29 394.375 66.775 393.965 66.375C393.565 65.975 393.035 65.775 392.375 65.775H389.57V70.065H392.375ZM403.296 75.18C402.126 75.18 401.196 74.8 400.506 74.04L400.971 73.455C401.221 73.765 401.551 74.02 401.961 74.22C402.371 74.42 402.821 74.52 403.311 74.52C403.901 74.52 404.371 74.385 404.721 74.115C405.071 73.835 405.246 73.48 405.246 73.05C405.246 72.69 405.086 72.405 404.766 72.195C404.456 71.975 404.076 71.815 403.626 71.715C403.186 71.605 402.741 71.49 402.291 71.37C401.841 71.24 401.456 71.03 401.136 70.74C400.826 70.45 400.671 70.065 400.671 69.585C400.671 69.015 400.901 68.54 401.361 68.16C401.831 67.77 402.461 67.575 403.251 67.575C404.341 67.575 405.206 67.93 405.846 68.64L405.411 69.195C404.941 68.555 404.221 68.235 403.251 68.235C402.701 68.235 402.261 68.36 401.931 68.61C401.601 68.86 401.436 69.175 401.436 69.555C401.436 69.885 401.591 70.145 401.901 70.335C402.221 70.525 402.601 70.675 403.041 70.785C403.491 70.885 403.941 71 404.391 71.13C404.841 71.26 405.221 71.485 405.531 71.805C405.851 72.125 406.011 72.54 406.011 73.05C406.011 73.67 405.776 74.18 405.306 74.58C404.836 74.98 404.166 75.18 403.296 75.18ZM409.596 75.18C408.646 75.18 408.171 74.655 408.171 73.605V68.445H406.971V67.755H408.171V65.775H408.966V67.755H410.436V68.445H408.966V73.485C408.966 74.145 409.216 74.475 409.716 74.475C410.046 74.475 410.316 74.36 410.526 74.13L410.826 74.73C410.506 75.03 410.096 75.18 409.596 75.18ZM417.822 75H417.042V73.935C416.712 74.295 416.317 74.595 415.857 74.835C415.397 75.065 414.922 75.18 414.432 75.18C413.672 75.18 413.102 74.995 412.722 74.625C412.342 74.245 412.152 73.655 412.152 72.855V67.755H412.932V72.675C412.932 73.345 413.082 73.815 413.382 74.085C413.682 74.345 414.117 74.475 414.687 74.475C415.137 74.475 415.577 74.36 416.007 74.13C416.447 73.9 416.792 73.615 417.042 73.275V67.755H417.822V75ZM426.387 75H425.592V73.845C425.322 74.235 424.962 74.555 424.512 74.805C424.072 75.055 423.592 75.18 423.072 75.18C422.102 75.18 421.317 74.835 420.717 74.145C420.127 73.455 419.832 72.535 419.832 71.385C419.832 70.245 420.132 69.325 420.732 68.625C421.332 67.925 422.112 67.575 423.072 67.575C424.112 67.575 424.952 68.025 425.592 68.925V64.995H426.387V75ZM423.207 74.475C423.697 74.475 424.162 74.35 424.602 74.1C425.042 73.85 425.372 73.545 425.592 73.185V69.6C425.372 69.23 425.042 68.92 424.602 68.67C424.162 68.41 423.697 68.28 423.207 68.28C422.427 68.28 421.807 68.575 421.347 69.165C420.897 69.745 420.672 70.485 420.672 71.385C420.672 72.285 420.897 73.025 421.347 73.605C421.807 74.185 422.427 74.475 423.207 74.475ZM432.031 75.18C430.971 75.18 430.101 74.825 429.421 74.115C428.741 73.405 428.401 72.49 428.401 71.37C428.401 70.31 428.731 69.415 429.391 68.685C430.061 67.945 430.896 67.575 431.896 67.575C432.956 67.575 433.791 67.945 434.401 68.685C435.011 69.415 435.316 70.325 435.316 71.415V71.625H429.256C429.296 72.445 429.571 73.13 430.081 73.68C430.591 74.23 431.261 74.505 432.091 74.505C433.051 74.505 433.841 74.17 434.461 73.5L434.866 74.01C434.116 74.79 433.171 75.18 432.031 75.18ZM434.521 71.01C434.511 70.31 434.276 69.675 433.816 69.105C433.366 68.535 432.721 68.25 431.881 68.25C431.091 68.25 430.461 68.535 429.991 69.105C429.531 69.665 429.286 70.3 429.256 71.01H434.521ZM443.002 75H442.222V70.095C442.222 69.435 442.072 68.97 441.772 68.7C441.472 68.42 441.037 68.28 440.467 68.28C440.017 68.28 439.572 68.4 439.132 68.64C438.692 68.88 438.352 69.175 438.112 69.525V75H437.332V67.755H438.112V68.85C438.402 68.51 438.787 68.215 439.267 67.965C439.747 67.705 440.232 67.575 440.722 67.575C442.242 67.575 443.002 68.36 443.002 69.93V75ZM447.008 75.18C446.058 75.18 445.583 74.655 445.583 73.605V68.445H444.383V67.755H445.583V65.775H446.378V67.755H447.848V68.445H446.378V73.485C446.378 74.145 446.628 74.475 447.128 74.475C447.458 74.475 447.728 74.36 447.938 74.13L448.238 74.73C447.918 75.03 447.508 75.18 447.008 75.18ZM451.724 75.18C450.554 75.18 449.624 74.8 448.934 74.04L449.399 73.455C449.649 73.765 449.979 74.02 450.389 74.22C450.799 74.42 451.249 74.52 451.739 74.52C452.329 74.52 452.799 74.385 453.149 74.115C453.499 73.835 453.674 73.48 453.674 73.05C453.674 72.69 453.514 72.405 453.194 72.195C452.884 71.975 452.504 71.815 452.054 71.715C451.614 71.605 451.169 71.49 450.719 71.37C450.269 71.24 449.884 71.03 449.564 70.74C449.254 70.45 449.099 70.065 449.099 69.585C449.099 69.015 449.329 68.54 449.789 68.16C450.259 67.77 450.889 67.575 451.679 67.575C452.769 67.575 453.634 67.93 454.274 68.64L453.839 69.195C453.369 68.555 452.649 68.235 451.679 68.235C451.129 68.235 450.689 68.36 450.359 68.61C450.029 68.86 449.864 69.175 449.864 69.555C449.864 69.885 450.019 70.145 450.329 70.335C450.649 70.525 451.029 70.675 451.469 70.785C451.919 70.885 452.369 71 452.819 71.13C453.269 71.26 453.649 71.485 453.959 71.805C454.279 72.125 454.439 72.54 454.439 73.05C454.439 73.67 454.204 74.18 453.734 74.58C453.264 74.98 452.594 75.18 451.724 75.18Z" fill="#1F1F1F"/>
</svg>
