<svg width="342" height="97" viewBox="0 0 342 97" fill="none" xmlns="http://www.w3.org/2000/svg">
<path d="M40.145 25H39.11L36.305 20.86H34.1V25H33.245V14.995H36.98C37.86 14.995 38.585 15.26 39.155 15.79C39.735 16.32 40.025 17.03 40.025 17.92C40.025 18.79 39.755 19.48 39.215 19.99C38.685 20.5 38.03 20.77 37.25 20.8L40.145 25ZM36.905 20.08C37.565 20.08 38.1 19.88 38.51 19.48C38.92 19.07 39.125 18.55 39.125 17.92C39.125 17.29 38.92 16.775 38.51 16.375C38.1 15.975 37.565 15.775 36.905 15.775H34.1V20.08H36.905ZM44.8771 25.18C43.8171 25.18 42.9471 24.825 42.2671 24.115C41.5871 23.405 41.2471 22.49 41.2471 21.37C41.2471 20.31 41.5771 19.415 42.2371 18.685C42.9071 17.945 43.7421 17.575 44.7421 17.575C45.8021 17.575 46.6371 17.945 47.2471 18.685C47.8571 19.415 48.1621 20.325 48.1621 21.415V21.625H42.1021C42.1421 22.445 42.4171 23.13 42.9271 23.68C43.4371 24.23 44.1071 24.505 44.9371 24.505C45.8971 24.505 46.6871 24.17 47.3071 23.5L47.7121 24.01C46.9621 24.79 46.0171 25.18 44.8771 25.18ZM47.3671 21.01C47.3571 20.31 47.1221 19.675 46.6621 19.105C46.2121 18.535 45.5671 18.25 44.7271 18.25C43.9371 18.25 43.3071 18.535 42.8371 19.105C42.3771 19.665 42.1321 20.3 42.1021 21.01H47.3671ZM52.3379 25.18C51.1679 25.18 50.2379 24.8 49.5479 24.04L50.0129 23.455C50.2629 23.765 50.5929 24.02 51.0029 24.22C51.4129 24.42 51.8629 24.52 52.3529 24.52C52.9429 24.52 53.4129 24.385 53.7629 24.115C54.1129 23.835 54.2879 23.48 54.2879 23.05C54.2879 22.69 54.1279 22.405 53.8079 22.195C53.4979 21.975 53.1179 21.815 52.6679 21.715C52.2279 21.605 51.7829 21.49 51.3329 21.37C50.8829 21.24 50.4979 21.03 50.1779 20.74C49.8679 20.45 49.7129 20.065 49.7129 19.585C49.7129 19.015 49.9429 18.54 50.4029 18.16C50.8729 17.77 51.5029 17.575 52.2929 17.575C53.3829 17.575 54.2479 17.93 54.8879 18.64L54.4529 19.195C53.9829 18.555 53.2629 18.235 52.2929 18.235C51.7429 18.235 51.3029 18.36 50.9729 18.61C50.6429 18.86 50.4779 19.175 50.4779 19.555C50.4779 19.885 50.6329 20.145 50.9429 20.335C51.2629 20.525 51.6429 20.675 52.0829 20.785C52.5329 20.885 52.9829 21 53.4329 21.13C53.8829 21.26 54.2629 21.485 54.5729 21.805C54.8929 22.125 55.0529 22.54 55.0529 23.05C55.0529 23.67 54.8179 24.18 54.3479 24.58C53.8779 24.98 53.2079 25.18 52.3379 25.18ZM60.2727 25.18C59.2127 25.18 58.3427 24.825 57.6627 24.115C56.9827 23.405 56.6427 22.49 56.6427 21.37C56.6427 20.31 56.9727 19.415 57.6327 18.685C58.3027 17.945 59.1377 17.575 60.1377 17.575C61.1977 17.575 62.0327 17.945 62.6427 18.685C63.2527 19.415 63.5577 20.325 63.5577 21.415V21.625H57.4977C57.5377 22.445 57.8127 23.13 58.3227 23.68C58.8327 24.23 59.5027 24.505 60.3327 24.505C61.2927 24.505 62.0827 24.17 62.7027 23.5L63.1077 24.01C62.3577 24.79 61.4127 25.18 60.2727 25.18ZM62.7627 21.01C62.7527 20.31 62.5177 19.675 62.0577 19.105C61.6077 18.535 60.9627 18.25 60.1227 18.25C59.3327 18.25 58.7027 18.535 58.2327 19.105C57.7727 19.665 57.5277 20.3 57.4977 21.01H62.7627ZM70.9584 25H70.1784V24.145C69.5484 24.835 68.7284 25.18 67.7184 25.18C67.0484 25.18 66.4584 24.965 65.9484 24.535C65.4384 24.095 65.1834 23.505 65.1834 22.765C65.1834 22.015 65.4334 21.43 65.9334 21.01C66.4434 20.58 67.0384 20.365 67.7184 20.365C68.7384 20.365 69.5584 20.71 70.1784 21.4V19.93C70.1784 19.41 69.9934 19.005 69.6234 18.715C69.2534 18.415 68.7884 18.265 68.2284 18.265C67.3384 18.265 66.5834 18.62 65.9634 19.33L65.5284 18.79C66.2784 17.98 67.2084 17.575 68.3184 17.575C69.0984 17.575 69.7334 17.77 70.2234 18.16C70.7134 18.55 70.9584 19.13 70.9584 19.9V25ZM67.9884 24.565C68.9384 24.565 69.6684 24.235 70.1784 23.575V21.985C69.6584 21.315 68.9284 20.98 67.9884 20.98C67.3984 20.98 66.9184 21.15 66.5484 21.49C66.1884 21.83 66.0084 22.26 66.0084 22.78C66.0084 23.3 66.1884 23.73 66.5484 24.07C66.9184 24.4 67.3984 24.565 67.9884 24.565ZM74.1757 25H73.3957V17.755H74.1757V19C74.8857 18.07 75.7007 17.605 76.6207 17.605V18.46C76.5307 18.44 76.4007 18.43 76.2307 18.43C75.8707 18.43 75.4807 18.565 75.0607 18.835C74.6407 19.105 74.3457 19.4 74.1757 19.72V25ZM81.2614 25.18C80.2114 25.18 79.3614 24.815 78.7114 24.085C78.0614 23.355 77.7364 22.45 77.7364 21.37C77.7364 20.29 78.0614 19.39 78.7114 18.67C79.3614 17.94 80.2114 17.575 81.2614 17.575C82.3214 17.575 83.1764 17.985 83.8264 18.805L83.2864 19.285C82.7964 18.615 82.1364 18.28 81.3064 18.28C80.4764 18.28 79.8114 18.575 79.3114 19.165C78.8214 19.745 78.5764 20.48 78.5764 21.37C78.5764 22.26 78.8214 23 79.3114 23.59C79.8114 24.18 80.4764 24.475 81.3064 24.475C82.1264 24.475 82.7864 24.135 83.2864 23.455L83.8264 23.935C83.1764 24.765 82.3214 25.18 81.2614 25.18ZM91.2385 25H90.4585V20.065C90.4585 19.405 90.3085 18.945 90.0085 18.685C89.7085 18.415 89.2735 18.28 88.7035 18.28C88.2535 18.28 87.8085 18.4 87.3685 18.64C86.9285 18.88 86.5885 19.175 86.3485 19.525V25H85.5685V14.995H86.3485V18.85C86.6385 18.51 87.0235 18.215 87.5035 17.965C87.9835 17.705 88.4685 17.575 88.9585 17.575C90.4785 17.575 91.2385 18.35 91.2385 19.9V25ZM34.1 55H33.245V44.995H34.1V55ZM42.6898 55H41.8948V53.845C41.6248 54.235 41.2648 54.555 40.8148 54.805C40.3748 55.055 39.8948 55.18 39.3748 55.18C38.4048 55.18 37.6198 54.835 37.0198 54.145C36.4298 53.455 36.1348 52.535 36.1348 51.385C36.1348 50.245 36.4348 49.325 37.0348 48.625C37.6348 47.925 38.4148 47.575 39.3748 47.575C40.4148 47.575 41.2548 48.025 41.8948 48.925V44.995H42.6898V55ZM39.5098 54.475C39.9998 54.475 40.4648 54.35 40.9048 54.1C41.3448 53.85 41.6748 53.545 41.8948 53.185V49.6C41.6748 49.23 41.3448 48.92 40.9048 48.67C40.4648 48.41 39.9998 48.28 39.5098 48.28C38.7298 48.28 38.1098 48.575 37.6498 49.165C37.1998 49.745 36.9748 50.485 36.9748 51.385C36.9748 52.285 37.1998 53.025 37.6498 53.605C38.1098 54.185 38.7298 54.475 39.5098 54.475ZM48.3342 55.18C47.2742 55.18 46.4042 54.825 45.7242 54.115C45.0442 53.405 44.7042 52.49 44.7042 51.37C44.7042 50.31 45.0342 49.415 45.6942 48.685C46.3642 47.945 47.1992 47.575 48.1992 47.575C49.2592 47.575 50.0942 47.945 50.7042 48.685C51.3142 49.415 51.6192 50.325 51.6192 51.415V51.625H45.5592C45.5992 52.445 45.8742 53.13 46.3842 53.68C46.8942 54.23 47.5642 54.505 48.3942 54.505C49.3542 54.505 50.1442 54.17 50.7642 53.5L51.1692 54.01C50.4192 54.79 49.4742 55.18 48.3342 55.18ZM50.8242 51.01C50.8142 50.31 50.5792 49.675 50.1192 49.105C49.6692 48.535 49.0242 48.25 48.1842 48.25C47.3942 48.25 46.7642 48.535 46.2942 49.105C45.8342 49.665 45.5892 50.3 45.5592 51.01H50.8242ZM59.0199 55H58.2399V54.145C57.6099 54.835 56.7899 55.18 55.7799 55.18C55.1099 55.18 54.5199 54.965 54.0099 54.535C53.4999 54.095 53.2449 53.505 53.2449 52.765C53.2449 52.015 53.4949 51.43 53.9949 51.01C54.5049 50.58 55.0999 50.365 55.7799 50.365C56.7999 50.365 57.6199 50.71 58.2399 51.4V49.93C58.2399 49.41 58.0549 49.005 57.6849 48.715C57.3149 48.415 56.8499 48.265 56.2899 48.265C55.3999 48.265 54.6449 48.62 54.0249 49.33L53.5899 48.79C54.3399 47.98 55.2699 47.575 56.3799 47.575C57.1599 47.575 57.7949 47.77 58.2849 48.16C58.7749 48.55 59.0199 49.13 59.0199 49.9V55ZM56.0499 54.565C56.9999 54.565 57.7299 54.235 58.2399 53.575V51.985C57.7199 51.315 56.9899 50.98 56.0499 50.98C55.4599 50.98 54.9799 51.15 54.6099 51.49C54.2499 51.83 54.0699 52.26 54.0699 52.78C54.0699 53.3 54.2499 53.73 54.6099 54.07C54.9799 54.4 55.4599 54.565 56.0499 54.565ZM63.0322 55.18C62.0822 55.18 61.6072 54.655 61.6072 53.605V48.445H60.4072V47.755H61.6072V45.775H62.4022V47.755H63.8722V48.445H62.4022V53.485C62.4022 54.145 62.6522 54.475 63.1522 54.475C63.4822 54.475 63.7522 54.36 63.9622 54.13L64.2622 54.73C63.9422 55.03 63.5322 55.18 63.0322 55.18ZM68.798 55.18C67.738 55.18 66.868 54.825 66.188 54.115C65.508 53.405 65.168 52.49 65.168 51.37C65.168 50.31 65.498 49.415 66.158 48.685C66.828 47.945 67.663 47.575 68.663 47.575C69.723 47.575 70.558 47.945 71.168 48.685C71.778 49.415 72.083 50.325 72.083 51.415V51.625H66.023C66.063 52.445 66.338 53.13 66.848 53.68C67.358 54.23 68.028 54.505 68.858 54.505C69.818 54.505 70.608 54.17 71.228 53.5L71.633 54.01C70.883 54.79 69.938 55.18 68.798 55.18ZM71.288 51.01C71.278 50.31 71.043 49.675 70.583 49.105C70.133 48.535 69.488 48.25 68.648 48.25C67.858 48.25 67.228 48.535 66.758 49.105C66.298 49.665 66.053 50.3 66.023 51.01H71.288Z" fill="#1F1F1F"/>
<path d="M41.87 87H40.91L38.51 78.405L36.11 87H35.15L32.285 76.995H33.245L35.66 85.8L38.12 76.995H38.9L41.345 85.8L43.76 76.995H44.72L41.87 87ZM46.6128 78.615C46.4528 78.615 46.3128 78.555 46.1928 78.435C46.0728 78.315 46.0128 78.175 46.0128 78.015C46.0128 77.855 46.0728 77.72 46.1928 77.61C46.3128 77.49 46.4528 77.43 46.6128 77.43C46.7828 77.43 46.9228 77.49 47.0328 77.61C47.1528 77.72 47.2128 77.855 47.2128 78.015C47.2128 78.185 47.1528 78.33 47.0328 78.45C46.9228 78.56 46.7828 78.615 46.6128 78.615ZM47.0028 87H46.2228V79.755H47.0028V87ZM50.2108 87H49.4308V79.755H50.2108V81C50.9208 80.07 51.7358 79.605 52.6558 79.605V80.46C52.5658 80.44 52.4358 80.43 52.2658 80.43C51.9058 80.43 51.5158 80.565 51.0958 80.835C50.6758 81.105 50.3808 81.4 50.2108 81.72V87ZM57.4016 87.18C56.3416 87.18 55.4716 86.825 54.7916 86.115C54.1116 85.405 53.7716 84.49 53.7716 83.37C53.7716 82.31 54.1016 81.415 54.7616 80.685C55.4316 79.945 56.2666 79.575 57.2666 79.575C58.3266 79.575 59.1616 79.945 59.7716 80.685C60.3816 81.415 60.6866 82.325 60.6866 83.415V83.625H54.6266C54.6666 84.445 54.9416 85.13 55.4516 85.68C55.9616 86.23 56.6316 86.505 57.4616 86.505C58.4216 86.505 59.2116 86.17 59.8316 85.5L60.2366 86.01C59.4866 86.79 58.5416 87.18 57.4016 87.18ZM59.8916 83.01C59.8816 82.31 59.6466 81.675 59.1866 81.105C58.7366 80.535 58.0916 80.25 57.2516 80.25C56.4616 80.25 55.8316 80.535 55.3616 81.105C54.9016 81.665 54.6566 82.3 54.6266 83.01H59.8916ZM63.7373 87H62.9573V80.445H61.7573V79.755H62.9573V79.095C62.9573 78.395 63.1323 77.845 63.4823 77.445C63.8323 77.045 64.3123 76.845 64.9223 76.845C65.4523 76.845 65.9123 77.015 66.3023 77.355L65.9273 77.895C65.6573 77.645 65.3473 77.52 64.9973 77.52C64.1573 77.52 63.7373 78.045 63.7373 79.095V79.755H65.2073V80.445H63.7373V87ZM67.452 87H66.672V79.755H67.452V81C68.162 80.07 68.977 79.605 69.897 79.605V80.46C69.807 80.44 69.677 80.43 69.507 80.43C69.147 80.43 68.757 80.565 68.337 80.835C67.917 81.105 67.622 81.4 67.452 81.72V87ZM76.8178 87H76.0378V86.145C75.4078 86.835 74.5878 87.18 73.5778 87.18C72.9078 87.18 72.3178 86.965 71.8078 86.535C71.2978 86.095 71.0428 85.505 71.0428 84.765C71.0428 84.015 71.2928 83.43 71.7928 83.01C72.3028 82.58 72.8978 82.365 73.5778 82.365C74.5978 82.365 75.4178 82.71 76.0378 83.4V81.93C76.0378 81.41 75.8528 81.005 75.4828 80.715C75.1128 80.415 74.6478 80.265 74.0878 80.265C73.1978 80.265 72.4428 80.62 71.8228 81.33L71.3878 80.79C72.1378 79.98 73.0678 79.575 74.1778 79.575C74.9578 79.575 75.5928 79.77 76.0828 80.16C76.5728 80.55 76.8178 81.13 76.8178 81.9V87ZM73.8478 86.565C74.7978 86.565 75.5278 86.235 76.0378 85.575V83.985C75.5178 83.315 74.7878 82.98 73.8478 82.98C73.2578 82.98 72.7778 83.15 72.4078 83.49C72.0478 83.83 71.8678 84.26 71.8678 84.78C71.8678 85.3 72.0478 85.73 72.4078 86.07C72.7778 86.4 73.2578 86.565 73.8478 86.565ZM88.66 87H87.88V81.93C87.88 80.83 87.395 80.28 86.425 80.28C86.045 80.28 85.655 80.4 85.255 80.64C84.865 80.88 84.565 81.17 84.355 81.51V87H83.56V81.93C83.56 80.83 83.075 80.28 82.105 80.28C81.735 80.28 81.355 80.405 80.965 80.655C80.575 80.895 80.265 81.185 80.035 81.525V87H79.255V79.755H80.035V80.85C80.215 80.56 80.53 80.275 80.98 79.995C81.44 79.715 81.905 79.575 82.375 79.575C82.905 79.575 83.33 79.705 83.65 79.965C83.97 80.225 84.18 80.55 84.28 80.94C84.5 80.58 84.835 80.265 85.285 79.995C85.735 79.715 86.2 79.575 86.68 79.575C88 79.575 88.66 80.31 88.66 81.78V87ZM94.301 87.18C93.241 87.18 92.371 86.825 91.691 86.115C91.011 85.405 90.671 84.49 90.671 83.37C90.671 82.31 91.001 81.415 91.661 80.685C92.331 79.945 93.166 79.575 94.166 79.575C95.226 79.575 96.061 79.945 96.671 80.685C97.281 81.415 97.586 82.325 97.586 83.415V83.625H91.526C91.566 84.445 91.841 85.13 92.351 85.68C92.861 86.23 93.531 86.505 94.361 86.505C95.321 86.505 96.111 86.17 96.731 85.5L97.136 86.01C96.386 86.79 95.441 87.18 94.301 87.18ZM96.791 83.01C96.781 82.31 96.546 81.675 96.086 81.105C95.636 80.535 94.991 80.25 94.151 80.25C93.361 80.25 92.731 80.535 92.261 81.105C91.801 81.665 91.556 82.3 91.526 83.01H96.791Z" fill="#1F1F1F"/>
<path d="M176.1 25H175.245V14.995H178.995C179.925 14.995 180.66 15.28 181.2 15.85C181.74 16.41 182.01 17.1 182.01 17.92C182.01 18.74 181.735 19.435 181.185 20.005C180.645 20.565 179.915 20.845 178.995 20.845H176.1V25ZM178.905 20.065C179.565 20.065 180.095 19.865 180.495 19.465C180.905 19.065 181.11 18.55 181.11 17.92C181.11 17.29 180.905 16.775 180.495 16.375C180.095 15.975 179.565 15.775 178.905 15.775H176.1V20.065H178.905ZM184.564 25H183.784V17.755H184.564V19C185.274 18.07 186.089 17.605 187.009 17.605V18.46C186.919 18.44 186.789 18.43 186.619 18.43C186.259 18.43 185.869 18.565 185.449 18.835C185.029 19.105 184.734 19.4 184.564 19.72V25ZM191.605 25.18C190.565 25.18 189.725 24.815 189.085 24.085C188.445 23.355 188.125 22.45 188.125 21.37C188.125 20.29 188.445 19.39 189.085 18.67C189.725 17.94 190.565 17.575 191.605 17.575C192.655 17.575 193.5 17.94 194.14 18.67C194.78 19.39 195.1 20.29 195.1 21.37C195.1 22.45 194.78 23.355 194.14 24.085C193.5 24.815 192.655 25.18 191.605 25.18ZM191.605 24.475C192.425 24.475 193.07 24.175 193.54 23.575C194.02 22.965 194.26 22.23 194.26 21.37C194.26 20.52 194.02 19.795 193.54 19.195C193.07 18.585 192.425 18.28 191.605 18.28C190.795 18.28 190.15 18.585 189.67 19.195C189.2 19.795 188.965 20.52 188.965 21.37C188.965 22.22 189.2 22.95 189.67 23.56C190.15 24.17 190.795 24.475 191.605 24.475ZM198.689 25.18C197.739 25.18 197.264 24.655 197.264 23.605V18.445H196.064V17.755H197.264V15.775H198.059V17.755H199.529V18.445H198.059V23.485C198.059 24.145 198.309 24.475 198.809 24.475C199.139 24.475 199.409 24.36 199.619 24.13L199.919 24.73C199.599 25.03 199.189 25.18 198.689 25.18ZM204.305 25.18C203.265 25.18 202.425 24.815 201.785 24.085C201.145 23.355 200.825 22.45 200.825 21.37C200.825 20.29 201.145 19.39 201.785 18.67C202.425 17.94 203.265 17.575 204.305 17.575C205.355 17.575 206.2 17.94 206.84 18.67C207.48 19.39 207.8 20.29 207.8 21.37C207.8 22.45 207.48 23.355 206.84 24.085C206.2 24.815 205.355 25.18 204.305 25.18ZM204.305 24.475C205.125 24.475 205.77 24.175 206.24 23.575C206.72 22.965 206.96 22.23 206.96 21.37C206.96 20.52 206.72 19.795 206.24 19.195C205.77 18.585 205.125 18.28 204.305 18.28C203.495 18.28 202.85 18.585 202.37 19.195C201.9 19.795 201.665 20.52 201.665 21.37C201.665 22.22 201.9 22.95 202.37 23.56C202.85 24.17 203.495 24.475 204.305 24.475ZM211.39 25.18C210.44 25.18 209.965 24.655 209.965 23.605V18.445H208.765V17.755H209.965V15.775H210.76V17.755H212.23V18.445H210.76V23.485C210.76 24.145 211.01 24.475 211.51 24.475C211.84 24.475 212.11 24.36 212.32 24.13L212.62 24.73C212.3 25.03 211.89 25.18 211.39 25.18ZM213.465 27.835L213.6 27.115C213.78 27.195 213.99 27.235 214.23 27.235C214.72 27.235 215.085 26.94 215.325 26.35L215.895 25.06L212.835 17.755H213.705L216.345 24.085L218.955 17.755H219.84L216.09 26.59C215.71 27.49 215.09 27.94 214.23 27.94C213.95 27.94 213.695 27.905 213.465 27.835ZM224.467 25.18C223.427 25.18 222.587 24.73 221.947 23.83V27.76H221.167V17.755H221.947V18.895C222.217 18.505 222.572 18.19 223.012 17.95C223.462 17.7 223.947 17.575 224.467 17.575C225.437 17.575 226.217 17.92 226.807 18.61C227.407 19.29 227.707 20.21 227.707 21.37C227.707 22.52 227.407 23.445 226.807 24.145C226.217 24.835 225.437 25.18 224.467 25.18ZM224.332 24.475C225.122 24.475 225.742 24.185 226.192 23.605C226.642 23.025 226.867 22.28 226.867 21.37C226.867 20.47 226.642 19.73 226.192 19.15C225.742 18.57 225.122 18.28 224.332 18.28C223.842 18.28 223.377 18.405 222.937 18.655C222.497 18.905 222.167 19.21 221.947 19.57V23.155C222.167 23.515 222.497 23.825 222.937 24.085C223.387 24.345 223.852 24.475 224.332 24.475ZM232.888 25.18C231.828 25.18 230.958 24.825 230.278 24.115C229.598 23.405 229.258 22.49 229.258 21.37C229.258 20.31 229.588 19.415 230.248 18.685C230.918 17.945 231.753 17.575 232.753 17.575C233.813 17.575 234.648 17.945 235.258 18.685C235.868 19.415 236.173 20.325 236.173 21.415V21.625H230.113C230.153 22.445 230.428 23.13 230.938 23.68C231.448 24.23 232.118 24.505 232.948 24.505C233.908 24.505 234.698 24.17 235.318 23.5L235.723 24.01C234.973 24.79 234.028 25.18 232.888 25.18ZM235.378 21.01C235.368 20.31 235.133 19.675 234.673 19.105C234.223 18.535 233.578 18.25 232.738 18.25C231.948 18.25 231.318 18.535 230.848 19.105C230.388 19.665 230.143 20.3 230.113 21.01H235.378ZM178.665 55H177.795V45.775H174.525V44.995H181.935V45.775H178.665V55ZM185.046 55.18C183.986 55.18 183.116 54.825 182.436 54.115C181.756 53.405 181.416 52.49 181.416 51.37C181.416 50.31 181.746 49.415 182.406 48.685C183.076 47.945 183.911 47.575 184.911 47.575C185.971 47.575 186.806 47.945 187.416 48.685C188.026 49.415 188.331 50.325 188.331 51.415V51.625H182.271C182.311 52.445 182.586 53.13 183.096 53.68C183.606 54.23 184.276 54.505 185.106 54.505C186.066 54.505 186.856 54.17 187.476 53.5L187.881 54.01C187.131 54.79 186.186 55.18 185.046 55.18ZM187.536 51.01C187.526 50.31 187.291 49.675 186.831 49.105C186.381 48.535 185.736 48.25 184.896 48.25C184.106 48.25 183.476 48.535 183.006 49.105C182.546 49.665 182.301 50.3 182.271 51.01H187.536ZM192.507 55.18C191.337 55.18 190.407 54.8 189.717 54.04L190.182 53.455C190.432 53.765 190.762 54.02 191.172 54.22C191.582 54.42 192.032 54.52 192.522 54.52C193.112 54.52 193.582 54.385 193.932 54.115C194.282 53.835 194.457 53.48 194.457 53.05C194.457 52.69 194.297 52.405 193.977 52.195C193.667 51.975 193.287 51.815 192.837 51.715C192.397 51.605 191.952 51.49 191.502 51.37C191.052 51.24 190.667 51.03 190.347 50.74C190.037 50.45 189.882 50.065 189.882 49.585C189.882 49.015 190.112 48.54 190.572 48.16C191.042 47.77 191.672 47.575 192.462 47.575C193.552 47.575 194.417 47.93 195.057 48.64L194.622 49.195C194.152 48.555 193.432 48.235 192.462 48.235C191.912 48.235 191.472 48.36 191.142 48.61C190.812 48.86 190.647 49.175 190.647 49.555C190.647 49.885 190.802 50.145 191.112 50.335C191.432 50.525 191.812 50.675 192.252 50.785C192.702 50.885 193.152 51 193.602 51.13C194.052 51.26 194.432 51.485 194.742 51.805C195.062 52.125 195.222 52.54 195.222 53.05C195.222 53.67 194.987 54.18 194.517 54.58C194.047 54.98 193.377 55.18 192.507 55.18ZM198.807 55.18C197.857 55.18 197.382 54.655 197.382 53.605V48.445H196.182V47.755H197.382V45.775H198.177V47.755H199.647V48.445H198.177V53.485C198.177 54.145 198.427 54.475 198.927 54.475C199.257 54.475 199.527 54.36 199.737 54.13L200.037 54.73C199.717 55.03 199.307 55.18 198.807 55.18Z" fill="#1F1F1F"/>
<path d="M9.57541 13.024C10.8335 13.0228 12.0637 13.3948 13.1103 14.093C14.157 14.7911 14.973 15.784 15.4553 16.946C15.9375 18.108 16.0643 19.3869 15.8196 20.621C15.5748 21.8551 14.9696 22.9888 14.0804 23.8789C13.1912 24.7689 12.058 25.3752 10.8241 25.621C9.59025 25.8669 8.3112 25.7413 7.14875 25.2601C5.98631 24.7789 4.99269 23.9638 4.2936 22.9178C3.59452 21.8718 3.22137 20.6419 3.22137 19.3838C3.229 17.7004 3.9007 16.0881 5.0905 14.8972C6.2803 13.7063 7.89204 13.0331 9.57541 13.024ZM9.57541 11.8333C8.08206 11.8333 6.62225 12.2761 5.38058 13.1058C4.1389 13.9355 3.17113 15.1147 2.59965 16.4944C2.02817 17.874 1.87865 19.3922 2.16999 20.8568C2.46132 22.3215 3.18044 23.6669 4.2364 24.7228C5.29236 25.7788 6.63773 26.4979 8.10238 26.7892C9.56704 27.0806 11.0852 26.9311 12.4649 26.3596C13.8445 25.7881 15.0238 24.8203 15.8534 23.5787C16.6831 22.337 17.1259 20.8772 17.1259 19.3838C17.1259 17.3813 16.3304 15.4608 14.9144 14.0448C13.4984 12.6288 11.5779 11.8333 9.57541 11.8333Z" fill="#1F1F1F"/>
<path d="M20.4193 29.4261L16.1387 25.1165L15.314 25.9354L19.5945 30.245C19.6483 30.2991 19.7122 30.3422 19.7826 30.3716C19.853 30.4011 19.9285 30.4164 20.0048 30.4167C20.0812 30.4169 20.1568 30.4022 20.2274 30.3732C20.298 30.3442 20.3622 30.3017 20.4164 30.2479C20.4705 30.1941 20.5136 30.1302 20.543 30.0598C20.5725 29.9894 20.5878 29.9139 20.588 29.8376C20.5883 29.7613 20.5735 29.6856 20.5446 29.615C20.5156 29.5444 20.473 29.4802 20.4193 29.4261Z" fill="#1F1F1F"/>
<path d="M149.675 20.5C149.675 20.3343 149.541 20.2 149.375 20.2H147.013C146.905 20.2 146.806 20.2572 146.753 20.35C146.556 20.69 146.253 20.9557 145.891 21.1059L146.006 21.3831L145.891 21.1059C145.528 21.2561 145.126 21.2825 144.747 21.1809C144.368 21.0793 144.033 20.8554 143.794 20.544C143.555 20.2325 143.425 19.8509 143.425 19.4583C143.425 19.0658 143.555 18.6842 143.794 18.3727C144.033 18.0613 144.368 17.8374 144.747 17.7358C145.126 17.6342 145.528 17.6605 145.891 17.8107C146.253 17.961 146.556 18.2267 146.753 18.5667C146.806 18.6595 146.905 18.7167 147.013 18.7167H149.375C149.541 18.7167 149.675 18.5824 149.675 18.4167V13.2083C149.675 12.7354 149.863 12.2818 150.197 11.9473C150.532 11.6129 150.985 11.425 151.458 11.425H159.792C160.265 11.425 160.718 11.6129 161.053 11.9473C161.387 12.2818 161.575 12.7354 161.575 13.2083V27.7917C161.575 28.2646 161.387 28.7182 161.053 29.0527C160.718 29.3871 160.265 29.575 159.792 29.575H151.458C150.985 29.575 150.532 29.3871 150.197 29.0527C149.863 28.7182 149.675 28.2646 149.675 27.7917V20.5ZM151.458 20.2C151.293 20.2 151.158 20.3343 151.158 20.5V27.7917C151.158 27.9574 151.293 28.0917 151.458 28.0917H159.792C159.957 28.0917 160.092 27.9574 160.092 27.7917V13.2083C160.092 13.0426 159.957 12.9083 159.792 12.9083H151.458C151.293 12.9083 151.158 13.0426 151.158 13.2083V18.4167C151.158 18.5824 151.293 18.7167 151.458 18.7167H153.821C153.928 18.7167 154.027 18.6595 154.081 18.5667C154.277 18.2267 154.58 17.961 154.943 17.8107C155.305 17.6605 155.707 17.6342 156.087 17.7358C156.466 17.8374 156.801 18.0613 157.04 18.3727C157.279 18.6842 157.408 19.0658 157.408 19.4583C157.408 19.8509 157.279 20.2325 157.04 20.544C156.801 20.8554 156.466 21.0793 156.087 21.1809C155.707 21.2825 155.305 21.2561 154.943 21.1059C154.58 20.9557 154.277 20.69 154.081 20.35C154.027 20.2572 153.928 20.2 153.821 20.2H151.458Z" fill="black" stroke="white" stroke-width="0.6" stroke-linejoin="round"/>
<path d="M19 89C19 90.1046 18.1046 91 17 91H4C2.89543 91 2 90.1046 2 89V76C2 74.8954 2.89543 74 4 74H17C18.1046 74 19 74.8954 19 76V82.9954V89Z" stroke="black" stroke-width="0.9" stroke-miterlimit="10" stroke-linecap="round" stroke-linejoin="round"/>
<path d="M3 90.0556L18 74.9445" stroke="black" stroke-width="0.9" stroke-miterlimit="10" stroke-linecap="round" stroke-linejoin="round"/>
<path d="M3 74.9445L18 90.0556" stroke="black" stroke-width="0.9" stroke-miterlimit="10" stroke-linecap="round" stroke-linejoin="round"/>
<path d="M6.55973 53.5424V53.4848L6.50981 53.4559C4.42387 52.249 3.01943 49.993 3.01943 47.4095C3.01943 43.5553 6.14582 40.4289 10 40.4289C13.8542 40.4289 16.9806 43.5553 16.9806 47.4095C16.9806 49.993 15.5762 52.249 13.4902 53.4559L13.4403 53.4848V53.5424V56.0444C13.4403 56.3712 13.1764 56.6352 12.8495 56.6352H7.15052C6.82365 56.6352 6.55973 56.3712 6.55973 56.0444V53.5424ZM11.986 55.2809H12.086V55.1809V52.7042L12.8111 52.2841C14.5405 51.2843 15.6263 49.4425 15.6263 47.4095C15.6263 44.3019 13.1077 41.7832 10 41.7832C6.89237 41.7832 4.37371 44.3019 4.37371 47.4095C4.37371 49.4425 5.45954 51.2843 7.18897 52.2841L7.91401 52.7042V55.1809V55.2809H8.01401H11.986ZM7.33687 58.2894C7.33687 58.2497 7.36981 58.2167 7.40956 58.2167H12.5905C12.6302 58.2167 12.6632 58.2497 12.6632 58.2894V58.9802C12.6632 59.3071 12.3993 59.571 12.0724 59.571H7.92766C7.60079 59.571 7.33687 59.3071 7.33687 58.9802V58.2894Z" fill="black" stroke="white" stroke-width="0.2"/>
<path d="M151.489 52.2795L151.728 52.533L151.943 52.259L155.802 47.3441C156.083 46.9867 156.607 46.9391 156.947 47.2402C157.261 47.5175 157.304 47.9913 157.045 48.3204L152.331 54.3185C152.066 54.6549 151.565 54.6775 151.271 54.3662L148.76 51.7025C148.471 51.3963 148.471 50.9182 148.76 50.612C149.074 50.2793 149.603 50.2793 149.916 50.612L151.489 52.2795Z" fill="black" stroke="white" stroke-width="0.6"/>
<path d="M145.089 57.8611V58.1611H145.389H160.363H160.663L160.663 57.8611L160.661 42.8888L160.661 42.5889H160.361H145.389H145.089V42.8889V57.8611ZM145.389 41.05H160.361C161.375 41.05 162.2 41.875 162.2 42.8889V57.8611C162.2 58.875 161.375 59.7 160.361 59.7H145.389C144.375 59.7 143.55 58.875 143.55 57.8611V42.8889C143.55 41.875 144.375 41.05 145.389 41.05Z" fill="black" stroke="white" stroke-width="0.6"/>
</svg>
