<svg width="120" height="42" viewBox="0 0 120 42" fill="none" xmlns="http://www.w3.org/2000/svg">
<path d="M0 5C0 2.23858 2.23858 0 5 0H120V42H5C2.23858 42 0 39.7614 0 37V5Z" fill="#BA8913"/>
<path d="M43.5127 24.6377L44.7871 23.1948C44.9482 23.5903 45.207 23.9028 45.5635 24.1323C45.9199 24.3569 46.3203 24.4692 46.7646 24.4692C47.3018 24.4692 47.7266 24.3423 48.0391 24.0884C48.3516 23.8345 48.5078 23.4927 48.5078 23.063C48.5078 22.5552 47.9878 22.0498 46.9478 21.5469C46.6108 21.3857 46.3447 21.2539 46.1494 21.1514C45.2119 20.6631 44.5625 20.187 44.2012 19.7231C43.8398 19.2544 43.6592 18.6978 43.6592 18.0532C43.6592 17.1694 44.0083 16.4443 44.7065 15.8779C45.4097 15.3066 46.3203 15.021 47.4385 15.021C48.0879 15.021 48.647 15.1357 49.1157 15.3652C49.5894 15.5898 50.0068 15.9438 50.3682 16.4272L49.0132 17.7236C48.8521 17.4111 48.6372 17.1792 48.3687 17.0278C48.105 16.8716 47.7852 16.7935 47.4092 16.7935C46.9551 16.7935 46.5889 16.9082 46.3105 17.1377C46.0322 17.3623 45.8931 17.6553 45.8931 18.0166C45.8931 18.583 46.4448 19.1006 47.5483 19.5693C47.7681 19.6621 47.9365 19.7354 48.0537 19.7891C48.9619 20.2041 49.6333 20.6729 50.0679 21.1953C50.5073 21.7178 50.7271 22.3135 50.7271 22.9824C50.7271 23.9883 50.3828 24.7915 49.6943 25.3921C49.0107 25.9878 48.0903 26.2856 46.9331 26.2856C46.1128 26.2856 45.4097 26.144 44.8237 25.8608C44.2378 25.5776 43.8008 25.1699 43.5127 24.6377ZM57.7217 22.3965C57.7217 21.752 57.5581 21.2417 57.231 20.8657C56.9087 20.4897 56.4717 20.3018 55.9199 20.3018C55.3535 20.3018 54.9067 20.4897 54.5796 20.8657C54.2573 21.2368 54.0962 21.7471 54.0962 22.3965C54.0962 23.0459 54.2549 23.5513 54.5723 23.9126C54.8945 24.2739 55.3389 24.4546 55.9053 24.4546C56.4814 24.4546 56.9282 24.2739 57.2456 23.9126C57.563 23.5513 57.7217 23.0459 57.7217 22.3965ZM59.626 26H57.6045L57.6338 24.9673C57.3506 25.4214 57.0088 25.7559 56.6084 25.9707C56.2129 26.1807 55.7295 26.2856 55.1582 26.2856C54.2061 26.2856 53.437 25.9316 52.8511 25.2236C52.27 24.5156 51.9795 23.5806 51.9795 22.4185C51.9795 21.2075 52.2651 20.2651 52.8364 19.5913C53.4126 18.9126 54.2109 18.5732 55.2314 18.5732C55.7637 18.5732 56.23 18.6929 56.6304 18.9321C57.0356 19.1714 57.375 19.5278 57.6484 20.0015V18.8149H59.626V26ZM61.8525 26V20.4482H60.9224V18.8149H61.8525V17.1963C61.8525 16.2295 62.0747 15.5386 62.519 15.1235C62.9634 14.7036 63.6958 14.4937 64.7163 14.4937C64.8286 14.4937 64.958 14.5059 65.1045 14.5303C65.2559 14.5498 65.4512 14.5889 65.6904 14.6475V16.3101C65.5635 16.2417 65.4414 16.1929 65.3242 16.1636C65.207 16.1294 65.085 16.1123 64.958 16.1123C64.5918 16.1123 64.3306 16.21 64.1743 16.4053C64.0181 16.5957 63.9399 16.9277 63.9399 17.4014V18.8149H65.2729V20.4482H63.9399V26H61.8525ZM71.5132 21.6641C71.4546 21.21 71.2886 20.8682 71.0151 20.6387C70.7466 20.4043 70.3779 20.2871 69.9092 20.2871C69.4404 20.2871 69.0645 20.4043 68.7812 20.6387C68.5029 20.8682 68.3247 21.21 68.2466 21.6641H71.5132ZM73.5786 22.9238H68.1807C68.2637 23.4414 68.4517 23.8296 68.7446 24.0884C69.0376 24.3423 69.4355 24.4692 69.9385 24.4692C70.3193 24.4692 70.6465 24.396 70.9199 24.2495C71.1982 24.103 71.4302 23.8809 71.6157 23.583L73.3003 24.4253C72.9097 25.0552 72.436 25.5239 71.8794 25.8315C71.3228 26.1343 70.6611 26.2856 69.8945 26.2856C68.7324 26.2856 67.812 25.939 67.1333 25.2456C66.4546 24.5522 66.1152 23.6196 66.1152 22.4478C66.1152 21.3198 66.4692 20.3921 67.1772 19.6646C67.8901 18.937 68.8008 18.5732 69.9092 18.5732C71.0518 18.5732 71.9551 18.915 72.6191 19.5986C73.2832 20.2773 73.6152 21.2051 73.6152 22.3818C73.6152 22.4453 73.6128 22.5161 73.6079 22.5942C73.603 22.6675 73.5933 22.7773 73.5786 22.9238Z" fill="white"/>
</svg>
