<svg width="565" height="99" viewBox="0 0 565 99" fill="none" xmlns="http://www.w3.org/2000/svg">
<rect x="0.5" y="10.5" width="104" height="77" rx="19.5" fill="white" stroke="#222F3E"/>
<rect x="460.5" y="10.5" width="104" height="77" rx="19.5" fill="white" stroke="#222F3E"/>
<path d="M27.3057 38.8965C27.2373 39.5664 27.0527 40.1452 26.752 40.6328C26.4557 41.1159 26.0456 41.4873 25.5215 41.7471C25.002 42.0068 24.3753 42.1367 23.6416 42.1367C22.8896 42.1367 22.2334 41.9499 21.6729 41.5762C21.1123 41.2025 20.6771 40.6784 20.3672 40.0039C20.0573 39.3294 19.9023 38.5456 19.9023 37.6523V36.4014C19.9023 35.5036 20.0573 34.7174 20.3672 34.043C20.6771 33.3685 21.1169 32.8444 21.6865 32.4707C22.2562 32.097 22.9284 31.9102 23.7031 31.9102C24.4141 31.9102 25.0247 32.0378 25.5352 32.293C26.0501 32.5482 26.4557 32.9196 26.752 33.4072C27.0527 33.8903 27.2373 34.4736 27.3057 35.1572H26.4648C26.3646 34.3551 26.0934 33.7331 25.6514 33.291C25.2093 32.849 24.5599 32.6279 23.7031 32.6279C23.0879 32.6279 22.5592 32.7852 22.1172 33.0996C21.6797 33.4095 21.3402 33.847 21.0986 34.4121C20.8617 34.9727 20.7432 35.6312 20.7432 36.3877V37.6523C20.7432 38.377 20.8571 39.0241 21.085 39.5938C21.3128 40.1634 21.641 40.6123 22.0693 40.9404C22.5023 41.264 23.0264 41.4258 23.6416 41.4258C24.2295 41.4258 24.7194 41.3324 25.1113 41.1455C25.5033 40.9541 25.8086 40.6715 26.0273 40.2979C26.2461 39.9196 26.3919 39.4525 26.4648 38.8965H27.3057ZM28.7139 38.1924C28.7139 37.4723 28.8506 36.832 29.124 36.2715C29.3975 35.7109 29.7803 35.2712 30.2725 34.9521C30.7646 34.6286 31.3434 34.4668 32.0088 34.4668C32.6787 34.4668 33.262 34.6286 33.7588 34.9521C34.2555 35.2712 34.6383 35.7109 34.9072 36.2715C35.1807 36.832 35.3174 37.4723 35.3174 38.1924V38.418C35.3174 39.1335 35.1807 39.7715 34.9072 40.332C34.6383 40.8926 34.2555 41.3346 33.7588 41.6582C33.2666 41.9772 32.6878 42.1367 32.0225 42.1367C31.3525 42.1367 30.7692 41.9772 30.2725 41.6582C29.7803 41.3346 29.3975 40.8926 29.124 40.332C28.8506 39.7715 28.7139 39.1335 28.7139 38.418V38.1924ZM29.5342 38.418C29.5342 38.9557 29.6299 39.4548 29.8213 39.915C30.0127 40.3753 30.293 40.7467 30.6621 41.0293C31.0312 41.3073 31.4847 41.4463 32.0225 41.4463C32.5557 41.4463 33.0046 41.3073 33.3691 41.0293C33.7383 40.7467 34.0186 40.3753 34.21 39.915C34.4014 39.4548 34.4971 38.9557 34.4971 38.418V38.1924C34.4971 37.6592 34.4014 37.1624 34.21 36.7021C34.0186 36.2419 33.7383 35.8704 33.3691 35.5879C33 35.3008 32.5465 35.1572 32.0088 35.1572C31.4756 35.1572 31.0244 35.3008 30.6553 35.5879C30.2861 35.8704 30.0059 36.2419 29.8145 36.7021C29.6276 37.1624 29.5342 37.6592 29.5342 38.1924V38.418ZM37.7852 42H36.9648V34.6035H37.751L37.7852 36.1348V42ZM37.2383 37.6318C37.2747 37.0531 37.4115 36.5244 37.6484 36.0459C37.8854 35.5674 38.2158 35.1846 38.6396 34.8975C39.0635 34.6104 39.5762 34.4668 40.1777 34.4668C40.8978 34.4668 41.4743 34.6696 41.9072 35.0752C42.3402 35.4762 42.5566 36.1439 42.5566 37.0781V42H41.7363V37.1055C41.7363 36.6133 41.6611 36.2282 41.5107 35.9502C41.3604 35.6676 41.1484 35.4671 40.875 35.3486C40.6061 35.2301 40.2939 35.1709 39.9385 35.1709C39.5192 35.1709 39.1637 35.2575 38.8721 35.4307C38.585 35.5993 38.3503 35.8203 38.168 36.0938C37.9902 36.3626 37.8581 36.652 37.7715 36.9619C37.6895 37.2718 37.6439 37.5635 37.6348 37.8369L37.2383 37.6318ZM42.0029 37.208C42.0348 36.734 42.1693 36.2874 42.4062 35.8682C42.6478 35.4489 42.9805 35.1117 43.4043 34.8564C43.8327 34.5967 44.3385 34.4668 44.9219 34.4668C45.4368 34.4668 45.8743 34.5602 46.2344 34.7471C46.5944 34.9294 46.8678 35.221 47.0547 35.6221C47.2461 36.0186 47.3418 36.5381 47.3418 37.1807V42H46.5215V37.1738C46.5215 36.6497 46.4463 36.2441 46.2959 35.957C46.1455 35.6654 45.9336 35.4626 45.6602 35.3486C45.3913 35.2301 45.0791 35.1709 44.7236 35.1709C44.3636 35.1755 44.0492 35.2415 43.7803 35.3691C43.516 35.4967 43.2926 35.6608 43.1104 35.8613C42.9326 36.0618 42.7959 36.2806 42.7002 36.5176C42.609 36.75 42.5589 36.9756 42.5498 37.1943L42.0029 37.208ZM50.2334 44.8438H49.4131V34.6035H50.1787L50.2334 36.0254V44.8438ZM55.374 38.377C55.374 39.1152 55.2624 39.7669 55.0391 40.332C54.8203 40.8971 54.499 41.3392 54.0752 41.6582C53.6559 41.9772 53.1478 42.1367 52.5508 42.1367C51.9583 42.1367 51.4525 42.0182 51.0332 41.7812C50.6185 41.5397 50.2904 41.2093 50.0488 40.79C49.8073 40.3708 49.6478 39.89 49.5703 39.3477V37.4404C49.6615 36.8434 49.8301 36.3239 50.0762 35.8818C50.3223 35.4352 50.6481 35.0889 51.0537 34.8428C51.4639 34.5921 51.9583 34.4668 52.5371 34.4668C53.1387 34.4668 53.6491 34.6217 54.0684 34.9316C54.4922 35.237 54.8158 35.6722 55.0391 36.2373C55.2624 36.8024 55.374 37.4678 55.374 38.2334V38.377ZM54.5469 38.2334C54.5469 37.6592 54.4671 37.1419 54.3076 36.6816C54.1527 36.2168 53.9134 35.8499 53.5898 35.5811C53.2663 35.3122 52.8538 35.1777 52.3525 35.1777C51.9606 35.1777 51.6257 35.2438 51.3477 35.376C51.0742 35.5081 50.8464 35.6813 50.6641 35.8955C50.4863 36.1051 50.3451 36.3353 50.2402 36.5859C50.1354 36.8366 50.0579 37.0804 50.0078 37.3174V39.5117C50.0944 39.8581 50.2311 40.1794 50.418 40.4756C50.6094 40.7673 50.8646 41.002 51.1836 41.1797C51.5026 41.3574 51.8968 41.4463 52.3662 41.4463C52.863 41.4463 53.2708 41.3096 53.5898 41.0361C53.9134 40.7627 54.1527 40.3958 54.3076 39.9355C54.4671 39.4707 54.5469 38.9512 54.5469 38.377V38.2334ZM58.1016 42H57.2881V31.5H58.1016V42ZM63.1943 42.1367C62.5518 42.1367 61.9798 41.9818 61.4785 41.6719C60.9818 41.3574 60.5898 40.929 60.3027 40.3867C60.0202 39.8398 59.8789 39.2132 59.8789 38.5068V38.2129C59.8789 37.4518 60.0247 36.791 60.3164 36.2305C60.6126 35.6699 61 35.237 61.4785 34.9316C61.9616 34.6217 62.4834 34.4668 63.0439 34.4668C63.6729 34.4668 64.2061 34.6126 64.6436 34.9043C65.0811 35.1914 65.4115 35.5902 65.6348 36.1006C65.8626 36.611 65.9766 37.1943 65.9766 37.8506V38.3496H60.3779V37.6592H65.1562V37.5635C65.1471 37.1488 65.0628 36.7591 64.9033 36.3945C64.7484 36.0299 64.516 35.7337 64.2061 35.5059C63.8962 35.2734 63.5088 35.1572 63.0439 35.1572C62.5837 35.1572 62.1758 35.2871 61.8203 35.5469C61.4648 35.8066 61.1891 36.1667 60.9932 36.627C60.7972 37.0827 60.6992 37.6113 60.6992 38.2129V38.5068C60.6992 39.0537 60.804 39.5482 61.0137 39.9902C61.2279 40.4323 61.5264 40.7855 61.9092 41.0498C62.292 41.3141 62.7318 41.4463 63.2285 41.4463C63.666 41.4463 64.0534 41.3665 64.3906 41.207C64.7279 41.043 65.0309 40.7855 65.2998 40.4346L65.8193 40.8242C65.5778 41.1842 65.2451 41.4941 64.8213 41.7539C64.402 42.0091 63.8597 42.1367 63.1943 42.1367ZM70.3857 35.2734H66.6738V34.6035H70.3857V35.2734ZM68.8477 32.7031V40.2021C68.8477 40.5439 68.8932 40.8037 68.9844 40.9814C69.0755 41.1546 69.194 41.2708 69.3398 41.3301C69.4902 41.3893 69.6497 41.4189 69.8184 41.4189C69.9414 41.4189 70.0576 41.4121 70.167 41.3984C70.2809 41.3802 70.3835 41.3643 70.4746 41.3506L70.5088 42.0273C70.4085 42.0592 70.2786 42.0843 70.1191 42.1025C69.9596 42.1253 69.8001 42.1367 69.6406 42.1367C69.3262 42.1367 69.0482 42.0798 68.8066 41.9658C68.5651 41.8473 68.3737 41.6468 68.2324 41.3643C68.0957 41.0771 68.0273 40.6875 68.0273 40.1953V32.7031H68.8477ZM74.9521 42.1367C74.3096 42.1367 73.7376 41.9818 73.2363 41.6719C72.7396 41.3574 72.3477 40.929 72.0605 40.3867C71.778 39.8398 71.6367 39.2132 71.6367 38.5068V38.2129C71.6367 37.4518 71.7826 36.791 72.0742 36.2305C72.3704 35.6699 72.7578 35.237 73.2363 34.9316C73.7194 34.6217 74.2412 34.4668 74.8018 34.4668C75.4307 34.4668 75.9639 34.6126 76.4014 34.9043C76.8389 35.1914 77.1693 35.5902 77.3926 36.1006C77.6204 36.611 77.7344 37.1943 77.7344 37.8506V38.3496H72.1357V37.6592H76.9141V37.5635C76.9049 37.1488 76.8206 36.7591 76.6611 36.3945C76.5062 36.0299 76.2738 35.7337 75.9639 35.5059C75.654 35.2734 75.2666 35.1572 74.8018 35.1572C74.3415 35.1572 73.9336 35.2871 73.5781 35.5469C73.2227 35.8066 72.9469 36.1667 72.751 36.627C72.555 37.0827 72.457 37.6113 72.457 38.2129V38.5068C72.457 39.0537 72.5618 39.5482 72.7715 39.9902C72.9857 40.4323 73.2842 40.7855 73.667 41.0498C74.0498 41.3141 74.4896 41.4463 74.9863 41.4463C75.4238 41.4463 75.8112 41.3665 76.1484 41.207C76.4857 41.043 76.7887 40.7855 77.0576 40.4346L77.5771 40.8242C77.3356 41.1842 77.0029 41.4941 76.5791 41.7539C76.1598 42.0091 75.6175 42.1367 74.9521 42.1367ZM24.5713 59.8594C24.5713 59.3307 24.4072 58.9137 24.0791 58.6084C23.751 58.3031 23.2793 58.1504 22.6641 58.1504C22.2812 58.1504 21.9395 58.2188 21.6387 58.3555C21.3424 58.4876 21.1077 58.6676 20.9346 58.8955C20.766 59.1188 20.6816 59.3695 20.6816 59.6475L19.8613 59.6406C19.8613 59.2669 19.9798 58.916 20.2168 58.5879C20.4583 58.2552 20.791 57.9863 21.2148 57.7812C21.6432 57.5716 22.1377 57.4668 22.6982 57.4668C23.2269 57.4668 23.6917 57.5557 24.0928 57.7334C24.4984 57.9111 24.8151 58.1777 25.043 58.5332C25.2754 58.8887 25.3916 59.3353 25.3916 59.873V63.4482C25.3916 63.7035 25.4098 63.9678 25.4463 64.2412C25.4873 64.5146 25.5443 64.7402 25.6172 64.918V65H24.7422C24.6875 64.8359 24.6442 64.6309 24.6123 64.3848C24.585 64.1341 24.5713 63.8971 24.5713 63.6738V59.8594ZM24.7764 61.3223H23.1699C22.3359 61.3223 21.682 61.4704 21.208 61.7666C20.7386 62.0583 20.5039 62.457 20.5039 62.9629C20.5039 63.3639 20.652 63.7057 20.9482 63.9883C21.249 64.2708 21.6546 64.4121 22.165 64.4121C22.6208 64.4121 23.0218 64.3301 23.3682 64.166C23.7191 63.9974 24.0062 63.7741 24.2295 63.4961C24.4574 63.2181 24.6123 62.9173 24.6943 62.5938L25.0498 63.0654C24.9906 63.2933 24.8812 63.528 24.7217 63.7695C24.5667 64.0065 24.3639 64.2298 24.1133 64.4395C23.8626 64.6445 23.5664 64.8132 23.2246 64.9453C22.8874 65.0729 22.5046 65.1367 22.0762 65.1367C21.5931 65.1367 21.1715 65.0456 20.8115 64.8633C20.4561 64.681 20.1781 64.4326 19.9775 64.1182C19.7816 63.7992 19.6836 63.4391 19.6836 63.0381C19.6836 62.3089 19.9844 61.737 20.5859 61.3223C21.1921 60.903 22.0169 60.6934 23.0605 60.6934H24.7627L24.7764 61.3223ZM28.3857 67.8438H27.5654V57.6035H28.3311L28.3857 59.0254V67.8438ZM33.5264 61.377C33.5264 62.1152 33.4147 62.7669 33.1914 63.332C32.9727 63.8971 32.6514 64.3392 32.2275 64.6582C31.8083 64.9772 31.3001 65.1367 30.7031 65.1367C30.1107 65.1367 29.6048 65.0182 29.1855 64.7812C28.7708 64.5397 28.4427 64.2093 28.2012 63.79C27.9596 63.3708 27.8001 62.89 27.7227 62.3477V60.4404C27.8138 59.8434 27.9824 59.3239 28.2285 58.8818C28.4746 58.4352 28.8005 58.0889 29.2061 57.8428C29.6162 57.5921 30.1107 57.4668 30.6895 57.4668C31.291 57.4668 31.8014 57.6217 32.2207 57.9316C32.6445 58.237 32.9681 58.6722 33.1914 59.2373C33.4147 59.8024 33.5264 60.4678 33.5264 61.2334V61.377ZM32.6992 61.2334C32.6992 60.6592 32.6195 60.1419 32.46 59.6816C32.305 59.2168 32.0658 58.8499 31.7422 58.5811C31.4186 58.3122 31.0062 58.1777 30.5049 58.1777C30.113 58.1777 29.778 58.2438 29.5 58.376C29.2266 58.5081 28.9987 58.6813 28.8164 58.8955C28.6387 59.1051 28.4974 59.3353 28.3926 59.5859C28.2878 59.8366 28.2103 60.0804 28.1602 60.3174V62.5117C28.2467 62.8581 28.3835 63.1794 28.5703 63.4756C28.7617 63.7673 29.0169 64.002 29.3359 64.1797C29.6549 64.3574 30.0492 64.4463 30.5186 64.4463C31.0153 64.4463 31.4232 64.3096 31.7422 64.0361C32.0658 63.7627 32.305 63.3958 32.46 62.9355C32.6195 62.4707 32.6992 61.9512 32.6992 61.377V61.2334ZM36.1514 67.8438H35.3311V57.6035H36.0967L36.1514 59.0254V67.8438ZM41.292 61.377C41.292 62.1152 41.1803 62.7669 40.957 63.332C40.7383 63.8971 40.417 64.3392 39.9932 64.6582C39.5739 64.9772 39.0658 65.1367 38.4688 65.1367C37.8763 65.1367 37.3704 65.0182 36.9512 64.7812C36.5365 64.5397 36.2083 64.2093 35.9668 63.79C35.7253 63.3708 35.5658 62.89 35.4883 62.3477V60.4404C35.5794 59.8434 35.748 59.3239 35.9941 58.8818C36.2402 58.4352 36.5661 58.0889 36.9717 57.8428C37.3818 57.5921 37.8763 57.4668 38.4551 57.4668C39.0566 57.4668 39.5671 57.6217 39.9863 57.9316C40.4102 58.237 40.7337 58.6722 40.957 59.2373C41.1803 59.8024 41.292 60.4678 41.292 61.2334V61.377ZM40.4648 61.2334C40.4648 60.6592 40.3851 60.1419 40.2256 59.6816C40.0706 59.2168 39.8314 58.8499 39.5078 58.5811C39.1842 58.3122 38.7718 58.1777 38.2705 58.1777C37.8786 58.1777 37.5436 58.2438 37.2656 58.376C36.9922 58.5081 36.7643 58.6813 36.582 58.8955C36.4043 59.1051 36.263 59.3353 36.1582 59.5859C36.0534 59.8366 35.9759 60.0804 35.9258 60.3174V62.5117C36.0124 62.8581 36.1491 63.1794 36.3359 63.4756C36.5273 63.7673 36.7826 64.002 37.1016 64.1797C37.4206 64.3574 37.8148 64.4463 38.2842 64.4463C38.7809 64.4463 39.1888 64.3096 39.5078 64.0361C39.8314 63.7627 40.0706 63.3958 40.2256 62.9355C40.3851 62.4707 40.4648 61.9512 40.4648 61.377V61.2334ZM44.0195 65H43.2061V54.5H44.0195V65ZM47.1641 65H46.3506V57.6035H47.1641V65ZM46.207 55.4639C46.207 55.3089 46.2549 55.179 46.3506 55.0742C46.4508 54.9648 46.5876 54.9102 46.7607 54.9102C46.9385 54.9102 47.0775 54.9648 47.1777 55.0742C47.278 55.179 47.3281 55.3089 47.3281 55.4639C47.3281 55.6143 47.278 55.7419 47.1777 55.8467C47.0775 55.9515 46.9385 56.0039 46.7607 56.0039C46.5876 56.0039 46.4508 55.9515 46.3506 55.8467C46.2549 55.7419 46.207 55.6143 46.207 55.4639ZM52.127 64.4463C52.4733 64.4463 52.7969 64.3802 53.0977 64.248C53.403 64.1113 53.6536 63.9154 53.8496 63.6602C54.0501 63.4004 54.1641 63.0837 54.1914 62.71H54.9775C54.9548 63.1794 54.8112 63.5986 54.5469 63.9678C54.2826 64.3324 53.9385 64.6195 53.5146 64.8291C53.0954 65.0342 52.6328 65.1367 52.127 65.1367C51.4388 65.1367 50.86 64.9749 50.3906 64.6514C49.9212 64.3232 49.568 63.8812 49.3311 63.3252C49.0941 62.7646 48.9756 62.138 48.9756 61.4453V61.1582C48.9756 60.4609 49.0941 59.8343 49.3311 59.2783C49.5726 58.7223 49.9258 58.2826 50.3906 57.959C50.86 57.6309 51.4365 57.4668 52.1201 57.4668C52.6488 57.4668 53.1227 57.5739 53.542 57.7881C53.9658 58.0023 54.3053 58.3053 54.5605 58.6973C54.8158 59.0892 54.9548 59.554 54.9775 60.0918H54.1914C54.1686 59.6953 54.0638 59.3535 53.877 59.0664C53.6901 58.7747 53.444 58.5514 53.1387 58.3965C52.8333 58.237 52.4938 58.1572 52.1201 58.1572C51.5641 58.1572 51.113 58.2985 50.7666 58.5811C50.4248 58.8636 50.1764 59.2327 50.0215 59.6885C49.8665 60.1442 49.7891 60.6341 49.7891 61.1582V61.4453C49.7891 61.9694 49.8665 62.4616 50.0215 62.9219C50.1764 63.3776 50.4248 63.7467 50.7666 64.0293C51.113 64.3073 51.5664 64.4463 52.127 64.4463ZM61.1162 59.8594C61.1162 59.3307 60.9521 58.9137 60.624 58.6084C60.2959 58.3031 59.8242 58.1504 59.209 58.1504C58.8262 58.1504 58.4844 58.2188 58.1836 58.3555C57.8874 58.4876 57.6527 58.6676 57.4795 58.8955C57.3109 59.1188 57.2266 59.3695 57.2266 59.6475L56.4062 59.6406C56.4062 59.2669 56.5247 58.916 56.7617 58.5879C57.0033 58.2552 57.3359 57.9863 57.7598 57.7812C58.1882 57.5716 58.6826 57.4668 59.2432 57.4668C59.7718 57.4668 60.2367 57.5557 60.6377 57.7334C61.0433 57.9111 61.36 58.1777 61.5879 58.5332C61.8203 58.8887 61.9365 59.3353 61.9365 59.873V63.4482C61.9365 63.7035 61.9548 63.9678 61.9912 64.2412C62.0322 64.5146 62.0892 64.7402 62.1621 64.918V65H61.2871C61.2324 64.8359 61.1891 64.6309 61.1572 64.3848C61.1299 64.1341 61.1162 63.8971 61.1162 63.6738V59.8594ZM61.3213 61.3223H59.7148C58.8809 61.3223 58.2269 61.4704 57.7529 61.7666C57.2835 62.0583 57.0488 62.457 57.0488 62.9629C57.0488 63.3639 57.1969 63.7057 57.4932 63.9883C57.7939 64.2708 58.1995 64.4121 58.71 64.4121C59.1657 64.4121 59.5667 64.3301 59.9131 64.166C60.264 63.9974 60.5511 63.7741 60.7744 63.4961C61.0023 63.2181 61.1572 62.9173 61.2393 62.5938L61.5947 63.0654C61.5355 63.2933 61.4261 63.528 61.2666 63.7695C61.1117 64.0065 60.9089 64.2298 60.6582 64.4395C60.4076 64.6445 60.1113 64.8132 59.7695 64.9453C59.4323 65.0729 59.0495 65.1367 58.6211 65.1367C58.138 65.1367 57.7165 65.0456 57.3564 64.8633C57.001 64.681 56.723 64.4326 56.5225 64.1182C56.3265 63.7992 56.2285 63.4391 56.2285 63.0381C56.2285 62.3089 56.5293 61.737 57.1309 61.3223C57.737 60.903 58.5618 60.6934 59.6055 60.6934H61.3076L61.3213 61.3223ZM66.9268 58.2734H63.2148V57.6035H66.9268V58.2734ZM65.3887 55.7031V63.2021C65.3887 63.5439 65.4342 63.8037 65.5254 63.9814C65.6165 64.1546 65.735 64.2708 65.8809 64.3301C66.0312 64.3893 66.1908 64.4189 66.3594 64.4189C66.4824 64.4189 66.5986 64.4121 66.708 64.3984C66.8219 64.3802 66.9245 64.3643 67.0156 64.3506L67.0498 65.0273C66.9495 65.0592 66.8197 65.0843 66.6602 65.1025C66.5007 65.1253 66.3411 65.1367 66.1816 65.1367C65.8672 65.1367 65.5892 65.0798 65.3477 64.9658C65.1061 64.8473 64.9147 64.6468 64.7734 64.3643C64.6367 64.0771 64.5684 63.6875 64.5684 63.1953V55.7031H65.3887ZM69.5449 65H68.7314V57.6035H69.5449V65ZM68.5879 55.4639C68.5879 55.3089 68.6357 55.179 68.7314 55.0742C68.8317 54.9648 68.9684 54.9102 69.1416 54.9102C69.3193 54.9102 69.4583 54.9648 69.5586 55.0742C69.6589 55.179 69.709 55.3089 69.709 55.4639C69.709 55.6143 69.6589 55.7419 69.5586 55.8467C69.4583 55.9515 69.3193 56.0039 69.1416 56.0039C68.9684 56.0039 68.8317 55.9515 68.7314 55.8467C68.6357 55.7419 68.5879 55.6143 68.5879 55.4639ZM71.3291 61.1924C71.3291 60.4723 71.4658 59.832 71.7393 59.2715C72.0127 58.7109 72.3955 58.2712 72.8877 57.9521C73.3799 57.6286 73.9587 57.4668 74.624 57.4668C75.2939 57.4668 75.8773 57.6286 76.374 57.9521C76.8708 58.2712 77.2536 58.7109 77.5225 59.2715C77.7959 59.832 77.9326 60.4723 77.9326 61.1924V61.418C77.9326 62.1335 77.7959 62.7715 77.5225 63.332C77.2536 63.8926 76.8708 64.3346 76.374 64.6582C75.8818 64.9772 75.3031 65.1367 74.6377 65.1367C73.9678 65.1367 73.3844 64.9772 72.8877 64.6582C72.3955 64.3346 72.0127 63.8926 71.7393 63.332C71.4658 62.7715 71.3291 62.1335 71.3291 61.418V61.1924ZM72.1494 61.418C72.1494 61.9557 72.2451 62.4548 72.4365 62.915C72.6279 63.3753 72.9082 63.7467 73.2773 64.0293C73.6465 64.3073 74.0999 64.4463 74.6377 64.4463C75.1709 64.4463 75.6198 64.3073 75.9844 64.0293C76.3535 63.7467 76.6338 63.3753 76.8252 62.915C77.0166 62.4548 77.1123 61.9557 77.1123 61.418V61.1924C77.1123 60.6592 77.0166 60.1624 76.8252 59.7021C76.6338 59.2419 76.3535 58.8704 75.9844 58.5879C75.6152 58.3008 75.1618 58.1572 74.624 58.1572C74.0908 58.1572 73.6396 58.3008 73.2705 58.5879C72.9014 58.8704 72.6211 59.2419 72.4297 59.7021C72.2428 60.1624 72.1494 60.6592 72.1494 61.1924V61.418ZM80.4414 65H79.6211V57.6035H80.4072L80.4414 59.1826V65ZM79.8945 60.6318C79.931 60.0531 80.0745 59.5244 80.3252 59.0459C80.5758 58.5674 80.9154 58.1846 81.3438 57.8975C81.7767 57.6104 82.2757 57.4668 82.8408 57.4668C83.3376 57.4668 83.7614 57.5579 84.1123 57.7402C84.4632 57.9225 84.7321 58.2142 84.9189 58.6152C85.1104 59.0117 85.2061 59.5358 85.2061 60.1875V65H84.3857V60.1807C84.3857 59.6702 84.3151 59.2692 84.1738 58.9775C84.0326 58.6859 83.832 58.4785 83.5723 58.3555C83.3125 58.2324 83.0049 58.1709 82.6494 58.1709C82.2575 58.1709 81.9134 58.2575 81.6172 58.4307C81.3255 58.5993 81.0794 58.8203 80.8789 59.0938C80.6829 59.3626 80.5326 59.652 80.4277 59.9619C80.3229 60.2718 80.2682 60.5635 80.2637 60.8369L79.8945 60.6318Z" fill="#1F1F1F"/>
<rect x="290.5" y="10.5" width="126" height="77" rx="19.5" fill="white" stroke="#222F3E"/>
<path d="M306.478 32.0469C307.166 32.0469 307.763 32.1585 308.269 32.3818C308.774 32.6051 309.164 32.9355 309.438 33.373C309.715 33.806 309.854 34.3392 309.854 34.9727C309.854 35.4421 309.757 35.8682 309.561 36.251C309.365 36.6338 309.091 36.9551 308.74 37.2148C308.394 37.4701 307.993 37.6455 307.537 37.7412L307.243 37.8506H303.791L303.777 37.1396H306.662C307.186 37.1396 307.621 37.0394 307.968 36.8389C308.314 36.6338 308.574 36.3672 308.747 36.0391C308.925 35.7064 309.014 35.3509 309.014 34.9727C309.014 34.2936 308.795 33.7559 308.357 33.3594C307.924 32.9629 307.298 32.7646 306.478 32.7646H304.085V42H303.244V32.0469H306.478ZM306.812 37.5498L307.715 37.543L310.285 41.9111V42H309.383L306.812 37.5498ZM314.831 42.1367C314.188 42.1367 313.617 41.9818 313.115 41.6719C312.618 41.3574 312.227 40.929 311.939 40.3867C311.657 39.8398 311.516 39.2132 311.516 38.5068V38.2129C311.516 37.4518 311.661 36.791 311.953 36.2305C312.249 35.6699 312.637 35.237 313.115 34.9316C313.598 34.6217 314.12 34.4668 314.681 34.4668C315.31 34.4668 315.843 34.6126 316.28 34.9043C316.718 35.1914 317.048 35.5902 317.271 36.1006C317.499 36.611 317.613 37.1943 317.613 37.8506V38.3496H312.015V37.6592H316.793V37.5635C316.784 37.1488 316.7 36.7591 316.54 36.3945C316.385 36.0299 316.153 35.7337 315.843 35.5059C315.533 35.2734 315.146 35.1572 314.681 35.1572C314.22 35.1572 313.812 35.2871 313.457 35.5469C313.102 35.8066 312.826 36.1667 312.63 36.627C312.434 37.0827 312.336 37.6113 312.336 38.2129V38.5068C312.336 39.0537 312.441 39.5482 312.65 39.9902C312.865 40.4323 313.163 40.7855 313.546 41.0498C313.929 41.3141 314.368 41.4463 314.865 41.4463C315.303 41.4463 315.69 41.3665 316.027 41.207C316.365 41.043 316.668 40.7855 316.937 40.4346L317.456 40.8242C317.215 41.1842 316.882 41.4941 316.458 41.7539C316.039 42.0091 315.496 42.1367 314.831 42.1367ZM321.947 41.4463C322.294 41.4463 322.617 41.3802 322.918 41.248C323.223 41.1113 323.474 40.9154 323.67 40.6602C323.87 40.4004 323.984 40.0837 324.012 39.71H324.798C324.775 40.1794 324.632 40.5986 324.367 40.9678C324.103 41.3324 323.759 41.6195 323.335 41.8291C322.916 42.0342 322.453 42.1367 321.947 42.1367C321.259 42.1367 320.68 41.9749 320.211 41.6514C319.742 41.3232 319.388 40.8812 319.151 40.3252C318.914 39.7646 318.796 39.138 318.796 38.4453V38.1582C318.796 37.4609 318.914 36.8343 319.151 36.2783C319.393 35.7223 319.746 35.2826 320.211 34.959C320.68 34.6309 321.257 34.4668 321.94 34.4668C322.469 34.4668 322.943 34.5739 323.362 34.7881C323.786 35.0023 324.126 35.3053 324.381 35.6973C324.636 36.0892 324.775 36.554 324.798 37.0918H324.012C323.989 36.6953 323.884 36.3535 323.697 36.0664C323.51 35.7747 323.264 35.5514 322.959 35.3965C322.654 35.237 322.314 35.1572 321.94 35.1572C321.384 35.1572 320.933 35.2985 320.587 35.5811C320.245 35.8636 319.997 36.2327 319.842 36.6885C319.687 37.1442 319.609 37.6341 319.609 38.1582V38.4453C319.609 38.9694 319.687 39.4616 319.842 39.9219C319.997 40.3776 320.245 40.7467 320.587 41.0293C320.933 41.3073 321.387 41.4463 321.947 41.4463ZM329.296 42.1367C328.653 42.1367 328.081 41.9818 327.58 41.6719C327.083 41.3574 326.691 40.929 326.404 40.3867C326.122 39.8398 325.98 39.2132 325.98 38.5068V38.2129C325.98 37.4518 326.126 36.791 326.418 36.2305C326.714 35.6699 327.102 35.237 327.58 34.9316C328.063 34.6217 328.585 34.4668 329.146 34.4668C329.774 34.4668 330.308 34.6126 330.745 34.9043C331.183 35.1914 331.513 35.5902 331.736 36.1006C331.964 36.611 332.078 37.1943 332.078 37.8506V38.3496H326.479V37.6592H331.258V37.5635C331.249 37.1488 331.164 36.7591 331.005 36.3945C330.85 36.0299 330.618 35.7337 330.308 35.5059C329.998 35.2734 329.61 35.1572 329.146 35.1572C328.685 35.1572 328.277 35.2871 327.922 35.5469C327.566 35.8066 327.291 36.1667 327.095 36.627C326.899 37.0827 326.801 37.6113 326.801 38.2129V38.5068C326.801 39.0537 326.906 39.5482 327.115 39.9902C327.329 40.4323 327.628 40.7855 328.011 41.0498C328.394 41.3141 328.833 41.4463 329.33 41.4463C329.768 41.4463 330.155 41.3665 330.492 41.207C330.829 41.043 331.132 40.7855 331.401 40.4346L331.921 40.8242C331.679 41.1842 331.347 41.4941 330.923 41.7539C330.504 42.0091 329.961 42.1367 329.296 42.1367ZM334.594 42H333.78V34.6035H334.594V42ZM333.637 32.4639C333.637 32.3089 333.685 32.179 333.78 32.0742C333.881 31.9648 334.017 31.9102 334.19 31.9102C334.368 31.9102 334.507 31.9648 334.607 32.0742C334.708 32.179 334.758 32.3089 334.758 32.4639C334.758 32.6143 334.708 32.7419 334.607 32.8467C334.507 32.9515 334.368 33.0039 334.19 33.0039C334.017 33.0039 333.881 32.9515 333.78 32.8467C333.685 32.7419 333.637 32.6143 333.637 32.4639ZM341.375 34.6035H342.223L339.454 42H338.853L339.01 41.2207L341.375 34.6035ZM339.263 41.2412L339.393 42H338.791L336.016 34.6035H336.863L339.263 41.2412ZM346.427 42.1367C345.784 42.1367 345.212 41.9818 344.711 41.6719C344.214 41.3574 343.822 40.929 343.535 40.3867C343.253 39.8398 343.111 39.2132 343.111 38.5068V38.2129C343.111 37.4518 343.257 36.791 343.549 36.2305C343.845 35.6699 344.232 35.237 344.711 34.9316C345.194 34.6217 345.716 34.4668 346.276 34.4668C346.905 34.4668 347.438 34.6126 347.876 34.9043C348.313 35.1914 348.644 35.5902 348.867 36.1006C349.095 36.611 349.209 37.1943 349.209 37.8506V38.3496H343.61V37.6592H348.389V37.5635C348.38 37.1488 348.295 36.7591 348.136 36.3945C347.981 36.0299 347.748 35.7337 347.438 35.5059C347.129 35.2734 346.741 35.1572 346.276 35.1572C345.816 35.1572 345.408 35.2871 345.053 35.5469C344.697 35.8066 344.422 36.1667 344.226 36.627C344.03 37.0827 343.932 37.6113 343.932 38.2129V38.5068C343.932 39.0537 344.036 39.5482 344.246 39.9902C344.46 40.4323 344.759 40.7855 345.142 41.0498C345.524 41.3141 345.964 41.4463 346.461 41.4463C346.898 41.4463 347.286 41.3665 347.623 41.207C347.96 41.043 348.263 40.7855 348.532 40.4346L349.052 40.8242C348.81 41.1842 348.478 41.4941 348.054 41.7539C347.634 42.0091 347.092 42.1367 346.427 42.1367ZM354.972 37.9463V37.2285H357.815C358.408 37.2285 358.889 37.1328 359.258 36.9414C359.627 36.7454 359.896 36.4811 360.064 36.1484C360.238 35.8158 360.324 35.4421 360.324 35.0273C360.324 34.6217 360.238 34.248 360.064 33.9062C359.896 33.5645 359.627 33.2887 359.258 33.0791C358.889 32.8695 358.408 32.7646 357.815 32.7646H355.266V42H354.425V32.0469H357.815C358.545 32.0469 359.158 32.1722 359.654 32.4229C360.151 32.6735 360.527 33.0221 360.782 33.4688C361.037 33.9108 361.165 34.4258 361.165 35.0137C361.165 35.6243 361.037 36.1507 360.782 36.5928C360.532 37.0303 360.156 37.3652 359.654 37.5977C359.158 37.8301 358.545 37.9463 357.815 37.9463H354.972ZM363.674 42H362.854V34.6035H363.653L363.674 35.8271V42ZM366.271 35.2939C366.18 35.2803 366.091 35.2689 366.005 35.2598C365.918 35.2507 365.825 35.2461 365.725 35.2461C365.255 35.2461 364.861 35.36 364.542 35.5879C364.223 35.8158 363.979 36.1211 363.811 36.5039C363.646 36.8867 363.558 37.3151 363.544 37.7891L363.236 37.8984C363.236 37.2559 363.325 36.6771 363.503 36.1621C363.685 35.6426 363.961 35.2301 364.33 34.9248C364.704 34.6195 365.178 34.4668 365.752 34.4668C365.857 34.4668 365.959 34.4759 366.06 34.4941C366.164 34.5078 366.242 34.526 366.292 34.5488L366.271 35.2939ZM366.935 38.1924C366.935 37.4723 367.071 36.832 367.345 36.2715C367.618 35.7109 368.001 35.2712 368.493 34.9521C368.985 34.6286 369.564 34.4668 370.229 34.4668C370.899 34.4668 371.483 34.6286 371.979 34.9521C372.476 35.2712 372.859 35.7109 373.128 36.2715C373.401 36.832 373.538 37.4723 373.538 38.1924V38.418C373.538 39.1335 373.401 39.7715 373.128 40.332C372.859 40.8926 372.476 41.3346 371.979 41.6582C371.487 41.9772 370.909 42.1367 370.243 42.1367C369.573 42.1367 368.99 41.9772 368.493 41.6582C368.001 41.3346 367.618 40.8926 367.345 40.332C367.071 39.7715 366.935 39.1335 366.935 38.418V38.1924ZM367.755 38.418C367.755 38.9557 367.851 39.4548 368.042 39.915C368.233 40.3753 368.514 40.7467 368.883 41.0293C369.252 41.3073 369.705 41.4463 370.243 41.4463C370.776 41.4463 371.225 41.3073 371.59 41.0293C371.959 40.7467 372.239 40.3753 372.431 39.915C372.622 39.4548 372.718 38.9557 372.718 38.418V38.1924C372.718 37.6592 372.622 37.1624 372.431 36.7021C372.239 36.2419 371.959 35.8704 371.59 35.5879C371.221 35.3008 370.767 35.1572 370.229 35.1572C369.696 35.1572 369.245 35.3008 368.876 35.5879C368.507 35.8704 368.227 36.2419 368.035 36.7021C367.848 37.1624 367.755 37.6592 367.755 38.1924V38.418ZM379.67 34.6035H380.518L377.749 42H377.147L377.305 41.2207L379.67 34.6035ZM377.558 41.2412L377.688 42H377.086L374.311 34.6035H375.158L377.558 41.2412ZM382.773 42H381.96V34.6035H382.773V42ZM381.816 32.4639C381.816 32.3089 381.864 32.179 381.96 32.0742C382.06 31.9648 382.197 31.9102 382.37 31.9102C382.548 31.9102 382.687 31.9648 382.787 32.0742C382.887 32.179 382.938 32.3089 382.938 32.4639C382.938 32.6143 382.887 32.7419 382.787 32.8467C382.687 32.9515 382.548 33.0039 382.37 33.0039C382.197 33.0039 382.06 32.9515 381.96 32.8467C381.864 32.7419 381.816 32.6143 381.816 32.4639ZM389.814 31.5H390.635V42H389.869L389.814 40.5645V31.5ZM384.681 38.2334C384.681 37.4678 384.797 36.8024 385.029 36.2373C385.262 35.6722 385.59 35.237 386.014 34.9316C386.442 34.6217 386.95 34.4668 387.538 34.4668C388.112 34.4668 388.6 34.5921 389.001 34.8428C389.402 35.0889 389.721 35.4352 389.958 35.8818C390.2 36.3239 390.364 36.8434 390.45 37.4404V39.293C390.377 39.8398 390.222 40.3275 389.985 40.7559C389.748 41.1842 389.425 41.5215 389.015 41.7676C388.609 42.0137 388.112 42.1367 387.524 42.1367C386.941 42.1367 386.435 41.9772 386.007 41.6582C385.583 41.3392 385.255 40.8971 385.022 40.332C384.795 39.7669 384.681 39.1152 384.681 38.377V38.2334ZM385.501 38.377C385.501 38.9512 385.578 39.4684 385.733 39.9287C385.888 40.3844 386.125 40.749 386.444 41.0225C386.768 41.2913 387.178 41.4258 387.675 41.4258C388.144 41.4258 388.538 41.3369 388.857 41.1592C389.176 40.9769 389.432 40.7376 389.623 40.4414C389.814 40.1406 389.953 39.8102 390.04 39.4502V37.3174C389.985 37.0804 389.906 36.8366 389.801 36.5859C389.696 36.3353 389.552 36.1051 389.37 35.8955C389.192 35.6813 388.965 35.5081 388.687 35.376C388.413 35.2438 388.08 35.1777 387.688 35.1777C387.187 35.1777 386.775 35.3122 386.451 35.5811C386.128 35.8499 385.888 36.2168 385.733 36.6816C385.578 37.1419 385.501 37.6592 385.501 38.2334V38.377ZM395.646 42.1367C395.003 42.1367 394.431 41.9818 393.93 41.6719C393.433 41.3574 393.041 40.929 392.754 40.3867C392.471 39.8398 392.33 39.2132 392.33 38.5068V38.2129C392.33 37.4518 392.476 36.791 392.768 36.2305C393.064 35.6699 393.451 35.237 393.93 34.9316C394.413 34.6217 394.935 34.4668 395.495 34.4668C396.124 34.4668 396.657 34.6126 397.095 34.9043C397.532 35.1914 397.863 35.5902 398.086 36.1006C398.314 36.611 398.428 37.1943 398.428 37.8506V38.3496H392.829V37.6592H397.607V37.5635C397.598 37.1488 397.514 36.7591 397.354 36.3945C397.2 36.0299 396.967 35.7337 396.657 35.5059C396.347 35.2734 395.96 35.1572 395.495 35.1572C395.035 35.1572 394.627 35.2871 394.271 35.5469C393.916 35.8066 393.64 36.1667 393.444 36.627C393.248 37.0827 393.15 37.6113 393.15 38.2129V38.5068C393.15 39.0537 393.255 39.5482 393.465 39.9902C393.679 40.4323 393.978 40.7855 394.36 41.0498C394.743 41.3141 395.183 41.4463 395.68 41.4463C396.117 41.4463 396.505 41.3665 396.842 41.207C397.179 41.043 397.482 40.7855 397.751 40.4346L398.271 40.8242C398.029 41.1842 397.696 41.4941 397.272 41.7539C396.853 42.0091 396.311 42.1367 395.646 42.1367ZM400.848 42H400.027V34.6035H400.827L400.848 35.8271V42ZM403.445 35.2939C403.354 35.2803 403.265 35.2689 403.179 35.2598C403.092 35.2507 402.999 35.2461 402.898 35.2461C402.429 35.2461 402.035 35.36 401.716 35.5879C401.397 35.8158 401.153 36.1211 400.984 36.5039C400.82 36.8867 400.731 37.3151 400.718 37.7891L400.41 37.8984C400.41 37.2559 400.499 36.6771 400.677 36.1621C400.859 35.6426 401.135 35.2301 401.504 34.9248C401.878 34.6195 402.352 34.4668 402.926 34.4668C403.031 34.4668 403.133 34.4759 403.233 34.4941C403.338 34.5078 403.416 34.526 403.466 34.5488L403.445 35.2939ZM306.901 57.6035H307.482L307.141 59.1348L305.274 65H304.7L305.124 63.2637L306.901 57.6035ZM304.837 63.2979L305.172 65H304.577L302.431 57.6035H303.278L304.837 63.2979ZM311.229 57.6035H312.069L309.923 65H309.335L309.704 63.2773L311.229 57.6035ZM309.362 63.2158L309.8 65H309.226L307.318 59.1279L306.997 57.6035H307.605L309.362 63.2158ZM316.499 65.1367C315.856 65.1367 315.285 64.9818 314.783 64.6719C314.286 64.3574 313.895 63.929 313.607 63.3867C313.325 62.8398 313.184 62.2132 313.184 61.5068V61.2129C313.184 60.4518 313.329 59.791 313.621 59.2305C313.917 58.6699 314.305 58.237 314.783 57.9316C315.266 57.6217 315.788 57.4668 316.349 57.4668C316.978 57.4668 317.511 57.6126 317.948 57.9043C318.386 58.1914 318.716 58.5902 318.939 59.1006C319.167 59.611 319.281 60.1943 319.281 60.8506V61.3496H313.683V60.6592H318.461V60.5635C318.452 60.1488 318.368 59.7591 318.208 59.3945C318.053 59.0299 317.821 58.7337 317.511 58.5059C317.201 58.2734 316.813 58.1572 316.349 58.1572C315.888 58.1572 315.48 58.2871 315.125 58.5469C314.77 58.8066 314.494 59.1667 314.298 59.627C314.102 60.0827 314.004 60.6113 314.004 61.2129V61.5068C314.004 62.0537 314.109 62.5482 314.318 62.9902C314.533 63.4323 314.831 63.7855 315.214 64.0498C315.597 64.3141 316.036 64.4463 316.533 64.4463C316.971 64.4463 317.358 64.3665 317.695 64.207C318.033 64.043 318.336 63.7855 318.604 63.4346L319.124 63.8242C318.882 64.1842 318.55 64.4941 318.126 64.7539C317.707 65.0091 317.164 65.1367 316.499 65.1367ZM321.797 65H320.983V54.5H321.797V65ZM326.76 64.4463C327.106 64.4463 327.43 64.3802 327.73 64.248C328.036 64.1113 328.286 63.9154 328.482 63.6602C328.683 63.4004 328.797 63.0837 328.824 62.71H329.61C329.588 63.1794 329.444 63.5986 329.18 63.9678C328.915 64.3324 328.571 64.6195 328.147 64.8291C327.728 65.0342 327.266 65.1367 326.76 65.1367C326.072 65.1367 325.493 64.9749 325.023 64.6514C324.554 64.3232 324.201 63.8812 323.964 63.3252C323.727 62.7646 323.608 62.138 323.608 61.4453V61.1582C323.608 60.4609 323.727 59.8343 323.964 59.2783C324.205 58.7223 324.559 58.2826 325.023 57.959C325.493 57.6309 326.069 57.4668 326.753 57.4668C327.282 57.4668 327.756 57.5739 328.175 57.7881C328.599 58.0023 328.938 58.3053 329.193 58.6973C329.449 59.0892 329.588 59.554 329.61 60.0918H328.824C328.801 59.6953 328.697 59.3535 328.51 59.0664C328.323 58.7747 328.077 58.5514 327.771 58.3965C327.466 58.237 327.127 58.1572 326.753 58.1572C326.197 58.1572 325.746 58.2985 325.399 58.5811C325.058 58.8636 324.809 59.2327 324.654 59.6885C324.499 60.1442 324.422 60.6341 324.422 61.1582V61.4453C324.422 61.9694 324.499 62.4616 324.654 62.9219C324.809 63.3776 325.058 63.7467 325.399 64.0293C325.746 64.3073 326.199 64.4463 326.76 64.4463ZM330.8 61.1924C330.8 60.4723 330.937 59.832 331.21 59.2715C331.483 58.7109 331.866 58.2712 332.358 57.9521C332.851 57.6286 333.429 57.4668 334.095 57.4668C334.765 57.4668 335.348 57.6286 335.845 57.9521C336.341 58.2712 336.724 58.7109 336.993 59.2715C337.267 59.832 337.403 60.4723 337.403 61.1924V61.418C337.403 62.1335 337.267 62.7715 336.993 63.332C336.724 63.8926 336.341 64.3346 335.845 64.6582C335.353 64.9772 334.774 65.1367 334.108 65.1367C333.438 65.1367 332.855 64.9772 332.358 64.6582C331.866 64.3346 331.483 63.8926 331.21 63.332C330.937 62.7715 330.8 62.1335 330.8 61.418V61.1924ZM331.62 61.418C331.62 61.9557 331.716 62.4548 331.907 62.915C332.099 63.3753 332.379 63.7467 332.748 64.0293C333.117 64.3073 333.571 64.4463 334.108 64.4463C334.642 64.4463 335.09 64.3073 335.455 64.0293C335.824 63.7467 336.104 63.3753 336.296 62.915C336.487 62.4548 336.583 61.9557 336.583 61.418V61.1924C336.583 60.6592 336.487 60.1624 336.296 59.7021C336.104 59.2419 335.824 58.8704 335.455 58.5879C335.086 58.3008 334.632 58.1572 334.095 58.1572C333.562 58.1572 333.11 58.3008 332.741 58.5879C332.372 58.8704 332.092 59.2419 331.9 59.7021C331.714 60.1624 331.62 60.6592 331.62 61.1924V61.418ZM339.871 65H339.051V57.6035H339.837L339.871 59.1348V65ZM339.324 60.6318C339.361 60.0531 339.497 59.5244 339.734 59.0459C339.971 58.5674 340.302 58.1846 340.726 57.8975C341.149 57.6104 341.662 57.4668 342.264 57.4668C342.984 57.4668 343.56 57.6696 343.993 58.0752C344.426 58.4762 344.643 59.1439 344.643 60.0781V65H343.822V60.1055C343.822 59.6133 343.747 59.2282 343.597 58.9502C343.446 58.6676 343.234 58.4671 342.961 58.3486C342.692 58.2301 342.38 58.1709 342.024 58.1709C341.605 58.1709 341.25 58.2575 340.958 58.4307C340.671 58.5993 340.436 58.8203 340.254 59.0938C340.076 59.3626 339.944 59.652 339.857 59.9619C339.775 60.2718 339.73 60.5635 339.721 60.8369L339.324 60.6318ZM344.089 60.208C344.121 59.734 344.255 59.2874 344.492 58.8682C344.734 58.4489 345.066 58.1117 345.49 57.8564C345.919 57.5967 346.424 57.4668 347.008 57.4668C347.523 57.4668 347.96 57.5602 348.32 57.7471C348.68 57.9294 348.954 58.221 349.141 58.6221C349.332 59.0186 349.428 59.5381 349.428 60.1807V65H348.607V60.1738C348.607 59.6497 348.532 59.2441 348.382 58.957C348.231 58.6654 348.02 58.4626 347.746 58.3486C347.477 58.2301 347.165 58.1709 346.81 58.1709C346.45 58.1755 346.135 58.2415 345.866 58.3691C345.602 58.4967 345.379 58.6608 345.196 58.8613C345.019 59.0618 344.882 59.2806 344.786 59.5176C344.695 59.75 344.645 59.9756 344.636 60.1943L344.089 60.208ZM354.37 65.1367C353.728 65.1367 353.156 64.9818 352.654 64.6719C352.158 64.3574 351.766 63.929 351.479 63.3867C351.196 62.8398 351.055 62.2132 351.055 61.5068V61.2129C351.055 60.4518 351.201 59.791 351.492 59.2305C351.788 58.6699 352.176 58.237 352.654 57.9316C353.137 57.6217 353.659 57.4668 354.22 57.4668C354.849 57.4668 355.382 57.6126 355.819 57.9043C356.257 58.1914 356.587 58.5902 356.811 59.1006C357.038 59.611 357.152 60.1943 357.152 60.8506V61.3496H351.554V60.6592H356.332V60.5635C356.323 60.1488 356.239 59.7591 356.079 59.3945C355.924 59.0299 355.692 58.7337 355.382 58.5059C355.072 58.2734 354.685 58.1572 354.22 58.1572C353.759 58.1572 353.352 58.2871 352.996 58.5469C352.641 58.8066 352.365 59.1667 352.169 59.627C351.973 60.0827 351.875 60.6113 351.875 61.2129V61.5068C351.875 62.0537 351.98 62.5482 352.189 62.9902C352.404 63.4323 352.702 63.7855 353.085 64.0498C353.468 64.3141 353.908 64.4463 354.404 64.4463C354.842 64.4463 355.229 64.3665 355.566 64.207C355.904 64.043 356.207 63.7855 356.476 63.4346L356.995 63.8242C356.754 64.1842 356.421 64.4941 355.997 64.7539C355.578 65.0091 355.035 65.1367 354.37 65.1367ZM365.034 65.1367C364.392 65.1367 363.82 64.9818 363.318 64.6719C362.822 64.3574 362.43 63.929 362.143 63.3867C361.86 62.8398 361.719 62.2132 361.719 61.5068V61.2129C361.719 60.4518 361.865 59.791 362.156 59.2305C362.452 58.6699 362.84 58.237 363.318 57.9316C363.801 57.6217 364.323 57.4668 364.884 57.4668C365.513 57.4668 366.046 57.6126 366.483 57.9043C366.921 58.1914 367.251 58.5902 367.475 59.1006C367.702 59.611 367.816 60.1943 367.816 60.8506V61.3496H362.218V60.6592H366.996V60.5635C366.987 60.1488 366.903 59.7591 366.743 59.3945C366.588 59.0299 366.356 58.7337 366.046 58.5059C365.736 58.2734 365.349 58.1572 364.884 58.1572C364.424 58.1572 364.016 58.2871 363.66 58.5469C363.305 58.8066 363.029 59.1667 362.833 59.627C362.637 60.0827 362.539 60.6113 362.539 61.2129V61.5068C362.539 62.0537 362.644 62.5482 362.854 62.9902C363.068 63.4323 363.366 63.7855 363.749 64.0498C364.132 64.3141 364.572 64.4463 365.068 64.4463C365.506 64.4463 365.893 64.3665 366.23 64.207C366.568 64.043 366.871 63.7855 367.14 63.4346L367.659 63.8242C367.418 64.1842 367.085 64.4941 366.661 64.7539C366.242 65.0091 365.7 65.1367 365.034 65.1367ZM370.195 65H369.375V57.6035H370.161L370.195 59.1348V65ZM369.648 60.6318C369.685 60.0531 369.822 59.5244 370.059 59.0459C370.296 58.5674 370.626 58.1846 371.05 57.8975C371.474 57.6104 371.986 57.4668 372.588 57.4668C373.308 57.4668 373.884 57.6696 374.317 58.0752C374.75 58.4762 374.967 59.1439 374.967 60.0781V65H374.146V60.1055C374.146 59.6133 374.071 59.2282 373.921 58.9502C373.771 58.6676 373.559 58.4671 373.285 58.3486C373.016 58.2301 372.704 58.1709 372.349 58.1709C371.929 58.1709 371.574 58.2575 371.282 58.4307C370.995 58.5993 370.76 58.8203 370.578 59.0938C370.4 59.3626 370.268 59.652 370.182 59.9619C370.1 60.2718 370.054 60.5635 370.045 60.8369L369.648 60.6318ZM374.413 60.208C374.445 59.734 374.579 59.2874 374.816 58.8682C375.058 58.4489 375.391 58.1117 375.814 57.8564C376.243 57.5967 376.749 57.4668 377.332 57.4668C377.847 57.4668 378.285 57.5602 378.645 57.7471C379.005 57.9294 379.278 58.221 379.465 58.6221C379.656 59.0186 379.752 59.5381 379.752 60.1807V65H378.932V60.1738C378.932 59.6497 378.856 59.2441 378.706 58.957C378.556 58.6654 378.344 58.4626 378.07 58.3486C377.801 58.2301 377.489 58.1709 377.134 58.1709C376.774 58.1755 376.459 58.2415 376.19 58.3691C375.926 58.4967 375.703 58.6608 375.521 58.8613C375.343 59.0618 375.206 59.2806 375.11 59.5176C375.019 59.75 374.969 59.9756 374.96 60.1943L374.413 60.208ZM386.335 59.8594C386.335 59.3307 386.171 58.9137 385.843 58.6084C385.515 58.3031 385.043 58.1504 384.428 58.1504C384.045 58.1504 383.703 58.2188 383.402 58.3555C383.106 58.4876 382.871 58.6676 382.698 58.8955C382.53 59.1188 382.445 59.3695 382.445 59.6475L381.625 59.6406C381.625 59.2669 381.743 58.916 381.98 58.5879C382.222 58.2552 382.555 57.9863 382.979 57.7812C383.407 57.5716 383.901 57.4668 384.462 57.4668C384.991 57.4668 385.455 57.5557 385.856 57.7334C386.262 57.9111 386.579 58.1777 386.807 58.5332C387.039 58.8887 387.155 59.3353 387.155 59.873V63.4482C387.155 63.7035 387.174 63.9678 387.21 64.2412C387.251 64.5146 387.308 64.7402 387.381 64.918V65H386.506C386.451 64.8359 386.408 64.6309 386.376 64.3848C386.349 64.1341 386.335 63.8971 386.335 63.6738V59.8594ZM386.54 61.3223H384.934C384.1 61.3223 383.446 61.4704 382.972 61.7666C382.502 62.0583 382.268 62.457 382.268 62.9629C382.268 63.3639 382.416 63.7057 382.712 63.9883C383.013 64.2708 383.418 64.4121 383.929 64.4121C384.384 64.4121 384.785 64.3301 385.132 64.166C385.483 63.9974 385.77 63.7741 385.993 63.4961C386.221 63.2181 386.376 62.9173 386.458 62.5938L386.813 63.0654C386.754 63.2933 386.645 63.528 386.485 63.7695C386.33 64.0065 386.128 64.2298 385.877 64.4395C385.626 64.6445 385.33 64.8132 384.988 64.9453C384.651 65.0729 384.268 65.1367 383.84 65.1367C383.357 65.1367 382.935 65.0456 382.575 64.8633C382.22 64.681 381.942 64.4326 381.741 64.1182C381.545 63.7992 381.447 63.4391 381.447 63.0381C381.447 62.3089 381.748 61.737 382.35 61.3223C382.956 60.903 383.781 60.6934 384.824 60.6934H386.526L386.54 61.3223ZM390.252 65H389.438V57.6035H390.252V65ZM389.295 55.4639C389.295 55.3089 389.343 55.179 389.438 55.0742C389.539 54.9648 389.675 54.9102 389.849 54.9102C390.026 54.9102 390.165 54.9648 390.266 55.0742C390.366 55.179 390.416 55.3089 390.416 55.4639C390.416 55.6143 390.366 55.7419 390.266 55.8467C390.165 55.9515 390.026 56.0039 389.849 56.0039C389.675 56.0039 389.539 55.9515 389.438 55.8467C389.343 55.7419 389.295 55.6143 389.295 55.4639ZM393.396 65H392.583V54.5H393.396V65Z" fill="#1F1F1F"/>
<path d="M480.812 37.9463V37.2285H483.655C484.248 37.2285 484.729 37.1328 485.098 36.9414C485.467 36.7454 485.736 36.4811 485.904 36.1484C486.077 35.8158 486.164 35.4421 486.164 35.0273C486.164 34.6217 486.077 34.248 485.904 33.9062C485.736 33.5645 485.467 33.2887 485.098 33.0791C484.729 32.8695 484.248 32.7646 483.655 32.7646H481.105V42H480.265V32.0469H483.655C484.384 32.0469 484.997 32.1722 485.494 32.4229C485.991 32.6735 486.367 33.0221 486.622 33.4688C486.877 33.9108 487.005 34.4258 487.005 35.0137C487.005 35.6243 486.877 36.1507 486.622 36.5928C486.371 37.0303 485.995 37.3652 485.494 37.5977C484.997 37.8301 484.384 37.9463 483.655 37.9463H480.812ZM489.514 42H488.693V34.6035H489.493L489.514 35.8271V42ZM492.111 35.2939C492.02 35.2803 491.931 35.2689 491.845 35.2598C491.758 35.2507 491.665 35.2461 491.564 35.2461C491.095 35.2461 490.701 35.36 490.382 35.5879C490.063 35.8158 489.819 36.1211 489.65 36.5039C489.486 36.8867 489.397 37.3151 489.384 37.7891L489.076 37.8984C489.076 37.2559 489.165 36.6771 489.343 36.1621C489.525 35.6426 489.801 35.2301 490.17 34.9248C490.544 34.6195 491.018 34.4668 491.592 34.4668C491.697 34.4668 491.799 34.4759 491.899 34.4941C492.004 34.5078 492.082 34.526 492.132 34.5488L492.111 35.2939ZM492.774 38.1924C492.774 37.4723 492.911 36.832 493.185 36.2715C493.458 35.7109 493.841 35.2712 494.333 34.9521C494.825 34.6286 495.404 34.4668 496.069 34.4668C496.739 34.4668 497.323 34.6286 497.819 34.9521C498.316 35.2712 498.699 35.7109 498.968 36.2715C499.241 36.832 499.378 37.4723 499.378 38.1924V38.418C499.378 39.1335 499.241 39.7715 498.968 40.332C498.699 40.8926 498.316 41.3346 497.819 41.6582C497.327 41.9772 496.748 42.1367 496.083 42.1367C495.413 42.1367 494.83 41.9772 494.333 41.6582C493.841 41.3346 493.458 40.8926 493.185 40.332C492.911 39.7715 492.774 39.1335 492.774 38.418V38.1924ZM493.595 38.418C493.595 38.9557 493.69 39.4548 493.882 39.915C494.073 40.3753 494.354 40.7467 494.723 41.0293C495.092 41.3073 495.545 41.4463 496.083 41.4463C496.616 41.4463 497.065 41.3073 497.43 41.0293C497.799 40.7467 498.079 40.3753 498.271 39.915C498.462 39.4548 498.558 38.9557 498.558 38.418V38.1924C498.558 37.6592 498.462 37.1624 498.271 36.7021C498.079 36.2419 497.799 35.8704 497.43 35.5879C497.061 35.3008 496.607 35.1572 496.069 35.1572C495.536 35.1572 495.085 35.3008 494.716 35.5879C494.347 35.8704 494.066 36.2419 493.875 36.7021C493.688 37.1624 493.595 37.6592 493.595 38.1924V38.418ZM501.846 42H501.025V34.6035H501.812L501.846 36.1348V42ZM501.299 37.6318C501.335 37.0531 501.472 36.5244 501.709 36.0459C501.946 35.5674 502.276 35.1846 502.7 34.8975C503.124 34.6104 503.637 34.4668 504.238 34.4668C504.958 34.4668 505.535 34.6696 505.968 35.0752C506.401 35.4762 506.617 36.1439 506.617 37.0781V42H505.797V37.1055C505.797 36.6133 505.722 36.2282 505.571 35.9502C505.421 35.6676 505.209 35.4671 504.936 35.3486C504.667 35.2301 504.354 35.1709 503.999 35.1709C503.58 35.1709 503.224 35.2575 502.933 35.4307C502.646 35.5993 502.411 35.8203 502.229 36.0938C502.051 36.3626 501.919 36.652 501.832 36.9619C501.75 37.2718 501.704 37.5635 501.695 37.8369L501.299 37.6318ZM506.063 37.208C506.095 36.734 506.23 36.2874 506.467 35.8682C506.708 35.4489 507.041 35.1117 507.465 34.8564C507.893 34.5967 508.399 34.4668 508.982 34.4668C509.497 34.4668 509.935 34.5602 510.295 34.7471C510.655 34.9294 510.928 35.221 511.115 35.6221C511.307 36.0186 511.402 36.5381 511.402 37.1807V42H510.582V37.1738C510.582 36.6497 510.507 36.2441 510.356 35.957C510.206 35.6654 509.994 35.4626 509.721 35.3486C509.452 35.2301 509.14 35.1709 508.784 35.1709C508.424 35.1755 508.11 35.2415 507.841 35.3691C507.576 35.4967 507.353 35.6608 507.171 35.8613C506.993 36.0618 506.856 36.2806 506.761 36.5176C506.67 36.75 506.619 36.9756 506.61 37.1943L506.063 37.208ZM513.036 38.1924C513.036 37.4723 513.173 36.832 513.446 36.2715C513.72 35.7109 514.103 35.2712 514.595 34.9521C515.087 34.6286 515.666 34.4668 516.331 34.4668C517.001 34.4668 517.584 34.6286 518.081 34.9521C518.578 35.2712 518.961 35.7109 519.229 36.2715C519.503 36.832 519.64 37.4723 519.64 38.1924V38.418C519.64 39.1335 519.503 39.7715 519.229 40.332C518.961 40.8926 518.578 41.3346 518.081 41.6582C517.589 41.9772 517.01 42.1367 516.345 42.1367C515.675 42.1367 515.091 41.9772 514.595 41.6582C514.103 41.3346 513.72 40.8926 513.446 40.332C513.173 39.7715 513.036 39.1335 513.036 38.418V38.1924ZM513.856 38.418C513.856 38.9557 513.952 39.4548 514.144 39.915C514.335 40.3753 514.615 40.7467 514.984 41.0293C515.354 41.3073 515.807 41.4463 516.345 41.4463C516.878 41.4463 517.327 41.3073 517.691 41.0293C518.061 40.7467 518.341 40.3753 518.532 39.915C518.724 39.4548 518.819 38.9557 518.819 38.418V38.1924C518.819 37.6592 518.724 37.1624 518.532 36.7021C518.341 36.2419 518.061 35.8704 517.691 35.5879C517.322 35.3008 516.869 35.1572 516.331 35.1572C515.798 35.1572 515.347 35.3008 514.978 35.5879C514.608 35.8704 514.328 36.2419 514.137 36.7021C513.95 37.1624 513.856 37.6592 513.856 38.1924V38.418ZM524.138 35.2734H520.426V34.6035H524.138V35.2734ZM522.6 32.7031V40.2021C522.6 40.5439 522.645 40.8037 522.736 40.9814C522.827 41.1546 522.946 41.2708 523.092 41.3301C523.242 41.3893 523.402 41.4189 523.57 41.4189C523.693 41.4189 523.81 41.4121 523.919 41.3984C524.033 41.3802 524.135 41.3643 524.227 41.3506L524.261 42.0273C524.16 42.0592 524.031 42.0843 523.871 42.1025C523.712 42.1253 523.552 42.1367 523.393 42.1367C523.078 42.1367 522.8 42.0798 522.559 41.9658C522.317 41.8473 522.126 41.6468 521.984 41.3643C521.848 41.0771 521.779 40.6875 521.779 40.1953V32.7031H522.6ZM528.704 42.1367C528.062 42.1367 527.49 41.9818 526.988 41.6719C526.492 41.3574 526.1 40.929 525.812 40.3867C525.53 39.8398 525.389 39.2132 525.389 38.5068V38.2129C525.389 37.4518 525.535 36.791 525.826 36.2305C526.122 35.6699 526.51 35.237 526.988 34.9316C527.471 34.6217 527.993 34.4668 528.554 34.4668C529.183 34.4668 529.716 34.6126 530.153 34.9043C530.591 35.1914 530.921 35.5902 531.145 36.1006C531.372 36.611 531.486 37.1943 531.486 37.8506V38.3496H525.888V37.6592H530.666V37.5635C530.657 37.1488 530.573 36.7591 530.413 36.3945C530.258 36.0299 530.026 35.7337 529.716 35.5059C529.406 35.2734 529.019 35.1572 528.554 35.1572C528.093 35.1572 527.686 35.2871 527.33 35.5469C526.975 35.8066 526.699 36.1667 526.503 36.627C526.307 37.0827 526.209 37.6113 526.209 38.2129V38.5068C526.209 39.0537 526.314 39.5482 526.523 39.9902C526.738 40.4323 527.036 40.7855 527.419 41.0498C527.802 41.3141 528.242 41.4463 528.738 41.4463C529.176 41.4463 529.563 41.3665 529.9 41.207C530.238 41.043 530.541 40.7855 530.81 40.4346L531.329 40.8242C531.088 41.1842 530.755 41.4941 530.331 41.7539C529.912 42.0091 529.369 42.1367 528.704 42.1367ZM482.876 58.2734H479.164V57.6035H482.876V58.2734ZM481.338 55.7031V63.2021C481.338 63.5439 481.383 63.8037 481.475 63.9814C481.566 64.1546 481.684 64.2708 481.83 64.3301C481.98 64.3893 482.14 64.4189 482.309 64.4189C482.432 64.4189 482.548 64.4121 482.657 64.3984C482.771 64.3802 482.874 64.3643 482.965 64.3506L482.999 65.0273C482.899 65.0592 482.769 65.0843 482.609 65.1025C482.45 65.1253 482.29 65.1367 482.131 65.1367C481.816 65.1367 481.538 65.0798 481.297 64.9658C481.055 64.8473 480.864 64.6468 480.723 64.3643C480.586 64.0771 480.518 63.6875 480.518 63.1953V55.7031H481.338ZM483.97 61.1924C483.97 60.4723 484.106 59.832 484.38 59.2715C484.653 58.7109 485.036 58.2712 485.528 57.9521C486.021 57.6286 486.599 57.4668 487.265 57.4668C487.935 57.4668 488.518 57.6286 489.015 57.9521C489.511 58.2712 489.894 58.7109 490.163 59.2715C490.437 59.832 490.573 60.4723 490.573 61.1924V61.418C490.573 62.1335 490.437 62.7715 490.163 63.332C489.894 63.8926 489.511 64.3346 489.015 64.6582C488.522 64.9772 487.944 65.1367 487.278 65.1367C486.608 65.1367 486.025 64.9772 485.528 64.6582C485.036 64.3346 484.653 63.8926 484.38 63.332C484.106 62.7715 483.97 62.1335 483.97 61.418V61.1924ZM484.79 61.418C484.79 61.9557 484.886 62.4548 485.077 62.915C485.269 63.3753 485.549 63.7467 485.918 64.0293C486.287 64.3073 486.741 64.4463 487.278 64.4463C487.812 64.4463 488.26 64.3073 488.625 64.0293C488.994 63.7467 489.274 63.3753 489.466 62.915C489.657 62.4548 489.753 61.9557 489.753 61.418V61.1924C489.753 60.6592 489.657 60.1624 489.466 59.7021C489.274 59.2419 488.994 58.8704 488.625 58.5879C488.256 58.3008 487.802 58.1572 487.265 58.1572C486.731 58.1572 486.28 58.3008 485.911 58.5879C485.542 58.8704 485.262 59.2419 485.07 59.7021C484.883 60.1624 484.79 60.6592 484.79 61.1924V61.418ZM501.511 62.5527C501.511 62.1836 501.426 61.8691 501.258 61.6094C501.094 61.3496 500.813 61.1195 500.417 60.9189C500.021 60.7139 499.478 60.5133 498.79 60.3174C498.289 60.1807 497.838 60.028 497.437 59.8594C497.04 59.6908 496.698 59.4971 496.411 59.2783C496.129 59.0596 495.912 58.8044 495.762 58.5127C495.611 58.2165 495.536 57.8724 495.536 57.4805C495.536 56.9655 495.677 56.5166 495.96 56.1338C496.247 55.7464 496.641 55.4456 497.143 55.2314C497.648 55.0173 498.227 54.9102 498.879 54.9102C499.576 54.9102 500.18 55.0423 500.69 55.3066C501.201 55.571 501.595 55.9287 501.873 56.3799C502.151 56.8265 502.29 57.3278 502.29 57.8838H501.449C501.449 57.4508 501.347 57.0658 501.142 56.7285C500.941 56.3867 500.649 56.1178 500.267 55.9219C499.884 55.7259 499.421 55.6279 498.879 55.6279C498.332 55.6279 497.872 55.7122 497.498 55.8809C497.129 56.0449 496.851 56.266 496.664 56.5439C496.477 56.8219 496.384 57.1273 496.384 57.46C496.384 57.7744 496.466 58.0592 496.63 58.3145C496.799 58.5651 497.076 58.793 497.464 58.998C497.856 59.2031 498.384 59.3968 499.05 59.5791C499.756 59.766 500.355 59.987 500.848 60.2422C501.34 60.4974 501.714 60.8096 501.969 61.1787C502.229 61.5479 502.358 62.0013 502.358 62.5391C502.358 63.0768 502.21 63.5417 501.914 63.9336C501.618 64.321 501.212 64.6195 500.697 64.8291C500.182 65.0342 499.594 65.1367 498.934 65.1367C498.492 65.1367 498.052 65.0798 497.614 64.9658C497.177 64.8519 496.776 64.6764 496.411 64.4395C496.051 64.1979 495.762 63.888 495.543 63.5098C495.329 63.1315 495.222 62.6803 495.222 62.1562H496.062C496.062 62.5755 496.147 62.931 496.315 63.2227C496.484 63.5098 496.707 63.7422 496.985 63.9199C497.268 64.0977 497.578 64.2275 497.915 64.3096C498.252 64.387 498.592 64.4258 498.934 64.4258C499.458 64.4258 499.911 64.3483 500.294 64.1934C500.677 64.0339 500.975 63.8151 501.189 63.5371C501.404 63.2546 501.511 62.9264 501.511 62.5527ZM506.788 58.2734H503.076V57.6035H506.788V58.2734ZM505.25 55.7031V63.2021C505.25 63.5439 505.296 63.8037 505.387 63.9814C505.478 64.1546 505.596 64.2708 505.742 64.3301C505.893 64.3893 506.052 64.4189 506.221 64.4189C506.344 64.4189 506.46 64.4121 506.569 64.3984C506.683 64.3802 506.786 64.3643 506.877 64.3506L506.911 65.0273C506.811 65.0592 506.681 65.0843 506.521 65.1025C506.362 65.1253 506.202 65.1367 506.043 65.1367C505.729 65.1367 505.451 65.0798 505.209 64.9658C504.967 64.8473 504.776 64.6468 504.635 64.3643C504.498 64.0771 504.43 63.6875 504.43 63.1953V55.7031H505.25ZM512.995 59.8594C512.995 59.3307 512.831 58.9137 512.503 58.6084C512.175 58.3031 511.703 58.1504 511.088 58.1504C510.705 58.1504 510.363 58.2188 510.062 58.3555C509.766 58.4876 509.532 58.6676 509.358 58.8955C509.19 59.1188 509.105 59.3695 509.105 59.6475L508.285 59.6406C508.285 59.2669 508.404 58.916 508.641 58.5879C508.882 58.2552 509.215 57.9863 509.639 57.7812C510.067 57.5716 510.562 57.4668 511.122 57.4668C511.651 57.4668 512.116 57.5557 512.517 57.7334C512.922 57.9111 513.239 58.1777 513.467 58.5332C513.699 58.8887 513.815 59.3353 513.815 59.873V63.4482C513.815 63.7035 513.834 63.9678 513.87 64.2412C513.911 64.5146 513.968 64.7402 514.041 64.918V65H513.166C513.111 64.8359 513.068 64.6309 513.036 64.3848C513.009 64.1341 512.995 63.8971 512.995 63.6738V59.8594ZM513.2 61.3223H511.594C510.76 61.3223 510.106 61.4704 509.632 61.7666C509.162 62.0583 508.928 62.457 508.928 62.9629C508.928 63.3639 509.076 63.7057 509.372 63.9883C509.673 64.2708 510.078 64.4121 510.589 64.4121C511.045 64.4121 511.446 64.3301 511.792 64.166C512.143 63.9974 512.43 63.7741 512.653 63.4961C512.881 63.2181 513.036 62.9173 513.118 62.5938L513.474 63.0654C513.414 63.2933 513.305 63.528 513.146 63.7695C512.991 64.0065 512.788 64.2298 512.537 64.4395C512.286 64.6445 511.99 64.8132 511.648 64.9453C511.311 65.0729 510.928 65.1367 510.5 65.1367C510.017 65.1367 509.595 65.0456 509.235 64.8633C508.88 64.681 508.602 64.4326 508.401 64.1182C508.205 63.7992 508.107 63.4391 508.107 63.0381C508.107 62.3089 508.408 61.737 509.01 61.3223C509.616 60.903 510.441 60.6934 511.484 60.6934H513.187L513.2 61.3223ZM516.816 65H515.996V57.6035H516.796L516.816 58.8271V65ZM519.414 58.2939C519.323 58.2803 519.234 58.2689 519.147 58.2598C519.061 58.2507 518.967 58.2461 518.867 58.2461C518.398 58.2461 518.004 58.36 517.685 58.5879C517.366 58.8158 517.122 59.1211 516.953 59.5039C516.789 59.8867 516.7 60.3151 516.687 60.7891L516.379 60.8984C516.379 60.2559 516.468 59.6771 516.646 59.1621C516.828 58.6426 517.104 58.2301 517.473 57.9248C517.846 57.6195 518.32 57.4668 518.895 57.4668C518.999 57.4668 519.102 57.4759 519.202 57.4941C519.307 57.5078 519.384 57.526 519.435 57.5488L519.414 58.2939ZM523.864 58.2734H520.152V57.6035H523.864V58.2734ZM522.326 55.7031V63.2021C522.326 63.5439 522.372 63.8037 522.463 63.9814C522.554 64.1546 522.673 64.2708 522.818 64.3301C522.969 64.3893 523.128 64.4189 523.297 64.4189C523.42 64.4189 523.536 64.4121 523.646 64.3984C523.759 64.3802 523.862 64.3643 523.953 64.3506L523.987 65.0273C523.887 65.0592 523.757 65.0843 523.598 65.1025C523.438 65.1253 523.279 65.1367 523.119 65.1367C522.805 65.1367 522.527 65.0798 522.285 64.9658C522.044 64.8473 521.852 64.6468 521.711 64.3643C521.574 64.0771 521.506 63.6875 521.506 63.1953V55.7031H522.326ZM530.311 57.6035H531.131V65H530.338L530.311 63.291V57.6035ZM530.885 61.9102C530.885 62.5299 530.787 63.0837 530.591 63.5713C530.395 64.0544 530.083 64.4372 529.654 64.7197C529.226 64.9977 528.665 65.1367 527.973 65.1367C527.248 65.1367 526.66 64.9225 526.209 64.4941C525.762 64.0612 525.539 63.3411 525.539 62.334V57.6035H526.359V62.3477C526.359 62.8763 526.437 63.291 526.592 63.5918C526.747 63.8926 526.952 64.1068 527.207 64.2344C527.467 64.362 527.754 64.4258 528.068 64.4258C528.67 64.4258 529.144 64.3096 529.49 64.0771C529.841 63.8447 530.09 63.5371 530.235 63.1543C530.386 62.7715 530.461 62.3613 530.461 61.9238L530.885 61.9102ZM534.077 67.8438H533.257V57.6035H534.022L534.077 59.0254V67.8438ZM539.218 61.377C539.218 62.1152 539.106 62.7669 538.883 63.332C538.664 63.8971 538.343 64.3392 537.919 64.6582C537.5 64.9772 536.992 65.1367 536.395 65.1367C535.802 65.1367 535.296 65.0182 534.877 64.7812C534.462 64.5397 534.134 64.2093 533.893 63.79C533.651 63.3708 533.492 62.89 533.414 62.3477V60.4404C533.505 59.8434 533.674 59.3239 533.92 58.8818C534.166 58.4352 534.492 58.0889 534.897 57.8428C535.308 57.5921 535.802 57.4668 536.381 57.4668C536.982 57.4668 537.493 57.6217 537.912 57.9316C538.336 58.237 538.66 58.6722 538.883 59.2373C539.106 59.8024 539.218 60.4678 539.218 61.2334V61.377ZM538.391 61.2334C538.391 60.6592 538.311 60.1419 538.151 59.6816C537.996 59.2168 537.757 58.8499 537.434 58.5811C537.11 58.3122 536.698 58.1777 536.196 58.1777C535.804 58.1777 535.469 58.2438 535.191 58.376C534.918 58.5081 534.69 58.6813 534.508 58.8955C534.33 59.1051 534.189 59.3353 534.084 59.5859C533.979 59.8366 533.902 60.0804 533.852 60.3174V62.5117C533.938 62.8581 534.075 63.1794 534.262 63.4756C534.453 63.7673 534.708 64.002 535.027 64.1797C535.346 64.3574 535.741 64.4463 536.21 64.4463C536.707 64.4463 537.115 64.3096 537.434 64.0361C537.757 63.7627 537.996 63.3958 538.151 62.9355C538.311 62.4707 538.391 61.9512 538.391 61.377V61.2334ZM545.466 63.1133C545.466 62.9128 545.413 62.7145 545.309 62.5186C545.208 62.3226 545.017 62.1426 544.734 61.9785C544.452 61.8145 544.035 61.6732 543.483 61.5547C542.937 61.4408 542.469 61.2995 542.082 61.1309C541.699 60.9622 541.408 60.7458 541.207 60.4814C541.007 60.2171 540.906 59.8822 540.906 59.4766C540.906 59.1074 541.011 58.7725 541.221 58.4717C541.43 58.1663 541.731 57.9225 542.123 57.7402C542.515 57.5579 542.978 57.4668 543.511 57.4668C544.08 57.4668 544.568 57.5625 544.974 57.7539C545.384 57.9453 545.698 58.2074 545.917 58.54C546.136 58.8727 546.245 59.251 546.245 59.6748H545.418C545.418 59.292 545.254 58.9434 544.926 58.6289C544.598 58.3145 544.126 58.1572 543.511 58.1572C543.087 58.1572 542.743 58.2233 542.479 58.3555C542.214 58.4831 542.021 58.6471 541.897 58.8477C541.779 59.0436 541.72 59.2441 541.72 59.4492C541.72 59.668 541.77 59.8639 541.87 60.0371C541.97 60.2057 542.162 60.3584 542.444 60.4951C542.727 60.6318 543.144 60.764 543.695 60.8916C544.292 61.0238 544.78 61.1855 545.158 61.377C545.541 61.5638 545.824 61.7962 546.006 62.0742C546.193 62.3477 546.286 62.6803 546.286 63.0723C546.286 63.4779 546.172 63.8379 545.944 64.1523C545.721 64.4622 545.404 64.7038 544.994 64.877C544.589 65.0501 544.108 65.1367 543.552 65.1367C542.927 65.1367 542.399 65.0342 541.966 64.8291C541.537 64.6195 541.212 64.346 540.988 64.0088C540.77 63.6715 540.66 63.3092 540.66 62.9219H541.474C541.501 63.3092 541.622 63.6146 541.836 63.8379C542.055 64.0566 542.319 64.2139 542.629 64.3096C542.939 64.4007 543.246 64.4463 543.552 64.4463C543.971 64.4463 544.322 64.3848 544.604 64.2617C544.887 64.1341 545.101 63.9701 545.247 63.7695C545.393 63.5645 545.466 63.3457 545.466 63.1133Z" fill="#1F1F1F"/>
<path d="M143.354 49.3536C143.549 49.1583 143.549 48.8417 143.354 48.6464L140.172 45.4645C139.976 45.2692 139.66 45.2692 139.464 45.4645C139.269 45.6597 139.269 45.9763 139.464 46.1716L142.293 49L139.464 51.8284C139.269 52.0237 139.269 52.3403 139.464 52.5355C139.66 52.7308 139.976 52.7308 140.172 52.5355L143.354 49.3536ZM110 49.5L143 49.5L143 48.5L110 48.5L110 49.5Z" fill="#222F3E"/>
<path d="M285.354 49.3536C285.549 49.1583 285.549 48.8417 285.354 48.6464L282.172 45.4645C281.976 45.2692 281.66 45.2692 281.464 45.4645C281.269 45.6597 281.269 45.9763 281.464 46.1716L284.293 49L281.464 51.8284C281.269 52.0237 281.269 52.3403 281.464 52.5355C281.66 52.7308 281.976 52.7308 282.172 52.5355L285.354 49.3536ZM252 49.5L285 49.5L285 48.5L252 48.5L252 49.5Z" fill="#222F3E"/>
<path d="M455.354 49.3536C455.549 49.1583 455.549 48.8417 455.354 48.6464L452.172 45.4645C451.976 45.2692 451.66 45.2692 451.464 45.4645C451.269 45.6597 451.269 45.9763 451.464 46.1716L454.293 49L451.464 51.8284C451.269 52.0237 451.269 52.3403 451.464 52.5355C451.66 52.7308 451.976 52.7308 452.172 52.5355L455.354 49.3536ZM422 49.5L455 49.5L455 48.5L422 48.5L422 49.5Z" fill="#222F3E"/>
<rect x="148.707" y="50.2623" width="70.0815" height="67.9257" transform="rotate(-45 148.707 50.2623)" fill="#222F3E" stroke="#222F3E"/>
<path d="M166.087 53.1595H165.212L168.972 43.2064H169.587L169.532 43.8011L166.087 53.1595ZM169.211 43.8011L169.17 43.2064H169.771L173.538 53.1595H172.663L169.211 43.8011ZM172.048 50.3705H166.764V49.6527H172.048V50.3705ZM175.63 56.0033H174.81V45.7631H175.575L175.63 47.1849V56.0033ZM180.771 49.5365C180.771 50.2748 180.659 50.9265 180.436 51.4916C180.217 52.0567 179.896 52.4987 179.472 52.8177C179.052 53.1368 178.544 53.2963 177.947 53.2963C177.355 53.2963 176.849 53.1778 176.43 52.9408C176.015 52.6993 175.687 52.3689 175.445 51.9496C175.204 51.5303 175.044 51.0495 174.967 50.5072V48.6C175.058 48.003 175.227 47.4834 175.473 47.0414C175.719 46.5948 176.045 46.2484 176.45 46.0023C176.86 45.7517 177.355 45.6263 177.934 45.6263C178.535 45.6263 179.046 45.7813 179.465 46.0912C179.889 46.3965 180.212 46.8317 180.436 47.3969C180.659 47.962 180.771 48.6273 180.771 49.3929V49.5365ZM179.943 49.3929C179.943 48.8187 179.864 48.3015 179.704 47.8412C179.549 47.3763 179.31 47.0095 178.986 46.7406C178.663 46.4717 178.25 46.3373 177.749 46.3373C177.357 46.3373 177.022 46.4034 176.744 46.5355C176.471 46.6677 176.243 46.8409 176.061 47.0551C175.883 47.2647 175.742 47.4948 175.637 47.7455C175.532 47.9961 175.454 48.2399 175.404 48.4769V50.6713C175.491 51.0176 175.628 51.3389 175.814 51.6351C176.006 51.9268 176.261 52.1615 176.58 52.3392C176.899 52.517 177.293 52.6058 177.763 52.6058C178.259 52.6058 178.667 52.4691 178.986 52.1957C179.31 51.9222 179.549 51.5554 179.704 51.0951C179.864 50.6302 179.943 50.1107 179.943 49.5365V49.3929ZM183.396 56.0033H182.575V45.7631H183.341L183.396 47.1849V56.0033ZM188.536 49.5365C188.536 50.2748 188.424 50.9265 188.201 51.4916C187.982 52.0567 187.661 52.4987 187.237 52.8177C186.818 53.1368 186.31 53.2963 185.713 53.2963C185.12 53.2963 184.615 53.1778 184.195 52.9408C183.781 52.6993 183.452 52.3689 183.211 51.9496C182.969 51.5303 182.81 51.0495 182.732 50.5072V48.6C182.824 48.003 182.992 47.4834 183.238 47.0414C183.484 46.5948 183.81 46.2484 184.216 46.0023C184.626 45.7517 185.12 45.6263 185.699 45.6263C186.301 45.6263 186.811 45.7813 187.23 46.0912C187.654 46.3965 187.978 46.8317 188.201 47.3969C188.424 47.962 188.536 48.6273 188.536 49.3929V49.5365ZM187.709 49.3929C187.709 48.8187 187.629 48.3015 187.47 47.8412C187.315 47.3763 187.076 47.0095 186.752 46.7406C186.428 46.4717 186.016 46.3373 185.515 46.3373C185.123 46.3373 184.788 46.4034 184.51 46.5355C184.236 46.6677 184.008 46.8409 183.826 47.0551C183.648 47.2647 183.507 47.4948 183.402 47.7455C183.298 47.9961 183.22 48.2399 183.17 48.4769V50.6713C183.257 51.0176 183.393 51.3389 183.58 51.6351C183.771 51.9268 184.027 52.1615 184.346 52.3392C184.665 52.517 185.059 52.6058 185.528 52.6058C186.025 52.6058 186.433 52.4691 186.752 52.1957C187.076 51.9222 187.315 51.5554 187.47 51.0951C187.629 50.6302 187.709 50.1107 187.709 49.5365V49.3929ZM191.168 53.1595H190.348V45.7631H191.147L191.168 46.9867V53.1595ZM193.766 46.4535C193.674 46.4398 193.586 46.4284 193.499 46.4193C193.412 46.4102 193.319 46.4056 193.219 46.4056C192.749 46.4056 192.355 46.5196 192.036 46.7474C191.717 46.9753 191.473 47.2806 191.305 47.6635C191.141 48.0463 191.052 48.4747 191.038 48.9486L190.73 49.058C190.73 48.4154 190.819 47.8366 190.997 47.3217C191.179 46.8021 191.455 46.3897 191.824 46.0844C192.198 45.779 192.672 45.6263 193.246 45.6263C193.351 45.6263 193.453 45.6355 193.554 45.6537C193.659 45.6674 193.736 45.6856 193.786 45.7084L193.766 46.4535ZM194.429 49.3519C194.429 48.6319 194.565 47.9916 194.839 47.431C195.112 46.8705 195.495 46.4307 195.987 46.1117C196.479 45.7881 197.058 45.6263 197.724 45.6263C198.394 45.6263 198.977 45.7881 199.474 46.1117C199.97 46.4307 200.353 46.8705 200.622 47.431C200.896 47.9916 201.032 48.6319 201.032 49.3519V49.5775C201.032 50.293 200.896 50.931 200.622 51.4916C200.353 52.0521 199.97 52.4942 199.474 52.8177C198.981 53.1368 198.403 53.2963 197.737 53.2963C197.067 53.2963 196.484 53.1368 195.987 52.8177C195.495 52.4942 195.112 52.0521 194.839 51.4916C194.565 50.931 194.429 50.293 194.429 49.5775V49.3519ZM195.249 49.5775C195.249 50.1153 195.345 50.6143 195.536 51.0746C195.728 51.5349 196.008 51.9063 196.377 52.1888C196.746 52.4668 197.2 52.6058 197.737 52.6058C198.271 52.6058 198.719 52.4668 199.084 52.1888C199.453 51.9063 199.733 51.5349 199.925 51.0746C200.116 50.6143 200.212 50.1153 200.212 49.5775V49.3519C200.212 48.8187 200.116 48.322 199.925 47.8617C199.733 47.4014 199.453 47.03 199.084 46.7474C198.715 46.4603 198.261 46.3168 197.724 46.3168C197.19 46.3168 196.739 46.4603 196.37 46.7474C196.001 47.03 195.721 47.4014 195.529 47.8617C195.342 48.322 195.249 48.8187 195.249 49.3519V49.5775ZM207.164 45.7631H208.012L205.243 53.1595H204.642L204.799 52.3802L207.164 45.7631ZM205.052 52.4008L205.182 53.1595H204.58L201.805 45.7631H202.652L205.052 52.4008ZM212.216 53.2963C211.573 53.2963 211.001 53.1413 210.5 52.8314C210.003 52.517 209.611 52.0886 209.324 51.5463C209.042 50.9994 208.9 50.3728 208.9 49.6664V49.3724C208.9 48.6114 209.046 47.9506 209.338 47.39C209.634 46.8295 210.021 46.3965 210.5 46.0912C210.983 45.7813 211.505 45.6263 212.065 45.6263C212.694 45.6263 213.228 45.7722 213.665 46.0638C214.103 46.351 214.433 46.7497 214.656 47.2601C214.884 47.7705 214.998 48.3539 214.998 49.0101V49.5092H209.399V48.8187H214.178V48.723C214.169 48.3083 214.084 47.9187 213.925 47.5541C213.77 47.1895 213.537 46.8933 213.228 46.6654C212.918 46.433 212.53 46.3168 212.065 46.3168C211.605 46.3168 211.197 46.4467 210.842 46.7064C210.486 46.9662 210.211 47.3262 210.015 47.7865C209.819 48.2422 209.721 48.7709 209.721 49.3724V49.6664C209.721 50.2133 209.826 50.7077 210.035 51.1498C210.249 51.5918 210.548 51.945 210.931 52.2094C211.313 52.4737 211.753 52.6058 212.25 52.6058C212.688 52.6058 213.075 52.5261 213.412 52.3666C213.749 52.2025 214.052 51.945 214.321 51.5941L214.841 51.9838C214.599 52.3438 214.267 52.6537 213.843 52.9135C213.424 53.1687 212.881 53.2963 212.216 53.2963ZM221.41 42.6595H222.23V53.1595H221.465L221.41 51.724V42.6595ZM216.276 49.3929C216.276 48.6273 216.393 47.962 216.625 47.3969C216.857 46.8317 217.186 46.3965 217.609 46.0912C218.038 45.7813 218.546 45.6263 219.134 45.6263C219.708 45.6263 220.196 45.7517 220.597 46.0023C220.998 46.2484 221.317 46.5948 221.554 47.0414C221.795 47.4834 221.959 48.003 222.046 48.6V50.4525C221.973 50.9994 221.818 51.487 221.581 51.9154C221.344 52.3438 221.021 52.681 220.61 52.9271C220.205 53.1732 219.708 53.2963 219.12 53.2963C218.537 53.2963 218.031 53.1368 217.603 52.8177C217.179 52.4987 216.851 52.0567 216.618 51.4916C216.39 50.9265 216.276 50.2748 216.276 49.5365V49.3929ZM217.097 49.5365C217.097 50.1107 217.174 50.628 217.329 51.0883C217.484 51.544 217.721 51.9086 218.04 52.182C218.364 52.4509 218.774 52.5853 219.271 52.5853C219.74 52.5853 220.134 52.4965 220.453 52.3187C220.772 52.1364 221.027 51.8972 221.219 51.601C221.41 51.3002 221.549 50.9698 221.636 50.6097V48.4769C221.581 48.2399 221.501 47.9961 221.396 47.7455C221.292 47.4948 221.148 47.2647 220.966 47.0551C220.788 46.8409 220.56 46.6677 220.282 46.5355C220.009 46.4034 219.676 46.3373 219.284 46.3373C218.783 46.3373 218.37 46.4717 218.047 46.7406C217.723 47.0095 217.484 47.3763 217.329 47.8412C217.174 48.3015 217.097 48.8187 217.097 49.3929V49.5365ZM225.881 50.391C225.885 50.0036 225.924 49.6755 225.997 49.4066C226.07 49.1377 226.186 48.8894 226.346 48.6615C226.51 48.4336 226.731 48.183 227.009 47.9095C227.255 47.668 227.471 47.4447 227.658 47.2396C227.845 47.03 227.991 46.8021 228.096 46.556C228.205 46.3054 228.26 45.9955 228.26 45.6263C228.26 45.084 228.114 44.6442 227.822 44.307C227.535 43.9652 227.107 43.7943 226.537 43.7943C226.008 43.7943 225.571 43.9493 225.225 44.2592C224.883 44.5645 224.71 44.9883 224.705 45.5306H223.885C223.894 45.0111 224.017 44.5691 224.254 44.2045C224.495 43.8353 224.814 43.5551 225.211 43.3636C225.612 43.1677 226.054 43.0697 226.537 43.0697C227.353 43.0697 227.979 43.3067 228.417 43.7806C228.859 44.25 229.08 44.863 229.08 45.6195C229.08 46.0251 229.012 46.392 228.875 46.7201C228.738 47.0437 228.549 47.349 228.308 47.6361C228.066 47.9232 227.788 48.2126 227.474 48.5043C227.177 48.7504 226.975 49.0352 226.865 49.3588C226.756 49.6823 226.701 50.0264 226.701 50.391H225.881ZM225.771 52.6742C225.771 52.5238 225.822 52.3962 225.922 52.2914C226.022 52.182 226.159 52.1273 226.332 52.1273C226.51 52.1273 226.649 52.182 226.749 52.2914C226.849 52.3962 226.899 52.5238 226.899 52.6742C226.899 52.8291 226.849 52.959 226.749 53.0638C226.649 53.1641 226.51 53.2142 226.332 53.2142C226.159 53.2142 226.022 53.1641 225.922 53.0638C225.822 52.959 225.771 52.8291 225.771 52.6742Z" fill="white"/>
</svg>
