<svg width="565" height="99" viewBox="0 0 565 99" fill="none" xmlns="http://www.w3.org/2000/svg">
<rect x="0.5" y="10.5" width="104" height="77" rx="19.5" fill="white" stroke="#222F3E"/>
<rect x="460.5" y="10.5" width="104" height="77" rx="19.5" fill="white" stroke="#222F3E"/>
<path d="M24.544 42.168C23.2 42.168 22.0753 41.72 21.17 40.824C20.2647 39.9187 19.812 38.7567 19.812 37.338C19.812 35.9193 20.2647 34.762 21.17 33.866C22.0753 32.9607 23.2 32.508 24.544 32.508C25.9253 32.508 27.0593 33.0587 27.946 34.16L27.274 34.594C26.9753 34.1833 26.5833 33.8567 26.098 33.614C25.6127 33.362 25.0947 33.236 24.544 33.236C23.4333 33.236 22.5047 33.6187 21.758 34.384C21.0207 35.1493 20.652 36.134 20.652 37.338C20.652 38.5327 21.0207 39.5173 21.758 40.292C22.5047 41.0573 23.4333 41.44 24.544 41.44C25.0947 41.44 25.6127 41.3187 26.098 41.076C26.5833 40.824 26.9753 40.4927 27.274 40.082L27.946 40.502C27.05 41.6127 25.916 42.168 24.544 42.168ZM32.3963 42.168C31.4256 42.168 30.6416 41.8273 30.0443 41.146C29.4469 40.4647 29.1483 39.62 29.1483 38.612C29.1483 37.604 29.4469 36.764 30.0443 36.092C30.6416 35.4107 31.4256 35.07 32.3963 35.07C33.3763 35.07 34.1649 35.4107 34.7623 36.092C35.3596 36.764 35.6583 37.604 35.6583 38.612C35.6583 39.62 35.3596 40.4647 34.7623 41.146C34.1649 41.8273 33.3763 42.168 32.3963 42.168ZM32.3963 41.51C33.1616 41.51 33.7636 41.23 34.2023 40.67C34.6503 40.1007 34.8743 39.4147 34.8743 38.612C34.8743 37.8187 34.6503 37.142 34.2023 36.582C33.7636 36.0127 33.1616 35.728 32.3963 35.728C31.6403 35.728 31.0383 36.0127 30.5903 36.582C30.1516 37.142 29.9323 37.8187 29.9323 38.612C29.9323 39.4053 30.1516 40.0867 30.5903 40.656C31.0383 41.2253 31.6403 41.51 32.3963 41.51ZM46.3163 42H45.5883V37.268C45.5883 36.2413 45.1356 35.728 44.2303 35.728C43.8756 35.728 43.5116 35.84 43.1383 36.064C42.7743 36.288 42.4943 36.5587 42.2983 36.876V42H41.5563V37.268C41.5563 36.2413 41.1036 35.728 40.1983 35.728C39.853 35.728 39.4983 35.8447 39.1343 36.078C38.7703 36.302 38.481 36.5727 38.2663 36.89V42H37.5383V35.238H38.2663V36.26C38.4343 35.9893 38.7283 35.7233 39.1483 35.462C39.5776 35.2007 40.0116 35.07 40.4503 35.07C40.945 35.07 41.3416 35.1913 41.6403 35.434C41.939 35.6767 42.135 35.98 42.2283 36.344C42.4336 36.008 42.7463 35.714 43.1663 35.462C43.5863 35.2007 44.0203 35.07 44.4683 35.07C45.7003 35.07 46.3163 35.756 46.3163 37.128V42ZM51.6652 42.168C50.6945 42.168 49.9105 41.748 49.3132 40.908V44.576H48.5852V35.238H49.3132V36.302C49.5652 35.938 49.8965 35.644 50.3072 35.42C50.7272 35.1867 51.1798 35.07 51.6652 35.07C52.5705 35.07 53.2985 35.392 53.8492 36.036C54.4092 36.6707 54.6892 37.5293 54.6892 38.612C54.6892 39.6853 54.4092 40.5487 53.8492 41.202C53.2985 41.846 52.5705 42.168 51.6652 42.168ZM51.5392 41.51C52.2765 41.51 52.8552 41.2393 53.2752 40.698C53.6952 40.1567 53.9052 39.4613 53.9052 38.612C53.9052 37.772 53.6952 37.0813 53.2752 36.54C52.8552 35.9987 52.2765 35.728 51.5392 35.728C51.0818 35.728 50.6478 35.8447 50.2372 36.078C49.8265 36.3113 49.5185 36.596 49.3132 36.932V40.278C49.5185 40.614 49.8265 40.9033 50.2372 41.146C50.6572 41.3887 51.0912 41.51 51.5392 41.51ZM57.2565 42H56.5285V32.662H57.2565V42ZM62.5187 42.168C61.5293 42.168 60.7173 41.8367 60.0827 41.174C59.448 40.5113 59.1307 39.6573 59.1307 38.612C59.1307 37.6227 59.4387 36.7873 60.0547 36.106C60.68 35.4153 61.4593 35.07 62.3927 35.07C63.382 35.07 64.1613 35.4153 64.7307 36.106C65.3 36.7873 65.5847 37.6367 65.5847 38.654V38.85H59.9287C59.966 39.6153 60.2227 40.2547 60.6987 40.768C61.1747 41.2813 61.8 41.538 62.5747 41.538C63.4707 41.538 64.208 41.2253 64.7867 40.6L65.1647 41.076C64.4647 41.804 63.5827 42.168 62.5187 42.168ZM64.8427 38.276C64.8333 37.6227 64.614 37.03 64.1847 36.498C63.7647 35.966 63.1627 35.7 62.3787 35.7C61.6413 35.7 61.0533 35.966 60.6147 36.498C60.1853 37.0207 59.9567 37.6133 59.9287 38.276H64.8427ZM68.936 42.168C68.0494 42.168 67.606 41.678 67.606 40.698V35.882H66.486V35.238H67.606V33.39H68.348V35.238H69.72V35.882H68.348V40.586C68.348 41.202 68.5814 41.51 69.048 41.51C69.356 41.51 69.608 41.4027 69.804 41.188L70.084 41.748C69.7854 42.028 69.4027 42.168 68.936 42.168ZM74.3175 42.168C73.3282 42.168 72.5162 41.8367 71.8815 41.174C71.2468 40.5113 70.9295 39.6573 70.9295 38.612C70.9295 37.6227 71.2375 36.7873 71.8535 36.106C72.4788 35.4153 73.2582 35.07 74.1915 35.07C75.1808 35.07 75.9602 35.4153 76.5295 36.106C77.0988 36.7873 77.3835 37.6367 77.3835 38.654V38.85H71.7275C71.7648 39.6153 72.0215 40.2547 72.4975 40.768C72.9735 41.2813 73.5988 41.538 74.3735 41.538C75.2695 41.538 76.0068 41.2253 76.5855 40.6L76.9635 41.076C76.2635 41.804 75.3815 42.168 74.3175 42.168ZM76.6415 38.276C76.6322 37.6227 76.4128 37.03 75.9835 36.498C75.5635 35.966 74.9615 35.7 74.1775 35.7C73.4402 35.7 72.8522 35.966 72.4135 36.498C71.9842 37.0207 71.7555 37.6133 71.7275 38.276H76.6415ZM25.16 65H24.432V64.202C23.844 64.846 23.0787 65.168 22.136 65.168C21.5107 65.168 20.96 64.9673 20.484 64.566C20.008 64.1553 19.77 63.6047 19.77 62.914C19.77 62.214 20.0033 61.668 20.47 61.276C20.946 60.8747 21.5013 60.674 22.136 60.674C23.088 60.674 23.8533 60.996 24.432 61.64V60.268C24.432 59.7827 24.2593 59.4047 23.914 59.134C23.5687 58.854 23.1347 58.714 22.612 58.714C21.7813 58.714 21.0767 59.0453 20.498 59.708L20.092 59.204C20.792 58.448 21.66 58.07 22.696 58.07C23.424 58.07 24.0167 58.252 24.474 58.616C24.9313 58.98 25.16 59.5213 25.16 60.24V65ZM22.388 64.594C23.2747 64.594 23.956 64.286 24.432 63.67V62.186C23.9467 61.5607 23.2653 61.248 22.388 61.248C21.8373 61.248 21.3893 61.4067 21.044 61.724C20.708 62.0413 20.54 62.4427 20.54 62.928C20.54 63.4133 20.708 63.8147 21.044 64.132C21.3893 64.44 21.8373 64.594 22.388 64.594ZM30.5148 65.168C29.5441 65.168 28.7601 64.748 28.1628 63.908V67.576H27.4348V58.238H28.1628V59.302C28.4148 58.938 28.7461 58.644 29.1568 58.42C29.5768 58.1867 30.0294 58.07 30.5148 58.07C31.4201 58.07 32.1481 58.392 32.6988 59.036C33.2588 59.6707 33.5388 60.5293 33.5388 61.612C33.5388 62.6853 33.2588 63.5487 32.6988 64.202C32.1481 64.846 31.4201 65.168 30.5148 65.168ZM30.3888 64.51C31.1261 64.51 31.7048 64.2393 32.1248 63.698C32.5448 63.1567 32.7548 62.4613 32.7548 61.612C32.7548 60.772 32.5448 60.0813 32.1248 59.54C31.7048 58.9987 31.1261 58.728 30.3888 58.728C29.9314 58.728 29.4974 58.8447 29.0868 59.078C28.6761 59.3113 28.3681 59.596 28.1628 59.932V63.278C28.3681 63.614 28.6761 63.9033 29.0868 64.146C29.5068 64.3887 29.9408 64.51 30.3888 64.51ZM38.4581 65.168C37.4875 65.168 36.7035 64.748 36.1061 63.908V67.576H35.3781V58.238H36.1061V59.302C36.3581 58.938 36.6895 58.644 37.1001 58.42C37.5201 58.1867 37.9728 58.07 38.4581 58.07C39.3635 58.07 40.0915 58.392 40.6421 59.036C41.2021 59.6707 41.4821 60.5293 41.4821 61.612C41.4821 62.6853 41.2021 63.5487 40.6421 64.202C40.0915 64.846 39.3635 65.168 38.4581 65.168ZM38.3321 64.51C39.0695 64.51 39.6481 64.2393 40.0681 63.698C40.4881 63.1567 40.6981 62.4613 40.6981 61.612C40.6981 60.772 40.4881 60.0813 40.0681 59.54C39.6481 58.9987 39.0695 58.728 38.3321 58.728C37.8748 58.728 37.4408 58.8447 37.0301 59.078C36.6195 59.3113 36.3115 59.596 36.1061 59.932V63.278C36.3115 63.614 36.6195 63.9033 37.0301 64.146C37.4501 64.3887 37.8841 64.51 38.3321 64.51ZM44.0495 65H43.3215V55.662H44.0495V65ZM46.6796 57.174C46.5303 57.174 46.3996 57.118 46.2876 57.006C46.1756 56.894 46.1196 56.7633 46.1196 56.614C46.1196 56.4647 46.1756 56.3387 46.2876 56.236C46.3996 56.124 46.5303 56.068 46.6796 56.068C46.8383 56.068 46.969 56.124 47.0716 56.236C47.1836 56.3387 47.2396 56.4647 47.2396 56.614C47.2396 56.7727 47.1836 56.908 47.0716 57.02C46.969 57.1227 46.8383 57.174 46.6796 57.174ZM47.0436 65H46.3156V58.238H47.0436V65ZM52.2078 65.168C51.2278 65.168 50.4344 64.8273 49.8278 64.146C49.2211 63.4647 48.9178 62.62 48.9178 61.612C48.9178 60.604 49.2211 59.764 49.8278 59.092C50.4344 58.4107 51.2278 58.07 52.2078 58.07C53.1971 58.07 53.9951 58.4527 54.6018 59.218L54.0978 59.666C53.6404 59.0407 53.0244 58.728 52.2498 58.728C51.4751 58.728 50.8544 59.0033 50.3878 59.554C49.9304 60.0953 49.7018 60.7813 49.7018 61.612C49.7018 62.4427 49.9304 63.1333 50.3878 63.684C50.8544 64.2347 51.4751 64.51 52.2498 64.51C53.0151 64.51 53.6311 64.1927 54.0978 63.558L54.6018 64.006C53.9951 64.7807 53.1971 65.168 52.2078 65.168ZM61.2538 65H60.5258V64.202C59.9378 64.846 59.1724 65.168 58.2298 65.168C57.6044 65.168 57.0538 64.9673 56.5778 64.566C56.1018 64.1553 55.8638 63.6047 55.8638 62.914C55.8638 62.214 56.0971 61.668 56.5638 61.276C57.0398 60.8747 57.5951 60.674 58.2298 60.674C59.1818 60.674 59.9471 60.996 60.5258 61.64V60.268C60.5258 59.7827 60.3531 59.4047 60.0078 59.134C59.6624 58.854 59.2284 58.714 58.7058 58.714C57.8751 58.714 57.1704 59.0453 56.5918 59.708L56.1858 59.204C56.8858 58.448 57.7538 58.07 58.7897 58.07C59.5178 58.07 60.1104 58.252 60.5678 58.616C61.0251 58.98 61.2538 59.5213 61.2538 60.24V65ZM58.4818 64.594C59.3684 64.594 60.0498 64.286 60.5258 63.67V62.186C60.0404 61.5607 59.3591 61.248 58.4818 61.248C57.9311 61.248 57.4831 61.4067 57.1378 61.724C56.8018 62.0413 56.6338 62.4427 56.6338 62.928C56.6338 63.4133 56.8018 63.8147 57.1378 64.132C57.4831 64.44 57.9311 64.594 58.4818 64.594ZM64.9985 65.168C64.1119 65.168 63.6685 64.678 63.6685 63.698V58.882H62.5485V58.238H63.6685V56.39H64.4105V58.238H65.7825V58.882H64.4105V63.586C64.4105 64.202 64.6439 64.51 65.1105 64.51C65.4185 64.51 65.6705 64.4027 65.8665 64.188L66.1465 64.748C65.8479 65.028 65.4652 65.168 64.9985 65.168ZM67.748 57.174C67.5987 57.174 67.468 57.118 67.356 57.006C67.244 56.894 67.188 56.7633 67.188 56.614C67.188 56.4647 67.244 56.3387 67.356 56.236C67.468 56.124 67.5987 56.068 67.748 56.068C67.9067 56.068 68.0373 56.124 68.14 56.236C68.252 56.3387 68.308 56.4647 68.308 56.614C68.308 56.7727 68.252 56.908 68.14 57.02C68.0373 57.1227 67.9067 57.174 67.748 57.174ZM68.112 65H67.384V58.238H68.112V65ZM73.2341 65.168C72.2635 65.168 71.4795 64.8273 70.8821 64.146C70.2848 63.4647 69.9861 62.62 69.9861 61.612C69.9861 60.604 70.2848 59.764 70.8821 59.092C71.4795 58.4107 72.2635 58.07 73.2341 58.07C74.2141 58.07 75.0028 58.4107 75.6001 59.092C76.1975 59.764 76.4961 60.604 76.4961 61.612C76.4961 62.62 76.1975 63.4647 75.6001 64.146C75.0028 64.8273 74.2141 65.168 73.2341 65.168ZM73.2341 64.51C73.9995 64.51 74.6015 64.23 75.0401 63.67C75.4881 63.1007 75.7121 62.4147 75.7121 61.612C75.7121 60.8187 75.4881 60.142 75.0401 59.582C74.6015 59.0127 73.9995 58.728 73.2341 58.728C72.4781 58.728 71.8761 59.0127 71.4281 59.582C70.9895 60.142 70.7701 60.8187 70.7701 61.612C70.7701 62.4053 70.9895 63.0867 71.4281 63.656C71.8761 64.2253 72.4781 64.51 73.2341 64.51ZM83.6682 65H82.9402V60.422C82.9402 59.806 82.8002 59.372 82.5202 59.12C82.2402 58.8587 81.8342 58.728 81.3022 58.728C80.8822 58.728 80.4669 58.84 80.0562 59.064C79.6455 59.288 79.3282 59.5633 79.1042 59.89V65H78.3762V58.238H79.1042V59.26C79.3749 58.9427 79.7342 58.6673 80.1822 58.434C80.6302 58.1913 81.0829 58.07 81.5402 58.07C82.9589 58.07 83.6682 58.8027 83.6682 60.268V65Z" fill="#1F1F1F"/>
<rect x="290.5" y="10.5" width="126" height="77" rx="19.5" fill="white" stroke="#222F3E"/>
<path d="M310.602 42H309.636L307.018 38.136H304.96V42H304.162V32.662H307.648C308.469 32.662 309.146 32.9093 309.678 33.404C310.219 33.8987 310.49 34.5613 310.49 35.392C310.49 36.204 310.238 36.848 309.734 37.324C309.239 37.8 308.628 38.052 307.9 38.08L310.602 42ZM307.578 37.408C308.194 37.408 308.693 37.2213 309.076 36.848C309.459 36.4653 309.65 35.98 309.65 35.392C309.65 34.804 309.459 34.3233 309.076 33.95C308.693 33.5767 308.194 33.39 307.578 33.39H304.96V37.408H307.578ZM315.019 42.168C314.029 42.168 313.217 41.8367 312.583 41.174C311.948 40.5113 311.631 39.6573 311.631 38.612C311.631 37.6227 311.939 36.7873 312.555 36.106C313.18 35.4153 313.959 35.07 314.893 35.07C315.882 35.07 316.661 35.4153 317.231 36.106C317.8 36.7873 318.085 37.6367 318.085 38.654V38.85H312.429C312.466 39.6153 312.723 40.2547 313.199 40.768C313.675 41.2813 314.3 41.538 315.075 41.538C315.971 41.538 316.708 41.2253 317.287 40.6L317.665 41.076C316.965 41.804 316.083 42.168 315.019 42.168ZM317.343 38.276C317.333 37.6227 317.114 37.03 316.685 36.498C316.265 35.966 315.663 35.7 314.879 35.7C314.141 35.7 313.553 35.966 313.115 36.498C312.685 37.0207 312.457 37.6133 312.429 38.276H317.343ZM322.864 42.168C321.884 42.168 321.091 41.8273 320.484 41.146C319.877 40.4647 319.574 39.62 319.574 38.612C319.574 37.604 319.877 36.764 320.484 36.092C321.091 35.4107 321.884 35.07 322.864 35.07C323.853 35.07 324.651 35.4527 325.258 36.218L324.754 36.666C324.297 36.0407 323.681 35.728 322.906 35.728C322.131 35.728 321.511 36.0033 321.044 36.554C320.587 37.0953 320.358 37.7813 320.358 38.612C320.358 39.4427 320.587 40.1333 321.044 40.684C321.511 41.2347 322.131 41.51 322.906 41.51C323.671 41.51 324.287 41.1927 324.754 40.558L325.258 41.006C324.651 41.7807 323.853 42.168 322.864 42.168ZM329.88 42.168C328.891 42.168 328.079 41.8367 327.444 41.174C326.809 40.5113 326.492 39.6573 326.492 38.612C326.492 37.6227 326.8 36.7873 327.416 36.106C328.041 35.4153 328.821 35.07 329.754 35.07C330.743 35.07 331.523 35.4153 332.092 36.106C332.661 36.7873 332.946 37.6367 332.946 38.654V38.85H327.29C327.327 39.6153 327.584 40.2547 328.06 40.768C328.536 41.2813 329.161 41.538 329.936 41.538C330.832 41.538 331.569 41.2253 332.148 40.6L332.526 41.076C331.826 41.804 330.944 42.168 329.88 42.168ZM332.204 38.276C332.195 37.6227 331.975 37.03 331.546 36.498C331.126 35.966 330.524 35.7 329.74 35.7C329.003 35.7 328.415 35.966 327.976 36.498C327.547 37.0207 327.318 37.6133 327.29 38.276H332.204ZM335.191 34.174C335.042 34.174 334.911 34.118 334.799 34.006C334.687 33.894 334.631 33.7633 334.631 33.614C334.631 33.4647 334.687 33.3387 334.799 33.236C334.911 33.124 335.042 33.068 335.191 33.068C335.35 33.068 335.481 33.124 335.583 33.236C335.695 33.3387 335.751 33.4647 335.751 33.614C335.751 33.7727 335.695 33.908 335.583 34.02C335.481 34.1227 335.35 34.174 335.191 34.174ZM335.555 42H334.827V35.238H335.555V42ZM340.468 42H339.642L336.786 35.238H337.598L340.062 41.146L342.498 35.238H343.324L340.468 42ZM347.558 42.168C346.568 42.168 345.756 41.8367 345.122 41.174C344.487 40.5113 344.17 39.6573 344.17 38.612C344.17 37.6227 344.478 36.7873 345.094 36.106C345.719 35.4153 346.498 35.07 347.432 35.07C348.421 35.07 349.2 35.4153 349.77 36.106C350.339 36.7873 350.624 37.6367 350.624 38.654V38.85H344.968C345.005 39.6153 345.262 40.2547 345.738 40.768C346.214 41.2813 346.839 41.538 347.614 41.538C348.51 41.538 349.247 41.2253 349.826 40.6L350.204 41.076C349.504 41.804 348.622 42.168 347.558 42.168ZM349.882 38.276C349.872 37.6227 349.653 37.03 349.224 36.498C348.804 35.966 348.202 35.7 347.418 35.7C346.68 35.7 346.092 35.966 345.654 36.498C345.224 37.0207 344.996 37.6133 344.968 38.276H349.882ZM356.954 42H356.156V32.662H359.656C360.524 32.662 361.21 32.928 361.714 33.46C362.218 33.9827 362.47 34.6267 362.47 35.392C362.47 36.1573 362.213 36.806 361.7 37.338C361.196 37.8607 360.515 38.122 359.656 38.122H356.954V42ZM359.572 37.394C360.188 37.394 360.683 37.2073 361.056 36.834C361.439 36.4607 361.63 35.98 361.63 35.392C361.63 34.804 361.439 34.3233 361.056 33.95C360.683 33.5767 360.188 33.39 359.572 33.39H356.954V37.394H359.572ZM364.854 42H364.126V35.238H364.854V36.4C365.517 35.532 366.278 35.098 367.136 35.098V35.896C367.052 35.8773 366.931 35.868 366.772 35.868C366.436 35.868 366.072 35.994 365.68 36.246C365.288 36.498 365.013 36.7733 364.854 37.072V42ZM371.426 42.168C370.455 42.168 369.671 41.8273 369.074 41.146C368.476 40.4647 368.178 39.62 368.178 38.612C368.178 37.604 368.476 36.764 369.074 36.092C369.671 35.4107 370.455 35.07 371.426 35.07C372.406 35.07 373.194 35.4107 373.792 36.092C374.389 36.764 374.688 37.604 374.688 38.612C374.688 39.62 374.389 40.4647 373.792 41.146C373.194 41.8273 372.406 42.168 371.426 42.168ZM371.426 41.51C372.191 41.51 372.793 41.23 373.232 40.67C373.68 40.1007 373.904 39.4147 373.904 38.612C373.904 37.8187 373.68 37.142 373.232 36.582C372.793 36.0127 372.191 35.728 371.426 35.728C370.67 35.728 370.068 36.0127 369.62 36.582C369.181 37.142 368.962 37.8187 368.962 38.612C368.962 39.4053 369.181 40.0867 369.62 40.656C370.068 41.2253 370.67 41.51 371.426 41.51ZM379.214 42H378.388L375.532 35.238H376.344L378.808 41.146L381.244 35.238H382.07L379.214 42ZM383.672 34.174C383.522 34.174 383.392 34.118 383.28 34.006C383.168 33.894 383.112 33.7633 383.112 33.614C383.112 33.4647 383.168 33.3387 383.28 33.236C383.392 33.124 383.522 33.068 383.672 33.068C383.83 33.068 383.961 33.124 384.064 33.236C384.176 33.3387 384.232 33.4647 384.232 33.614C384.232 33.7727 384.176 33.908 384.064 34.02C383.961 34.1227 383.83 34.174 383.672 34.174ZM384.036 42H383.308V35.238H384.036V42ZM392.028 42H391.286V40.922C391.034 41.286 390.698 41.5847 390.278 41.818C389.867 42.0513 389.419 42.168 388.934 42.168C388.029 42.168 387.296 41.846 386.736 41.202C386.185 40.558 385.91 39.6993 385.91 38.626C385.91 37.562 386.19 36.7033 386.75 36.05C387.31 35.3967 388.038 35.07 388.934 35.07C389.905 35.07 390.689 35.49 391.286 36.33V32.662H392.028V42ZM389.06 41.51C389.517 41.51 389.951 41.3933 390.362 41.16C390.773 40.9267 391.081 40.642 391.286 40.306V36.96C391.081 36.6147 390.773 36.3253 390.362 36.092C389.951 35.8493 389.517 35.728 389.06 35.728C388.332 35.728 387.753 36.0033 387.324 36.554C386.904 37.0953 386.694 37.786 386.694 38.626C386.694 39.466 386.904 40.1567 387.324 40.698C387.753 41.2393 388.332 41.51 389.06 41.51ZM397.296 42.168C396.307 42.168 395.495 41.8367 394.86 41.174C394.225 40.5113 393.908 39.6573 393.908 38.612C393.908 37.6227 394.216 36.7873 394.832 36.106C395.457 35.4153 396.237 35.07 397.17 35.07C398.159 35.07 398.939 35.4153 399.508 36.106C400.077 36.7873 400.362 37.6367 400.362 38.654V38.85H394.706C394.743 39.6153 395 40.2547 395.476 40.768C395.952 41.2813 396.577 41.538 397.352 41.538C398.248 41.538 398.985 41.2253 399.564 40.6L399.942 41.076C399.242 41.804 398.36 42.168 397.296 42.168ZM399.62 38.276C399.611 37.6227 399.391 37.03 398.962 36.498C398.542 35.966 397.94 35.7 397.156 35.7C396.419 35.7 395.831 35.966 395.392 36.498C394.963 37.0207 394.734 37.6133 394.706 38.276H399.62ZM402.971 42H402.243V35.238H402.971V36.4C403.634 35.532 404.395 35.098 405.253 35.098V35.896C405.169 35.8773 405.048 35.868 404.889 35.868C404.553 35.868 404.189 35.994 403.797 36.246C403.405 36.498 403.13 36.7733 402.971 37.072V42ZM310.63 65H309.93L308.04 59.218L306.136 65H305.436L303.238 58.238H304.022L305.814 63.978L307.718 58.238H308.348L310.252 63.978L312.044 58.238H312.828L310.63 65ZM317.193 65.168C316.203 65.168 315.391 64.8367 314.757 64.174C314.122 63.5113 313.805 62.6573 313.805 61.612C313.805 60.6227 314.113 59.7873 314.729 59.106C315.354 58.4153 316.133 58.07 317.067 58.07C318.056 58.07 318.835 58.4153 319.405 59.106C319.974 59.7873 320.258 60.6367 320.258 61.654V61.85H314.603C314.64 62.6153 314.897 63.2547 315.373 63.768C315.849 64.2813 316.474 64.538 317.249 64.538C318.145 64.538 318.882 64.2253 319.461 63.6L319.839 64.076C319.139 64.804 318.257 65.168 317.193 65.168ZM319.517 61.276C319.507 60.6227 319.288 60.03 318.859 59.498C318.439 58.966 317.837 58.7 317.053 58.7C316.315 58.7 315.727 58.966 315.289 59.498C314.859 60.0207 314.631 60.6133 314.603 61.276H319.517ZM322.868 65H322.14V55.662H322.868V65ZM328.032 65.168C327.052 65.168 326.259 64.8273 325.652 64.146C325.045 63.4647 324.742 62.62 324.742 61.612C324.742 60.604 325.045 59.764 325.652 59.092C326.259 58.4107 327.052 58.07 328.032 58.07C329.021 58.07 329.819 58.4527 330.426 59.218L329.922 59.666C329.465 59.0407 328.849 58.728 328.074 58.728C327.299 58.728 326.679 59.0033 326.212 59.554C325.755 60.0953 325.526 60.7813 325.526 61.612C325.526 62.4427 325.755 63.1333 326.212 63.684C326.679 64.2347 327.299 64.51 328.074 64.51C328.839 64.51 329.455 64.1927 329.922 63.558L330.426 64.006C329.819 64.7807 329.021 65.168 328.032 65.168ZM334.908 65.168C333.937 65.168 333.153 64.8273 332.556 64.146C331.959 63.4647 331.66 62.62 331.66 61.612C331.66 60.604 331.959 59.764 332.556 59.092C333.153 58.4107 333.937 58.07 334.908 58.07C335.888 58.07 336.677 58.4107 337.274 59.092C337.871 59.764 338.17 60.604 338.17 61.612C338.17 62.62 337.871 63.4647 337.274 64.146C336.677 64.8273 335.888 65.168 334.908 65.168ZM334.908 64.51C335.673 64.51 336.275 64.23 336.714 63.67C337.162 63.1007 337.386 62.4147 337.386 61.612C337.386 60.8187 337.162 60.142 336.714 59.582C336.275 59.0127 335.673 58.728 334.908 58.728C334.152 58.728 333.55 59.0127 333.102 59.582C332.663 60.142 332.444 60.8187 332.444 61.612C332.444 62.4053 332.663 63.0867 333.102 63.656C333.55 64.2253 334.152 64.51 334.908 64.51ZM348.828 65H348.1V60.268C348.1 59.2413 347.647 58.728 346.742 58.728C346.387 58.728 346.023 58.84 345.65 59.064C345.286 59.288 345.006 59.5587 344.81 59.876V65H344.068V60.268C344.068 59.2413 343.615 58.728 342.71 58.728C342.365 58.728 342.01 58.8447 341.646 59.078C341.282 59.302 340.993 59.5727 340.778 59.89V65H340.05V58.238H340.778V59.26C340.946 58.9893 341.24 58.7233 341.66 58.462C342.089 58.2007 342.523 58.07 342.962 58.07C343.457 58.07 343.853 58.1913 344.152 58.434C344.451 58.6767 344.647 58.98 344.74 59.344C344.945 59.008 345.258 58.714 345.678 58.462C346.098 58.2007 346.532 58.07 346.98 58.07C348.212 58.07 348.828 58.756 348.828 60.128V65ZM354.093 65.168C353.104 65.168 352.292 64.8367 351.657 64.174C351.022 63.5113 350.705 62.6573 350.705 61.612C350.705 60.6227 351.013 59.7873 351.629 59.106C352.254 58.4153 353.034 58.07 353.967 58.07C354.956 58.07 355.736 58.4153 356.305 59.106C356.874 59.7873 357.159 60.6367 357.159 61.654V61.85H351.503C351.54 62.6153 351.797 63.2547 352.273 63.768C352.749 64.2813 353.374 64.538 354.149 64.538C355.045 64.538 355.782 64.2253 356.361 63.6L356.739 64.076C356.039 64.804 355.157 65.168 354.093 65.168ZM356.417 61.276C356.408 60.6227 356.188 60.03 355.759 59.498C355.339 58.966 354.737 58.7 353.953 58.7C353.216 58.7 352.628 58.966 352.189 59.498C351.76 60.0207 351.531 60.6133 351.503 61.276H356.417ZM365.659 65.168C364.67 65.168 363.858 64.8367 363.223 64.174C362.589 63.5113 362.271 62.6573 362.271 61.612C362.271 60.6227 362.579 59.7873 363.195 59.106C363.821 58.4153 364.6 58.07 365.533 58.07C366.523 58.07 367.302 58.4153 367.871 59.106C368.441 59.7873 368.725 60.6367 368.725 61.654V61.85H363.069C363.107 62.6153 363.363 63.2547 363.839 63.768C364.315 64.2813 364.941 64.538 365.715 64.538C366.611 64.538 367.349 64.2253 367.927 63.6L368.305 64.076C367.605 64.804 366.723 65.168 365.659 65.168ZM367.983 61.276C367.974 60.6227 367.755 60.03 367.325 59.498C366.905 58.966 366.303 58.7 365.519 58.7C364.782 58.7 364.194 58.966 363.755 59.498C363.326 60.0207 363.097 60.6133 363.069 61.276H367.983ZM379.385 65H378.657V60.268C378.657 59.2413 378.204 58.728 377.299 58.728C376.944 58.728 376.58 58.84 376.207 59.064C375.843 59.288 375.563 59.5587 375.367 59.876V65H374.625V60.268C374.625 59.2413 374.172 58.728 373.267 58.728C372.921 58.728 372.567 58.8447 372.203 59.078C371.839 59.302 371.549 59.5727 371.335 59.89V65H370.607V58.238H371.335V59.26C371.503 58.9893 371.797 58.7233 372.217 58.462C372.646 58.2007 373.08 58.07 373.519 58.07C374.013 58.07 374.41 58.1913 374.709 58.434C375.007 58.6767 375.203 58.98 375.297 59.344C375.502 59.008 375.815 58.714 376.235 58.462C376.655 58.2007 377.089 58.07 377.537 58.07C378.769 58.07 379.385 58.756 379.385 60.128V65ZM386.68 65H385.952V64.202C385.364 64.846 384.598 65.168 383.656 65.168C383.03 65.168 382.48 64.9673 382.004 64.566C381.528 64.1553 381.29 63.6047 381.29 62.914C381.29 62.214 381.523 61.668 381.99 61.276C382.466 60.8747 383.021 60.674 383.656 60.674C384.608 60.674 385.373 60.996 385.952 61.64V60.268C385.952 59.7827 385.779 59.4047 385.434 59.134C385.088 58.854 384.654 58.714 384.132 58.714C383.301 58.714 382.596 59.0453 382.018 59.708L381.612 59.204C382.312 58.448 383.18 58.07 384.216 58.07C384.944 58.07 385.536 58.252 385.994 58.616C386.451 58.98 386.68 59.5213 386.68 60.24V65ZM383.908 64.594C384.794 64.594 385.476 64.286 385.952 63.67V62.186C385.466 61.5607 384.785 61.248 383.908 61.248C383.357 61.248 382.909 61.4067 382.564 61.724C382.228 62.0413 382.06 62.4427 382.06 62.928C382.06 63.4133 382.228 63.8147 382.564 64.132C382.909 64.44 383.357 64.594 383.908 64.594ZM389.318 57.174C389.169 57.174 389.038 57.118 388.926 57.006C388.814 56.894 388.758 56.7633 388.758 56.614C388.758 56.4647 388.814 56.3387 388.926 56.236C389.038 56.124 389.169 56.068 389.318 56.068C389.477 56.068 389.608 56.124 389.71 56.236C389.822 56.3387 389.878 56.4647 389.878 56.614C389.878 56.7727 389.822 56.908 389.71 57.02C389.608 57.1227 389.477 57.174 389.318 57.174ZM389.682 65H388.954V58.238H389.682V65ZM392.676 65H391.948V55.662H392.676V65Z" fill="#1F1F1F"/>
<path d="M268.278 44H266.64V40.122L263.014 34.662H264.89L267.466 38.666L270.014 34.662H271.89L268.278 40.122V44Z" fill="#1F1F1F"/>
<path d="M480.96 42H480.162V32.662H483.662C484.53 32.662 485.216 32.928 485.72 33.46C486.224 33.9827 486.476 34.6267 486.476 35.392C486.476 36.1573 486.219 36.806 485.706 37.338C485.202 37.8607 484.521 38.122 483.662 38.122H480.96V42ZM483.578 37.394C484.194 37.394 484.689 37.2073 485.062 36.834C485.445 36.4607 485.636 35.98 485.636 35.392C485.636 34.804 485.445 34.3233 485.062 33.95C484.689 33.5767 484.194 33.39 483.578 33.39H480.96V37.394H483.578ZM488.86 42H488.132V35.238H488.86V36.4C489.523 35.532 490.283 35.098 491.142 35.098V35.896C491.058 35.8773 490.937 35.868 490.778 35.868C490.442 35.868 490.078 35.994 489.686 36.246C489.294 36.498 489.019 36.7733 488.86 37.072V42ZM495.431 42.168C494.461 42.168 493.677 41.8273 493.079 41.146C492.482 40.4647 492.183 39.62 492.183 38.612C492.183 37.604 492.482 36.764 493.079 36.092C493.677 35.4107 494.461 35.07 495.431 35.07C496.411 35.07 497.2 35.4107 497.797 36.092C498.395 36.764 498.693 37.604 498.693 38.612C498.693 39.62 498.395 40.4647 497.797 41.146C497.2 41.8273 496.411 42.168 495.431 42.168ZM495.431 41.51C496.197 41.51 496.799 41.23 497.237 40.67C497.685 40.1007 497.909 39.4147 497.909 38.612C497.909 37.8187 497.685 37.142 497.237 36.582C496.799 36.0127 496.197 35.728 495.431 35.728C494.675 35.728 494.073 36.0127 493.625 36.582C493.187 37.142 492.967 37.8187 492.967 38.612C492.967 39.4053 493.187 40.0867 493.625 40.656C494.073 41.2253 494.675 41.51 495.431 41.51ZM509.351 42H508.623V37.268C508.623 36.2413 508.171 35.728 507.265 35.728C506.911 35.728 506.547 35.84 506.173 36.064C505.809 36.288 505.529 36.5587 505.333 36.876V42H504.591V37.268C504.591 36.2413 504.139 35.728 503.233 35.728C502.888 35.728 502.533 35.8447 502.169 36.078C501.805 36.302 501.516 36.5727 501.301 36.89V42H500.573V35.238H501.301V36.26C501.469 35.9893 501.763 35.7233 502.183 35.462C502.613 35.2007 503.047 35.07 503.485 35.07C503.98 35.07 504.377 35.1913 504.675 35.434C504.974 35.6767 505.17 35.98 505.263 36.344C505.469 36.008 505.781 35.714 506.201 35.462C506.621 35.2007 507.055 35.07 507.503 35.07C508.735 35.07 509.351 35.756 509.351 37.128V42ZM514.476 42.168C513.506 42.168 512.722 41.8273 512.124 41.146C511.527 40.4647 511.228 39.62 511.228 38.612C511.228 37.604 511.527 36.764 512.124 36.092C512.722 35.4107 513.506 35.07 514.476 35.07C515.456 35.07 516.245 35.4107 516.842 36.092C517.44 36.764 517.738 37.604 517.738 38.612C517.738 39.62 517.44 40.4647 516.842 41.146C516.245 41.8273 515.456 42.168 514.476 42.168ZM514.476 41.51C515.242 41.51 515.844 41.23 516.282 40.67C516.73 40.1007 516.954 39.4147 516.954 38.612C516.954 37.8187 516.73 37.142 516.282 36.582C515.844 36.0127 515.242 35.728 514.476 35.728C513.72 35.728 513.118 36.0127 512.67 36.582C512.232 37.142 512.012 37.8187 512.012 38.612C512.012 39.4053 512.232 40.0867 512.67 40.656C513.118 41.2253 513.72 41.51 514.476 41.51ZM521.088 42.168C520.202 42.168 519.758 41.678 519.758 40.698V35.882H518.638V35.238H519.758V33.39H520.5V35.238H521.872V35.882H520.5V40.586C520.5 41.202 520.734 41.51 521.2 41.51C521.508 41.51 521.76 41.4027 521.956 41.188L522.236 41.748C521.938 42.028 521.555 42.168 521.088 42.168ZM526.47 42.168C525.481 42.168 524.669 41.8367 524.034 41.174C523.399 40.5113 523.082 39.6573 523.082 38.612C523.082 37.6227 523.39 36.7873 524.006 36.106C524.631 35.4153 525.411 35.07 526.344 35.07C527.333 35.07 528.113 35.4153 528.682 36.106C529.251 36.7873 529.536 37.6367 529.536 38.654V38.85H523.88C523.917 39.6153 524.174 40.2547 524.65 40.768C525.126 41.2813 525.751 41.538 526.526 41.538C527.422 41.538 528.159 41.2253 528.738 40.6L529.116 41.076C528.416 41.804 527.534 42.168 526.47 42.168ZM528.794 38.276C528.785 37.6227 528.565 37.03 528.136 36.498C527.716 35.966 527.114 35.7 526.33 35.7C525.593 35.7 525.005 35.966 524.566 36.498C524.137 37.0207 523.908 37.6133 523.88 38.276H528.794ZM481.604 65.168C480.717 65.168 480.274 64.678 480.274 63.698V58.882H479.154V58.238H480.274V56.39H481.016V58.238H482.388V58.882H481.016V63.586C481.016 64.202 481.249 64.51 481.716 64.51C482.024 64.51 482.276 64.4027 482.472 64.188L482.752 64.748C482.453 65.028 482.071 65.168 481.604 65.168ZM486.845 65.168C485.875 65.168 485.091 64.8273 484.493 64.146C483.896 63.4647 483.597 62.62 483.597 61.612C483.597 60.604 483.896 59.764 484.493 59.092C485.091 58.4107 485.875 58.07 486.845 58.07C487.825 58.07 488.614 58.4107 489.211 59.092C489.809 59.764 490.107 60.604 490.107 61.612C490.107 62.62 489.809 63.4647 489.211 64.146C488.614 64.8273 487.825 65.168 486.845 65.168ZM486.845 64.51C487.611 64.51 488.213 64.23 488.651 63.67C489.099 63.1007 489.323 62.4147 489.323 61.612C489.323 60.8187 489.099 60.142 488.651 59.582C488.213 59.0127 487.611 58.728 486.845 58.728C486.089 58.728 485.487 59.0127 485.039 59.582C484.601 60.142 484.381 60.8187 484.381 61.612C484.381 62.4053 484.601 63.0867 485.039 63.656C485.487 64.2253 486.089 64.51 486.845 64.51ZM498.537 65.168C497.071 65.168 495.933 64.6733 495.121 63.684L495.639 63.082C496.413 63.9873 497.384 64.44 498.551 64.44C499.419 64.44 500.044 64.2533 500.427 63.88C500.819 63.4973 501.015 63.0633 501.015 62.578C501.015 62.2047 500.912 61.892 500.707 61.64C500.501 61.3787 500.231 61.178 499.895 61.038C499.568 60.898 499.204 60.772 498.803 60.66C498.411 60.548 498.014 60.4313 497.613 60.31C497.221 60.1793 496.857 60.03 496.521 59.862C496.194 59.6847 495.928 59.442 495.723 59.134C495.517 58.8167 495.415 58.4387 495.415 58C495.415 57.2533 495.709 56.6513 496.297 56.194C496.885 55.7367 497.613 55.508 498.481 55.508C499.815 55.508 500.87 55.9467 501.645 56.824L501.113 57.412C500.459 56.628 499.568 56.236 498.439 56.236C497.813 56.236 497.291 56.3993 496.871 56.726C496.46 57.0433 496.255 57.454 496.255 57.958C496.255 58.2753 496.357 58.5507 496.563 58.784C496.768 59.008 497.034 59.1853 497.361 59.316C497.697 59.4373 498.061 59.554 498.453 59.666C498.854 59.7687 499.251 59.89 499.643 60.03C500.044 60.1607 500.408 60.3193 500.735 60.506C501.071 60.6927 501.341 60.9587 501.547 61.304C501.752 61.64 501.855 62.046 501.855 62.522C501.855 63.2313 501.589 63.852 501.057 64.384C500.525 64.9067 499.685 65.168 498.537 65.168ZM504.956 65.168C504.069 65.168 503.626 64.678 503.626 63.698V58.882H502.506V58.238H503.626V56.39H504.368V58.238H505.74V58.882H504.368V63.586C504.368 64.202 504.601 64.51 505.068 64.51C505.376 64.51 505.628 64.4027 505.824 64.188L506.104 64.748C505.805 65.028 505.422 65.168 504.956 65.168ZM512.367 65H511.639V64.202C511.051 64.846 510.286 65.168 509.343 65.168C508.718 65.168 508.167 64.9673 507.691 64.566C507.215 64.1553 506.977 63.6047 506.977 62.914C506.977 62.214 507.21 61.668 507.677 61.276C508.153 60.8747 508.708 60.674 509.343 60.674C510.295 60.674 511.06 60.996 511.639 61.64V60.268C511.639 59.7827 511.466 59.4047 511.121 59.134C510.776 58.854 510.342 58.714 509.819 58.714C508.988 58.714 508.284 59.0453 507.705 59.708L507.299 59.204C507.999 58.448 508.867 58.07 509.903 58.07C510.631 58.07 511.224 58.252 511.681 58.616C512.138 58.98 512.367 59.5213 512.367 60.24V65ZM509.595 64.594C510.482 64.594 511.163 64.286 511.639 63.67V62.186C511.154 61.5607 510.472 61.248 509.595 61.248C509.044 61.248 508.596 61.4067 508.251 61.724C507.915 62.0413 507.747 62.4427 507.747 62.928C507.747 63.4133 507.915 63.8147 508.251 64.132C508.596 64.44 509.044 64.594 509.595 64.594ZM515.37 65H514.642V58.238H515.37V59.4C516.032 58.532 516.793 58.098 517.652 58.098V58.896C517.568 58.8773 517.446 58.868 517.288 58.868C516.952 58.868 516.588 58.994 516.196 59.246C515.804 59.498 515.528 59.7733 515.37 60.072V65ZM520.555 65.168C519.669 65.168 519.225 64.678 519.225 63.698V58.882H518.105V58.238H519.225V56.39H519.967V58.238H521.339V58.882H519.967V63.586C519.967 64.202 520.201 64.51 520.667 64.51C520.975 64.51 521.227 64.4027 521.423 64.188L521.703 64.748C521.405 65.028 521.022 65.168 520.555 65.168ZM528.233 65H527.505V64.006C527.197 64.342 526.828 64.622 526.399 64.846C525.969 65.0607 525.526 65.168 525.069 65.168C524.359 65.168 523.827 64.9953 523.473 64.65C523.118 64.2953 522.941 63.7447 522.941 62.998V58.238H523.669V62.83C523.669 63.4553 523.809 63.894 524.089 64.146C524.369 64.3887 524.775 64.51 525.307 64.51C525.727 64.51 526.137 64.4027 526.539 64.188C526.949 63.9733 527.271 63.7073 527.505 63.39V58.238H528.233V65ZM533.581 65.168C532.611 65.168 531.827 64.748 531.229 63.908V67.576H530.501V58.238H531.229V59.302C531.481 58.938 531.813 58.644 532.223 58.42C532.643 58.1867 533.096 58.07 533.581 58.07C534.487 58.07 535.215 58.392 535.765 59.036C536.325 59.6707 536.605 60.5293 536.605 61.612C536.605 62.6853 536.325 63.5487 535.765 64.202C535.215 64.846 534.487 65.168 533.581 65.168ZM533.455 64.51C534.193 64.51 534.771 64.2393 535.191 63.698C535.611 63.1567 535.821 62.4613 535.821 61.612C535.821 60.772 535.611 60.0813 535.191 59.54C534.771 58.9987 534.193 58.728 533.455 58.728C532.998 58.728 532.564 58.8447 532.153 59.078C531.743 59.3113 531.435 59.596 531.229 59.932V63.278C531.435 63.614 531.743 63.9033 532.153 64.146C532.573 64.3887 533.007 64.51 533.455 64.51ZM540.461 65.168C539.369 65.168 538.501 64.8133 537.857 64.104L538.291 63.558C538.524 63.8473 538.832 64.0853 539.215 64.272C539.597 64.4587 540.017 64.552 540.475 64.552C541.025 64.552 541.464 64.426 541.791 64.174C542.117 63.9127 542.281 63.5813 542.281 63.18C542.281 62.844 542.131 62.578 541.833 62.382C541.543 62.1767 541.189 62.0273 540.769 61.934C540.358 61.8313 539.943 61.724 539.523 61.612C539.103 61.4907 538.743 61.2947 538.445 61.024C538.155 60.7533 538.011 60.394 538.011 59.946C538.011 59.414 538.225 58.9707 538.655 58.616C539.093 58.252 539.681 58.07 540.419 58.07C541.436 58.07 542.243 58.4013 542.841 59.064L542.435 59.582C541.996 58.9847 541.324 58.686 540.419 58.686C539.905 58.686 539.495 58.8027 539.187 59.036C538.879 59.2693 538.725 59.5633 538.725 59.918C538.725 60.226 538.869 60.4687 539.159 60.646C539.457 60.8233 539.812 60.9633 540.223 61.066C540.643 61.1593 541.063 61.2667 541.483 61.388C541.903 61.5093 542.257 61.7193 542.547 62.018C542.845 62.3167 542.995 62.704 542.995 63.18C542.995 63.7587 542.775 64.2347 542.337 64.608C541.898 64.9813 541.273 65.168 540.461 65.168Z" fill="#1F1F1F"/>
<path d="M143.354 49.3536C143.549 49.1583 143.549 48.8417 143.354 48.6464L140.172 45.4645C139.976 45.2692 139.66 45.2692 139.464 45.4645C139.269 45.6597 139.269 45.9763 139.464 46.1716L142.293 49L139.464 51.8284C139.269 52.0237 139.269 52.3403 139.464 52.5355C139.66 52.7308 139.976 52.7308 140.172 52.5355L143.354 49.3536ZM110 49.5L143 49.5L143 48.5L110 48.5L110 49.5Z" fill="#222F3E"/>
<path d="M285.354 49.3536C285.549 49.1583 285.549 48.8417 285.354 48.6464L282.172 45.4645C281.976 45.2692 281.66 45.2692 281.464 45.4645C281.269 45.6597 281.269 45.9763 281.464 46.1716L284.293 49L281.464 51.8284C281.269 52.0237 281.269 52.3403 281.464 52.5355C281.66 52.7308 281.976 52.7308 282.172 52.5355L285.354 49.3536ZM252 49.5L285 49.5L285 48.5L252 48.5L252 49.5Z" fill="#222F3E"/>
<path d="M455.354 49.3536C455.549 49.1583 455.549 48.8417 455.354 48.6464L452.172 45.4645C451.976 45.2692 451.66 45.2692 451.464 45.4645C451.269 45.6597 451.269 45.9763 451.464 46.1716L454.293 49L451.464 51.8284C451.269 52.0237 451.269 52.3403 451.464 52.5355C451.66 52.7308 451.976 52.7308 452.172 52.5355L455.354 49.3536ZM422 49.5L455 49.5L455 48.5L422 48.5L422 49.5Z" fill="#222F3E"/>
<rect x="148.707" y="50.2623" width="70.0815" height="67.9257" transform="rotate(-45 148.707 50.2623)" fill="#222F3E" stroke="#222F3E"/>
<path d="M173.848 53.1595H172.924L172 50.8635H167.058L166.134 53.1595H165.21L169.032 43.8215H170.026L173.848 53.1595ZM171.734 50.1355L169.522 44.6755L167.324 50.1355H171.734ZM178.278 53.3275C177.308 53.3275 176.524 52.9075 175.926 52.0675V55.7355H175.198V46.3975H175.926V47.4615C176.178 47.0975 176.51 46.8035 176.92 46.5795C177.34 46.3462 177.793 46.2295 178.278 46.2295C179.184 46.2295 179.912 46.5515 180.462 47.1955C181.022 47.8302 181.302 48.6889 181.302 49.7715C181.302 50.8449 181.022 51.7082 180.462 52.3615C179.912 53.0055 179.184 53.3275 178.278 53.3275ZM178.152 52.6695C178.89 52.6695 179.468 52.3989 179.888 51.8575C180.308 51.3162 180.518 50.6209 180.518 49.7715C180.518 48.9315 180.308 48.2409 179.888 47.6995C179.468 47.1582 178.89 46.8875 178.152 46.8875C177.695 46.8875 177.261 47.0042 176.85 47.2375C176.44 47.4709 176.132 47.7555 175.926 48.0915V51.4375C176.132 51.7735 176.44 52.0629 176.85 52.3055C177.27 52.5482 177.704 52.6695 178.152 52.6695ZM186.222 53.3275C185.251 53.3275 184.467 52.9075 183.87 52.0675V55.7355H183.142V46.3975H183.87V47.4615C184.122 47.0975 184.453 46.8035 184.864 46.5795C185.284 46.3462 185.736 46.2295 186.222 46.2295C187.127 46.2295 187.855 46.5515 188.406 47.1955C188.966 47.8302 189.246 48.6889 189.246 49.7715C189.246 50.8449 188.966 51.7082 188.406 52.3615C187.855 53.0055 187.127 53.3275 186.222 53.3275ZM186.096 52.6695C186.833 52.6695 187.412 52.3989 187.832 51.8575C188.252 51.3162 188.462 50.6209 188.462 49.7715C188.462 48.9315 188.252 48.2409 187.832 47.6995C187.412 47.1582 186.833 46.8875 186.096 46.8875C185.638 46.8875 185.204 47.0042 184.794 47.2375C184.383 47.4709 184.075 47.7555 183.87 48.0915V51.4375C184.075 51.7735 184.383 52.0629 184.794 52.3055C185.214 52.5482 185.648 52.6695 186.096 52.6695ZM191.813 53.1595H191.085V46.3975H191.813V47.5595C192.476 46.6915 193.237 46.2575 194.095 46.2575V47.0555C194.011 47.0369 193.89 47.0275 193.731 47.0275C193.395 47.0275 193.031 47.1535 192.639 47.4055C192.247 47.6575 191.972 47.9329 191.813 48.2315V53.1595ZM198.385 53.3275C197.414 53.3275 196.63 52.9869 196.033 52.3055C195.435 51.6242 195.137 50.7795 195.137 49.7715C195.137 48.7635 195.435 47.9235 196.033 47.2515C196.63 46.5702 197.414 46.2295 198.385 46.2295C199.365 46.2295 200.153 46.5702 200.751 47.2515C201.348 47.9235 201.647 48.7635 201.647 49.7715C201.647 50.7795 201.348 51.6242 200.751 52.3055C200.153 52.9869 199.365 53.3275 198.385 53.3275ZM198.385 52.6695C199.15 52.6695 199.752 52.3895 200.191 51.8295C200.639 51.2602 200.863 50.5742 200.863 49.7715C200.863 48.9782 200.639 48.3015 200.191 47.7415C199.752 47.1722 199.15 46.8875 198.385 46.8875C197.629 46.8875 197.027 47.1722 196.579 47.7415C196.14 48.3015 195.921 48.9782 195.921 49.7715C195.921 50.5649 196.14 51.2462 196.579 51.8155C197.027 52.3849 197.629 52.6695 198.385 52.6695ZM206.173 53.1595H205.347L202.491 46.3975H203.303L205.767 52.3055L208.203 46.3975H209.029L206.173 53.1595ZM213.263 53.3275C212.273 53.3275 211.461 52.9962 210.827 52.3335C210.192 51.6709 209.875 50.8169 209.875 49.7715C209.875 48.7822 210.183 47.9469 210.799 47.2655C211.424 46.5749 212.203 46.2295 213.137 46.2295C214.126 46.2295 214.905 46.5749 215.475 47.2655C216.044 47.9469 216.329 48.7962 216.329 49.8135V50.0095H210.673C210.71 50.7749 210.967 51.4142 211.443 51.9275C211.919 52.4409 212.544 52.6975 213.319 52.6975C214.215 52.6975 214.952 52.3849 215.531 51.7595L215.909 52.2355C215.209 52.9635 214.327 53.3275 213.263 53.3275ZM215.587 49.4355C215.577 48.7822 215.358 48.1895 214.929 47.6575C214.509 47.1255 213.907 46.8595 213.123 46.8595C212.385 46.8595 211.797 47.1255 211.359 47.6575C210.929 48.1802 210.701 48.7729 210.673 49.4355H215.587ZM223.936 53.1595H223.194V52.0815C222.942 52.4455 222.606 52.7442 222.186 52.9775C221.776 53.2109 221.328 53.3275 220.842 53.3275C219.937 53.3275 219.204 53.0055 218.644 52.3615C218.094 51.7175 217.818 50.8589 217.818 49.7855C217.818 48.7215 218.098 47.8629 218.658 47.2095C219.218 46.5562 219.946 46.2295 220.842 46.2295C221.813 46.2295 222.597 46.6495 223.194 47.4895V43.8215H223.936V53.1595ZM220.968 52.6695C221.426 52.6695 221.86 52.5529 222.27 52.3195C222.681 52.0862 222.989 51.8015 223.194 51.4655V48.1195C222.989 47.7742 222.681 47.4849 222.27 47.2515C221.86 47.0089 221.426 46.8875 220.968 46.8875C220.24 46.8875 219.662 47.1629 219.232 47.7135C218.812 48.2549 218.602 48.9455 218.602 49.7855C218.602 50.6255 218.812 51.3162 219.232 51.8575C219.662 52.3989 220.24 52.6695 220.968 52.6695ZM228.07 50.6955C227.688 50.3782 227.496 50.0095 227.496 49.5895C227.496 49.2535 227.59 48.9502 227.776 48.6795C227.963 48.4089 228.187 48.1802 228.448 47.9935C228.719 47.8069 228.99 47.6249 229.26 47.4475C229.531 47.2609 229.76 47.0415 229.946 46.7895C230.133 46.5282 230.226 46.2389 230.226 45.9215C230.226 45.4922 230.058 45.1329 229.722 44.8435C229.396 44.5542 228.938 44.4095 228.35 44.4095C227.333 44.4095 226.512 44.8295 225.886 45.6695L225.382 45.1515C226.101 44.1715 227.104 43.6815 228.392 43.6815C229.204 43.6815 229.853 43.8915 230.338 44.3115C230.824 44.7222 231.066 45.2309 231.066 45.8375C231.066 46.2295 230.968 46.5842 230.772 46.9015C230.576 47.2189 230.338 47.4802 230.058 47.6855C229.778 47.8909 229.498 48.0869 229.218 48.2735C228.938 48.4509 228.7 48.6562 228.504 48.8895C228.308 49.1135 228.21 49.3609 228.21 49.6315C228.21 49.9022 228.35 50.1402 228.63 50.3455L228.07 50.6955ZM228.63 53.1175C228.509 53.2389 228.364 53.2995 228.196 53.2995C228.028 53.2995 227.884 53.2389 227.762 53.1175C227.641 52.9869 227.58 52.8375 227.58 52.6695C227.58 52.5109 227.641 52.3709 227.762 52.2495C227.884 52.1282 228.028 52.0675 228.196 52.0675C228.364 52.0675 228.509 52.1282 228.63 52.2495C228.752 52.3709 228.812 52.5109 228.812 52.6695C228.812 52.8375 228.752 52.9869 228.63 53.1175Z" fill="white"/>
</svg>
